<svg viewBox="-245.6517490081779 -826.8018757833138 330.17540135631776 826.8018757833138" xmlns="http://www.w3.org/2000/svg"><line x1="0.0" y1="0.0" x2="-1.8369701987210297E-14" y2="-100.0" stroke-width="5" stroke="black"/><line x1="-1.8369701987210297E-14" y1="-100.0" x2="-3.6739403974420595E-14" y2="-200.0" stroke-width="5" stroke="black"/><line x1="-3.6739403974420595E-14" y1="-200.0" x2="-3.6739403974420595E-14" y2="-200.0" stroke-width="5" stroke="black"/><line x1="-3.6739403974420595E-14" y1="-200.0" x2="-3.6739403974420595E-14" y2="-200.0" stroke-width="5" stroke="black"/><line x1="-3.6739403974420595E-14" y1="-200.0" x2="-3.6739403974420595E-14" y2="-200.0" stroke-width="5" stroke="black"/><line x1="-3.6739403974420595E-14" y1="-200.0" x2="42.261826174069924" y2="-290.630778703665" stroke-width="5" stroke="black"/><line x1="42.261826174069924" y1="-290.630778703665" x2="42.261826174069924" y2="-290.630778703665" stroke-width="5" stroke="black"/><line x1="42.261826174069924" y1="-290.630778703665" x2="42.261826174069924" y2="-290.630778703665" stroke-width="5" stroke="black"/><line x1="42.261826174069924" y1="-290.630778703665" x2="42.261826174069924" y2="-290.630778703665" stroke-width="5" stroke="black"/><line x1="42.261826174069924" y1="-290.630778703665" x2="42.261826174069924" y2="-290.630778703665" stroke-width="5" stroke="black"/><line x1="42.261826174069924" y1="-290.630778703665" x2="84.52365234813988" y2="-381.26155740733" stroke-width="5" stroke="black"/><line x1="84.52365234813988" y1="-381.26155740733" x2="84.52365234813988" y2="-381.26155740733" stroke-width="5" stroke="black"/><line x1="84.52365234813988" y1="-381.26155740733" x2="84.52365234813988" y2="-381.26155740733" stroke-width="5" stroke="black"/><line x1="84.52365234813988" y1="-381.26155740733" x2="84.52365234813986" y2="-481.26155740733" stroke-width="5" stroke="black"/><line x1="84.52365234813986" y1="-481.26155740733" x2="84.52365234813986" y2="-481.26155740733" stroke-width="5" stroke="black"/><line x1="-3.6739403974420595E-14" y1="-200.0" x2="-5.510910596163089E-14" y2="-300.0" stroke-width="5" stroke="black"/><line x1="-5.510910596163089E-14" y1="-300.0" x2="-5.510910596163089E-14" y2="-300.0" stroke-width="5" stroke="black"/><line x1="-5.510910596163089E-14" y1="-300.0" x2="-5.510910596163089E-14" y2="-300.0" stroke-width="5" stroke="black"/><line x1="-5.510910596163089E-14" y1="-300.0" x2="-5.510910596163089E-14" y2="-300.0" stroke-width="5" stroke="black"/><line x1="-5.510910596163089E-14" y1="-300.0" x2="-5.510910596163089E-14" y2="-300.0" stroke-width="5" stroke="black"/><line x1="-5.510910596163089E-14" y1="-300.0" x2="-7.347880794884119E-14" y2="-400.0" stroke-width="5" stroke="black"/><line x1="-7.347880794884119E-14" y1="-400.0" x2="-7.347880794884119E-14" y2="-400.0" stroke-width="5" stroke="black"/><line x1="-7.347880794884119E-14" y1="-400.0" x2="-7.347880794884119E-14" y2="-400.0" stroke-width="5" stroke="black"/><line x1="-7.347880794884119E-14" y1="-400.0" x2="-42.261826174070066" y2="-490.630778703665" stroke-width="5" stroke="black"/><line x1="-42.261826174070066" y1="-490.630778703665" x2="-42.261826174070066" y2="-490.630778703665" stroke-width="5" stroke="black"/><line x1="-3.6739403974420595E-14" y1="-200.0" x2="-5.510910596163089E-14" y2="-300.0" stroke-width="5" stroke="black"/><line x1="-5.510910596163089E-14" y1="-300.0" x2="-7.347880794884119E-14" y2="-400.0" stroke-width="5" stroke="black"/><line x1="-7.347880794884119E-14" y1="-400.0" x2="-7.347880794884119E-14" y2="-400.0" stroke-width="5" stroke="black"/><line x1="-7.347880794884119E-14" y1="-400.0" x2="-7.347880794884119E-14" y2="-400.0" stroke-width="5" stroke="black"/><line x1="-7.347880794884119E-14" y1="-400.0" x2="-42.261826174070066" y2="-490.630778703665" stroke-width="5" stroke="black"/><line x1="-42.261826174070066" y1="-490.630778703665" x2="-84.52365234814006" y2="-581.26155740733" stroke-width="5" stroke="black"/><line x1="-84.52365234814006" y1="-581.26155740733" x2="-126.78547852221006" y2="-671.892336110995" stroke-width="5" stroke="black"/><line x1="-126.78547852221006" y1="-671.892336110995" x2="-126.78547852221006" y2="-671.892336110995" stroke-width="5" stroke="black"/><line x1="-126.78547852221006" y1="-671.892336110995" x2="-126.78547852221006" y2="-671.892336110995" stroke-width="5" stroke="black"/><line x1="-126.78547852221006" y1="-671.892336110995" x2="-126.78547852221006" y2="-671.892336110995" stroke-width="5" stroke="black"/><line x1="-126.78547852221006" y1="-671.892336110995" x2="-126.78547852221006" y2="-671.892336110995" stroke-width="5" stroke="black"/><line x1="-126.78547852221006" y1="-671.892336110995" x2="-169.04730469628004" y2="-762.52311481466" stroke-width="5" stroke="black"/><line x1="-169.04730469628004" y1="-762.52311481466" x2="-169.04730469628004" y2="-762.52311481466" stroke-width="5" stroke="black"/><line x1="-169.04730469628004" y1="-762.52311481466" x2="-169.04730469628004" y2="-762.52311481466" stroke-width="5" stroke="black"/><line x1="-169.04730469628004" y1="-762.52311481466" x2="-245.6517490081779" y2="-826.8018757833138" stroke-width="5" stroke="black"/><line x1="-245.6517490081779" y1="-826.8018757833138" x2="-245.6517490081779" y2="-826.8018757833138" stroke-width="5" stroke="black"/><line x1="-7.347880794884119E-14" y1="-400.0" x2="42.26182617406989" y2="-490.630778703665" stroke-width="5" stroke="black"/><line x1="42.26182617406989" y1="-490.630778703665" x2="42.26182617406989" y2="-490.630778703665" stroke-width="5" stroke="black"/><line x1="42.26182617406989" y1="-490.630778703665" x2="42.26182617406989" y2="-490.630778703665" stroke-width="5" stroke="black"/><line x1="42.26182617406989" y1="-490.630778703665" x2="42.26182617406989" y2="-490.630778703665" stroke-width="5" stroke="black"/><line x1="42.26182617406989" y1="-490.630778703665" x2="42.26182617406989" y2="-490.630778703665" stroke-width="5" stroke="black"/><line x1="42.26182617406989" y1="-490.630778703665" x2="84.52365234813985" y2="-581.26155740733" stroke-width="5" stroke="black"/><line x1="84.52365234813985" y1="-581.26155740733" x2="84.52365234813985" y2="-581.26155740733" stroke-width="5" stroke="black"/><line x1="84.52365234813985" y1="-581.26155740733" x2="84.52365234813985" y2="-581.26155740733" stroke-width="5" stroke="black"/><line x1="84.52365234813985" y1="-581.26155740733" x2="84.52365234813983" y2="-681.26155740733" stroke-width="5" stroke="black"/><line x1="84.52365234813983" y1="-681.26155740733" x2="84.52365234813983" y2="-681.26155740733" stroke-width="5" stroke="black"/></svg>