<svg viewBox="-3.6451801949414575 -18.156770083329842 11.056229887632037 18.156770083329842" xmlns="http://www.w3.org/2000/svg"><line x1="0.0" y1="0.0" x2="-1.8369701987210297E-16" y2="-1.0" stroke-width="0.1" stroke="black"/><line x1="-1.8369701987210297E-16" y1="-1.0" x2="-3.6739403974420594E-16" y2="-2.0" stroke-width="0.1" stroke="black"/><line x1="-3.6739403974420594E-16" y1="-2.0" x2="-5.51091059616309E-16" y2="-3.0" stroke-width="0.1" stroke="black"/><line x1="-5.51091059616309E-16" y1="-3.0" x2="-7.347880794884119E-16" y2="-4.0" stroke-width="0.1" stroke="black"/><line x1="-7.347880794884119E-16" y1="-4.0" x2="-7.347880794884119E-16" y2="-4.0" stroke-width="0.1" stroke="black"/><line x1="-7.347880794884119E-16" y1="-4.0" x2="-7.347880794884119E-16" y2="-4.0" stroke-width="0.1" stroke="black"/><line x1="-7.347880794884119E-16" y1="-4.0" x2="-7.347880794884119E-16" y2="-4.0" stroke-width="0.1" stroke="black"/><line x1="-7.347880794884119E-16" y1="-4.0" x2="-0.42261826174070066" y2="-4.90630778703665" stroke-width="0.1" stroke="black"/><line x1="-0.42261826174070066" y1="-4.90630778703665" x2="-0.8452365234814005" y2="-5.8126155740733" stroke-width="0.1" stroke="black"/><line x1="-0.8452365234814005" y1="-5.8126155740733" x2="-0.8452365234814005" y2="-5.8126155740733" stroke-width="0.1" stroke="black"/><line x1="-0.8452365234814005" y1="-5.8126155740733" x2="-0.8452365234814005" y2="-5.8126155740733" stroke-width="0.1" stroke="black"/><line x1="-0.8452365234814005" y1="-5.8126155740733" x2="-0.8452365234814005" y2="-5.8126155740733" stroke-width="0.1" stroke="black"/><line x1="-0.8452365234814005" y1="-5.8126155740733" x2="-1.611280966600379" y2="-6.455403183759839" stroke-width="0.1" stroke="black"/><line x1="-1.611280966600379" y1="-6.455403183759839" x2="-1.611280966600379" y2="-6.455403183759839" stroke-width="0.1" stroke="black"/><line x1="-1.611280966600379" y1="-6.455403183759839" x2="-1.611280966600379" y2="-6.455403183759839" stroke-width="0.1" stroke="black"/><line x1="-1.611280966600379" y1="-6.455403183759839" x2="-1.611280966600379" y2="-6.455403183759839" stroke-width="0.1" stroke="black"/><line x1="-1.611280966600379" y1="-6.455403183759839" x2="-1.611280966600379" y2="-6.455403183759839" stroke-width="0.1" stroke="black"/><line x1="-1.611280966600379" y1="-6.455403183759839" x2="-1.611280966600379" y2="-6.455403183759839" stroke-width="0.1" stroke="black"/><line x1="-1.611280966600379" y1="-6.455403183759839" x2="-1.611280966600379" y2="-6.455403183759839" stroke-width="0.1" stroke="black"/><line x1="-1.611280966600379" y1="-6.455403183759839" x2="-1.611280966600379" y2="-6.455403183759839" stroke-width="0.1" stroke="black"/><line x1="-1.611280966600379" y1="-6.455403183759839" x2="-1.611280966600379" y2="-6.455403183759839" stroke-width="0.1" stroke="black"/><line x1="-1.611280966600379" y1="-6.455403183759839" x2="-1.611280966600379" y2="-6.455403183759839" stroke-width="0.1" stroke="black"/><line x1="-1.611280966600379" y1="-6.455403183759839" x2="-2.377325409719357" y2="-7.098190793446378" stroke-width="0.1" stroke="black"/><line x1="-2.377325409719357" y1="-7.098190793446378" x2="-2.377325409719357" y2="-7.098190793446378" stroke-width="0.1" stroke="black"/><line x1="-2.377325409719357" y1="-7.098190793446378" x2="-2.377325409719357" y2="-7.098190793446378" stroke-width="0.1" stroke="black"/><line x1="-2.377325409719357" y1="-7.098190793446378" x2="-2.799943671460057" y2="-8.004498580483027" stroke-width="0.1" stroke="black"/><line x1="-2.799943671460057" y1="-8.004498580483027" x2="-2.799943671460057" y2="-8.004498580483027" stroke-width="0.1" stroke="black"/><line x1="-2.799943671460057" y1="-8.004498580483027" x2="-2.377325409719357" y2="-7.098190793446378" stroke-width="0.1" stroke="black"/><line x1="-2.377325409719357" y1="-7.098190793446378" x2="-2.377325409719357" y2="-7.098190793446378" stroke-width="0.1" stroke="black"/><line x1="-2.377325409719357" y1="-7.098190793446378" x2="-2.377325409719357" y2="-7.098190793446378" stroke-width="0.1" stroke="black"/><line x1="-2.377325409719357" y1="-7.098190793446378" x2="-0.8452365234814005" y2="-5.8126155740733" stroke-width="0.1" stroke="black"/><line x1="-0.8452365234814005" y1="-5.8126155740733" x2="-0.8452365234814005" y2="-5.8126155740733" stroke-width="0.1" stroke="black"/><line x1="-0.8452365234814005" y1="-5.8126155740733" x2="-1.2678547852221005" y2="-6.71892336110995" stroke-width="0.1" stroke="black"/><line x1="-1.2678547852221005" y1="-6.71892336110995" x2="-1.2678547852221005" y2="-6.71892336110995" stroke-width="0.1" stroke="black"/><line x1="-1.2678547852221005" y1="-6.71892336110995" x2="-1.2678547852221005" y2="-6.71892336110995" stroke-width="0.1" stroke="black"/><line x1="-1.2678547852221005" y1="-6.71892336110995" x2="-1.2678547852221005" y2="-6.71892336110995" stroke-width="0.1" stroke="black"/><line x1="-1.2678547852221005" y1="-6.71892336110995" x2="-1.2678547852221005" y2="-6.71892336110995" stroke-width="0.1" stroke="black"/><line x1="-1.2678547852221005" y1="-6.71892336110995" x2="-1.2678547852221005" y2="-6.71892336110995" stroke-width="0.1" stroke="black"/><line x1="-1.2678547852221005" y1="-6.71892336110995" x2="-1.2678547852221005" y2="-6.71892336110995" stroke-width="0.1" stroke="black"/><line x1="-1.2678547852221005" y1="-6.71892336110995" x2="-1.2678547852221005" y2="-6.71892336110995" stroke-width="0.1" stroke="black"/><line x1="-1.2678547852221005" y1="-6.71892336110995" x2="-1.2678547852221005" y2="-6.71892336110995" stroke-width="0.1" stroke="black"/><line x1="-1.2678547852221005" y1="-6.71892336110995" x2="-1.2678547852221005" y2="-6.71892336110995" stroke-width="0.1" stroke="black"/><line x1="-1.2678547852221005" y1="-6.71892336110995" x2="-1.6904730469628004" y2="-7.6252311481466" stroke-width="0.1" stroke="black"/><line x1="-1.6904730469628004" y1="-7.6252311481466" x2="-1.6904730469628004" y2="-7.6252311481466" stroke-width="0.1" stroke="black"/><line x1="-1.6904730469628004" y1="-7.6252311481466" x2="-1.6904730469628004" y2="-7.6252311481466" stroke-width="0.1" stroke="black"/><line x1="-1.6904730469628004" y1="-7.6252311481466" x2="-1.6904730469628007" y2="-8.6252311481466" stroke-width="0.1" stroke="black"/><line x1="-1.6904730469628007" y1="-8.6252311481466" x2="-1.6904730469628007" y2="-8.6252311481466" stroke-width="0.1" stroke="black"/><line x1="-1.6904730469628007" y1="-8.6252311481466" x2="-1.6904730469628004" y2="-7.6252311481466" stroke-width="0.1" stroke="black"/><line x1="-1.6904730469628004" y1="-7.6252311481466" x2="-1.6904730469628004" y2="-7.6252311481466" stroke-width="0.1" stroke="black"/><line x1="-1.6904730469628004" y1="-7.6252311481466" x2="-1.6904730469628004" y2="-7.6252311481466" stroke-width="0.1" stroke="black"/><line x1="-1.6904730469628004" y1="-7.6252311481466" x2="-0.8452365234814005" y2="-5.8126155740733" stroke-width="0.1" stroke="black"/><line x1="-0.8452365234814005" y1="-5.8126155740733" x2="-0.8452365234814005" y2="-5.8126155740733" stroke-width="0.1" stroke="black"/><line x1="-0.8452365234814005" y1="-5.8126155740733" x2="-1.2678547852221005" y2="-6.71892336110995" stroke-width="0.1" stroke="black"/><line x1="-1.2678547852221005" y1="-6.71892336110995" x2="-1.6904730469628004" y2="-7.6252311481466" stroke-width="0.1" stroke="black"/><line x1="-1.6904730469628004" y1="-7.6252311481466" x2="-1.6904730469628004" y2="-7.6252311481466" stroke-width="0.1" stroke="black"/><line x1="-1.6904730469628004" y1="-7.6252311481466" x2="-1.6904730469628004" y2="-7.6252311481466" stroke-width="0.1" stroke="black"/><line x1="-1.6904730469628004" y1="-7.6252311481466" x2="-1.6904730469628007" y2="-8.6252311481466" stroke-width="0.1" stroke="black"/><line x1="-1.6904730469628007" y1="-8.6252311481466" x2="-1.6904730469628009" y2="-9.6252311481466" stroke-width="0.1" stroke="black"/><line x1="-1.6904730469628009" y1="-9.6252311481466" x2="-1.690473046962801" y2="-10.6252311481466" stroke-width="0.1" stroke="black"/><line x1="-1.690473046962801" y1="-10.6252311481466" x2="-1.690473046962801" y2="-10.6252311481466" stroke-width="0.1" stroke="black"/><line x1="-1.690473046962801" y1="-10.6252311481466" x2="-1.690473046962801" y2="-10.6252311481466" stroke-width="0.1" stroke="black"/><line x1="-1.690473046962801" y1="-10.6252311481466" x2="-1.690473046962801" y2="-10.6252311481466" stroke-width="0.1" stroke="black"/><line x1="-1.690473046962801" y1="-10.6252311481466" x2="-1.690473046962801" y2="-10.6252311481466" stroke-width="0.1" stroke="black"/><line x1="-1.690473046962801" y1="-10.6252311481466" x2="-1.690473046962801" y2="-10.6252311481466" stroke-width="0.1" stroke="black"/><line x1="-1.690473046962801" y1="-10.6252311481466" x2="-1.690473046962801" y2="-10.6252311481466" stroke-width="0.1" stroke="black"/><line x1="-1.690473046962801" y1="-10.6252311481466" x2="-1.690473046962801" y2="-10.6252311481466" stroke-width="0.1" stroke="black"/><line x1="-1.690473046962801" y1="-10.6252311481466" x2="-1.690473046962801" y2="-10.6252311481466" stroke-width="0.1" stroke="black"/><line x1="-1.690473046962801" y1="-10.6252311481466" x2="-1.690473046962801" y2="-10.6252311481466" stroke-width="0.1" stroke="black"/><line x1="-1.690473046962801" y1="-10.6252311481466" x2="-1.6904730469628013" y2="-11.6252311481466" stroke-width="0.1" stroke="black"/><line x1="-1.6904730469628013" y1="-11.6252311481466" x2="-1.6904730469628013" y2="-11.6252311481466" stroke-width="0.1" stroke="black"/><line x1="-1.6904730469628013" y1="-11.6252311481466" x2="-1.6904730469628013" y2="-11.6252311481466" stroke-width="0.1" stroke="black"/><line x1="-1.6904730469628013" y1="-11.6252311481466" x2="-1.2678547852221018" y2="-12.53153893518325" stroke-width="0.1" stroke="black"/><line x1="-1.2678547852221018" y1="-12.53153893518325" x2="-1.2678547852221018" y2="-12.53153893518325" stroke-width="0.1" stroke="black"/><line x1="-1.2678547852221018" y1="-12.53153893518325" x2="-1.6904730469628013" y2="-11.6252311481466" stroke-width="0.1" stroke="black"/><line x1="-1.6904730469628013" y1="-11.6252311481466" x2="-1.6904730469628013" y2="-11.6252311481466" stroke-width="0.1" stroke="black"/><line x1="-1.6904730469628013" y1="-11.6252311481466" x2="-1.6904730469628013" y2="-11.6252311481466" stroke-width="0.1" stroke="black"/><line x1="-1.6904730469628013" y1="-11.6252311481466" x2="-1.6904730469628004" y2="-7.6252311481466" stroke-width="0.1" stroke="black"/><line x1="-1.6904730469628004" y1="-7.6252311481466" x2="-1.6904730469628004" y2="-7.6252311481466" stroke-width="0.1" stroke="black"/><line x1="-1.6904730469628004" y1="-7.6252311481466" x2="-2.4565174900817786" y2="-8.26801875783314" stroke-width="0.1" stroke="black"/><line x1="-2.4565174900817786" y1="-8.26801875783314" x2="-2.4565174900817786" y2="-8.26801875783314" stroke-width="0.1" stroke="black"/><line x1="-2.4565174900817786" y1="-8.26801875783314" x2="-2.4565174900817786" y2="-8.26801875783314" stroke-width="0.1" stroke="black"/><line x1="-2.4565174900817786" y1="-8.26801875783314" x2="-2.4565174900817786" y2="-8.26801875783314" stroke-width="0.1" stroke="black"/><line x1="-2.4565174900817786" y1="-8.26801875783314" x2="-2.4565174900817786" y2="-8.26801875783314" stroke-width="0.1" stroke="black"/><line x1="-2.4565174900817786" y1="-8.26801875783314" x2="-2.4565174900817786" y2="-8.26801875783314" stroke-width="0.1" stroke="black"/><line x1="-2.4565174900817786" y1="-8.26801875783314" x2="-2.4565174900817786" y2="-8.26801875783314" stroke-width="0.1" stroke="black"/><line x1="-2.4565174900817786" y1="-8.26801875783314" x2="-2.4565174900817786" y2="-8.26801875783314" stroke-width="0.1" stroke="black"/><line x1="-2.4565174900817786" y1="-8.26801875783314" x2="-2.4565174900817786" y2="-8.26801875783314" stroke-width="0.1" stroke="black"/><line x1="-2.4565174900817786" y1="-8.26801875783314" x2="-2.4565174900817786" y2="-8.26801875783314" stroke-width="0.1" stroke="black"/><line x1="-2.4565174900817786" y1="-8.26801875783314" x2="-3.222561933200757" y2="-8.91080636751968" stroke-width="0.1" stroke="black"/><line x1="-3.222561933200757" y1="-8.91080636751968" x2="-3.222561933200757" y2="-8.91080636751968" stroke-width="0.1" stroke="black"/><line x1="-3.222561933200757" y1="-8.91080636751968" x2="-3.222561933200757" y2="-8.91080636751968" stroke-width="0.1" stroke="black"/><line x1="-3.222561933200757" y1="-8.91080636751968" x2="-3.6451801949414566" y2="-9.817114154556329" stroke-width="0.1" stroke="black"/><line x1="-3.6451801949414566" y1="-9.817114154556329" x2="-3.6451801949414566" y2="-9.817114154556329" stroke-width="0.1" stroke="black"/><line x1="-3.6451801949414566" y1="-9.817114154556329" x2="-3.222561933200757" y2="-8.91080636751968" stroke-width="0.1" stroke="black"/><line x1="-3.222561933200757" y1="-8.91080636751968" x2="-3.222561933200757" y2="-8.91080636751968" stroke-width="0.1" stroke="black"/><line x1="-3.222561933200757" y1="-8.91080636751968" x2="-3.222561933200757" y2="-8.91080636751968" stroke-width="0.1" stroke="black"/><line x1="-3.222561933200757" y1="-8.91080636751968" x2="-7.347880794884119E-16" y2="-4.0" stroke-width="0.1" stroke="black"/><line x1="-7.347880794884119E-16" y1="-4.0" x2="-7.347880794884119E-16" y2="-4.0" stroke-width="0.1" stroke="black"/><line x1="-7.347880794884119E-16" y1="-4.0" x2="-9.184850993605148E-16" y2="-5.0" stroke-width="0.1" stroke="black"/><line x1="-9.184850993605148E-16" y1="-5.0" x2="-1.1021821192326177E-15" y2="-6.0" stroke-width="0.1" stroke="black"/><line x1="-1.1021821192326177E-15" y1="-6.0" x2="-1.1021821192326177E-15" y2="-6.0" stroke-width="0.1" stroke="black"/><line x1="-1.1021821192326177E-15" y1="-6.0" x2="-1.1021821192326177E-15" y2="-6.0" stroke-width="0.1" stroke="black"/><line x1="-1.1021821192326177E-15" y1="-6.0" x2="-1.1021821192326177E-15" y2="-6.0" stroke-width="0.1" stroke="black"/><line x1="-1.1021821192326177E-15" y1="-6.0" x2="-0.42261826174070105" y2="-6.90630778703665" stroke-width="0.1" stroke="black"/><line x1="-0.42261826174070105" y1="-6.90630778703665" x2="-0.42261826174070105" y2="-6.90630778703665" stroke-width="0.1" stroke="black"/><line x1="-0.42261826174070105" y1="-6.90630778703665" x2="-0.42261826174070105" y2="-6.90630778703665" stroke-width="0.1" stroke="black"/><line x1="-0.42261826174070105" y1="-6.90630778703665" x2="-0.42261826174070105" y2="-6.90630778703665" stroke-width="0.1" stroke="black"/><line x1="-0.42261826174070105" y1="-6.90630778703665" x2="-0.42261826174070105" y2="-6.90630778703665" stroke-width="0.1" stroke="black"/><line x1="-0.42261826174070105" y1="-6.90630778703665" x2="-0.42261826174070105" y2="-6.90630778703665" stroke-width="0.1" stroke="black"/><line x1="-0.42261826174070105" y1="-6.90630778703665" x2="-0.42261826174070105" y2="-6.90630778703665" stroke-width="0.1" stroke="black"/><line x1="-0.42261826174070105" y1="-6.90630778703665" x2="-0.42261826174070105" y2="-6.90630778703665" stroke-width="0.1" stroke="black"/><line x1="-0.42261826174070105" y1="-6.90630778703665" x2="-0.42261826174070105" y2="-6.90630778703665" stroke-width="0.1" stroke="black"/><line x1="-0.42261826174070105" y1="-6.90630778703665" x2="-0.42261826174070105" y2="-6.90630778703665" stroke-width="0.1" stroke="black"/><line x1="-0.42261826174070105" y1="-6.90630778703665" x2="-0.845236523481401" y2="-7.8126155740733" stroke-width="0.1" stroke="black"/><line x1="-0.845236523481401" y1="-7.8126155740733" x2="-0.845236523481401" y2="-7.8126155740733" stroke-width="0.1" stroke="black"/><line x1="-0.845236523481401" y1="-7.8126155740733" x2="-0.845236523481401" y2="-7.8126155740733" stroke-width="0.1" stroke="black"/><line x1="-0.845236523481401" y1="-7.8126155740733" x2="-0.8452365234814012" y2="-8.8126155740733" stroke-width="0.1" stroke="black"/><line x1="-0.8452365234814012" y1="-8.8126155740733" x2="-0.8452365234814012" y2="-8.8126155740733" stroke-width="0.1" stroke="black"/><line x1="-0.8452365234814012" y1="-8.8126155740733" x2="-0.845236523481401" y2="-7.8126155740733" stroke-width="0.1" stroke="black"/><line x1="-0.845236523481401" y1="-7.8126155740733" x2="-0.845236523481401" y2="-7.8126155740733" stroke-width="0.1" stroke="black"/><line x1="-0.845236523481401" y1="-7.8126155740733" x2="-0.845236523481401" y2="-7.8126155740733" stroke-width="0.1" stroke="black"/><line x1="-0.845236523481401" y1="-7.8126155740733" x2="-1.1021821192326177E-15" y2="-6.0" stroke-width="0.1" stroke="black"/><line x1="-1.1021821192326177E-15" y1="-6.0" x2="-1.1021821192326177E-15" y2="-6.0" stroke-width="0.1" stroke="black"/><line x1="-1.1021821192326177E-15" y1="-6.0" x2="-1.2858791391047206E-15" y2="-7.0" stroke-width="0.1" stroke="black"/><line x1="-1.2858791391047206E-15" y1="-7.0" x2="-1.2858791391047206E-15" y2="-7.0" stroke-width="0.1" stroke="black"/><line x1="-1.2858791391047206E-15" y1="-7.0" x2="-1.2858791391047206E-15" y2="-7.0" stroke-width="0.1" stroke="black"/><line x1="-1.2858791391047206E-15" y1="-7.0" x2="-1.2858791391047206E-15" y2="-7.0" stroke-width="0.1" stroke="black"/><line x1="-1.2858791391047206E-15" y1="-7.0" x2="-1.2858791391047206E-15" y2="-7.0" stroke-width="0.1" stroke="black"/><line x1="-1.2858791391047206E-15" y1="-7.0" x2="-1.2858791391047206E-15" y2="-7.0" stroke-width="0.1" stroke="black"/><line x1="-1.2858791391047206E-15" y1="-7.0" x2="-1.2858791391047206E-15" y2="-7.0" stroke-width="0.1" stroke="black"/><line x1="-1.2858791391047206E-15" y1="-7.0" x2="-1.2858791391047206E-15" y2="-7.0" stroke-width="0.1" stroke="black"/><line x1="-1.2858791391047206E-15" y1="-7.0" x2="-1.2858791391047206E-15" y2="-7.0" stroke-width="0.1" stroke="black"/><line x1="-1.2858791391047206E-15" y1="-7.0" x2="-1.2858791391047206E-15" y2="-7.0" stroke-width="0.1" stroke="black"/><line x1="-1.2858791391047206E-15" y1="-7.0" x2="-1.4695761589768236E-15" y2="-8.0" stroke-width="0.1" stroke="black"/><line x1="-1.4695761589768236E-15" y1="-8.0" x2="-1.4695761589768236E-15" y2="-8.0" stroke-width="0.1" stroke="black"/><line x1="-1.4695761589768236E-15" y1="-8.0" x2="-1.4695761589768236E-15" y2="-8.0" stroke-width="0.1" stroke="black"/><line x1="-1.4695761589768236E-15" y1="-8.0" x2="0.42261826174069816" y2="-8.90630778703665" stroke-width="0.1" stroke="black"/><line x1="0.42261826174069816" y1="-8.90630778703665" x2="0.42261826174069816" y2="-8.90630778703665" stroke-width="0.1" stroke="black"/><line x1="0.42261826174069816" y1="-8.90630778703665" x2="-1.4695761589768236E-15" y2="-8.0" stroke-width="0.1" stroke="black"/><line x1="-1.4695761589768236E-15" y1="-8.0" x2="-1.4695761589768236E-15" y2="-8.0" stroke-width="0.1" stroke="black"/><line x1="-1.4695761589768236E-15" y1="-8.0" x2="-1.4695761589768236E-15" y2="-8.0" stroke-width="0.1" stroke="black"/><line x1="-1.4695761589768236E-15" y1="-8.0" x2="-1.1021821192326177E-15" y2="-6.0" stroke-width="0.1" stroke="black"/><line x1="-1.1021821192326177E-15" y1="-6.0" x2="-1.1021821192326177E-15" y2="-6.0" stroke-width="0.1" stroke="black"/><line x1="-1.1021821192326177E-15" y1="-6.0" x2="-1.2858791391047206E-15" y2="-7.0" stroke-width="0.1" stroke="black"/><line x1="-1.2858791391047206E-15" y1="-7.0" x2="-1.4695761589768236E-15" y2="-8.0" stroke-width="0.1" stroke="black"/><line x1="-1.4695761589768236E-15" y1="-8.0" x2="-1.4695761589768236E-15" y2="-8.0" stroke-width="0.1" stroke="black"/><line x1="-1.4695761589768236E-15" y1="-8.0" x2="-1.4695761589768236E-15" y2="-8.0" stroke-width="0.1" stroke="black"/><line x1="-1.4695761589768236E-15" y1="-8.0" x2="0.42261826174069816" y2="-8.90630778703665" stroke-width="0.1" stroke="black"/><line x1="0.42261826174069816" y1="-8.90630778703665" x2="0.8452365234813978" y2="-9.812615574073298" stroke-width="0.1" stroke="black"/><line x1="0.8452365234813978" y1="-9.812615574073298" x2="1.2678547852220974" y2="-10.718923361109947" stroke-width="0.1" stroke="black"/><line x1="1.2678547852220974" y1="-10.718923361109947" x2="1.2678547852220974" y2="-10.718923361109947" stroke-width="0.1" stroke="black"/><line x1="1.2678547852220974" y1="-10.718923361109947" x2="1.2678547852220974" y2="-10.718923361109947" stroke-width="0.1" stroke="black"/><line x1="1.2678547852220974" y1="-10.718923361109947" x2="1.2678547852220974" y2="-10.718923361109947" stroke-width="0.1" stroke="black"/><line x1="1.2678547852220974" y1="-10.718923361109947" x2="1.2678547852220974" y2="-10.718923361109947" stroke-width="0.1" stroke="black"/><line x1="1.2678547852220974" y1="-10.718923361109947" x2="1.2678547852220974" y2="-10.718923361109947" stroke-width="0.1" stroke="black"/><line x1="1.2678547852220974" y1="-10.718923361109947" x2="1.2678547852220974" y2="-10.718923361109947" stroke-width="0.1" stroke="black"/><line x1="1.2678547852220974" y1="-10.718923361109947" x2="1.2678547852220974" y2="-10.718923361109947" stroke-width="0.1" stroke="black"/><line x1="1.2678547852220974" y1="-10.718923361109947" x2="1.2678547852220974" y2="-10.718923361109947" stroke-width="0.1" stroke="black"/><line x1="1.2678547852220974" y1="-10.718923361109947" x2="1.2678547852220974" y2="-10.718923361109947" stroke-width="0.1" stroke="black"/><line x1="1.2678547852220974" y1="-10.718923361109947" x2="1.690473046962797" y2="-11.625231148146597" stroke-width="0.1" stroke="black"/><line x1="1.690473046962797" y1="-11.625231148146597" x2="1.690473046962797" y2="-11.625231148146597" stroke-width="0.1" stroke="black"/><line x1="1.690473046962797" y1="-11.625231148146597" x2="1.690473046962797" y2="-11.625231148146597" stroke-width="0.1" stroke="black"/><line x1="1.690473046962797" y1="-11.625231148146597" x2="2.4565174900817754" y2="-12.268018757833136" stroke-width="0.1" stroke="black"/><line x1="2.4565174900817754" y1="-12.268018757833136" x2="2.4565174900817754" y2="-12.268018757833136" stroke-width="0.1" stroke="black"/><line x1="2.4565174900817754" y1="-12.268018757833136" x2="1.690473046962797" y2="-11.625231148146597" stroke-width="0.1" stroke="black"/><line x1="1.690473046962797" y1="-11.625231148146597" x2="1.690473046962797" y2="-11.625231148146597" stroke-width="0.1" stroke="black"/><line x1="1.690473046962797" y1="-11.625231148146597" x2="1.690473046962797" y2="-11.625231148146597" stroke-width="0.1" stroke="black"/><line x1="1.690473046962797" y1="-11.625231148146597" x2="-1.4695761589768236E-15" y2="-8.0" stroke-width="0.1" stroke="black"/><line x1="-1.4695761589768236E-15" y1="-8.0" x2="-1.4695761589768236E-15" y2="-8.0" stroke-width="0.1" stroke="black"/><line x1="-1.4695761589768236E-15" y1="-8.0" x2="-0.4226182617407014" y2="-8.90630778703665" stroke-width="0.1" stroke="black"/><line x1="-0.4226182617407014" y1="-8.90630778703665" x2="-0.4226182617407014" y2="-8.90630778703665" stroke-width="0.1" stroke="black"/><line x1="-0.4226182617407014" y1="-8.90630778703665" x2="-0.4226182617407014" y2="-8.90630778703665" stroke-width="0.1" stroke="black"/><line x1="-0.4226182617407014" y1="-8.90630778703665" x2="-0.4226182617407014" y2="-8.90630778703665" stroke-width="0.1" stroke="black"/><line x1="-0.4226182617407014" y1="-8.90630778703665" x2="-0.4226182617407014" y2="-8.90630778703665" stroke-width="0.1" stroke="black"/><line x1="-0.4226182617407014" y1="-8.90630778703665" x2="-0.4226182617407014" y2="-8.90630778703665" stroke-width="0.1" stroke="black"/><line x1="-0.4226182617407014" y1="-8.90630778703665" x2="-0.4226182617407014" y2="-8.90630778703665" stroke-width="0.1" stroke="black"/><line x1="-0.4226182617407014" y1="-8.90630778703665" x2="-0.4226182617407014" y2="-8.90630778703665" stroke-width="0.1" stroke="black"/><line x1="-0.4226182617407014" y1="-8.90630778703665" x2="-0.4226182617407014" y2="-8.90630778703665" stroke-width="0.1" stroke="black"/><line x1="-0.4226182617407014" y1="-8.90630778703665" x2="-0.4226182617407014" y2="-8.90630778703665" stroke-width="0.1" stroke="black"/><line x1="-0.4226182617407014" y1="-8.90630778703665" x2="-0.8452365234814013" y2="-9.812615574073298" stroke-width="0.1" stroke="black"/><line x1="-0.8452365234814013" y1="-9.812615574073298" x2="-0.8452365234814013" y2="-9.812615574073298" stroke-width="0.1" stroke="black"/><line x1="-0.8452365234814013" y1="-9.812615574073298" x2="-0.8452365234814013" y2="-9.812615574073298" stroke-width="0.1" stroke="black"/><line x1="-0.8452365234814013" y1="-9.812615574073298" x2="-0.8452365234814015" y2="-10.812615574073298" stroke-width="0.1" stroke="black"/><line x1="-0.8452365234814015" y1="-10.812615574073298" x2="-0.8452365234814015" y2="-10.812615574073298" stroke-width="0.1" stroke="black"/><line x1="-0.8452365234814015" y1="-10.812615574073298" x2="-0.8452365234814013" y2="-9.812615574073298" stroke-width="0.1" stroke="black"/><line x1="-0.8452365234814013" y1="-9.812615574073298" x2="-0.8452365234814013" y2="-9.812615574073298" stroke-width="0.1" stroke="black"/><line x1="-0.8452365234814013" y1="-9.812615574073298" x2="-0.8452365234814013" y2="-9.812615574073298" stroke-width="0.1" stroke="black"/><line x1="-0.8452365234814013" y1="-9.812615574073298" x2="-7.347880794884119E-16" y2="-4.0" stroke-width="0.1" stroke="black"/><line x1="-7.347880794884119E-16" y1="-4.0" x2="-7.347880794884119E-16" y2="-4.0" stroke-width="0.1" stroke="black"/><line x1="-7.347880794884119E-16" y1="-4.0" x2="-9.184850993605148E-16" y2="-5.0" stroke-width="0.1" stroke="black"/><line x1="-9.184850993605148E-16" y1="-5.0" x2="-1.1021821192326177E-15" y2="-6.0" stroke-width="0.1" stroke="black"/><line x1="-1.1021821192326177E-15" y1="-6.0" x2="-1.2858791391047206E-15" y2="-7.0" stroke-width="0.1" stroke="black"/><line x1="-1.2858791391047206E-15" y1="-7.0" x2="-1.4695761589768236E-15" y2="-8.0" stroke-width="0.1" stroke="black"/><line x1="-1.4695761589768236E-15" y1="-8.0" x2="-1.4695761589768236E-15" y2="-8.0" stroke-width="0.1" stroke="black"/><line x1="-1.4695761589768236E-15" y1="-8.0" x2="-1.4695761589768236E-15" y2="-8.0" stroke-width="0.1" stroke="black"/><line x1="-1.4695761589768236E-15" y1="-8.0" x2="0.42261826174069816" y2="-8.90630778703665" stroke-width="0.1" stroke="black"/><line x1="0.42261826174069816" y1="-8.90630778703665" x2="0.8452365234813978" y2="-9.812615574073298" stroke-width="0.1" stroke="black"/><line x1="0.8452365234813978" y1="-9.812615574073298" x2="1.2678547852220974" y2="-10.718923361109947" stroke-width="0.1" stroke="black"/><line x1="1.2678547852220974" y1="-10.718923361109947" x2="1.690473046962797" y2="-11.625231148146597" stroke-width="0.1" stroke="black"/><line x1="1.690473046962797" y1="-11.625231148146597" x2="2.113091308703497" y2="-12.531538935183246" stroke-width="0.1" stroke="black"/><line x1="2.113091308703497" y1="-12.531538935183246" x2="2.5357095704441965" y2="-13.437846722219895" stroke-width="0.1" stroke="black"/><line x1="2.5357095704441965" y1="-13.437846722219895" x2="2.5357095704441965" y2="-13.437846722219895" stroke-width="0.1" stroke="black"/><line x1="2.5357095704441965" y1="-13.437846722219895" x2="2.5357095704441965" y2="-13.437846722219895" stroke-width="0.1" stroke="black"/><line x1="2.5357095704441965" y1="-13.437846722219895" x2="2.5357095704441965" y2="-13.437846722219895" stroke-width="0.1" stroke="black"/><line x1="2.5357095704441965" y1="-13.437846722219895" x2="2.5357095704441965" y2="-14.437846722219895" stroke-width="0.1" stroke="black"/><line x1="2.5357095704441965" y1="-14.437846722219895" x2="2.5357095704441965" y2="-14.437846722219895" stroke-width="0.1" stroke="black"/><line x1="2.5357095704441965" y1="-14.437846722219895" x2="2.5357095704441965" y2="-14.437846722219895" stroke-width="0.1" stroke="black"/><line x1="2.5357095704441965" y1="-14.437846722219895" x2="2.5357095704441965" y2="-14.437846722219895" stroke-width="0.1" stroke="black"/><line x1="2.5357095704441965" y1="-14.437846722219895" x2="2.5357095704441965" y2="-14.437846722219895" stroke-width="0.1" stroke="black"/><line x1="2.5357095704441965" y1="-14.437846722219895" x2="2.5357095704441965" y2="-14.437846722219895" stroke-width="0.1" stroke="black"/><line x1="2.5357095704441965" y1="-14.437846722219895" x2="2.5357095704441965" y2="-14.437846722219895" stroke-width="0.1" stroke="black"/><line x1="2.5357095704441965" y1="-14.437846722219895" x2="2.5357095704441965" y2="-14.437846722219895" stroke-width="0.1" stroke="black"/><line x1="2.5357095704441965" y1="-14.437846722219895" x2="2.5357095704441965" y2="-14.437846722219895" stroke-width="0.1" stroke="black"/><line x1="2.5357095704441965" y1="-14.437846722219895" x2="2.5357095704441965" y2="-14.437846722219895" stroke-width="0.1" stroke="black"/><line x1="2.5357095704441965" y1="-14.437846722219895" x2="2.5357095704441965" y2="-15.437846722219895" stroke-width="0.1" stroke="black"/><line x1="2.5357095704441965" y1="-15.437846722219895" x2="2.5357095704441965" y2="-15.437846722219895" stroke-width="0.1" stroke="black"/><line x1="2.5357095704441965" y1="-15.437846722219895" x2="2.5357095704441965" y2="-15.437846722219895" stroke-width="0.1" stroke="black"/><line x1="2.5357095704441965" y1="-15.437846722219895" x2="2.9583278321848963" y2="-16.344154509256544" stroke-width="0.1" stroke="black"/><line x1="2.9583278321848963" y1="-16.344154509256544" x2="2.9583278321848963" y2="-16.344154509256544" stroke-width="0.1" stroke="black"/><line x1="2.9583278321848963" y1="-16.344154509256544" x2="2.5357095704441965" y2="-15.437846722219895" stroke-width="0.1" stroke="black"/><line x1="2.5357095704441965" y1="-15.437846722219895" x2="2.5357095704441965" y2="-15.437846722219895" stroke-width="0.1" stroke="black"/><line x1="2.5357095704441965" y1="-15.437846722219895" x2="2.5357095704441965" y2="-15.437846722219895" stroke-width="0.1" stroke="black"/><line x1="2.5357095704441965" y1="-15.437846722219895" x2="2.5357095704441965" y2="-13.437846722219895" stroke-width="0.1" stroke="black"/><line x1="2.5357095704441965" y1="-13.437846722219895" x2="2.5357095704441965" y2="-13.437846722219895" stroke-width="0.1" stroke="black"/><line x1="2.5357095704441965" y1="-13.437846722219895" x2="2.9583278321848963" y2="-14.344154509256544" stroke-width="0.1" stroke="black"/><line x1="2.9583278321848963" y1="-14.344154509256544" x2="2.9583278321848963" y2="-14.344154509256544" stroke-width="0.1" stroke="black"/><line x1="2.9583278321848963" y1="-14.344154509256544" x2="2.9583278321848963" y2="-14.344154509256544" stroke-width="0.1" stroke="black"/><line x1="2.9583278321848963" y1="-14.344154509256544" x2="2.9583278321848963" y2="-14.344154509256544" stroke-width="0.1" stroke="black"/><line x1="2.9583278321848963" y1="-14.344154509256544" x2="2.9583278321848963" y2="-14.344154509256544" stroke-width="0.1" stroke="black"/><line x1="2.9583278321848963" y1="-14.344154509256544" x2="2.9583278321848963" y2="-14.344154509256544" stroke-width="0.1" stroke="black"/><line x1="2.9583278321848963" y1="-14.344154509256544" x2="2.9583278321848963" y2="-14.344154509256544" stroke-width="0.1" stroke="black"/><line x1="2.9583278321848963" y1="-14.344154509256544" x2="2.9583278321848963" y2="-14.344154509256544" stroke-width="0.1" stroke="black"/><line x1="2.9583278321848963" y1="-14.344154509256544" x2="2.9583278321848963" y2="-14.344154509256544" stroke-width="0.1" stroke="black"/><line x1="2.9583278321848963" y1="-14.344154509256544" x2="2.9583278321848963" y2="-14.344154509256544" stroke-width="0.1" stroke="black"/><line x1="2.9583278321848963" y1="-14.344154509256544" x2="3.380946093925596" y2="-15.250462296293193" stroke-width="0.1" stroke="black"/><line x1="3.380946093925596" y1="-15.250462296293193" x2="3.380946093925596" y2="-15.250462296293193" stroke-width="0.1" stroke="black"/><line x1="3.380946093925596" y1="-15.250462296293193" x2="3.380946093925596" y2="-15.250462296293193" stroke-width="0.1" stroke="black"/><line x1="3.380946093925596" y1="-15.250462296293193" x2="4.146990537044575" y2="-15.893249905979733" stroke-width="0.1" stroke="black"/><line x1="4.146990537044575" y1="-15.893249905979733" x2="4.146990537044575" y2="-15.893249905979733" stroke-width="0.1" stroke="black"/><line x1="4.146990537044575" y1="-15.893249905979733" x2="3.380946093925596" y2="-15.250462296293193" stroke-width="0.1" stroke="black"/><line x1="3.380946093925596" y1="-15.250462296293193" x2="3.380946093925596" y2="-15.250462296293193" stroke-width="0.1" stroke="black"/><line x1="3.380946093925596" y1="-15.250462296293193" x2="3.380946093925596" y2="-15.250462296293193" stroke-width="0.1" stroke="black"/><line x1="3.380946093925596" y1="-15.250462296293193" x2="2.5357095704441965" y2="-13.437846722219895" stroke-width="0.1" stroke="black"/><line x1="2.5357095704441965" y1="-13.437846722219895" x2="2.5357095704441965" y2="-13.437846722219895" stroke-width="0.1" stroke="black"/><line x1="2.5357095704441965" y1="-13.437846722219895" x2="2.9583278321848963" y2="-14.344154509256544" stroke-width="0.1" stroke="black"/><line x1="2.9583278321848963" y1="-14.344154509256544" x2="3.380946093925596" y2="-15.250462296293193" stroke-width="0.1" stroke="black"/><line x1="3.380946093925596" y1="-15.250462296293193" x2="3.380946093925596" y2="-15.250462296293193" stroke-width="0.1" stroke="black"/><line x1="3.380946093925596" y1="-15.250462296293193" x2="3.380946093925596" y2="-15.250462296293193" stroke-width="0.1" stroke="black"/><line x1="3.380946093925596" y1="-15.250462296293193" x2="4.146990537044575" y2="-15.893249905979733" stroke-width="0.1" stroke="black"/><line x1="4.146990537044575" y1="-15.893249905979733" x2="4.9130349801635536" y2="-16.536037515666273" stroke-width="0.1" stroke="black"/><line x1="4.9130349801635536" y1="-16.536037515666273" x2="5.679079423282532" y2="-17.178825125352812" stroke-width="0.1" stroke="black"/><line x1="5.679079423282532" y1="-17.178825125352812" x2="5.679079423282532" y2="-17.178825125352812" stroke-width="0.1" stroke="black"/><line x1="5.679079423282532" y1="-17.178825125352812" x2="5.679079423282532" y2="-17.178825125352812" stroke-width="0.1" stroke="black"/><line x1="5.679079423282532" y1="-17.178825125352812" x2="5.679079423282532" y2="-17.178825125352812" stroke-width="0.1" stroke="black"/><line x1="5.679079423282532" y1="-17.178825125352812" x2="5.679079423282532" y2="-17.178825125352812" stroke-width="0.1" stroke="black"/><line x1="5.679079423282532" y1="-17.178825125352812" x2="5.679079423282532" y2="-17.178825125352812" stroke-width="0.1" stroke="black"/><line x1="5.679079423282532" y1="-17.178825125352812" x2="5.679079423282532" y2="-17.178825125352812" stroke-width="0.1" stroke="black"/><line x1="5.679079423282532" y1="-17.178825125352812" x2="5.679079423282532" y2="-17.178825125352812" stroke-width="0.1" stroke="black"/><line x1="5.679079423282532" y1="-17.178825125352812" x2="5.679079423282532" y2="-17.178825125352812" stroke-width="0.1" stroke="black"/><line x1="5.679079423282532" y1="-17.178825125352812" x2="5.679079423282532" y2="-17.178825125352812" stroke-width="0.1" stroke="black"/><line x1="5.679079423282532" y1="-17.178825125352812" x2="6.445123866401511" y2="-17.821612735039352" stroke-width="0.1" stroke="black"/><line x1="6.445123866401511" y1="-17.821612735039352" x2="6.445123866401511" y2="-17.821612735039352" stroke-width="0.1" stroke="black"/><line x1="6.445123866401511" y1="-17.821612735039352" x2="6.445123866401511" y2="-17.821612735039352" stroke-width="0.1" stroke="black"/><line x1="6.445123866401511" y1="-17.821612735039352" x2="7.41104969269058" y2="-18.080431780141872" stroke-width="0.1" stroke="black"/><line x1="7.41104969269058" y1="-18.080431780141872" x2="7.41104969269058" y2="-18.080431780141872" stroke-width="0.1" stroke="black"/><line x1="7.41104969269058" y1="-18.080431780141872" x2="6.445123866401511" y2="-17.821612735039352" stroke-width="0.1" stroke="black"/><line x1="6.445123866401511" y1="-17.821612735039352" x2="6.445123866401511" y2="-17.821612735039352" stroke-width="0.1" stroke="black"/><line x1="6.445123866401511" y1="-17.821612735039352" x2="6.445123866401511" y2="-17.821612735039352" stroke-width="0.1" stroke="black"/><line x1="6.445123866401511" y1="-17.821612735039352" x2="3.380946093925596" y2="-15.250462296293193" stroke-width="0.1" stroke="black"/><line x1="3.380946093925596" y1="-15.250462296293193" x2="3.380946093925596" y2="-15.250462296293193" stroke-width="0.1" stroke="black"/><line x1="3.380946093925596" y1="-15.250462296293193" x2="3.380946093925596" y2="-16.250462296293193" stroke-width="0.1" stroke="black"/><line x1="3.380946093925596" y1="-16.250462296293193" x2="3.380946093925596" y2="-16.250462296293193" stroke-width="0.1" stroke="black"/><line x1="3.380946093925596" y1="-16.250462296293193" x2="3.380946093925596" y2="-16.250462296293193" stroke-width="0.1" stroke="black"/><line x1="3.380946093925596" y1="-16.250462296293193" x2="3.380946093925596" y2="-16.250462296293193" stroke-width="0.1" stroke="black"/><line x1="3.380946093925596" y1="-16.250462296293193" x2="3.380946093925596" y2="-16.250462296293193" stroke-width="0.1" stroke="black"/><line x1="3.380946093925596" y1="-16.250462296293193" x2="3.380946093925596" y2="-16.250462296293193" stroke-width="0.1" stroke="black"/><line x1="3.380946093925596" y1="-16.250462296293193" x2="3.380946093925596" y2="-16.250462296293193" stroke-width="0.1" stroke="black"/><line x1="3.380946093925596" y1="-16.250462296293193" x2="3.380946093925596" y2="-16.250462296293193" stroke-width="0.1" stroke="black"/><line x1="3.380946093925596" y1="-16.250462296293193" x2="3.380946093925596" y2="-16.250462296293193" stroke-width="0.1" stroke="black"/><line x1="3.380946093925596" y1="-16.250462296293193" x2="3.380946093925596" y2="-16.250462296293193" stroke-width="0.1" stroke="black"/><line x1="3.380946093925596" y1="-16.250462296293193" x2="3.380946093925596" y2="-17.250462296293193" stroke-width="0.1" stroke="black"/><line x1="3.380946093925596" y1="-17.250462296293193" x2="3.380946093925596" y2="-17.250462296293193" stroke-width="0.1" stroke="black"/><line x1="3.380946093925596" y1="-17.250462296293193" x2="3.380946093925596" y2="-17.250462296293193" stroke-width="0.1" stroke="black"/><line x1="3.380946093925596" y1="-17.250462296293193" x2="3.8035643556662957" y2="-18.156770083329842" stroke-width="0.1" stroke="black"/><line x1="3.8035643556662957" y1="-18.156770083329842" x2="3.8035643556662957" y2="-18.156770083329842" stroke-width="0.1" stroke="black"/><line x1="3.8035643556662957" y1="-18.156770083329842" x2="3.380946093925596" y2="-17.250462296293193" stroke-width="0.1" stroke="black"/><line x1="3.380946093925596" y1="-17.250462296293193" x2="3.380946093925596" y2="-17.250462296293193" stroke-width="0.1" stroke="black"/><line x1="3.380946093925596" y1="-17.250462296293193" x2="3.380946093925596" y2="-17.250462296293193" stroke-width="0.1" stroke="black"/><line x1="3.380946093925596" y1="-17.250462296293193" x2="-1.4695761589768236E-15" y2="-8.0" stroke-width="0.1" stroke="black"/><line x1="-1.4695761589768236E-15" y1="-8.0" x2="-1.4695761589768236E-15" y2="-8.0" stroke-width="0.1" stroke="black"/><line x1="-1.4695761589768236E-15" y1="-8.0" x2="-0.4226182617407014" y2="-8.90630778703665" stroke-width="0.1" stroke="black"/><line x1="-0.4226182617407014" y1="-8.90630778703665" x2="-0.8452365234814013" y2="-9.812615574073298" stroke-width="0.1" stroke="black"/><line x1="-0.8452365234814013" y1="-9.812615574073298" x2="-0.8452365234814013" y2="-9.812615574073298" stroke-width="0.1" stroke="black"/><line x1="-0.8452365234814013" y1="-9.812615574073298" x2="-0.8452365234814013" y2="-9.812615574073298" stroke-width="0.1" stroke="black"/><line x1="-0.8452365234814013" y1="-9.812615574073298" x2="-0.8452365234814013" y2="-9.812615574073298" stroke-width="0.1" stroke="black"/><line x1="-0.8452365234814013" y1="-9.812615574073298" x2="-1.6112809666003796" y2="-10.455403183759838" stroke-width="0.1" stroke="black"/><line x1="-1.6112809666003796" y1="-10.455403183759838" x2="-1.6112809666003796" y2="-10.455403183759838" stroke-width="0.1" stroke="black"/><line x1="-1.6112809666003796" y1="-10.455403183759838" x2="-1.6112809666003796" y2="-10.455403183759838" stroke-width="0.1" stroke="black"/><line x1="-1.6112809666003796" y1="-10.455403183759838" x2="-1.6112809666003796" y2="-10.455403183759838" stroke-width="0.1" stroke="black"/><line x1="-1.6112809666003796" y1="-10.455403183759838" x2="-1.6112809666003796" y2="-10.455403183759838" stroke-width="0.1" stroke="black"/><line x1="-1.6112809666003796" y1="-10.455403183759838" x2="-1.6112809666003796" y2="-10.455403183759838" stroke-width="0.1" stroke="black"/><line x1="-1.6112809666003796" y1="-10.455403183759838" x2="-1.6112809666003796" y2="-10.455403183759838" stroke-width="0.1" stroke="black"/><line x1="-1.6112809666003796" y1="-10.455403183759838" x2="-1.6112809666003796" y2="-10.455403183759838" stroke-width="0.1" stroke="black"/><line x1="-1.6112809666003796" y1="-10.455403183759838" x2="-1.6112809666003796" y2="-10.455403183759838" stroke-width="0.1" stroke="black"/><line x1="-1.6112809666003796" y1="-10.455403183759838" x2="-1.6112809666003796" y2="-10.455403183759838" stroke-width="0.1" stroke="black"/><line x1="-1.6112809666003796" y1="-10.455403183759838" x2="-2.377325409719358" y2="-11.098190793446378" stroke-width="0.1" stroke="black"/><line x1="-2.377325409719358" y1="-11.098190793446378" x2="-2.377325409719358" y2="-11.098190793446378" stroke-width="0.1" stroke="black"/><line x1="-2.377325409719358" y1="-11.098190793446378" x2="-2.377325409719358" y2="-11.098190793446378" stroke-width="0.1" stroke="black"/><line x1="-2.377325409719358" y1="-11.098190793446378" x2="-2.799943671460058" y2="-12.004498580483027" stroke-width="0.1" stroke="black"/><line x1="-2.799943671460058" y1="-12.004498580483027" x2="-2.799943671460058" y2="-12.004498580483027" stroke-width="0.1" stroke="black"/><line x1="-2.799943671460058" y1="-12.004498580483027" x2="-2.377325409719358" y2="-11.098190793446378" stroke-width="0.1" stroke="black"/><line x1="-2.377325409719358" y1="-11.098190793446378" x2="-2.377325409719358" y2="-11.098190793446378" stroke-width="0.1" stroke="black"/><line x1="-2.377325409719358" y1="-11.098190793446378" x2="-2.377325409719358" y2="-11.098190793446378" stroke-width="0.1" stroke="black"/><line x1="-2.377325409719358" y1="-11.098190793446378" x2="-0.8452365234814013" y2="-9.812615574073298" stroke-width="0.1" stroke="black"/><line x1="-0.8452365234814013" y1="-9.812615574073298" x2="-0.8452365234814013" y2="-9.812615574073298" stroke-width="0.1" stroke="black"/><line x1="-0.8452365234814013" y1="-9.812615574073298" x2="-1.2678547852221014" y2="-10.718923361109947" stroke-width="0.1" stroke="black"/><line x1="-1.2678547852221014" y1="-10.718923361109947" x2="-1.2678547852221014" y2="-10.718923361109947" stroke-width="0.1" stroke="black"/><line x1="-1.2678547852221014" y1="-10.718923361109947" x2="-1.2678547852221014" y2="-10.718923361109947" stroke-width="0.1" stroke="black"/><line x1="-1.2678547852221014" y1="-10.718923361109947" x2="-1.2678547852221014" y2="-10.718923361109947" stroke-width="0.1" stroke="black"/><line x1="-1.2678547852221014" y1="-10.718923361109947" x2="-1.2678547852221014" y2="-10.718923361109947" stroke-width="0.1" stroke="black"/><line x1="-1.2678547852221014" y1="-10.718923361109947" x2="-1.2678547852221014" y2="-10.718923361109947" stroke-width="0.1" stroke="black"/><line x1="-1.2678547852221014" y1="-10.718923361109947" x2="-1.2678547852221014" y2="-10.718923361109947" stroke-width="0.1" stroke="black"/><line x1="-1.2678547852221014" y1="-10.718923361109947" x2="-1.2678547852221014" y2="-10.718923361109947" stroke-width="0.1" stroke="black"/><line x1="-1.2678547852221014" y1="-10.718923361109947" x2="-1.2678547852221014" y2="-10.718923361109947" stroke-width="0.1" stroke="black"/><line x1="-1.2678547852221014" y1="-10.718923361109947" x2="-1.2678547852221014" y2="-10.718923361109947" stroke-width="0.1" stroke="black"/><line x1="-1.2678547852221014" y1="-10.718923361109947" x2="-1.6904730469628013" y2="-11.625231148146597" stroke-width="0.1" stroke="black"/><line x1="-1.6904730469628013" y1="-11.625231148146597" x2="-1.6904730469628013" y2="-11.625231148146597" stroke-width="0.1" stroke="black"/><line x1="-1.6904730469628013" y1="-11.625231148146597" x2="-1.6904730469628013" y2="-11.625231148146597" stroke-width="0.1" stroke="black"/><line x1="-1.6904730469628013" y1="-11.625231148146597" x2="-1.6904730469628015" y2="-12.625231148146597" stroke-width="0.1" stroke="black"/><line x1="-1.6904730469628015" y1="-12.625231148146597" x2="-1.6904730469628015" y2="-12.625231148146597" stroke-width="0.1" stroke="black"/><line x1="-1.6904730469628015" y1="-12.625231148146597" x2="-1.6904730469628013" y2="-11.625231148146597" stroke-width="0.1" stroke="black"/><line x1="-1.6904730469628013" y1="-11.625231148146597" x2="-1.6904730469628013" y2="-11.625231148146597" stroke-width="0.1" stroke="black"/><line x1="-1.6904730469628013" y1="-11.625231148146597" x2="-1.6904730469628013" y2="-11.625231148146597" stroke-width="0.1" stroke="black"/><line x1="-1.6904730469628013" y1="-11.625231148146597" x2="-0.8452365234814013" y2="-9.812615574073298" stroke-width="0.1" stroke="black"/><line x1="-0.8452365234814013" y1="-9.812615574073298" x2="-0.8452365234814013" y2="-9.812615574073298" stroke-width="0.1" stroke="black"/><line x1="-0.8452365234814013" y1="-9.812615574073298" x2="-1.2678547852221014" y2="-10.718923361109947" stroke-width="0.1" stroke="black"/><line x1="-1.2678547852221014" y1="-10.718923361109947" x2="-1.6904730469628013" y2="-11.625231148146597" stroke-width="0.1" stroke="black"/><line x1="-1.6904730469628013" y1="-11.625231148146597" x2="-1.6904730469628013" y2="-11.625231148146597" stroke-width="0.1" stroke="black"/><line x1="-1.6904730469628013" y1="-11.625231148146597" x2="-1.6904730469628013" y2="-11.625231148146597" stroke-width="0.1" stroke="black"/><line x1="-1.6904730469628013" y1="-11.625231148146597" x2="-1.6904730469628015" y2="-12.625231148146597" stroke-width="0.1" stroke="black"/><line x1="-1.6904730469628015" y1="-12.625231148146597" x2="-1.6904730469628018" y2="-13.625231148146597" stroke-width="0.1" stroke="black"/><line x1="-1.6904730469628018" y1="-13.625231148146597" x2="-1.690473046962802" y2="-14.625231148146597" stroke-width="0.1" stroke="black"/><line x1="-1.690473046962802" y1="-14.625231148146597" x2="-1.690473046962802" y2="-14.625231148146597" stroke-width="0.1" stroke="black"/><line x1="-1.690473046962802" y1="-14.625231148146597" x2="-1.690473046962802" y2="-14.625231148146597" stroke-width="0.1" stroke="black"/><line x1="-1.690473046962802" y1="-14.625231148146597" x2="-1.690473046962802" y2="-14.625231148146597" stroke-width="0.1" stroke="black"/><line x1="-1.690473046962802" y1="-14.625231148146597" x2="-1.690473046962802" y2="-14.625231148146597" stroke-width="0.1" stroke="black"/><line x1="-1.690473046962802" y1="-14.625231148146597" x2="-1.690473046962802" y2="-14.625231148146597" stroke-width="0.1" stroke="black"/><line x1="-1.690473046962802" y1="-14.625231148146597" x2="-1.690473046962802" y2="-14.625231148146597" stroke-width="0.1" stroke="black"/><line x1="-1.690473046962802" y1="-14.625231148146597" x2="-1.690473046962802" y2="-14.625231148146597" stroke-width="0.1" stroke="black"/><line x1="-1.690473046962802" y1="-14.625231148146597" x2="-1.690473046962802" y2="-14.625231148146597" stroke-width="0.1" stroke="black"/><line x1="-1.690473046962802" y1="-14.625231148146597" x2="-1.690473046962802" y2="-14.625231148146597" stroke-width="0.1" stroke="black"/><line x1="-1.690473046962802" y1="-14.625231148146597" x2="-1.6904730469628022" y2="-15.625231148146597" stroke-width="0.1" stroke="black"/><line x1="-1.6904730469628022" y1="-15.625231148146597" x2="-1.6904730469628022" y2="-15.625231148146597" stroke-width="0.1" stroke="black"/><line x1="-1.6904730469628022" y1="-15.625231148146597" x2="-1.6904730469628022" y2="-15.625231148146597" stroke-width="0.1" stroke="black"/><line x1="-1.6904730469628022" y1="-15.625231148146597" x2="-1.2678547852221027" y2="-16.531538935183246" stroke-width="0.1" stroke="black"/><line x1="-1.2678547852221027" y1="-16.531538935183246" x2="-1.2678547852221027" y2="-16.531538935183246" stroke-width="0.1" stroke="black"/><line x1="-1.2678547852221027" y1="-16.531538935183246" x2="-1.6904730469628022" y2="-15.625231148146597" stroke-width="0.1" stroke="black"/><line x1="-1.6904730469628022" y1="-15.625231148146597" x2="-1.6904730469628022" y2="-15.625231148146597" stroke-width="0.1" stroke="black"/><line x1="-1.6904730469628022" y1="-15.625231148146597" x2="-1.6904730469628022" y2="-15.625231148146597" stroke-width="0.1" stroke="black"/><line x1="-1.6904730469628022" y1="-15.625231148146597" x2="-1.6904730469628013" y2="-11.625231148146597" stroke-width="0.1" stroke="black"/><line x1="-1.6904730469628013" y1="-11.625231148146597" x2="-1.6904730469628013" y2="-11.625231148146597" stroke-width="0.1" stroke="black"/><line x1="-1.6904730469628013" y1="-11.625231148146597" x2="-2.4565174900817794" y2="-12.268018757833136" stroke-width="0.1" stroke="black"/><line x1="-2.4565174900817794" y1="-12.268018757833136" x2="-2.4565174900817794" y2="-12.268018757833136" stroke-width="0.1" stroke="black"/><line x1="-2.4565174900817794" y1="-12.268018757833136" x2="-2.4565174900817794" y2="-12.268018757833136" stroke-width="0.1" stroke="black"/><line x1="-2.4565174900817794" y1="-12.268018757833136" x2="-2.4565174900817794" y2="-12.268018757833136" stroke-width="0.1" stroke="black"/><line x1="-2.4565174900817794" y1="-12.268018757833136" x2="-2.4565174900817794" y2="-12.268018757833136" stroke-width="0.1" stroke="black"/><line x1="-2.4565174900817794" y1="-12.268018757833136" x2="-2.4565174900817794" y2="-12.268018757833136" stroke-width="0.1" stroke="black"/><line x1="-2.4565174900817794" y1="-12.268018757833136" x2="-2.4565174900817794" y2="-12.268018757833136" stroke-width="0.1" stroke="black"/><line x1="-2.4565174900817794" y1="-12.268018757833136" x2="-2.4565174900817794" y2="-12.268018757833136" stroke-width="0.1" stroke="black"/><line x1="-2.4565174900817794" y1="-12.268018757833136" x2="-2.4565174900817794" y2="-12.268018757833136" stroke-width="0.1" stroke="black"/><line x1="-2.4565174900817794" y1="-12.268018757833136" x2="-2.4565174900817794" y2="-12.268018757833136" stroke-width="0.1" stroke="black"/><line x1="-2.4565174900817794" y1="-12.268018757833136" x2="-3.222561933200758" y2="-12.910806367519676" stroke-width="0.1" stroke="black"/><line x1="-3.222561933200758" y1="-12.910806367519676" x2="-3.222561933200758" y2="-12.910806367519676" stroke-width="0.1" stroke="black"/><line x1="-3.222561933200758" y1="-12.910806367519676" x2="-3.222561933200758" y2="-12.910806367519676" stroke-width="0.1" stroke="black"/><line x1="-3.222561933200758" y1="-12.910806367519676" x2="-3.6451801949414575" y2="-13.817114154556325" stroke-width="0.1" stroke="black"/><line x1="-3.6451801949414575" y1="-13.817114154556325" x2="-3.6451801949414575" y2="-13.817114154556325" stroke-width="0.1" stroke="black"/><line x1="-3.6451801949414575" y1="-13.817114154556325" x2="-3.222561933200758" y2="-12.910806367519676" stroke-width="0.1" stroke="black"/><line x1="-3.222561933200758" y1="-12.910806367519676" x2="-3.222561933200758" y2="-12.910806367519676" stroke-width="0.1" stroke="black"/><line x1="-3.222561933200758" y1="-12.910806367519676" x2="-3.222561933200758" y2="-12.910806367519676" stroke-width="0.1" stroke="black"/></svg>