<svg viewBox="-2.220446049250313E-16 -5.000000000000002 3.0 6.000000000000002" xmlns="http://www.w3.org/2000/svg"><line x1="0.0" y1="0.0" x2="0.0" y2="0.0" stroke-width="0.1" stroke="black"/><line x1="0.0" y1="0.0" x2="0.0" y2="0.0" stroke-width="0.1" stroke="black"/><line x1="0.0" y1="0.0" x2="0.0" y2="0.0" stroke-width="0.1" stroke="black"/><line x1="0.0" y1="0.0" x2="0.0" y2="0.0" stroke-width="0.1" stroke="black"/><line x1="0.0" y1="0.0" x2="3.061616997868383E-16" y2="1.0" stroke-width="0.1" stroke="black"/><line x1="3.061616997868383E-16" y1="1.0" x2="3.061616997868383E-16" y2="1.0" stroke-width="0.1" stroke="black"/><line x1="3.061616997868383E-16" y1="1.0" x2="3.061616997868383E-16" y2="1.0" stroke-width="0.1" stroke="black"/><line x1="3.061616997868383E-16" y1="1.0" x2="1.0000000000000002" y2="0.9999999999999998" stroke-width="0.1" stroke="black"/><line x1="1.0000000000000002" y1="0.9999999999999998" x2="1.0000000000000002" y2="0.9999999999999998" stroke-width="0.1" stroke="black"/><line x1="1.0000000000000002" y1="0.9999999999999998" x2="1.0000000000000002" y2="0.9999999999999998" stroke-width="0.1" stroke="black"/><line x1="1.0000000000000002" y1="0.9999999999999998" x2="1.0000000000000002" y2="0.9999999999999998" stroke-width="0.1" stroke="black"/><line x1="1.0000000000000002" y1="0.9999999999999998" x2="1.0000000000000002" y2="0.9999999999999998" stroke-width="0.1" stroke="black"/><line x1="1.0000000000000002" y1="0.9999999999999998" x2="2.0" y2="0.9999999999999996" stroke-width="0.1" stroke="black"/><line x1="2.0" y1="0.9999999999999996" x2="2.0" y2="0.9999999999999996" stroke-width="0.1" stroke="black"/><line x1="2.0" y1="0.9999999999999996" x2="2.0" y2="0.9999999999999996" stroke-width="0.1" stroke="black"/><line x1="2.0" y1="0.9999999999999996" x2="1.9999999999999998" y2="-4.440892098500626E-16" stroke-width="0.1" stroke="black"/><line x1="1.9999999999999998" y1="-4.440892098500626E-16" x2="1.9999999999999998" y2="-4.440892098500626E-16" stroke-width="0.1" stroke="black"/><line x1="1.9999999999999998" y1="-4.440892098500626E-16" x2="1.9999999999999998" y2="-4.440892098500626E-16" stroke-width="0.1" stroke="black"/><line x1="1.9999999999999998" y1="-4.440892098500626E-16" x2="1.9999999999999998" y2="-4.440892098500626E-16" stroke-width="0.1" stroke="black"/><line x1="1.9999999999999998" y1="-4.440892098500626E-16" x2="1.9999999999999998" y2="-4.440892098500626E-16" stroke-width="0.1" stroke="black"/><line x1="1.9999999999999998" y1="-4.440892098500626E-16" x2="1.9999999999999998" y2="-4.440892098500626E-16" stroke-width="0.1" stroke="black"/><line x1="1.9999999999999998" y1="-4.440892098500626E-16" x2="1.9999999999999998" y2="-4.440892098500626E-16" stroke-width="0.1" stroke="black"/><line x1="1.9999999999999998" y1="-4.440892098500626E-16" x2="3.0" y2="-6.890185696795333E-16" stroke-width="0.1" stroke="black"/><line x1="3.0" y1="-6.890185696795333E-16" x2="3.0" y2="-6.890185696795333E-16" stroke-width="0.1" stroke="black"/><line x1="3.0" y1="-6.890185696795333E-16" x2="3.0" y2="-6.890185696795333E-16" stroke-width="0.1" stroke="black"/><line x1="3.0" y1="-6.890185696795333E-16" x2="3.0" y2="-1.0000000000000007" stroke-width="0.1" stroke="black"/><line x1="3.0" y1="-1.0000000000000007" x2="3.0" y2="-1.0000000000000007" stroke-width="0.1" stroke="black"/><line x1="3.0" y1="-1.0000000000000007" x2="3.0" y2="-1.0000000000000007" stroke-width="0.1" stroke="black"/><line x1="3.0" y1="-1.0000000000000007" x2="3.0" y2="-1.0000000000000007" stroke-width="0.1" stroke="black"/><line x1="3.0" y1="-1.0000000000000007" x2="3.0" y2="-1.0000000000000007" stroke-width="0.1" stroke="black"/><line x1="3.0" y1="-1.0000000000000007" x2="3.0" y2="-2.000000000000001" stroke-width="0.1" stroke="black"/><line x1="3.0" y1="-2.000000000000001" x2="3.0" y2="-2.000000000000001" stroke-width="0.1" stroke="black"/><line x1="3.0" y1="-2.000000000000001" x2="3.0" y2="-2.000000000000001" stroke-width="0.1" stroke="black"/><line x1="3.0" y1="-2.000000000000001" x2="2.0" y2="-2.000000000000001" stroke-width="0.1" stroke="black"/><line x1="2.0" y1="-2.000000000000001" x2="2.0" y2="-2.000000000000001" stroke-width="0.1" stroke="black"/><line x1="2.0" y1="-2.000000000000001" x2="2.0" y2="-2.000000000000001" stroke-width="0.1" stroke="black"/><line x1="2.0" y1="-2.000000000000001" x2="2.0" y2="-2.000000000000001" stroke-width="0.1" stroke="black"/><line x1="2.0" y1="-2.000000000000001" x2="2.0" y2="-2.000000000000001" stroke-width="0.1" stroke="black"/><line x1="2.0" y1="-2.000000000000001" x2="2.0" y2="-2.000000000000001" stroke-width="0.1" stroke="black"/><line x1="2.0" y1="-2.000000000000001" x2="2.0" y2="-2.000000000000001" stroke-width="0.1" stroke="black"/><line x1="2.0" y1="-2.000000000000001" x2="2.0" y2="-2.000000000000001" stroke-width="0.1" stroke="black"/><line x1="2.0" y1="-2.000000000000001" x2="2.0" y2="-2.000000000000001" stroke-width="0.1" stroke="black"/><line x1="2.0" y1="-2.000000000000001" x2="3.0" y2="-2.0000000000000013" stroke-width="0.1" stroke="black"/><line x1="3.0" y1="-2.0000000000000013" x2="3.0" y2="-2.0000000000000013" stroke-width="0.1" stroke="black"/><line x1="3.0" y1="-2.0000000000000013" x2="3.0" y2="-2.0000000000000013" stroke-width="0.1" stroke="black"/><line x1="3.0" y1="-2.0000000000000013" x2="3.0" y2="-3.0000000000000013" stroke-width="0.1" stroke="black"/><line x1="3.0" y1="-3.0000000000000013" x2="3.0" y2="-3.0000000000000013" stroke-width="0.1" stroke="black"/><line x1="3.0" y1="-3.0000000000000013" x2="3.0" y2="-3.0000000000000013" stroke-width="0.1" stroke="black"/><line x1="3.0" y1="-3.0000000000000013" x2="3.0" y2="-3.0000000000000013" stroke-width="0.1" stroke="black"/><line x1="3.0" y1="-3.0000000000000013" x2="3.0" y2="-3.0000000000000013" stroke-width="0.1" stroke="black"/><line x1="3.0" y1="-3.0000000000000013" x2="3.0" y2="-4.000000000000002" stroke-width="0.1" stroke="black"/><line x1="3.0" y1="-4.000000000000002" x2="3.0" y2="-4.000000000000002" stroke-width="0.1" stroke="black"/><line x1="3.0" y1="-4.000000000000002" x2="3.0" y2="-4.000000000000002" stroke-width="0.1" stroke="black"/><line x1="3.0" y1="-4.000000000000002" x2="2.0" y2="-4.000000000000002" stroke-width="0.1" stroke="black"/><line x1="2.0" y1="-4.000000000000002" x2="2.0" y2="-4.000000000000002" stroke-width="0.1" stroke="black"/><line x1="2.0" y1="-4.000000000000002" x2="2.0" y2="-4.000000000000002" stroke-width="0.1" stroke="black"/><line x1="2.0" y1="-4.000000000000002" x2="2.0" y2="-4.000000000000002" stroke-width="0.1" stroke="black"/><line x1="2.0" y1="-4.000000000000002" x2="2.0" y2="-4.000000000000002" stroke-width="0.1" stroke="black"/><line x1="2.0" y1="-4.000000000000002" x2="2.0" y2="-4.000000000000002" stroke-width="0.1" stroke="black"/><line x1="2.0" y1="-4.000000000000002" x2="2.0" y2="-4.000000000000002" stroke-width="0.1" stroke="black"/><line x1="2.0" y1="-4.000000000000002" x2="1.9999999999999998" y2="-5.000000000000002" stroke-width="0.1" stroke="black"/><line x1="1.9999999999999998" y1="-5.000000000000002" x2="1.9999999999999998" y2="-5.000000000000002" stroke-width="0.1" stroke="black"/><line x1="1.9999999999999998" y1="-5.000000000000002" x2="1.9999999999999998" y2="-5.000000000000002" stroke-width="0.1" stroke="black"/><line x1="1.9999999999999998" y1="-5.000000000000002" x2="0.9999999999999998" y2="-5.000000000000002" stroke-width="0.1" stroke="black"/><line x1="0.9999999999999998" y1="-5.000000000000002" x2="0.9999999999999998" y2="-5.000000000000002" stroke-width="0.1" stroke="black"/><line x1="0.9999999999999998" y1="-5.000000000000002" x2="0.9999999999999998" y2="-5.000000000000002" stroke-width="0.1" stroke="black"/><line x1="0.9999999999999998" y1="-5.000000000000002" x2="0.9999999999999998" y2="-5.000000000000002" stroke-width="0.1" stroke="black"/><line x1="0.9999999999999998" y1="-5.000000000000002" x2="0.9999999999999998" y2="-5.000000000000002" stroke-width="0.1" stroke="black"/><line x1="0.9999999999999998" y1="-5.000000000000002" x2="-2.220446049250313E-16" y2="-5.000000000000002" stroke-width="0.1" stroke="black"/><line x1="-2.220446049250313E-16" y1="-5.000000000000002" x2="-2.220446049250313E-16" y2="-5.000000000000002" stroke-width="0.1" stroke="black"/><line x1="-2.220446049250313E-16" y1="-5.000000000000002" x2="-2.220446049250313E-16" y2="-5.000000000000002" stroke-width="0.1" stroke="black"/><line x1="-2.220446049250313E-16" y1="-5.000000000000002" x2="-1.6081226496766364E-16" y2="-4.000000000000002" stroke-width="0.1" stroke="black"/><line x1="-1.6081226496766364E-16" y1="-4.000000000000002" x2="-1.6081226496766364E-16" y2="-4.000000000000002" stroke-width="0.1" stroke="black"/><line x1="-1.6081226496766364E-16" y1="-4.000000000000002" x2="-1.6081226496766364E-16" y2="-4.000000000000002" stroke-width="0.1" stroke="black"/><line x1="-1.6081226496766364E-16" y1="-4.000000000000002" x2="-1.6081226496766364E-16" y2="-4.000000000000002" stroke-width="0.1" stroke="black"/><line x1="-1.6081226496766364E-16" y1="-4.000000000000002" x2="-1.6081226496766364E-16" y2="-4.000000000000002" stroke-width="0.1" stroke="black"/></svg>