<svg viewBox="-2.3395705708807155E-13 -800.0 800.0000000000007 800.0000000000001" xmlns="http://www.w3.org/2000/svg"><line x1="0.0" y1="0.0" x2="0.0" y2="0.0" stroke-width="5" stroke="black"/><line x1="0.0" y1="0.0" x2="-1.8369701987210297E-14" y2="-100.0" stroke-width="5" stroke="black"/><line x1="-1.8369701987210297E-14" y1="-100.0" x2="-1.8369701987210297E-14" y2="-100.0" stroke-width="5" stroke="black"/><line x1="-1.8369701987210297E-14" y1="-100.0" x2="-3.6739403974420595E-14" y2="-200.0" stroke-width="5" stroke="black"/><line x1="-3.6739403974420595E-14" y1="-200.0" x2="-3.6739403974420595E-14" y2="-200.0" stroke-width="5" stroke="black"/><line x1="-3.6739403974420595E-14" y1="-200.0" x2="-3.6739403974420595E-14" y2="-200.0" stroke-width="5" stroke="black"/><line x1="-3.6739403974420595E-14" y1="-200.0" x2="99.99999999999996" y2="-200.00000000000003" stroke-width="5" stroke="black"/><line x1="99.99999999999996" y1="-200.00000000000003" x2="99.99999999999996" y2="-200.00000000000003" stroke-width="5" stroke="black"/><line x1="99.99999999999996" y1="-200.00000000000003" x2="99.99999999999996" y2="-200.00000000000003" stroke-width="5" stroke="black"/><line x1="99.99999999999996" y1="-200.00000000000003" x2="99.99999999999999" y2="-100.00000000000003" stroke-width="5" stroke="black"/><line x1="99.99999999999999" y1="-100.00000000000003" x2="99.99999999999999" y2="-100.00000000000003" stroke-width="5" stroke="black"/><line x1="99.99999999999999" y1="-100.00000000000003" x2="100.00000000000001" y2="-2.8421709430404007E-14" stroke-width="5" stroke="black"/><line x1="100.00000000000001" y1="-2.8421709430404007E-14" x2="100.00000000000001" y2="-2.8421709430404007E-14" stroke-width="5" stroke="black"/><line x1="100.00000000000001" y1="-2.8421709430404007E-14" x2="100.00000000000001" y2="-2.8421709430404007E-14" stroke-width="5" stroke="black"/><line x1="100.00000000000001" y1="-2.8421709430404007E-14" x2="200.0" y2="-5.2914645413351075E-14" stroke-width="5" stroke="black"/><line x1="200.0" y1="-5.2914645413351075E-14" x2="200.0" y2="-5.2914645413351075E-14" stroke-width="5" stroke="black"/><line x1="200.0" y1="-5.2914645413351075E-14" x2="200.0" y2="-5.2914645413351075E-14" stroke-width="5" stroke="black"/><line x1="200.0" y1="-5.2914645413351075E-14" x2="199.99999999999997" y2="-100.00000000000006" stroke-width="5" stroke="black"/><line x1="199.99999999999997" y1="-100.00000000000006" x2="199.99999999999997" y2="-100.00000000000006" stroke-width="5" stroke="black"/><line x1="199.99999999999997" y1="-100.00000000000006" x2="199.99999999999994" y2="-200.00000000000006" stroke-width="5" stroke="black"/><line x1="199.99999999999994" y1="-200.00000000000006" x2="199.99999999999994" y2="-200.00000000000006" stroke-width="5" stroke="black"/><line x1="199.99999999999994" y1="-200.00000000000006" x2="199.99999999999991" y2="-300.00000000000006" stroke-width="5" stroke="black"/><line x1="199.99999999999991" y1="-300.00000000000006" x2="199.99999999999991" y2="-300.00000000000006" stroke-width="5" stroke="black"/><line x1="199.99999999999991" y1="-300.00000000000006" x2="199.9999999999999" y2="-400.00000000000006" stroke-width="5" stroke="black"/><line x1="199.9999999999999" y1="-400.00000000000006" x2="199.9999999999999" y2="-400.00000000000006" stroke-width="5" stroke="black"/><line x1="199.9999999999999" y1="-400.00000000000006" x2="199.99999999999986" y2="-500.00000000000006" stroke-width="5" stroke="black"/><line x1="199.99999999999986" y1="-500.00000000000006" x2="199.99999999999986" y2="-500.00000000000006" stroke-width="5" stroke="black"/><line x1="199.99999999999986" y1="-500.00000000000006" x2="199.99999999999986" y2="-500.00000000000006" stroke-width="5" stroke="black"/><line x1="199.99999999999986" y1="-500.00000000000006" x2="99.99999999999986" y2="-500.00000000000006" stroke-width="5" stroke="black"/><line x1="99.99999999999986" y1="-500.00000000000006" x2="99.99999999999986" y2="-500.00000000000006" stroke-width="5" stroke="black"/><line x1="99.99999999999986" y1="-500.00000000000006" x2="99.99999999999986" y2="-500.00000000000006" stroke-width="5" stroke="black"/><line x1="99.99999999999986" y1="-500.00000000000006" x2="99.99999999999986" y2="-400.00000000000006" stroke-width="5" stroke="black"/><line x1="99.99999999999986" y1="-400.00000000000006" x2="99.99999999999986" y2="-400.00000000000006" stroke-width="5" stroke="black"/><line x1="99.99999999999986" y1="-400.00000000000006" x2="99.99999999999986" y2="-300.00000000000006" stroke-width="5" stroke="black"/><line x1="99.99999999999986" y1="-300.00000000000006" x2="99.99999999999986" y2="-300.00000000000006" stroke-width="5" stroke="black"/><line x1="99.99999999999986" y1="-300.00000000000006" x2="99.99999999999986" y2="-300.00000000000006" stroke-width="5" stroke="black"/><line x1="99.99999999999986" y1="-300.00000000000006" x2="-1.4210854715202004E-13" y2="-300.00000000000006" stroke-width="5" stroke="black"/><line x1="-1.4210854715202004E-13" y1="-300.00000000000006" x2="-1.4210854715202004E-13" y2="-300.00000000000006" stroke-width="5" stroke="black"/><line x1="-1.4210854715202004E-13" y1="-300.00000000000006" x2="-1.4210854715202004E-13" y2="-300.00000000000006" stroke-width="5" stroke="black"/><line x1="-1.4210854715202004E-13" y1="-300.00000000000006" x2="-1.6047824913923033E-13" y2="-400.00000000000006" stroke-width="5" stroke="black"/><line x1="-1.6047824913923033E-13" y1="-400.00000000000006" x2="-1.6047824913923033E-13" y2="-400.00000000000006" stroke-width="5" stroke="black"/><line x1="-1.6047824913923033E-13" y1="-400.00000000000006" x2="-1.7884795112644063E-13" y2="-500.00000000000006" stroke-width="5" stroke="black"/><line x1="-1.7884795112644063E-13" y1="-500.00000000000006" x2="-1.7884795112644063E-13" y2="-500.00000000000006" stroke-width="5" stroke="black"/><line x1="-1.7884795112644063E-13" y1="-500.00000000000006" x2="-1.9721765311365093E-13" y2="-600.0" stroke-width="5" stroke="black"/><line x1="-1.9721765311365093E-13" y1="-600.0" x2="-1.9721765311365093E-13" y2="-600.0" stroke-width="5" stroke="black"/><line x1="-1.9721765311365093E-13" y1="-600.0" x2="-2.1558735510086123E-13" y2="-700.0" stroke-width="5" stroke="black"/><line x1="-2.1558735510086123E-13" y1="-700.0" x2="-2.1558735510086123E-13" y2="-700.0" stroke-width="5" stroke="black"/><line x1="-2.1558735510086123E-13" y1="-700.0" x2="-2.3395705708807155E-13" y2="-800.0" stroke-width="5" stroke="black"/><line x1="-2.3395705708807155E-13" y1="-800.0" x2="-2.3395705708807155E-13" y2="-800.0" stroke-width="5" stroke="black"/><line x1="-2.3395705708807155E-13" y1="-800.0" x2="-2.3395705708807155E-13" y2="-800.0" stroke-width="5" stroke="black"/><line x1="-2.3395705708807155E-13" y1="-800.0" x2="99.99999999999977" y2="-800.0" stroke-width="5" stroke="black"/><line x1="99.99999999999977" y1="-800.0" x2="99.99999999999977" y2="-800.0" stroke-width="5" stroke="black"/><line x1="99.99999999999977" y1="-800.0" x2="99.99999999999977" y2="-800.0" stroke-width="5" stroke="black"/><line x1="99.99999999999977" y1="-800.0" x2="99.9999999999998" y2="-700.0" stroke-width="5" stroke="black"/><line x1="99.9999999999998" y1="-700.0" x2="99.9999999999998" y2="-700.0" stroke-width="5" stroke="black"/><line x1="99.9999999999998" y1="-700.0" x2="99.99999999999983" y2="-600.0" stroke-width="5" stroke="black"/><line x1="99.99999999999983" y1="-600.0" x2="99.99999999999983" y2="-600.0" stroke-width="5" stroke="black"/><line x1="99.99999999999983" y1="-600.0" x2="99.99999999999983" y2="-600.0" stroke-width="5" stroke="black"/><line x1="99.99999999999983" y1="-600.0" x2="199.99999999999983" y2="-600.0" stroke-width="5" stroke="black"/><line x1="199.99999999999983" y1="-600.0" x2="199.99999999999983" y2="-600.0" stroke-width="5" stroke="black"/><line x1="199.99999999999983" y1="-600.0" x2="199.99999999999983" y2="-600.0" stroke-width="5" stroke="black"/><line x1="199.99999999999983" y1="-600.0" x2="199.9999999999998" y2="-700.0" stroke-width="5" stroke="black"/><line x1="199.9999999999998" y1="-700.0" x2="199.9999999999998" y2="-700.0" stroke-width="5" stroke="black"/><line x1="199.9999999999998" y1="-700.0" x2="199.99999999999977" y2="-800.0" stroke-width="5" stroke="black"/><line x1="199.99999999999977" y1="-800.0" x2="199.99999999999977" y2="-800.0" stroke-width="5" stroke="black"/><line x1="199.99999999999977" y1="-800.0" x2="199.99999999999977" y2="-800.0" stroke-width="5" stroke="black"/><line x1="199.99999999999977" y1="-800.0" x2="299.9999999999998" y2="-800.0" stroke-width="5" stroke="black"/><line x1="299.9999999999998" y1="-800.0" x2="299.9999999999998" y2="-800.0" stroke-width="5" stroke="black"/><line x1="299.9999999999998" y1="-800.0" x2="299.9999999999998" y2="-800.0" stroke-width="5" stroke="black"/><line x1="299.9999999999998" y1="-800.0" x2="299.99999999999983" y2="-700.0" stroke-width="5" stroke="black"/><line x1="299.99999999999983" y1="-700.0" x2="299.99999999999983" y2="-700.0" stroke-width="5" stroke="black"/><line x1="299.99999999999983" y1="-700.0" x2="299.9999999999999" y2="-600.0" stroke-width="5" stroke="black"/><line x1="299.9999999999999" y1="-600.0" x2="299.9999999999999" y2="-600.0" stroke-width="5" stroke="black"/><line x1="299.9999999999999" y1="-600.0" x2="299.9999999999999" y2="-600.0" stroke-width="5" stroke="black"/><line x1="299.9999999999999" y1="-600.0" x2="399.9999999999999" y2="-600.0" stroke-width="5" stroke="black"/><line x1="399.9999999999999" y1="-600.0" x2="399.9999999999999" y2="-600.0" stroke-width="5" stroke="black"/><line x1="399.9999999999999" y1="-600.0" x2="399.9999999999999" y2="-600.0" stroke-width="5" stroke="black"/><line x1="399.9999999999999" y1="-600.0" x2="399.9999999999999" y2="-700.0" stroke-width="5" stroke="black"/><line x1="399.9999999999999" y1="-700.0" x2="399.9999999999999" y2="-700.0" stroke-width="5" stroke="black"/><line x1="399.9999999999999" y1="-700.0" x2="399.9999999999999" y2="-800.0" stroke-width="5" stroke="black"/><line x1="399.9999999999999" y1="-800.0" x2="399.9999999999999" y2="-800.0" stroke-width="5" stroke="black"/><line x1="399.9999999999999" y1="-800.0" x2="399.9999999999999" y2="-800.0" stroke-width="5" stroke="black"/><line x1="399.9999999999999" y1="-800.0" x2="499.9999999999999" y2="-800.0" stroke-width="5" stroke="black"/><line x1="499.9999999999999" y1="-800.0" x2="499.9999999999999" y2="-800.0" stroke-width="5" stroke="black"/><line x1="499.9999999999999" y1="-800.0" x2="499.9999999999999" y2="-800.0" stroke-width="5" stroke="black"/><line x1="499.9999999999999" y1="-800.0" x2="499.99999999999994" y2="-700.0" stroke-width="5" stroke="black"/><line x1="499.99999999999994" y1="-700.0" x2="499.99999999999994" y2="-700.0" stroke-width="5" stroke="black"/><line x1="499.99999999999994" y1="-700.0" x2="500.0" y2="-600.0" stroke-width="5" stroke="black"/><line x1="500.0" y1="-600.0" x2="500.0" y2="-600.0" stroke-width="5" stroke="black"/><line x1="500.0" y1="-600.0" x2="500.00000000000006" y2="-500.0" stroke-width="5" stroke="black"/><line x1="500.00000000000006" y1="-500.0" x2="500.00000000000006" y2="-500.0" stroke-width="5" stroke="black"/><line x1="500.00000000000006" y1="-500.0" x2="500.0000000000001" y2="-400.0" stroke-width="5" stroke="black"/><line x1="500.0000000000001" y1="-400.0" x2="500.0000000000001" y2="-400.0" stroke-width="5" stroke="black"/><line x1="500.0000000000001" y1="-400.0" x2="500.00000000000017" y2="-300.0" stroke-width="5" stroke="black"/><line x1="500.00000000000017" y1="-300.0" x2="500.00000000000017" y2="-300.0" stroke-width="5" stroke="black"/><line x1="500.00000000000017" y1="-300.0" x2="500.00000000000017" y2="-300.0" stroke-width="5" stroke="black"/><line x1="500.00000000000017" y1="-300.0" x2="400.00000000000017" y2="-299.99999999999994" stroke-width="5" stroke="black"/><line x1="400.00000000000017" y1="-299.99999999999994" x2="400.00000000000017" y2="-299.99999999999994" stroke-width="5" stroke="black"/><line x1="400.00000000000017" y1="-299.99999999999994" x2="400.00000000000017" y2="-299.99999999999994" stroke-width="5" stroke="black"/><line x1="400.00000000000017" y1="-299.99999999999994" x2="400.0000000000001" y2="-399.99999999999994" stroke-width="5" stroke="black"/><line x1="400.0000000000001" y1="-399.99999999999994" x2="400.0000000000001" y2="-399.99999999999994" stroke-width="5" stroke="black"/><line x1="400.0000000000001" y1="-399.99999999999994" x2="400.00000000000006" y2="-499.99999999999994" stroke-width="5" stroke="black"/><line x1="400.00000000000006" y1="-499.99999999999994" x2="400.00000000000006" y2="-499.99999999999994" stroke-width="5" stroke="black"/><line x1="400.00000000000006" y1="-499.99999999999994" x2="400.00000000000006" y2="-499.99999999999994" stroke-width="5" stroke="black"/><line x1="400.00000000000006" y1="-499.99999999999994" x2="300.00000000000006" y2="-499.9999999999999" stroke-width="5" stroke="black"/><line x1="300.00000000000006" y1="-499.9999999999999" x2="300.00000000000006" y2="-499.9999999999999" stroke-width="5" stroke="black"/><line x1="300.00000000000006" y1="-499.9999999999999" x2="300.00000000000006" y2="-499.9999999999999" stroke-width="5" stroke="black"/><line x1="300.00000000000006" y1="-499.9999999999999" x2="300.0000000000001" y2="-399.9999999999999" stroke-width="5" stroke="black"/><line x1="300.0000000000001" y1="-399.9999999999999" x2="300.0000000000001" y2="-399.9999999999999" stroke-width="5" stroke="black"/><line x1="300.0000000000001" y1="-399.9999999999999" x2="300.00000000000017" y2="-299.9999999999999" stroke-width="5" stroke="black"/><line x1="300.00000000000017" y1="-299.9999999999999" x2="300.00000000000017" y2="-299.9999999999999" stroke-width="5" stroke="black"/><line x1="300.00000000000017" y1="-299.9999999999999" x2="300.0000000000002" y2="-199.9999999999999" stroke-width="5" stroke="black"/><line x1="300.0000000000002" y1="-199.9999999999999" x2="300.0000000000002" y2="-199.9999999999999" stroke-width="5" stroke="black"/><line x1="300.0000000000002" y1="-199.9999999999999" x2="300.0000000000003" y2="-99.99999999999989" stroke-width="5" stroke="black"/><line x1="300.0000000000003" y1="-99.99999999999989" x2="300.0000000000003" y2="-99.99999999999989" stroke-width="5" stroke="black"/><line x1="300.0000000000003" y1="-99.99999999999989" x2="300.00000000000034" y2="1.1368683772161603E-13" stroke-width="5" stroke="black"/><line x1="300.00000000000034" y1="1.1368683772161603E-13" x2="300.00000000000034" y2="1.1368683772161603E-13" stroke-width="5" stroke="black"/><line x1="300.00000000000034" y1="1.1368683772161603E-13" x2="300.00000000000034" y2="1.1368683772161603E-13" stroke-width="5" stroke="black"/><line x1="300.00000000000034" y1="1.1368683772161603E-13" x2="400.00000000000034" y2="8.919390173866896E-14" stroke-width="5" stroke="black"/><line x1="400.00000000000034" y1="8.919390173866896E-14" x2="400.00000000000034" y2="8.919390173866896E-14" stroke-width="5" stroke="black"/><line x1="400.00000000000034" y1="8.919390173866896E-14" x2="400.00000000000034" y2="8.919390173866896E-14" stroke-width="5" stroke="black"/><line x1="400.00000000000034" y1="8.919390173866896E-14" x2="400.00000000000034" y2="-99.99999999999991" stroke-width="5" stroke="black"/><line x1="400.00000000000034" y1="-99.99999999999991" x2="400.00000000000034" y2="-99.99999999999991" stroke-width="5" stroke="black"/><line x1="400.00000000000034" y1="-99.99999999999991" x2="400.00000000000034" y2="-199.99999999999991" stroke-width="5" stroke="black"/><line x1="400.00000000000034" y1="-199.99999999999991" x2="400.00000000000034" y2="-199.99999999999991" stroke-width="5" stroke="black"/><line x1="400.00000000000034" y1="-199.99999999999991" x2="400.00000000000034" y2="-199.99999999999991" stroke-width="5" stroke="black"/><line x1="400.00000000000034" y1="-199.99999999999991" x2="500.00000000000034" y2="-199.99999999999994" stroke-width="5" stroke="black"/><line x1="500.00000000000034" y1="-199.99999999999994" x2="500.00000000000034" y2="-199.99999999999994" stroke-width="5" stroke="black"/><line x1="500.00000000000034" y1="-199.99999999999994" x2="500.00000000000034" y2="-199.99999999999994" stroke-width="5" stroke="black"/><line x1="500.00000000000034" y1="-199.99999999999994" x2="500.0000000000004" y2="-99.99999999999994" stroke-width="5" stroke="black"/><line x1="500.0000000000004" y1="-99.99999999999994" x2="500.0000000000004" y2="-99.99999999999994" stroke-width="5" stroke="black"/><line x1="500.0000000000004" y1="-99.99999999999994" x2="500.00000000000045" y2="5.6843418860808015E-14" stroke-width="5" stroke="black"/><line x1="500.00000000000045" y1="5.6843418860808015E-14" x2="500.00000000000045" y2="5.6843418860808015E-14" stroke-width="5" stroke="black"/><line x1="500.00000000000045" y1="5.6843418860808015E-14" x2="500.00000000000045" y2="5.6843418860808015E-14" stroke-width="5" stroke="black"/><line x1="500.00000000000045" y1="5.6843418860808015E-14" x2="600.0000000000005" y2="3.235048287786095E-14" stroke-width="5" stroke="black"/><line x1="600.0000000000005" y1="3.235048287786095E-14" x2="600.0000000000005" y2="3.235048287786095E-14" stroke-width="5" stroke="black"/><line x1="600.0000000000005" y1="3.235048287786095E-14" x2="600.0000000000005" y2="3.235048287786095E-14" stroke-width="5" stroke="black"/><line x1="600.0000000000005" y1="3.235048287786095E-14" x2="600.0000000000005" y2="-99.99999999999997" stroke-width="5" stroke="black"/><line x1="600.0000000000005" y1="-99.99999999999997" x2="600.0000000000005" y2="-99.99999999999997" stroke-width="5" stroke="black"/><line x1="600.0000000000005" y1="-99.99999999999997" x2="600.0000000000005" y2="-199.99999999999997" stroke-width="5" stroke="black"/><line x1="600.0000000000005" y1="-199.99999999999997" x2="600.0000000000005" y2="-199.99999999999997" stroke-width="5" stroke="black"/><line x1="600.0000000000005" y1="-199.99999999999997" x2="600.0000000000005" y2="-199.99999999999997" stroke-width="5" stroke="black"/><line x1="600.0000000000005" y1="-199.99999999999997" x2="700.0000000000005" y2="-200.0" stroke-width="5" stroke="black"/><line x1="700.0000000000005" y1="-200.0" x2="700.0000000000005" y2="-200.0" stroke-width="5" stroke="black"/><line x1="700.0000000000005" y1="-200.0" x2="700.0000000000005" y2="-200.0" stroke-width="5" stroke="black"/><line x1="700.0000000000005" y1="-200.0" x2="700.0000000000005" y2="-100.0" stroke-width="5" stroke="black"/><line x1="700.0000000000005" y1="-100.0" x2="700.0000000000005" y2="-100.0" stroke-width="5" stroke="black"/><line x1="700.0000000000005" y1="-100.0" x2="700.0000000000005" y2="0.0" stroke-width="5" stroke="black"/><line x1="700.0000000000005" y1="0.0" x2="700.0000000000005" y2="0.0" stroke-width="5" stroke="black"/><line x1="700.0000000000005" y1="0.0" x2="700.0000000000005" y2="0.0" stroke-width="5" stroke="black"/><line x1="700.0000000000005" y1="0.0" x2="800.0000000000005" y2="-2.4492935982947064E-14" stroke-width="5" stroke="black"/><line x1="800.0000000000005" y1="-2.4492935982947064E-14" x2="800.0000000000005" y2="-2.4492935982947064E-14" stroke-width="5" stroke="black"/><line x1="800.0000000000005" y1="-2.4492935982947064E-14" x2="800.0000000000005" y2="-2.4492935982947064E-14" stroke-width="5" stroke="black"/><line x1="800.0000000000005" y1="-2.4492935982947064E-14" x2="800.0000000000005" y2="-100.00000000000003" stroke-width="5" stroke="black"/><line x1="800.0000000000005" y1="-100.00000000000003" x2="800.0000000000005" y2="-100.00000000000003" stroke-width="5" stroke="black"/><line x1="800.0000000000005" y1="-100.00000000000003" x2="800.0000000000005" y2="-200.00000000000003" stroke-width="5" stroke="black"/><line x1="800.0000000000005" y1="-200.00000000000003" x2="800.0000000000005" y2="-200.00000000000003" stroke-width="5" stroke="black"/><line x1="800.0000000000005" y1="-200.00000000000003" x2="800.0000000000005" y2="-300.0" stroke-width="5" stroke="black"/><line x1="800.0000000000005" y1="-300.0" x2="800.0000000000005" y2="-300.0" stroke-width="5" stroke="black"/><line x1="800.0000000000005" y1="-300.0" x2="800.0000000000005" y2="-400.0" stroke-width="5" stroke="black"/><line x1="800.0000000000005" y1="-400.0" x2="800.0000000000005" y2="-400.0" stroke-width="5" stroke="black"/><line x1="800.0000000000005" y1="-400.0" x2="800.0000000000005" y2="-500.0" stroke-width="5" stroke="black"/><line x1="800.0000000000005" y1="-500.0" x2="800.0000000000005" y2="-500.0" stroke-width="5" stroke="black"/><line x1="800.0000000000005" y1="-500.0" x2="800.0000000000005" y2="-500.0" stroke-width="5" stroke="black"/><line x1="800.0000000000005" y1="-500.0" x2="700.0000000000005" y2="-500.0" stroke-width="5" stroke="black"/><line x1="700.0000000000005" y1="-500.0" x2="700.0000000000005" y2="-500.0" stroke-width="5" stroke="black"/><line x1="700.0000000000005" y1="-500.0" x2="700.0000000000005" y2="-500.0" stroke-width="5" stroke="black"/><line x1="700.0000000000005" y1="-500.0" x2="700.0000000000005" y2="-400.0" stroke-width="5" stroke="black"/><line x1="700.0000000000005" y1="-400.0" x2="700.0000000000005" y2="-400.0" stroke-width="5" stroke="black"/><line x1="700.0000000000005" y1="-400.0" x2="700.0000000000005" y2="-300.0" stroke-width="5" stroke="black"/><line x1="700.0000000000005" y1="-300.0" x2="700.0000000000005" y2="-300.0" stroke-width="5" stroke="black"/><line x1="700.0000000000005" y1="-300.0" x2="700.0000000000005" y2="-300.0" stroke-width="5" stroke="black"/><line x1="700.0000000000005" y1="-300.0" x2="600.0000000000005" y2="-300.0" stroke-width="5" stroke="black"/><line x1="600.0000000000005" y1="-300.0" x2="600.0000000000005" y2="-300.0" stroke-width="5" stroke="black"/><line x1="600.0000000000005" y1="-300.0" x2="600.0000000000005" y2="-300.0" stroke-width="5" stroke="black"/><line x1="600.0000000000005" y1="-300.0" x2="600.0000000000005" y2="-400.0" stroke-width="5" stroke="black"/><line x1="600.0000000000005" y1="-400.0" x2="600.0000000000005" y2="-400.0" stroke-width="5" stroke="black"/><line x1="600.0000000000005" y1="-400.0" x2="600.0000000000005" y2="-500.0" stroke-width="5" stroke="black"/><line x1="600.0000000000005" y1="-500.0" x2="600.0000000000005" y2="-500.0" stroke-width="5" stroke="black"/><line x1="600.0000000000005" y1="-500.0" x2="600.0000000000005" y2="-600.0" stroke-width="5" stroke="black"/><line x1="600.0000000000005" y1="-600.0" x2="600.0000000000005" y2="-600.0" stroke-width="5" stroke="black"/><line x1="600.0000000000005" y1="-600.0" x2="600.0000000000005" y2="-700.0" stroke-width="5" stroke="black"/><line x1="600.0000000000005" y1="-700.0" x2="600.0000000000005" y2="-700.0" stroke-width="5" stroke="black"/><line x1="600.0000000000005" y1="-700.0" x2="600.0000000000005" y2="-800.0" stroke-width="5" stroke="black"/><line x1="600.0000000000005" y1="-800.0" x2="600.0000000000005" y2="-800.0" stroke-width="5" stroke="black"/><line x1="600.0000000000005" y1="-800.0" x2="600.0000000000005" y2="-800.0" stroke-width="5" stroke="black"/><line x1="600.0000000000005" y1="-800.0" x2="700.0000000000005" y2="-800.0" stroke-width="5" stroke="black"/><line x1="700.0000000000005" y1="-800.0" x2="700.0000000000005" y2="-800.0" stroke-width="5" stroke="black"/><line x1="700.0000000000005" y1="-800.0" x2="700.0000000000005" y2="-800.0" stroke-width="5" stroke="black"/><line x1="700.0000000000005" y1="-800.0" x2="700.0000000000005" y2="-700.0" stroke-width="5" stroke="black"/><line x1="700.0000000000005" y1="-700.0" x2="700.0000000000005" y2="-700.0" stroke-width="5" stroke="black"/><line x1="700.0000000000005" y1="-700.0" x2="700.0000000000005" y2="-600.0" stroke-width="5" stroke="black"/><line x1="700.0000000000005" y1="-600.0" x2="700.0000000000005" y2="-600.0" stroke-width="5" stroke="black"/><line x1="700.0000000000005" y1="-600.0" x2="700.0000000000005" y2="-600.0" stroke-width="5" stroke="black"/><line x1="700.0000000000005" y1="-600.0" x2="800.0000000000005" y2="-600.0" stroke-width="5" stroke="black"/><line x1="800.0000000000005" y1="-600.0" x2="800.0000000000005" y2="-600.0" stroke-width="5" stroke="black"/><line x1="800.0000000000005" y1="-600.0" x2="800.0000000000005" y2="-600.0" stroke-width="5" stroke="black"/><line x1="800.0000000000005" y1="-600.0" x2="800.0000000000005" y2="-700.0" stroke-width="5" stroke="black"/><line x1="800.0000000000005" y1="-700.0" x2="800.0000000000005" y2="-700.0" stroke-width="5" stroke="black"/><line x1="800.0000000000005" y1="-700.0" x2="800.0000000000005" y2="-800.0" stroke-width="5" stroke="black"/><line x1="800.0000000000005" y1="-800.0" x2="800.0000000000005" y2="-800.0" stroke-width="5" stroke="black"/></svg>