<svg viewBox="-1.986251163543784E-10 -897.2135954998793 1054.7378391824723 1109.016994374931" xmlns="http://www.w3.org/2000/svg"><line x1="0.0" y1="0.0" x2="-1.8369701987210297E-14" y2="-100.0" stroke-width="5" stroke="black"/><line x1="-1.8369701987210297E-14" y1="-100.0" x2="-1.8369701987210297E-14" y2="-100.0" stroke-width="5" stroke="black"/><line x1="-1.8369701987210297E-14" y1="-100.0" x2="-1.8369701987210297E-14" y2="-100.0" stroke-width="5" stroke="black"/><line x1="-1.8369701987210297E-14" y1="-100.0" x2="95.10565162951534" y2="-130.90169943749476" stroke-width="5" stroke="black"/><line x1="95.10565162951534" y1="-130.90169943749476" x2="95.10565162951534" y2="-130.90169943749476" stroke-width="5" stroke="black"/><line x1="95.10565162951534" y1="-130.90169943749476" x2="95.10565162951534" y2="-130.90169943749476" stroke-width="5" stroke="black"/><line x1="95.10565162951534" y1="-130.90169943749476" x2="153.88417685876266" y2="-50.00000000000003" stroke-width="5" stroke="black"/><line x1="153.88417685876266" y1="-50.00000000000003" x2="153.88417685876266" y2="-50.00000000000003" stroke-width="5" stroke="black"/><line x1="153.88417685876266" y1="-50.00000000000003" x2="95.10565162951531" y2="-130.90169943749476" stroke-width="5" stroke="black"/><line x1="95.10565162951531" y1="-130.90169943749476" x2="95.10565162951531" y2="-130.90169943749476" stroke-width="5" stroke="black"/><line x1="95.10565162951531" y1="-130.90169943749476" x2="-5.6843418860808015E-14" y2="-161.80339887498945" stroke-width="5" stroke="black"/><line x1="-5.6843418860808015E-14" y1="-161.80339887498945" x2="-5.6843418860808015E-14" y2="-161.80339887498945" stroke-width="5" stroke="black"/><line x1="-5.6843418860808015E-14" y1="-161.80339887498945" x2="-5.6843418860808015E-14" y2="-161.80339887498945" stroke-width="5" stroke="black"/><line x1="-5.6843418860808015E-14" y1="-161.80339887498945" x2="-9.970605683096537E-14" y2="-261.80339887498945" stroke-width="5" stroke="black"/><line x1="-9.970605683096537E-14" y1="-261.80339887498945" x2="-9.970605683096537E-14" y2="-261.80339887498945" stroke-width="5" stroke="black"/><line x1="-9.970605683096537E-14" y1="-261.80339887498945" x2="-9.970605683096537E-14" y2="-261.80339887498945" stroke-width="5" stroke="black"/><line x1="-9.970605683096537E-14" y1="-261.80339887498945" x2="95.10565162951524" y2="-292.70509831248427" stroke-width="5" stroke="black"/><line x1="95.10565162951524" y1="-292.70509831248427" x2="95.10565162951524" y2="-292.70509831248427" stroke-width="5" stroke="black"/><line x1="95.10565162951524" y1="-292.70509831248427" x2="95.10565162951524" y2="-292.70509831248427" stroke-width="5" stroke="black"/><line x1="95.10565162951524" y1="-292.70509831248427" x2="153.8841768587626" y2="-211.80339887498957" stroke-width="5" stroke="black"/><line x1="153.8841768587626" y1="-211.80339887498957" x2="153.8841768587626" y2="-211.80339887498957" stroke-width="5" stroke="black"/><line x1="153.8841768587626" y1="-211.80339887498957" x2="153.8841768587626" y2="-211.80339887498957" stroke-width="5" stroke="black"/><line x1="153.8841768587626" y1="-211.80339887498957" x2="95.10565162951534" y2="-130.90169943749478" stroke-width="5" stroke="black"/><line x1="95.10565162951534" y1="-130.90169943749478" x2="95.10565162951534" y2="-130.90169943749478" stroke-width="5" stroke="black"/><line x1="95.10565162951534" y1="-130.90169943749478" x2="153.88417685876274" y2="-211.80339887498945" stroke-width="5" stroke="black"/><line x1="153.88417685876274" y1="-211.80339887498945" x2="153.88417685876274" y2="-211.80339887498945" stroke-width="5" stroke="black"/><line x1="153.88417685876274" y1="-211.80339887498945" x2="153.88417685876286" y2="-311.80339887498945" stroke-width="5" stroke="black"/><line x1="153.88417685876286" y1="-311.80339887498945" x2="153.88417685876286" y2="-311.80339887498945" stroke-width="5" stroke="black"/><line x1="153.88417685876286" y1="-311.80339887498945" x2="153.88417685876286" y2="-311.80339887498945" stroke-width="5" stroke="black"/><line x1="153.88417685876286" y1="-311.80339887498945" x2="248.98982848827825" y2="-342.7050983124841" stroke-width="5" stroke="black"/><line x1="248.98982848827825" y1="-342.7050983124841" x2="248.98982848827825" y2="-342.7050983124841" stroke-width="5" stroke="black"/><line x1="248.98982848827825" y1="-342.7050983124841" x2="248.98982848827825" y2="-342.7050983124841" stroke-width="5" stroke="black"/><line x1="248.98982848827825" y1="-342.7050983124841" x2="307.7683537175255" y2="-261.8033988749893" stroke-width="5" stroke="black"/><line x1="307.7683537175255" y1="-261.8033988749893" x2="307.7683537175255" y2="-261.8033988749893" stroke-width="5" stroke="black"/><line x1="307.7683537175255" y1="-261.8033988749893" x2="307.7683537175255" y2="-261.8033988749893" stroke-width="5" stroke="black"/><line x1="307.7683537175255" y1="-261.8033988749893" x2="248.98982848827808" y2="-180.90169943749459" stroke-width="5" stroke="black"/><line x1="248.98982848827808" y1="-180.90169943749459" x2="248.98982848827808" y2="-180.90169943749459" stroke-width="5" stroke="black"/><line x1="248.98982848827808" y1="-180.90169943749459" x2="248.98982848827808" y2="-180.90169943749459" stroke-width="5" stroke="black"/><line x1="248.98982848827808" y1="-180.90169943749459" x2="153.88417685876274" y2="-211.8033988749894" stroke-width="5" stroke="black"/><line x1="153.88417685876274" y1="-211.8033988749894" x2="153.88417685876274" y2="-211.8033988749894" stroke-width="5" stroke="black"/><line x1="153.88417685876274" y1="-211.8033988749894" x2="248.98982848827808" y2="-180.90169943749459" stroke-width="5" stroke="black"/><line x1="248.98982848827808" y1="-180.90169943749459" x2="248.98982848827808" y2="-180.90169943749459" stroke-width="5" stroke="black"/><line x1="248.98982848827808" y1="-180.90169943749459" x2="344.0954801177935" y2="-211.80339887498926" stroke-width="5" stroke="black"/><line x1="344.0954801177935" y1="-211.80339887498926" x2="344.0954801177935" y2="-211.80339887498926" stroke-width="5" stroke="black"/><line x1="344.0954801177935" y1="-211.80339887498926" x2="344.0954801177935" y2="-211.80339887498926" stroke-width="5" stroke="black"/><line x1="344.0954801177935" y1="-211.80339887498926" x2="402.87400534704074" y2="-130.90169943749447" stroke-width="5" stroke="black"/><line x1="402.87400534704074" y1="-130.90169943749447" x2="402.87400534704074" y2="-130.90169943749447" stroke-width="5" stroke="black"/><line x1="402.87400534704074" y1="-130.90169943749447" x2="344.0954801177935" y2="-211.80339887498926" stroke-width="5" stroke="black"/><line x1="344.0954801177935" y1="-211.80339887498926" x2="344.0954801177935" y2="-211.80339887498926" stroke-width="5" stroke="black"/><line x1="344.0954801177935" y1="-211.80339887498926" x2="344.0954801177935" y2="-211.80339887498926" stroke-width="5" stroke="black"/><line x1="344.0954801177935" y1="-211.80339887498926" x2="402.87400534704085" y2="-292.705098312484" stroke-width="5" stroke="black"/><line x1="402.87400534704085" y1="-292.705098312484" x2="402.87400534704085" y2="-292.705098312484" stroke-width="5" stroke="black"/><line x1="402.87400534704085" y1="-292.705098312484" x2="402.87400534704085" y2="-292.705098312484" stroke-width="5" stroke="black"/><line x1="402.87400534704085" y1="-292.705098312484" x2="497.97965697655616" y2="-261.80339887498917" stroke-width="5" stroke="black"/><line x1="497.97965697655616" y1="-261.80339887498917" x2="497.97965697655616" y2="-261.80339887498917" stroke-width="5" stroke="black"/><line x1="497.97965697655616" y1="-261.80339887498917" x2="402.8740053470407" y2="-292.70509831248364" stroke-width="5" stroke="black"/><line x1="402.8740053470407" y1="-292.70509831248364" x2="402.8740053470407" y2="-292.70509831248364" stroke-width="5" stroke="black"/><line x1="402.8740053470407" y1="-292.70509831248364" x2="307.76835371752554" y2="-261.80339887498826" stroke-width="5" stroke="black"/><line x1="307.76835371752554" y1="-261.80339887498826" x2="307.76835371752554" y2="-261.80339887498826" stroke-width="5" stroke="black"/><line x1="307.76835371752554" y1="-261.80339887498826" x2="307.76835371752554" y2="-261.80339887498826" stroke-width="5" stroke="black"/><line x1="307.76835371752554" y1="-261.80339887498826" x2="248.98982848827825" y2="-342.705098312483" stroke-width="5" stroke="black"/><line x1="248.98982848827825" y1="-342.705098312483" x2="248.98982848827825" y2="-342.705098312483" stroke-width="5" stroke="black"/><line x1="248.98982848827825" y1="-342.705098312483" x2="153.8841768587628" y2="-373.6067977499775" stroke-width="5" stroke="black"/><line x1="153.8841768587628" y1="-373.6067977499775" x2="153.8841768587628" y2="-373.6067977499775" stroke-width="5" stroke="black"/><line x1="153.8841768587628" y1="-373.6067977499775" x2="153.8841768587628" y2="-373.6067977499775" stroke-width="5" stroke="black"/><line x1="153.8841768587628" y1="-373.6067977499775" x2="153.8841768587632" y2="-473.6067977499775" stroke-width="5" stroke="black"/><line x1="153.8841768587632" y1="-473.6067977499775" x2="153.8841768587632" y2="-473.6067977499775" stroke-width="5" stroke="black"/><line x1="153.8841768587632" y1="-473.6067977499775" x2="153.8841768587632" y2="-473.6067977499775" stroke-width="5" stroke="black"/><line x1="153.8841768587632" y1="-473.6067977499775" x2="248.98982848827887" y2="-504.50849718747116" stroke-width="5" stroke="black"/><line x1="248.98982848827887" y1="-504.50849718747116" x2="248.98982848827887" y2="-504.50849718747116" stroke-width="5" stroke="black"/><line x1="248.98982848827887" y1="-504.50849718747116" x2="153.88417685876308" y2="-473.6067977499778" stroke-width="5" stroke="black"/><line x1="153.88417685876308" y1="-473.6067977499778" x2="153.88417685876308" y2="-473.6067977499778" stroke-width="5" stroke="black"/><line x1="153.88417685876308" y1="-473.6067977499778" x2="95.1056516295149" y2="-392.70509831248364" stroke-width="5" stroke="black"/><line x1="95.1056516295149" y1="-392.70509831248364" x2="95.1056516295149" y2="-392.70509831248364" stroke-width="5" stroke="black"/><line x1="95.1056516295149" y1="-392.70509831248364" x2="95.1056516295149" y2="-392.70509831248364" stroke-width="5" stroke="black"/><line x1="95.1056516295149" y1="-392.70509831248364" x2="9.947598300641403E-14" y2="-423.6067977499801" stroke-width="5" stroke="black"/><line x1="9.947598300641403E-14" y1="-423.6067977499801" x2="9.947598300641403E-14" y2="-423.6067977499801" stroke-width="5" stroke="black"/><line x1="9.947598300641403E-14" y1="-423.6067977499801" x2="9.947598300641403E-14" y2="-423.6067977499801" stroke-width="5" stroke="black"/><line x1="9.947598300641403E-14" y1="-423.6067977499801" x2="2.598683924221897E-12" y2="-523.6067977499802" stroke-width="5" stroke="black"/><line x1="2.598683924221897E-12" y1="-523.6067977499802" x2="2.598683924221897E-12" y2="-523.6067977499802" stroke-width="5" stroke="black"/><line x1="2.598683924221897E-12" y1="-523.6067977499802" x2="2.598683924221897E-12" y2="-523.6067977499802" stroke-width="5" stroke="black"/><line x1="2.598683924221897E-12" y1="-523.6067977499802" x2="95.10565162951896" y2="-554.5084971874719" stroke-width="5" stroke="black"/><line x1="95.10565162951896" y1="-554.5084971874719" x2="95.10565162951896" y2="-554.5084971874719" stroke-width="5" stroke="black"/><line x1="95.10565162951896" y1="-554.5084971874719" x2="95.10565162951896" y2="-554.5084971874719" stroke-width="5" stroke="black"/><line x1="95.10565162951896" y1="-554.5084971874719" x2="153.8841768587631" y2="-473.6067977499749" stroke-width="5" stroke="black"/><line x1="153.8841768587631" y1="-473.6067977499749" x2="153.8841768587631" y2="-473.6067977499749" stroke-width="5" stroke="black"/><line x1="153.8841768587631" y1="-473.6067977499749" x2="95.10565162951924" y2="-554.5084971874721" stroke-width="5" stroke="black"/><line x1="95.10565162951924" y1="-554.5084971874721" x2="95.10565162951924" y2="-554.5084971874721" stroke-width="5" stroke="black"/><line x1="95.10565162951924" y1="-554.5084971874721" x2="5.087485988042317E-12" y2="-585.4101966249706" stroke-width="5" stroke="black"/><line x1="5.087485988042317E-12" y1="-585.4101966249706" x2="5.087485988042317E-12" y2="-585.4101966249706" stroke-width="5" stroke="black"/><line x1="5.087485988042317E-12" y1="-585.4101966249706" x2="5.087485988042317E-12" y2="-585.4101966249706" stroke-width="5" stroke="black"/><line x1="5.087485988042317E-12" y1="-585.4101966249706" x2="9.693829200555154E-12" y2="-685.4101966249706" stroke-width="5" stroke="black"/><line x1="9.693829200555154E-12" y1="-685.4101966249706" x2="9.693829200555154E-12" y2="-685.4101966249706" stroke-width="5" stroke="black"/><line x1="9.693829200555154E-12" y1="-685.4101966249706" x2="9.693829200555154E-12" y2="-685.4101966249706" stroke-width="5" stroke="black"/><line x1="9.693829200555154E-12" y1="-685.4101966249706" x2="95.10565162952669" y2="-716.3118960624603" stroke-width="5" stroke="black"/><line x1="95.10565162952669" y1="-716.3118960624603" x2="95.10565162952669" y2="-716.3118960624603" stroke-width="5" stroke="black"/><line x1="95.10565162952669" y1="-716.3118960624603" x2="95.10565162952669" y2="-716.3118960624603" stroke-width="5" stroke="black"/><line x1="95.10565162952669" y1="-716.3118960624603" x2="153.88417685876914" y2="-635.410196624962" stroke-width="5" stroke="black"/><line x1="153.88417685876914" y1="-635.410196624962" x2="153.88417685876914" y2="-635.410196624962" stroke-width="5" stroke="black"/><line x1="153.88417685876914" y1="-635.410196624962" x2="153.88417685876914" y2="-635.410196624962" stroke-width="5" stroke="black"/><line x1="153.88417685876914" y1="-635.410196624962" x2="95.10565162951639" y2="-554.5084971874712" stroke-width="5" stroke="black"/><line x1="95.10565162951639" y1="-554.5084971874712" x2="95.10565162951639" y2="-554.5084971874712" stroke-width="5" stroke="black"/><line x1="95.10565162951639" y1="-554.5084971874712" x2="153.88417685876942" y2="-635.4101966249618" stroke-width="5" stroke="black"/><line x1="153.88417685876942" y1="-635.4101966249618" x2="153.88417685876942" y2="-635.4101966249618" stroke-width="5" stroke="black"/><line x1="153.88417685876942" y1="-635.4101966249618" x2="153.88417685877613" y2="-735.4101966249618" stroke-width="5" stroke="black"/><line x1="153.88417685877613" y1="-735.4101966249618" x2="153.88417685877613" y2="-735.4101966249618" stroke-width="5" stroke="black"/><line x1="153.88417685877613" y1="-735.4101966249618" x2="153.88417685877613" y2="-735.4101966249618" stroke-width="5" stroke="black"/><line x1="153.88417685877613" y1="-735.4101966249618" x2="248.98982848829377" y2="-766.3118960624495" stroke-width="5" stroke="black"/><line x1="248.98982848829377" y1="-766.3118960624495" x2="248.98982848829377" y2="-766.3118960624495" stroke-width="5" stroke="black"/><line x1="248.98982848829377" y1="-766.3118960624495" x2="248.98982848829377" y2="-766.3118960624495" stroke-width="5" stroke="black"/><line x1="248.98982848829377" y1="-766.3118960624495" x2="307.7683537175345" y2="-685.41019662495" stroke-width="5" stroke="black"/><line x1="307.7683537175345" y1="-685.41019662495" x2="307.7683537175345" y2="-685.41019662495" stroke-width="5" stroke="black"/><line x1="307.7683537175345" y1="-685.41019662495" x2="307.7683537175345" y2="-685.41019662495" stroke-width="5" stroke="black"/><line x1="307.7683537175345" y1="-685.41019662495" x2="248.98982848828007" y2="-604.5084971874604" stroke-width="5" stroke="black"/><line x1="248.98982848828007" y1="-604.5084971874604" x2="248.98982848828007" y2="-604.5084971874604" stroke-width="5" stroke="black"/><line x1="248.98982848828007" y1="-604.5084971874604" x2="248.98982848828007" y2="-604.5084971874604" stroke-width="5" stroke="black"/><line x1="248.98982848828007" y1="-604.5084971874604" x2="153.88417685876766" y2="-635.4101966249642" stroke-width="5" stroke="black"/><line x1="153.88417685876766" y1="-635.4101966249642" x2="153.88417685876766" y2="-635.4101966249642" stroke-width="5" stroke="black"/><line x1="153.88417685876766" y1="-635.4101966249642" x2="248.98982848827995" y2="-604.5084971874601" stroke-width="5" stroke="black"/><line x1="248.98982848827995" y1="-604.5084971874601" x2="248.98982848827995" y2="-604.5084971874601" stroke-width="5" stroke="black"/><line x1="248.98982848827995" y1="-604.5084971874601" x2="344.0954801177983" y2="-635.4101966249458" stroke-width="5" stroke="black"/><line x1="344.0954801177983" y1="-635.4101966249458" x2="344.0954801177983" y2="-635.4101966249458" stroke-width="5" stroke="black"/><line x1="344.0954801177983" y1="-635.4101966249458" x2="344.0954801177983" y2="-635.4101966249458" stroke-width="5" stroke="black"/><line x1="344.0954801177983" y1="-635.4101966249458" x2="402.8740053470373" y2="-554.5084971874451" stroke-width="5" stroke="black"/><line x1="402.8740053470373" y1="-554.5084971874451" x2="402.8740053470373" y2="-554.5084971874451" stroke-width="5" stroke="black"/><line x1="402.8740053470373" y1="-554.5084971874451" x2="402.8740053470373" y2="-554.5084971874451" stroke-width="5" stroke="black"/><line x1="402.8740053470373" y1="-554.5084971874451" x2="344.09548011778116" y2="-473.60679774995674" stroke-width="5" stroke="black"/><line x1="344.09548011778116" y1="-473.60679774995674" x2="344.09548011778116" y2="-473.60679774995674" stroke-width="5" stroke="black"/><line x1="344.09548011778116" y1="-473.60679774995674" x2="344.09548011778116" y2="-473.60679774995674" stroke-width="5" stroke="black"/><line x1="344.09548011778116" y1="-473.60679774995674" x2="248.9898284882694" y2="-504.5084971874626" stroke-width="5" stroke="black"/><line x1="248.9898284882694" y1="-504.5084971874626" x2="248.9898284882694" y2="-504.5084971874626" stroke-width="5" stroke="black"/><line x1="248.9898284882694" y1="-504.5084971874626" x2="248.9898284882694" y2="-504.5084971874626" stroke-width="5" stroke="black"/><line x1="248.9898284882694" y1="-504.5084971874626" x2="248.98982848828174" y2="-604.5084971874626" stroke-width="5" stroke="black"/><line x1="248.98982848828174" y1="-604.5084971874626" x2="248.98982848828174" y2="-604.5084971874626" stroke-width="5" stroke="black"/><line x1="248.98982848828174" y1="-604.5084971874626" x2="248.98982848826904" y2="-504.5084971874626" stroke-width="5" stroke="black"/><line x1="248.98982848826904" y1="-504.5084971874626" x2="248.98982848826904" y2="-504.5084971874626" stroke-width="5" stroke="black"/><line x1="248.98982848826904" y1="-504.5084971874626" x2="307.7683537175064" y2="-423.6067977499606" stroke-width="5" stroke="black"/><line x1="307.7683537175064" y1="-423.6067977499606" x2="307.7683537175064" y2="-423.6067977499606" stroke-width="5" stroke="black"/><line x1="307.7683537175064" y1="-423.6067977499606" x2="307.7683537175064" y2="-423.6067977499606" stroke-width="5" stroke="black"/><line x1="307.7683537175064" y1="-423.6067977499606" x2="248.98982848824852" y2="-342.7050983124735" stroke-width="5" stroke="black"/><line x1="248.98982848824852" y1="-342.7050983124735" x2="248.98982848824852" y2="-342.7050983124735" stroke-width="5" stroke="black"/><line x1="248.98982848824852" y1="-342.7050983124735" x2="307.76835371750667" y2="-423.6067977499604" stroke-width="5" stroke="black"/><line x1="307.76835371750667" y1="-423.6067977499604" x2="307.76835371750667" y2="-423.6067977499604" stroke-width="5" stroke="black"/><line x1="307.76835371750667" y1="-423.6067977499604" x2="307.76835371750667" y2="-423.6067977499604" stroke-width="5" stroke="black"/><line x1="307.76835371750667" y1="-423.6067977499604" x2="402.87400534701766" y2="-392.7050983124522" stroke-width="5" stroke="black"/><line x1="402.87400534701766" y1="-392.7050983124522" x2="402.87400534701766" y2="-392.7050983124522" stroke-width="5" stroke="black"/><line x1="402.87400534701766" y1="-392.7050983124522" x2="402.87400534701766" y2="-392.7050983124522" stroke-width="5" stroke="black"/><line x1="402.87400534701766" y1="-392.7050983124522" x2="402.8740053470029" y2="-292.7050983124522" stroke-width="5" stroke="black"/><line x1="402.8740053470029" y1="-292.7050983124522" x2="402.8740053470029" y2="-292.7050983124522" stroke-width="5" stroke="black"/><line x1="402.8740053470029" y1="-292.7050983124522" x2="402.874005347018" y2="-392.7050983124522" stroke-width="5" stroke="black"/><line x1="402.874005347018" y1="-392.7050983124522" x2="402.874005347018" y2="-392.7050983124522" stroke-width="5" stroke="black"/><line x1="402.874005347018" y1="-392.7050983124522" x2="344.09548011778264" y2="-473.60679774995566" stroke-width="5" stroke="black"/><line x1="344.09548011778264" y1="-473.60679774995566" x2="344.09548011778264" y2="-473.60679774995566" stroke-width="5" stroke="black"/><line x1="344.09548011778264" y1="-473.60679774995566" x2="344.09548011778264" y2="-473.60679774995566" stroke-width="5" stroke="black"/><line x1="344.09548011778264" y1="-473.60679774995566" x2="402.8740053470425" y2="-554.5084971874413" stroke-width="5" stroke="black"/><line x1="402.8740053470425" y1="-554.5084971874413" x2="402.8740053470425" y2="-554.5084971874413" stroke-width="5" stroke="black"/><line x1="402.8740053470425" y1="-554.5084971874413" x2="402.8740053470576" y2="-654.5084971874413" stroke-width="5" stroke="black"/><line x1="402.8740053470576" y1="-654.5084971874413" x2="402.8740053470576" y2="-654.5084971874413" stroke-width="5" stroke="black"/><line x1="402.8740053470576" y1="-654.5084971874413" x2="402.8740053470576" y2="-654.5084971874413" stroke-width="5" stroke="black"/><line x1="402.8740053470576" y1="-654.5084971874413" x2="497.97965697657787" y2="-685.410196624921" stroke-width="5" stroke="black"/><line x1="497.97965697657787" y1="-685.410196624921" x2="497.97965697657787" y2="-685.410196624921" stroke-width="5" stroke="black"/><line x1="497.97965697657787" y1="-685.410196624921" x2="497.97965697657787" y2="-685.410196624921" stroke-width="5" stroke="black"/><line x1="497.97965697657787" y1="-685.410196624921" x2="556.7581822058117" y2="-604.5084971874165" stroke-width="5" stroke="black"/><line x1="556.7581822058117" y1="-604.5084971874165" x2="556.7581822058117" y2="-604.5084971874165" stroke-width="5" stroke="black"/><line x1="556.7581822058117" y1="-604.5084971874165" x2="497.9796569765781" y2="-685.4101966249212" stroke-width="5" stroke="black"/><line x1="497.9796569765781" y1="-685.4101966249212" x2="497.9796569765781" y2="-685.4101966249212" stroke-width="5" stroke="black"/><line x1="497.9796569765781" y1="-685.4101966249212" x2="402.87400534706785" y2="-716.3118960624317" stroke-width="5" stroke="black"/><line x1="402.87400534706785" y1="-716.3118960624317" x2="402.87400534706785" y2="-716.3118960624317" stroke-width="5" stroke="black"/><line x1="402.87400534706785" y1="-716.3118960624317" x2="402.87400534706785" y2="-716.3118960624317" stroke-width="5" stroke="black"/><line x1="402.87400534706785" y1="-716.3118960624317" x2="402.8740053470851" y2="-816.3118960624317" stroke-width="5" stroke="black"/><line x1="402.8740053470851" y1="-816.3118960624317" x2="402.8740053470851" y2="-816.3118960624317" stroke-width="5" stroke="black"/><line x1="402.8740053470851" y1="-816.3118960624317" x2="402.8740053470851" y2="-816.3118960624317" stroke-width="5" stroke="black"/><line x1="402.8740053470851" y1="-816.3118960624317" x2="497.97965697660595" y2="-847.2135954999094" stroke-width="5" stroke="black"/><line x1="497.97965697660595" y1="-847.2135954999094" x2="497.97965697660595" y2="-847.2135954999094" stroke-width="5" stroke="black"/><line x1="497.97965697660595" y1="-847.2135954999094" x2="497.97965697660595" y2="-847.2135954999094" stroke-width="5" stroke="black"/><line x1="497.97965697660595" y1="-847.2135954999094" x2="556.7581822058381" y2="-766.3118960624037" stroke-width="5" stroke="black"/><line x1="556.7581822058381" y1="-766.3118960624037" x2="556.7581822058381" y2="-766.3118960624037" stroke-width="5" stroke="black"/><line x1="556.7581822058381" y1="-766.3118960624037" x2="556.7581822058381" y2="-766.3118960624037" stroke-width="5" stroke="black"/><line x1="556.7581822058381" y1="-766.3118960624037" x2="497.97965697657514" y2="-685.4101966249203" stroke-width="5" stroke="black"/><line x1="497.97965697657514" y1="-685.4101966249203" x2="497.97965697657514" y2="-685.4101966249203" stroke-width="5" stroke="black"/><line x1="497.97965697657514" y1="-685.4101966249203" x2="556.7581822058384" y2="-766.3118960624035" stroke-width="5" stroke="black"/><line x1="556.7581822058384" y1="-766.3118960624035" x2="556.7581822058384" y2="-766.3118960624035" stroke-width="5" stroke="black"/><line x1="556.7581822058384" y1="-766.3118960624035" x2="556.7581822058577" y2="-866.3118960624035" stroke-width="5" stroke="black"/><line x1="556.7581822058577" y1="-866.3118960624035" x2="556.7581822058577" y2="-866.3118960624035" stroke-width="5" stroke="black"/><line x1="556.7581822058577" y1="-866.3118960624035" x2="556.7581822058577" y2="-866.3118960624035" stroke-width="5" stroke="black"/><line x1="556.7581822058577" y1="-866.3118960624035" x2="651.8638338353792" y2="-897.2135954998793" stroke-width="5" stroke="black"/><line x1="651.8638338353792" y1="-897.2135954998793" x2="651.8638338353792" y2="-897.2135954998793" stroke-width="5" stroke="black"/><line x1="651.8638338353792" y1="-897.2135954998793" x2="651.8638338353792" y2="-897.2135954998793" stroke-width="5" stroke="black"/><line x1="651.8638338353792" y1="-897.2135954998793" x2="710.6423590646096" y2="-816.3118960623723" stroke-width="5" stroke="black"/><line x1="710.6423590646096" y1="-816.3118960623723" x2="710.6423590646096" y2="-816.3118960623723" stroke-width="5" stroke="black"/><line x1="710.6423590646096" y1="-816.3118960623723" x2="710.6423590646096" y2="-816.3118960623723" stroke-width="5" stroke="black"/><line x1="710.6423590646096" y1="-816.3118960623723" x2="651.863833835345" y2="-735.4101966248902" stroke-width="5" stroke="black"/><line x1="651.863833835345" y1="-735.4101966248902" x2="651.863833835345" y2="-735.4101966248902" stroke-width="5" stroke="black"/><line x1="651.863833835345" y1="-735.4101966248902" x2="651.863833835345" y2="-735.4101966248902" stroke-width="5" stroke="black"/><line x1="651.863833835345" y1="-735.4101966248902" x2="556.7581822058364" y2="-766.311896062406" stroke-width="5" stroke="black"/><line x1="556.7581822058364" y1="-766.311896062406" x2="556.7581822058364" y2="-766.311896062406" stroke-width="5" stroke="black"/><line x1="556.7581822058364" y1="-766.311896062406" x2="651.8638338353448" y2="-735.4101966248899" stroke-width="5" stroke="black"/><line x1="651.8638338353448" y1="-735.4101966248899" x2="651.8638338353448" y2="-735.4101966248899" stroke-width="5" stroke="black"/><line x1="651.8638338353448" y1="-735.4101966248899" x2="746.969485464867" y2="-766.3118960623635" stroke-width="5" stroke="black"/><line x1="746.969485464867" y1="-766.3118960623635" x2="746.969485464867" y2="-766.3118960623635" stroke-width="5" stroke="black"/><line x1="746.969485464867" y1="-766.3118960623635" x2="746.969485464867" y2="-766.3118960623635" stroke-width="5" stroke="black"/><line x1="746.969485464867" y1="-766.3118960623635" x2="805.7480106940958" y2="-685.4101966248553" stroke-width="5" stroke="black"/><line x1="805.7480106940958" y1="-685.4101966248553" x2="805.7480106940958" y2="-685.4101966248553" stroke-width="5" stroke="black"/><line x1="805.7480106940958" y1="-685.4101966248553" x2="805.7480106940958" y2="-685.4101966248553" stroke-width="5" stroke="black"/><line x1="805.7480106940958" y1="-685.4101966248553" x2="746.9694854648294" y2="-604.5084971873745" stroke-width="5" stroke="black"/><line x1="746.9694854648294" y1="-604.5084971873745" x2="746.9694854648294" y2="-604.5084971873745" stroke-width="5" stroke="black"/><line x1="746.9694854648294" y1="-604.5084971873745" x2="746.9694854648294" y2="-604.5084971873745" stroke-width="5" stroke="black"/><line x1="746.9694854648294" y1="-604.5084971873745" x2="651.8638338353215" y2="-635.4101966248924" stroke-width="5" stroke="black"/><line x1="651.8638338353215" y1="-635.4101966248924" x2="651.8638338353215" y2="-635.4101966248924" stroke-width="5" stroke="black"/><line x1="651.8638338353215" y1="-635.4101966248924" x2="651.8638338353215" y2="-635.4101966248924" stroke-width="5" stroke="black"/><line x1="651.8638338353215" y1="-635.4101966248924" x2="651.8638338353466" y2="-735.4101966248924" stroke-width="5" stroke="black"/><line x1="651.8638338353466" y1="-735.4101966248924" x2="651.8638338353466" y2="-735.4101966248924" stroke-width="5" stroke="black"/><line x1="651.8638338353466" y1="-735.4101966248924" x2="651.8638338353212" y2="-635.4101966248924" stroke-width="5" stroke="black"/><line x1="651.8638338353212" y1="-635.4101966248924" x2="651.8638338353212" y2="-635.4101966248924" stroke-width="5" stroke="black"/><line x1="651.8638338353212" y1="-635.4101966248924" x2="710.6423590645483" y2="-554.508497187383" stroke-width="5" stroke="black"/><line x1="710.6423590645483" y1="-554.508497187383" x2="710.6423590645483" y2="-554.508497187383" stroke-width="5" stroke="black"/><line x1="710.6423590645483" y1="-554.508497187383" x2="710.6423590645483" y2="-554.508497187383" stroke-width="5" stroke="black"/><line x1="710.6423590645483" y1="-554.508497187383" x2="651.8638338352802" y2="-473.60679774990336" stroke-width="5" stroke="black"/><line x1="651.8638338352802" y1="-473.60679774990336" x2="651.8638338352802" y2="-473.60679774990336" stroke-width="5" stroke="black"/><line x1="651.8638338352802" y1="-473.60679774990336" x2="651.8638338352802" y2="-473.60679774990336" stroke-width="5" stroke="black"/><line x1="651.8638338352802" y1="-473.60679774990336" x2="556.758182205773" y2="-504.5084971874232" stroke-width="5" stroke="black"/><line x1="556.758182205773" y1="-504.5084971874232" x2="556.758182205773" y2="-504.5084971874232" stroke-width="5" stroke="black"/><line x1="556.758182205773" y1="-504.5084971874232" x2="556.758182205773" y2="-504.5084971874232" stroke-width="5" stroke="black"/><line x1="556.758182205773" y1="-504.5084971874232" x2="556.7581822058" y2="-604.5084971874232" stroke-width="5" stroke="black"/><line x1="556.7581822058" y1="-604.5084971874232" x2="556.7581822058" y2="-604.5084971874232" stroke-width="5" stroke="black"/><line x1="556.7581822058" y1="-604.5084971874232" x2="556.7581822058" y2="-604.5084971874232" stroke-width="5" stroke="black"/><line x1="556.7581822058" y1="-604.5084971874232" x2="651.8638338353239" y2="-635.4101966248916" stroke-width="5" stroke="black"/><line x1="651.8638338353239" y1="-635.4101966248916" x2="651.8638338353239" y2="-635.4101966248916" stroke-width="5" stroke="black"/><line x1="651.8638338353239" y1="-635.4101966248916" x2="556.7581822057998" y2="-604.5084971874236" stroke-width="5" stroke="black"/><line x1="556.7581822057998" y1="-604.5084971874236" x2="556.7581822057998" y2="-604.5084971874236" stroke-width="5" stroke="black"/><line x1="556.7581822057998" y1="-604.5084971874236" x2="497.97965697653" y2="-523.6067977499451" stroke-width="5" stroke="black"/><line x1="497.97965697653" y1="-523.6067977499451" x2="497.97965697653" y2="-523.6067977499451" stroke-width="5" stroke="black"/><line x1="497.97965697653" y1="-523.6067977499451" x2="497.97965697653" y2="-523.6067977499451" stroke-width="5" stroke="black"/><line x1="497.97965697653" y1="-523.6067977499451" x2="402.87400534702346" y2="-554.508497187467" stroke-width="5" stroke="black"/><line x1="402.87400534702346" y1="-554.508497187467" x2="402.87400534702346" y2="-554.508497187467" stroke-width="5" stroke="black"/><line x1="402.87400534702346" y1="-554.508497187467" x2="497.9796569765299" y2="-523.6067977499448" stroke-width="5" stroke="black"/><line x1="497.9796569765299" y1="-523.6067977499448" x2="497.9796569765299" y2="-523.6067977499448" stroke-width="5" stroke="black"/><line x1="497.9796569765299" y1="-523.6067977499448" x2="497.9796569765299" y2="-523.6067977499448" stroke-width="5" stroke="black"/><line x1="497.9796569765299" y1="-523.6067977499448" x2="497.97965697650034" y2="-423.6067977499448" stroke-width="5" stroke="black"/><line x1="497.97965697650034" y1="-423.6067977499448" x2="497.97965697650034" y2="-423.6067977499448" stroke-width="5" stroke="black"/><line x1="497.97965697650034" y1="-423.6067977499448" x2="497.97965697650034" y2="-423.6067977499448" stroke-width="5" stroke="black"/><line x1="497.97965697650034" y1="-423.6067977499448" x2="402.87400534697565" y2="-392.7050983124788" stroke-width="5" stroke="black"/><line x1="402.87400534697565" y1="-392.7050983124788" x2="402.87400534697565" y2="-392.7050983124788" stroke-width="5" stroke="black"/><line x1="402.87400534697565" y1="-392.7050983124788" x2="497.97965697650045" y2="-423.60679774994446" stroke-width="5" stroke="black"/><line x1="497.97965697650045" y1="-423.60679774994446" x2="497.97965697650045" y2="-423.60679774994446" stroke-width="5" stroke="black"/><line x1="497.97965697650045" y1="-423.60679774994446" x2="556.7581822057722" y2="-504.5084971874214" stroke-width="5" stroke="black"/><line x1="556.7581822057722" y1="-504.5084971874214" x2="556.7581822057722" y2="-504.5084971874214" stroke-width="5" stroke="black"/><line x1="556.7581822057722" y1="-504.5084971874214" x2="556.7581822057722" y2="-504.5084971874214" stroke-width="5" stroke="black"/><line x1="556.7581822057722" y1="-504.5084971874214" x2="651.863833835278" y2="-473.6067977498972" stroke-width="5" stroke="black"/><line x1="651.863833835278" y1="-473.6067977498972" x2="651.863833835278" y2="-473.6067977498972" stroke-width="5" stroke="black"/><line x1="651.863833835278" y1="-473.6067977498972" x2="746.9694854648028" y2="-504.5084971873629" stroke-width="5" stroke="black"/><line x1="746.9694854648028" y1="-504.5084971873629" x2="746.9694854648028" y2="-504.5084971873629" stroke-width="5" stroke="black"/><line x1="746.9694854648028" y1="-504.5084971873629" x2="746.9694854648028" y2="-504.5084971873629" stroke-width="5" stroke="black"/><line x1="746.9694854648028" y1="-504.5084971873629" x2="805.7480106940247" y2="-423.60679774984976" stroke-width="5" stroke="black"/><line x1="805.7480106940247" y1="-423.60679774984976" x2="805.7480106940247" y2="-423.60679774984976" stroke-width="5" stroke="black"/><line x1="805.7480106940247" y1="-423.60679774984976" x2="805.7480106940247" y2="-423.60679774984976" stroke-width="5" stroke="black"/><line x1="805.7480106940247" y1="-423.60679774984976" x2="746.9694854647515" y2="-342.7050983123738" stroke-width="5" stroke="black"/><line x1="746.9694854647515" y1="-342.7050983123738" x2="746.9694854647515" y2="-342.7050983123738" stroke-width="5" stroke="black"/><line x1="746.9694854647515" y1="-342.7050983123738" x2="805.748010694025" y2="-423.60679774984953" stroke-width="5" stroke="black"/><line x1="805.748010694025" y1="-423.60679774984953" x2="805.748010694025" y2="-423.60679774984953" stroke-width="5" stroke="black"/><line x1="805.748010694025" y1="-423.60679774984953" x2="805.7480106940569" y2="-523.6067977498495" stroke-width="5" stroke="black"/><line x1="805.7480106940569" y1="-523.6067977498495" x2="805.7480106940569" y2="-523.6067977498495" stroke-width="5" stroke="black"/><line x1="805.7480106940569" y1="-523.6067977498495" x2="805.7480106940569" y2="-523.6067977498495" stroke-width="5" stroke="black"/><line x1="805.7480106940569" y1="-523.6067977498495" x2="900.8536623235824" y2="-554.5084971873132" stroke-width="5" stroke="black"/><line x1="900.8536623235824" y1="-554.5084971873132" x2="900.8536623235824" y2="-554.5084971873132" stroke-width="5" stroke="black"/><line x1="900.8536623235824" y1="-554.5084971873132" x2="900.8536623235824" y2="-554.5084971873132" stroke-width="5" stroke="black"/><line x1="900.8536623235824" y1="-554.5084971873132" x2="959.6321875528026" y2="-473.60679774979883" stroke-width="5" stroke="black"/><line x1="959.6321875528026" y1="-473.60679774979883" x2="959.6321875528026" y2="-473.60679774979883" stroke-width="5" stroke="black"/><line x1="959.6321875528026" y1="-473.60679774979883" x2="959.6321875528026" y2="-473.60679774979883" stroke-width="5" stroke="black"/><line x1="959.6321875528026" y1="-473.60679774979883" x2="900.8536623235277" y2="-392.70509831232414" stroke-width="5" stroke="black"/><line x1="900.8536623235277" y1="-392.70509831232414" x2="900.8536623235277" y2="-392.70509831232414" stroke-width="5" stroke="black"/><line x1="900.8536623235277" y1="-392.70509831232414" x2="900.8536623235277" y2="-392.70509831232414" stroke-width="5" stroke="black"/><line x1="900.8536623235277" y1="-392.70509831232414" x2="805.7480106940232" y2="-423.606797749852" stroke-width="5" stroke="black"/><line x1="805.7480106940232" y1="-423.606797749852" x2="805.7480106940232" y2="-423.606797749852" stroke-width="5" stroke="black"/><line x1="805.7480106940232" y1="-423.606797749852" x2="900.853662323528" y2="-392.70509831232516" stroke-width="5" stroke="black"/><line x1="900.853662323528" y1="-392.70509831232516" x2="900.853662323528" y2="-392.70509831232516" stroke-width="5" stroke="black"/><line x1="900.853662323528" y1="-392.70509831232516" x2="995.9593139530538" y2="-423.60679774978814" stroke-width="5" stroke="black"/><line x1="995.9593139530538" y1="-423.60679774978814" x2="995.9593139530538" y2="-423.60679774978814" stroke-width="5" stroke="black"/><line x1="995.9593139530538" y1="-423.60679774978814" x2="995.9593139530538" y2="-423.60679774978814" stroke-width="5" stroke="black"/><line x1="995.9593139530538" y1="-423.60679774978814" x2="1054.7378391822735" y2="-342.7050983122734" stroke-width="5" stroke="black"/><line x1="1054.7378391822735" y1="-342.7050983122734" x2="1054.7378391822735" y2="-342.7050983122734" stroke-width="5" stroke="black"/><line x1="1054.7378391822735" y1="-342.7050983122734" x2="1054.7378391822735" y2="-342.7050983122734" stroke-width="5" stroke="black"/><line x1="1054.7378391822735" y1="-342.7050983122734" x2="995.9593139529981" y2="-261.8033988747991" stroke-width="5" stroke="black"/><line x1="995.9593139529981" y1="-261.8033988747991" x2="995.9593139529981" y2="-261.8033988747991" stroke-width="5" stroke="black"/><line x1="995.9593139529981" y1="-261.8033988747991" x2="995.9593139529981" y2="-261.8033988747991" stroke-width="5" stroke="black"/><line x1="995.9593139529981" y1="-261.8033988747991" x2="900.8536623234937" y2="-292.7050983123276" stroke-width="5" stroke="black"/><line x1="900.8536623234937" y1="-292.7050983123276" x2="900.8536623234937" y2="-292.7050983123276" stroke-width="5" stroke="black"/><line x1="900.8536623234937" y1="-292.7050983123276" x2="900.8536623234937" y2="-292.7050983123276" stroke-width="5" stroke="black"/><line x1="900.8536623234937" y1="-292.7050983123276" x2="900.85366232353" y2="-392.7050983123276" stroke-width="5" stroke="black"/><line x1="900.85366232353" y1="-392.7050983123276" x2="900.85366232353" y2="-392.7050983123276" stroke-width="5" stroke="black"/><line x1="900.85366232353" y1="-392.7050983123276" x2="900.8536623234949" y2="-292.7050983123276" stroke-width="5" stroke="black"/><line x1="900.8536623234949" y1="-292.7050983123276" x2="900.8536623234949" y2="-292.7050983123276" stroke-width="5" stroke="black"/><line x1="900.8536623234949" y1="-292.7050983123276" x2="959.6321875527141" y2="-211.80339887481242" stroke-width="5" stroke="black"/><line x1="959.6321875527141" y1="-211.80339887481242" x2="959.6321875527141" y2="-211.80339887481242" stroke-width="5" stroke="black"/><line x1="959.6321875527141" y1="-211.80339887481242" x2="959.6321875527141" y2="-211.80339887481242" stroke-width="5" stroke="black"/><line x1="959.6321875527141" y1="-211.80339887481242" x2="900.853662323438" y2="-130.90169943733855" stroke-width="5" stroke="black"/><line x1="900.853662323438" y1="-130.90169943733855" x2="900.853662323438" y2="-130.90169943733855" stroke-width="5" stroke="black"/><line x1="900.853662323438" y1="-130.90169943733855" x2="900.853662323438" y2="-130.90169943733855" stroke-width="5" stroke="black"/><line x1="900.853662323438" y1="-130.90169943733855" x2="805.7480106939338" y2="-161.8033988748677" stroke-width="5" stroke="black"/><line x1="805.7480106939338" y1="-161.8033988748677" x2="805.7480106939338" y2="-161.8033988748677" stroke-width="5" stroke="black"/><line x1="805.7480106939338" y1="-161.8033988748677" x2="805.7480106939338" y2="-161.8033988748677" stroke-width="5" stroke="black"/><line x1="805.7480106939338" y1="-161.8033988748677" x2="805.7480106939707" y2="-261.8033988748677" stroke-width="5" stroke="black"/><line x1="805.7480106939707" y1="-261.8033988748677" x2="805.7480106939707" y2="-261.8033988748677" stroke-width="5" stroke="black"/><line x1="805.7480106939707" y1="-261.8033988748677" x2="805.7480106939707" y2="-261.8033988748677" stroke-width="5" stroke="black"/><line x1="805.7480106939707" y1="-261.8033988748677" x2="900.8536623234977" y2="-292.7050983123267" stroke-width="5" stroke="black"/><line x1="900.8536623234977" y1="-292.7050983123267" x2="900.8536623234977" y2="-292.7050983123267" stroke-width="5" stroke="black"/><line x1="900.8536623234977" y1="-292.7050983123267" x2="805.7480106939711" y2="-261.8033988748667" stroke-width="5" stroke="black"/><line x1="805.7480106939711" y1="-261.8033988748667" x2="805.7480106939711" y2="-261.8033988748667" stroke-width="5" stroke="black"/><line x1="805.7480106939711" y1="-261.8033988748667" x2="746.9694854646945" y2="-180.90169943739318" stroke-width="5" stroke="black"/><line x1="746.9694854646945" y1="-180.90169943739318" x2="746.9694854646945" y2="-180.90169943739318" stroke-width="5" stroke="black"/><line x1="746.9694854646945" y1="-180.90169943739318" x2="746.9694854646945" y2="-180.90169943739318" stroke-width="5" stroke="black"/><line x1="746.9694854646945" y1="-180.90169943739318" x2="651.8638338351905" y2="-211.803398874923" stroke-width="5" stroke="black"/><line x1="651.8638338351905" y1="-211.803398874923" x2="651.8638338351905" y2="-211.803398874923" stroke-width="5" stroke="black"/><line x1="651.8638338351905" y1="-211.803398874923" x2="651.8638338351905" y2="-211.803398874923" stroke-width="5" stroke="black"/><line x1="651.8638338351905" y1="-211.803398874923" x2="651.8638338352281" y2="-311.803398874923" stroke-width="5" stroke="black"/><line x1="651.8638338352281" y1="-311.803398874923" x2="651.8638338352281" y2="-311.803398874923" stroke-width="5" stroke="black"/><line x1="651.8638338352281" y1="-311.803398874923" x2="651.8638338352281" y2="-311.803398874923" stroke-width="5" stroke="black"/><line x1="651.8638338352281" y1="-311.803398874923" x2="746.9694854647553" y2="-342.7050983123813" stroke-width="5" stroke="black"/><line x1="746.9694854647553" y1="-342.7050983123813" x2="746.9694854647553" y2="-342.7050983123813" stroke-width="5" stroke="black"/><line x1="746.9694854647553" y1="-342.7050983123813" x2="746.9694854647553" y2="-342.7050983123813" stroke-width="5" stroke="black"/><line x1="746.9694854647553" y1="-342.7050983123813" x2="805.7480106939711" y2="-261.80339887486366" stroke-width="5" stroke="black"/><line x1="805.7480106939711" y1="-261.80339887486366" x2="805.7480106939711" y2="-261.80339887486366" stroke-width="5" stroke="black"/><line x1="805.7480106939711" y1="-261.80339887486366" x2="746.9694854647545" y2="-342.7050983123807" stroke-width="5" stroke="black"/><line x1="746.9694854647545" y1="-342.7050983123807" x2="746.9694854647545" y2="-342.7050983123807" stroke-width="5" stroke="black"/><line x1="746.9694854647545" y1="-342.7050983123807" x2="651.8638338352507" y2="-373.60679774991115" stroke-width="5" stroke="black"/><line x1="651.8638338352507" y1="-373.60679774991115" x2="651.8638338352507" y2="-373.60679774991115" stroke-width="5" stroke="black"/><line x1="651.8638338352507" y1="-373.60679774991115" x2="651.8638338352507" y2="-373.60679774991115" stroke-width="5" stroke="black"/><line x1="651.8638338352507" y1="-373.60679774991115" x2="651.863833835289" y2="-473.60679774991115" stroke-width="5" stroke="black"/><line x1="651.863833835289" y1="-473.60679774991115" x2="651.863833835289" y2="-473.60679774991115" stroke-width="5" stroke="black"/><line x1="651.863833835289" y1="-473.60679774991115" x2="651.8638338352519" y2="-373.60679774991115" stroke-width="5" stroke="black"/><line x1="651.8638338352519" y1="-373.60679774991115" x2="651.8638338352519" y2="-373.60679774991115" stroke-width="5" stroke="black"/><line x1="651.8638338352519" y1="-373.60679774991115" x2="651.8638338352519" y2="-373.60679774991115" stroke-width="5" stroke="black"/><line x1="651.8638338352519" y1="-373.60679774991115" x2="556.7581822057248" y2="-342.70509831245244" stroke-width="5" stroke="black"/><line x1="556.7581822057248" y1="-342.70509831245244" x2="556.7581822057248" y2="-342.70509831245244" stroke-width="5" stroke="black"/><line x1="556.7581822057248" y1="-342.70509831245244" x2="556.7581822057248" y2="-342.70509831245244" stroke-width="5" stroke="black"/><line x1="556.7581822057248" y1="-342.70509831245244" x2="497.9796569765087" y2="-423.60679774996987" stroke-width="5" stroke="black"/><line x1="497.9796569765087" y1="-423.60679774996987" x2="497.9796569765087" y2="-423.60679774996987" stroke-width="5" stroke="black"/><line x1="497.9796569765087" y1="-423.60679774996987" x2="556.7581822057257" y2="-342.70509831245306" stroke-width="5" stroke="black"/><line x1="556.7581822057257" y1="-342.70509831245306" x2="556.7581822057257" y2="-342.70509831245306" stroke-width="5" stroke="black"/><line x1="556.7581822057257" y1="-342.70509831245306" x2="651.8638338352296" y2="-311.80339887492295" stroke-width="5" stroke="black"/><line x1="651.8638338352296" y1="-311.80339887492295" x2="651.8638338352296" y2="-311.80339887492295" stroke-width="5" stroke="black"/><line x1="651.8638338352296" y1="-311.80339887492295" x2="651.8638338352296" y2="-311.80339887492295" stroke-width="5" stroke="black"/><line x1="651.8638338352296" y1="-311.80339887492295" x2="651.8638338351917" y2="-211.80339887492295" stroke-width="5" stroke="black"/><line x1="651.8638338351917" y1="-211.80339887492295" x2="651.8638338351917" y2="-211.80339887492295" stroke-width="5" stroke="black"/><line x1="651.8638338351917" y1="-211.80339887492295" x2="710.6423590644087" y2="-130.90169943740614" stroke-width="5" stroke="black"/><line x1="710.6423590644087" y1="-130.90169943740614" x2="710.6423590644087" y2="-130.90169943740614" stroke-width="5" stroke="black"/><line x1="710.6423590644087" y1="-130.90169943740614" x2="710.6423590644087" y2="-130.90169943740614" stroke-width="5" stroke="black"/><line x1="710.6423590644087" y1="-130.90169943740614" x2="651.8638338351304" y2="-49.99999999993386" stroke-width="5" stroke="black"/><line x1="651.8638338351304" y1="-49.99999999993386" x2="651.8638338351304" y2="-49.99999999993386" stroke-width="5" stroke="black"/><line x1="651.8638338351304" y1="-49.99999999993386" x2="651.8638338351304" y2="-49.99999999993386" stroke-width="5" stroke="black"/><line x1="651.8638338351304" y1="-49.99999999993386" x2="556.7581822056271" y2="-80.90169943746564" stroke-width="5" stroke="black"/><line x1="556.7581822056271" y1="-80.90169943746564" x2="556.7581822056271" y2="-80.90169943746564" stroke-width="5" stroke="black"/><line x1="556.7581822056271" y1="-80.90169943746564" x2="651.8638338351308" y2="-49.999999999934886" stroke-width="5" stroke="black"/><line x1="651.8638338351308" y1="-49.999999999934886" x2="651.8638338351308" y2="-49.999999999934886" stroke-width="5" stroke="black"/><line x1="651.8638338351308" y1="-49.999999999934886" x2="746.9694854646577" y2="-80.90169943739396" stroke-width="5" stroke="black"/><line x1="746.9694854646577" y1="-80.90169943739396" x2="746.9694854646577" y2="-80.90169943739396" stroke-width="5" stroke="black"/><line x1="746.9694854646577" y1="-80.90169943739396" x2="746.9694854646577" y2="-80.90169943739396" stroke-width="5" stroke="black"/><line x1="746.9694854646577" y1="-80.90169943739396" x2="805.7480106938741" y2="1.2325074294494698E-10" stroke-width="5" stroke="black"/><line x1="805.7480106938741" y1="1.2325074294494698E-10" x2="805.7480106938741" y2="1.2325074294494698E-10" stroke-width="5" stroke="black"/><line x1="805.7480106938741" y1="1.2325074294494698E-10" x2="805.7480106938741" y2="1.2325074294494698E-10" stroke-width="5" stroke="black"/><line x1="805.7480106938741" y1="1.2325074294494698E-10" x2="746.9694854645953" y2="80.90169943759511" stroke-width="5" stroke="black"/><line x1="746.9694854645953" y1="80.90169943759511" x2="746.9694854645953" y2="80.90169943759511" stroke-width="5" stroke="black"/><line x1="746.9694854645953" y1="80.90169943759511" x2="746.9694854645953" y2="80.90169943759511" stroke-width="5" stroke="black"/><line x1="746.9694854645953" y1="80.90169943759511" x2="651.8638338350922" y2="50.000000000062684" stroke-width="5" stroke="black"/><line x1="651.8638338350922" y1="50.000000000062684" x2="651.8638338350922" y2="50.000000000062684" stroke-width="5" stroke="black"/><line x1="651.8638338350922" y1="50.000000000062684" x2="651.8638338350922" y2="50.000000000062684" stroke-width="5" stroke="black"/><line x1="651.8638338350922" y1="50.000000000062684" x2="651.8638338351326" y2="-49.999999999937316" stroke-width="5" stroke="black"/><line x1="651.8638338351326" y1="-49.999999999937316" x2="651.8638338351326" y2="-49.999999999937316" stroke-width="5" stroke="black"/><line x1="651.8638338351326" y1="-49.999999999937316" x2="651.8638338350934" y2="50.000000000062684" stroke-width="5" stroke="black"/><line x1="651.8638338350934" y1="50.000000000062684" x2="651.8638338350934" y2="50.000000000062684" stroke-width="5" stroke="black"/><line x1="651.8638338350934" y1="50.000000000062684" x2="710.6423590643092" y2="130.9016994375803" stroke-width="5" stroke="black"/><line x1="710.6423590643092" y1="130.9016994375803" x2="710.6423590643092" y2="130.9016994375803" stroke-width="5" stroke="black"/><line x1="710.6423590643092" y1="130.9016994375803" x2="710.6423590643092" y2="130.9016994375803" stroke-width="5" stroke="black"/><line x1="710.6423590643092" y1="130.9016994375803" x2="651.8638338350298" y2="211.80339887505176" stroke-width="5" stroke="black"/><line x1="651.8638338350298" y1="211.80339887505176" x2="651.8638338350298" y2="211.80339887505176" stroke-width="5" stroke="black"/><line x1="651.8638338350298" y1="211.80339887505176" x2="651.8638338350298" y2="211.80339887505176" stroke-width="5" stroke="black"/><line x1="651.8638338350298" y1="211.80339887505176" x2="556.758182205527" y2="180.9016994375187" stroke-width="5" stroke="black"/><line x1="556.758182205527" y1="180.9016994375187" x2="556.758182205527" y2="180.9016994375187" stroke-width="5" stroke="black"/><line x1="556.758182205527" y1="180.9016994375187" x2="556.758182205527" y2="180.9016994375187" stroke-width="5" stroke="black"/><line x1="556.758182205527" y1="180.9016994375187" x2="556.758182205568" y2="80.90169943751869" stroke-width="5" stroke="black"/><line x1="556.758182205568" y1="80.90169943751869" x2="556.758182205568" y2="80.90169943751869" stroke-width="5" stroke="black"/><line x1="556.758182205568" y1="80.90169943751869" x2="556.758182205568" y2="80.90169943751869" stroke-width="5" stroke="black"/><line x1="556.758182205568" y1="80.90169943751869" x2="651.8638338350962" y2="50.00000000006362" stroke-width="5" stroke="black"/><line x1="651.8638338350962" y1="50.00000000006362" x2="651.8638338350962" y2="50.00000000006362" stroke-width="5" stroke="black"/><line x1="651.8638338350962" y1="50.00000000006362" x2="556.7581822055683" y2="80.90169943751971" stroke-width="5" stroke="black"/><line x1="556.7581822055683" y1="80.90169943751971" x2="556.7581822055683" y2="80.90169943751971" stroke-width="5" stroke="black"/><line x1="556.7581822055683" y1="80.90169943751971" x2="497.9796569762884" y2="161.80339887499076" stroke-width="5" stroke="black"/><line x1="497.9796569762884" y1="161.80339887499076" x2="497.9796569762884" y2="161.80339887499076" stroke-width="5" stroke="black"/><line x1="497.9796569762884" y1="161.80339887499076" x2="497.9796569762884" y2="161.80339887499076" stroke-width="5" stroke="black"/><line x1="497.9796569762884" y1="161.80339887499076" x2="402.87400534678574" y2="130.90169943745704" stroke-width="5" stroke="black"/><line x1="402.87400534678574" y1="130.90169943745704" x2="402.87400534678574" y2="130.90169943745704" stroke-width="5" stroke="black"/><line x1="402.87400534678574" y1="130.90169943745704" x2="402.87400534678574" y2="130.90169943745704" stroke-width="5" stroke="black"/><line x1="402.87400534678574" y1="130.90169943745704" x2="402.87400534682746" y2="30.90169943745704" stroke-width="5" stroke="black"/><line x1="402.87400534682746" y1="30.90169943745704" x2="402.87400534682746" y2="30.90169943745704" stroke-width="5" stroke="black"/><line x1="402.87400534682746" y1="30.90169943745704" x2="402.87400534682746" y2="30.90169943745704" stroke-width="5" stroke="black"/><line x1="402.87400534682746" y1="30.90169943745704" x2="497.97965697635595" y2="2.6290081223123707E-12" stroke-width="5" stroke="black"/><line x1="497.97965697635595" y1="2.6290081223123707E-12" x2="497.97965697635595" y2="2.6290081223123707E-12" stroke-width="5" stroke="black"/><line x1="497.97965697635595" y1="2.6290081223123707E-12" x2="497.97965697635595" y2="2.6290081223123707E-12" stroke-width="5" stroke="black"/><line x1="497.97965697635595" y1="2.6290081223123707E-12" x2="556.7581822055683" y2="80.90169943752271" stroke-width="5" stroke="black"/><line x1="556.7581822055683" y1="80.90169943752271" x2="556.7581822055683" y2="80.90169943752271" stroke-width="5" stroke="black"/><line x1="556.7581822055683" y1="80.90169943752271" x2="497.97965697635505" y2="3.254285729781259E-12" stroke-width="5" stroke="black"/><line x1="497.97965697635505" y1="3.254285729781259E-12" x2="497.97965697635505" y2="3.254285729781259E-12" stroke-width="5" stroke="black"/><line x1="497.97965697635505" y1="3.254285729781259E-12" x2="402.8740053468526" y2="-30.901699437531132" stroke-width="5" stroke="black"/><line x1="402.8740053468526" y1="-30.901699437531132" x2="402.8740053468526" y2="-30.901699437531132" stroke-width="5" stroke="black"/><line x1="402.8740053468526" y1="-30.901699437531132" x2="402.8740053468526" y2="-30.901699437531132" stroke-width="5" stroke="black"/><line x1="402.8740053468526" y1="-30.901699437531132" x2="402.874005346895" y2="-130.90169943753114" stroke-width="5" stroke="black"/><line x1="402.874005346895" y1="-130.90169943753114" x2="402.874005346895" y2="-130.90169943753114" stroke-width="5" stroke="black"/><line x1="402.874005346895" y1="-130.90169943753114" x2="402.874005346895" y2="-130.90169943753114" stroke-width="5" stroke="black"/><line x1="402.874005346895" y1="-130.90169943753114" x2="497.97965697642366" y2="-161.8033988749849" stroke-width="5" stroke="black"/><line x1="497.97965697642366" y1="-161.8033988749849" x2="497.97965697642366" y2="-161.8033988749849" stroke-width="5" stroke="black"/><line x1="497.97965697642366" y1="-161.8033988749849" x2="497.97965697642366" y2="-161.8033988749849" stroke-width="5" stroke="black"/><line x1="497.97965697642366" y1="-161.8033988749849" x2="556.7581822056355" y2="-80.90169943746442" stroke-width="5" stroke="black"/><line x1="556.7581822056355" y1="-80.90169943746442" x2="556.7581822056355" y2="-80.90169943746442" stroke-width="5" stroke="black"/><line x1="556.7581822056355" y1="-80.90169943746442" x2="556.7581822056355" y2="-80.90169943746442" stroke-width="5" stroke="black"/><line x1="556.7581822056355" y1="-80.90169943746442" x2="497.9796569763522" y2="4.177991286269389E-12" stroke-width="5" stroke="black"/><line x1="497.9796569763522" y1="4.177991286269389E-12" x2="497.9796569763522" y2="4.177991286269389E-12" stroke-width="5" stroke="black"/><line x1="497.9796569763522" y1="4.177991286269389E-12" x2="556.7581822056346" y2="-80.90169943746504" stroke-width="5" stroke="black"/><line x1="556.7581822056346" y1="-80.90169943746504" x2="556.7581822056346" y2="-80.90169943746504" stroke-width="5" stroke="black"/><line x1="556.7581822056346" y1="-80.90169943746504" x2="556.7581822056777" y2="-180.90169943746503" stroke-width="5" stroke="black"/><line x1="556.7581822056777" y1="-180.90169943746503" x2="556.7581822056777" y2="-180.90169943746503" stroke-width="5" stroke="black"/><line x1="556.7581822056777" y1="-180.90169943746503" x2="556.7581822056777" y2="-180.90169943746503" stroke-width="5" stroke="black"/><line x1="556.7581822056777" y1="-180.90169943746503" x2="651.8638338352066" y2="-211.80339887491814" stroke-width="5" stroke="black"/><line x1="651.8638338352066" y1="-211.80339887491814" x2="651.8638338352066" y2="-211.80339887491814" stroke-width="5" stroke="black"/><line x1="651.8638338352066" y1="-211.80339887491814" x2="556.758182205678" y2="-180.901699437464" stroke-width="5" stroke="black"/><line x1="556.758182205678" y1="-180.901699437464" x2="556.758182205678" y2="-180.901699437464" stroke-width="5" stroke="black"/><line x1="556.758182205678" y1="-180.901699437464" x2="556.758182205678" y2="-180.901699437464" stroke-width="5" stroke="black"/><line x1="556.758182205678" y1="-180.901699437464" x2="497.97965697646583" y2="-261.8033988749843" stroke-width="5" stroke="black"/><line x1="497.97965697646583" y1="-261.8033988749843" x2="497.97965697646583" y2="-261.8033988749843" stroke-width="5" stroke="black"/><line x1="497.97965697646583" y1="-261.8033988749843" x2="497.97965697646583" y2="-261.8033988749843" stroke-width="5" stroke="black"/><line x1="497.97965697646583" y1="-261.8033988749843" x2="556.7581822057489" y2="-342.70509831245306" stroke-width="5" stroke="black"/><line x1="556.7581822057489" y1="-342.70509831245306" x2="556.7581822057489" y2="-342.70509831245306" stroke-width="5" stroke="black"/><line x1="556.7581822057489" y1="-342.70509831245306" x2="497.97965697646674" y2="-261.8033988749836" stroke-width="5" stroke="black"/><line x1="497.97965697646674" y1="-261.8033988749836" x2="497.97965697646674" y2="-261.8033988749836" stroke-width="5" stroke="black"/><line x1="497.97965697646674" y1="-261.8033988749836" x2="497.97965697642405" y2="-161.8033988749836" stroke-width="5" stroke="black"/><line x1="497.97965697642405" y1="-161.8033988749836" x2="497.97965697642405" y2="-161.8033988749836" stroke-width="5" stroke="black"/><line x1="497.97965697642405" y1="-161.8033988749836" x2="497.97965697642405" y2="-161.8033988749836" stroke-width="5" stroke="black"/><line x1="497.97965697642405" y1="-161.8033988749836" x2="402.8740053468953" y2="-130.9016994375301" stroke-width="5" stroke="black"/><line x1="402.8740053468953" y1="-130.9016994375301" x2="402.8740053468953" y2="-130.9016994375301" stroke-width="5" stroke="black"/><line x1="402.8740053468953" y1="-130.9016994375301" x2="344.09548011761314" y2="-50.000000000060666" stroke-width="5" stroke="black"/><line x1="344.09548011761314" y1="-50.000000000060666" x2="344.09548011761314" y2="-50.000000000060666" stroke-width="5" stroke="black"/><line x1="344.09548011761314" y1="-50.000000000060666" x2="344.09548011761314" y2="-50.000000000060666" stroke-width="5" stroke="black"/><line x1="344.09548011761314" y1="-50.000000000060666" x2="248.9898284881113" y2="-80.901699437597" stroke-width="5" stroke="black"/><line x1="248.9898284881113" y1="-80.901699437597" x2="248.9898284881113" y2="-80.901699437597" stroke-width="5" stroke="black"/><line x1="248.9898284881113" y1="-80.901699437597" x2="248.9898284881113" y2="-80.901699437597" stroke-width="5" stroke="black"/><line x1="248.9898284881113" y1="-80.901699437597" x2="248.98982848815575" y2="-180.90169943759702" stroke-width="5" stroke="black"/><line x1="248.98982848815575" y1="-180.90169943759702" x2="248.98982848815575" y2="-180.90169943759702" stroke-width="5" stroke="black"/><line x1="248.98982848815575" y1="-180.90169943759702" x2="248.98982848811238" y2="-80.90169943759702" stroke-width="5" stroke="black"/><line x1="248.98982848811238" y1="-80.90169943759702" x2="248.98982848811238" y2="-80.90169943759702" stroke-width="5" stroke="black"/><line x1="248.98982848811238" y1="-80.90169943759702" x2="307.7683537173249" y2="-7.699441084696446E-11" stroke-width="5" stroke="black"/><line x1="307.7683537173249" y1="-7.699441084696446E-11" x2="307.7683537173249" y2="-7.699441084696446E-11" stroke-width="5" stroke="black"/><line x1="307.7683537173249" y1="-7.699441084696446E-11" x2="307.7683537173249" y2="-7.699441084696446E-11" stroke-width="5" stroke="black"/><line x1="307.7683537173249" y1="-7.699441084696446E-11" x2="248.9898284880422" y2="80.90169943739205" stroke-width="5" stroke="black"/><line x1="248.9898284880422" y1="80.90169943739205" x2="248.9898284880422" y2="80.90169943739205" stroke-width="5" stroke="black"/><line x1="248.9898284880422" y1="80.90169943739205" x2="248.9898284880422" y2="80.90169943739205" stroke-width="5" stroke="black"/><line x1="248.9898284880422" y1="80.90169943739205" x2="153.88417685854057" y2="49.99999999985506" stroke-width="5" stroke="black"/><line x1="153.88417685854057" y1="49.99999999985506" x2="153.88417685854057" y2="49.99999999985506" stroke-width="5" stroke="black"/><line x1="153.88417685854057" y1="49.99999999985506" x2="153.88417685854057" y2="49.99999999985506" stroke-width="5" stroke="black"/><line x1="153.88417685854057" y1="49.99999999985506" x2="153.8841768585857" y2="-50.00000000014494" stroke-width="5" stroke="black"/><line x1="153.8841768585857" y1="-50.00000000014494" x2="153.8841768585857" y2="-50.00000000014494" stroke-width="5" stroke="black"/><line x1="153.8841768585857" y1="-50.00000000014494" x2="153.8841768585857" y2="-50.00000000014494" stroke-width="5" stroke="black"/><line x1="153.8841768585857" y1="-50.00000000014494" x2="248.98982848811522" y2="-80.90169943759608" stroke-width="5" stroke="black"/><line x1="248.98982848811522" y1="-80.90169943759608" x2="248.98982848811522" y2="-80.90169943759608" stroke-width="5" stroke="black"/><line x1="248.98982848811522" y1="-80.90169943759608" x2="153.88417685858605" y2="-50.000000000143906" stroke-width="5" stroke="black"/><line x1="153.88417685858605" y1="-50.000000000143906" x2="153.88417685858605" y2="-50.000000000143906" stroke-width="5" stroke="black"/><line x1="153.88417685858605" y1="-50.000000000143906" x2="95.1056516293028" y2="30.901699437324744" stroke-width="5" stroke="black"/><line x1="95.1056516293028" y1="30.901699437324744" x2="95.1056516293028" y2="30.901699437324744" stroke-width="5" stroke="black"/><line x1="95.1056516293028" y1="30.901699437324744" x2="95.1056516293028" y2="30.901699437324744" stroke-width="5" stroke="black"/><line x1="95.1056516293028" y1="30.901699437324744" x2="-1.986251163543784E-10" y2="-2.1289991991579882E-10" stroke-width="5" stroke="black"/></svg>