<svg viewBox="-10.5473783918236 -8.97213595499958 10.5473783918236 11.090169943749473" xmlns="http://www.w3.org/2000/svg"><line x1="0.0" y1="0.0" x2="-1.8369701987210297E-16" y2="-1.0" stroke-width="0.1" stroke="black"/><line x1="-1.8369701987210297E-16" y1="-1.0" x2="-1.8369701987210297E-16" y2="-1.0" stroke-width="0.1" stroke="black"/><line x1="-1.8369701987210297E-16" y1="-1.0" x2="-1.8369701987210297E-16" y2="-1.0" stroke-width="0.1" stroke="black"/><line x1="-1.8369701987210297E-16" y1="-1.0" x2="-0.9510565162951539" y2="-1.3090169943749472" stroke-width="0.1" stroke="black"/><line x1="-0.9510565162951539" y1="-1.3090169943749472" x2="-0.9510565162951539" y2="-1.3090169943749472" stroke-width="0.1" stroke="black"/><line x1="-0.9510565162951539" y1="-1.3090169943749472" x2="-0.9510565162951539" y2="-1.3090169943749472" stroke-width="0.1" stroke="black"/><line x1="-0.9510565162951539" y1="-1.3090169943749472" x2="-1.538841768587627" y2="-0.4999999999999998" stroke-width="0.1" stroke="black"/><line x1="-1.538841768587627" y1="-0.4999999999999998" x2="-1.538841768587627" y2="-0.4999999999999998" stroke-width="0.1" stroke="black"/><line x1="-1.538841768587627" y1="-0.4999999999999998" x2="-0.9510565162951541" y2="-1.3090169943749475" stroke-width="0.1" stroke="black"/><line x1="-0.9510565162951541" y1="-1.3090169943749475" x2="-0.9510565162951541" y2="-1.3090169943749475" stroke-width="0.1" stroke="black"/><line x1="-0.9510565162951541" y1="-1.3090169943749475" x2="-5.551115123125783E-16" y2="-1.6180339887498951" stroke-width="0.1" stroke="black"/><line x1="-5.551115123125783E-16" y1="-1.6180339887498951" x2="-5.551115123125783E-16" y2="-1.6180339887498951" stroke-width="0.1" stroke="black"/><line x1="-5.551115123125783E-16" y1="-1.6180339887498951" x2="-5.551115123125783E-16" y2="-1.6180339887498951" stroke-width="0.1" stroke="black"/><line x1="-5.551115123125783E-16" y1="-1.6180339887498951" x2="-7.388085321846812E-16" y2="-2.618033988749895" stroke-width="0.1" stroke="black"/><line x1="-7.388085321846812E-16" y1="-2.618033988749895" x2="-7.388085321846812E-16" y2="-2.618033988749895" stroke-width="0.1" stroke="black"/><line x1="-7.388085321846812E-16" y1="-2.618033988749895" x2="-7.388085321846812E-16" y2="-2.618033988749895" stroke-width="0.1" stroke="black"/><line x1="-7.388085321846812E-16" y1="-2.618033988749895" x2="-0.9510565162951544" y2="-2.9270509831248424" stroke-width="0.1" stroke="black"/><line x1="-0.9510565162951544" y1="-2.9270509831248424" x2="-0.9510565162951544" y2="-2.9270509831248424" stroke-width="0.1" stroke="black"/><line x1="-0.9510565162951544" y1="-2.9270509831248424" x2="-0.9510565162951544" y2="-2.9270509831248424" stroke-width="0.1" stroke="black"/><line x1="-0.9510565162951544" y1="-2.9270509831248424" x2="-1.5388417685876274" y2="-2.118033988749895" stroke-width="0.1" stroke="black"/><line x1="-1.5388417685876274" y1="-2.118033988749895" x2="-1.5388417685876274" y2="-2.118033988749895" stroke-width="0.1" stroke="black"/><line x1="-1.5388417685876274" y1="-2.118033988749895" x2="-1.5388417685876274" y2="-2.118033988749895" stroke-width="0.1" stroke="black"/><line x1="-1.5388417685876274" y1="-2.118033988749895" x2="-0.9510565162951543" y2="-1.3090169943749475" stroke-width="0.1" stroke="black"/><line x1="-0.9510565162951543" y1="-1.3090169943749475" x2="-0.9510565162951543" y2="-1.3090169943749475" stroke-width="0.1" stroke="black"/><line x1="-0.9510565162951543" y1="-1.3090169943749475" x2="-1.5388417685876274" y2="-2.118033988749895" stroke-width="0.1" stroke="black"/><line x1="-1.5388417685876274" y1="-2.118033988749895" x2="-1.5388417685876274" y2="-2.118033988749895" stroke-width="0.1" stroke="black"/><line x1="-1.5388417685876274" y1="-2.118033988749895" x2="-1.5388417685876277" y2="-3.118033988749895" stroke-width="0.1" stroke="black"/><line x1="-1.5388417685876277" y1="-3.118033988749895" x2="-1.5388417685876277" y2="-3.118033988749895" stroke-width="0.1" stroke="black"/><line x1="-1.5388417685876277" y1="-3.118033988749895" x2="-1.5388417685876277" y2="-3.118033988749895" stroke-width="0.1" stroke="black"/><line x1="-1.5388417685876277" y1="-3.118033988749895" x2="-2.4898982848827815" y2="-3.4270509831248424" stroke-width="0.1" stroke="black"/><line x1="-2.4898982848827815" y1="-3.4270509831248424" x2="-2.4898982848827815" y2="-3.4270509831248424" stroke-width="0.1" stroke="black"/><line x1="-2.4898982848827815" y1="-3.4270509831248424" x2="-2.4898982848827815" y2="-3.4270509831248424" stroke-width="0.1" stroke="black"/><line x1="-2.4898982848827815" y1="-3.4270509831248424" x2="-3.0776835371752544" y2="-2.618033988749895" stroke-width="0.1" stroke="black"/><line x1="-3.0776835371752544" y1="-2.618033988749895" x2="-3.0776835371752544" y2="-2.618033988749895" stroke-width="0.1" stroke="black"/><line x1="-3.0776835371752544" y1="-2.618033988749895" x2="-3.0776835371752544" y2="-2.618033988749895" stroke-width="0.1" stroke="black"/><line x1="-3.0776835371752544" y1="-2.618033988749895" x2="-2.4898982848827815" y2="-1.8090169943749475" stroke-width="0.1" stroke="black"/><line x1="-2.4898982848827815" y1="-1.8090169943749475" x2="-2.4898982848827815" y2="-1.8090169943749475" stroke-width="0.1" stroke="black"/><line x1="-2.4898982848827815" y1="-1.8090169943749475" x2="-2.4898982848827815" y2="-1.8090169943749475" stroke-width="0.1" stroke="black"/><line x1="-2.4898982848827815" y1="-1.8090169943749475" x2="-1.538841768587628" y2="-2.118033988749895" stroke-width="0.1" stroke="black"/><line x1="-1.538841768587628" y1="-2.118033988749895" x2="-1.538841768587628" y2="-2.118033988749895" stroke-width="0.1" stroke="black"/><line x1="-1.538841768587628" y1="-2.118033988749895" x2="-2.4898982848827815" y2="-1.8090169943749475" stroke-width="0.1" stroke="black"/><line x1="-2.4898982848827815" y1="-1.8090169943749475" x2="-2.4898982848827815" y2="-1.8090169943749475" stroke-width="0.1" stroke="black"/><line x1="-2.4898982848827815" y1="-1.8090169943749475" x2="-3.440954801177935" y2="-2.118033988749895" stroke-width="0.1" stroke="black"/><line x1="-3.440954801177935" y1="-2.118033988749895" x2="-3.440954801177935" y2="-2.118033988749895" stroke-width="0.1" stroke="black"/><line x1="-3.440954801177935" y1="-2.118033988749895" x2="-3.440954801177935" y2="-2.118033988749895" stroke-width="0.1" stroke="black"/><line x1="-3.440954801177935" y1="-2.118033988749895" x2="-4.0287400534704085" y2="-1.3090169943749475" stroke-width="0.1" stroke="black"/><line x1="-4.0287400534704085" y1="-1.3090169943749475" x2="-4.0287400534704085" y2="-1.3090169943749475" stroke-width="0.1" stroke="black"/><line x1="-4.0287400534704085" y1="-1.3090169943749475" x2="-3.4409548011779356" y2="-2.118033988749895" stroke-width="0.1" stroke="black"/><line x1="-3.4409548011779356" y1="-2.118033988749895" x2="-3.4409548011779356" y2="-2.118033988749895" stroke-width="0.1" stroke="black"/><line x1="-3.4409548011779356" y1="-2.118033988749895" x2="-3.4409548011779356" y2="-2.118033988749895" stroke-width="0.1" stroke="black"/><line x1="-3.4409548011779356" y1="-2.118033988749895" x2="-4.0287400534704085" y2="-2.9270509831248424" stroke-width="0.1" stroke="black"/><line x1="-4.0287400534704085" y1="-2.9270509831248424" x2="-4.0287400534704085" y2="-2.9270509831248424" stroke-width="0.1" stroke="black"/><line x1="-4.0287400534704085" y1="-2.9270509831248424" x2="-4.0287400534704085" y2="-2.9270509831248424" stroke-width="0.1" stroke="black"/><line x1="-4.0287400534704085" y1="-2.9270509831248424" x2="-4.979796569765562" y2="-2.618033988749895" stroke-width="0.1" stroke="black"/><line x1="-4.979796569765562" y1="-2.618033988749895" x2="-4.979796569765562" y2="-2.618033988749895" stroke-width="0.1" stroke="black"/><line x1="-4.979796569765562" y1="-2.618033988749895" x2="-4.0287400534704085" y2="-2.9270509831248424" stroke-width="0.1" stroke="black"/><line x1="-4.0287400534704085" y1="-2.9270509831248424" x2="-4.0287400534704085" y2="-2.9270509831248424" stroke-width="0.1" stroke="black"/><line x1="-4.0287400534704085" y1="-2.9270509831248424" x2="-3.077683537175255" y2="-2.6180339887498953" stroke-width="0.1" stroke="black"/><line x1="-3.077683537175255" y1="-2.6180339887498953" x2="-3.077683537175255" y2="-2.6180339887498953" stroke-width="0.1" stroke="black"/><line x1="-3.077683537175255" y1="-2.6180339887498953" x2="-3.077683537175255" y2="-2.6180339887498953" stroke-width="0.1" stroke="black"/><line x1="-3.077683537175255" y1="-2.6180339887498953" x2="-2.489898284882782" y2="-3.427050983124843" stroke-width="0.1" stroke="black"/><line x1="-2.489898284882782" y1="-3.427050983124843" x2="-2.489898284882782" y2="-3.427050983124843" stroke-width="0.1" stroke="black"/><line x1="-2.489898284882782" y1="-3.427050983124843" x2="-1.5388417685876283" y2="-3.7360679774997902" stroke-width="0.1" stroke="black"/><line x1="-1.5388417685876283" y1="-3.7360679774997902" x2="-1.5388417685876283" y2="-3.7360679774997902" stroke-width="0.1" stroke="black"/><line x1="-1.5388417685876283" y1="-3.7360679774997902" x2="-1.5388417685876283" y2="-3.7360679774997902" stroke-width="0.1" stroke="black"/><line x1="-1.5388417685876283" y1="-3.7360679774997902" x2="-1.5388417685876286" y2="-4.73606797749979" stroke-width="0.1" stroke="black"/><line x1="-1.5388417685876286" y1="-4.73606797749979" x2="-1.5388417685876286" y2="-4.73606797749979" stroke-width="0.1" stroke="black"/><line x1="-1.5388417685876286" y1="-4.73606797749979" x2="-1.5388417685876286" y2="-4.73606797749979" stroke-width="0.1" stroke="black"/><line x1="-1.5388417685876286" y1="-4.73606797749979" x2="-2.4898982848827824" y2="-5.045084971874737" stroke-width="0.1" stroke="black"/><line x1="-2.4898982848827824" y1="-5.045084971874737" x2="-2.4898982848827824" y2="-5.045084971874737" stroke-width="0.1" stroke="black"/><line x1="-2.4898982848827824" y1="-5.045084971874737" x2="-1.5388417685876288" y2="-4.73606797749979" stroke-width="0.1" stroke="black"/><line x1="-1.5388417685876288" y1="-4.73606797749979" x2="-1.5388417685876288" y2="-4.73606797749979" stroke-width="0.1" stroke="black"/><line x1="-1.5388417685876288" y1="-4.73606797749979" x2="-0.9510565162951554" y2="-3.9270509831248424" stroke-width="0.1" stroke="black"/><line x1="-0.9510565162951554" y1="-3.9270509831248424" x2="-0.9510565162951554" y2="-3.9270509831248424" stroke-width="0.1" stroke="black"/><line x1="-0.9510565162951554" y1="-3.9270509831248424" x2="-0.9510565162951554" y2="-3.9270509831248424" stroke-width="0.1" stroke="black"/><line x1="-0.9510565162951554" y1="-3.9270509831248424" x2="-1.887379141862766E-15" y2="-4.23606797749979" stroke-width="0.1" stroke="black"/><line x1="-1.887379141862766E-15" y1="-4.23606797749979" x2="-1.887379141862766E-15" y2="-4.23606797749979" stroke-width="0.1" stroke="black"/><line x1="-1.887379141862766E-15" y1="-4.23606797749979" x2="-1.887379141862766E-15" y2="-4.23606797749979" stroke-width="0.1" stroke="black"/><line x1="-1.887379141862766E-15" y1="-4.23606797749979" x2="-2.0710761617348692E-15" y2="-5.23606797749979" stroke-width="0.1" stroke="black"/><line x1="-2.0710761617348692E-15" y1="-5.23606797749979" x2="-2.0710761617348692E-15" y2="-5.23606797749979" stroke-width="0.1" stroke="black"/><line x1="-2.0710761617348692E-15" y1="-5.23606797749979" x2="-2.0710761617348692E-15" y2="-5.23606797749979" stroke-width="0.1" stroke="black"/><line x1="-2.0710761617348692E-15" y1="-5.23606797749979" x2="-0.9510565162951558" y2="-5.545084971874737" stroke-width="0.1" stroke="black"/><line x1="-0.9510565162951558" y1="-5.545084971874737" x2="-0.9510565162951558" y2="-5.545084971874737" stroke-width="0.1" stroke="black"/><line x1="-0.9510565162951558" y1="-5.545084971874737" x2="-0.9510565162951558" y2="-5.545084971874737" stroke-width="0.1" stroke="black"/><line x1="-0.9510565162951558" y1="-5.545084971874737" x2="-1.5388417685876288" y2="-4.73606797749979" stroke-width="0.1" stroke="black"/><line x1="-1.5388417685876288" y1="-4.73606797749979" x2="-1.5388417685876288" y2="-4.73606797749979" stroke-width="0.1" stroke="black"/><line x1="-1.5388417685876288" y1="-4.73606797749979" x2="-0.9510565162951559" y2="-5.545084971874737" stroke-width="0.1" stroke="black"/><line x1="-0.9510565162951559" y1="-5.545084971874737" x2="-0.9510565162951559" y2="-5.545084971874737" stroke-width="0.1" stroke="black"/><line x1="-0.9510565162951559" y1="-5.545084971874737" x2="-2.3314683517128287E-15" y2="-5.854101966249685" stroke-width="0.1" stroke="black"/><line x1="-2.3314683517128287E-15" y1="-5.854101966249685" x2="-2.3314683517128287E-15" y2="-5.854101966249685" stroke-width="0.1" stroke="black"/><line x1="-2.3314683517128287E-15" y1="-5.854101966249685" x2="-2.3314683517128287E-15" y2="-5.854101966249685" stroke-width="0.1" stroke="black"/><line x1="-2.3314683517128287E-15" y1="-5.854101966249685" x2="-2.515165371584932E-15" y2="-6.854101966249685" stroke-width="0.1" stroke="black"/><line x1="-2.515165371584932E-15" y1="-6.854101966249685" x2="-2.515165371584932E-15" y2="-6.854101966249685" stroke-width="0.1" stroke="black"/><line x1="-2.515165371584932E-15" y1="-6.854101966249685" x2="-2.515165371584932E-15" y2="-6.854101966249685" stroke-width="0.1" stroke="black"/><line x1="-2.515165371584932E-15" y1="-6.854101966249685" x2="-0.9510565162951562" y2="-7.163118960624632" stroke-width="0.1" stroke="black"/><line x1="-0.9510565162951562" y1="-7.163118960624632" x2="-0.9510565162951562" y2="-7.163118960624632" stroke-width="0.1" stroke="black"/><line x1="-0.9510565162951562" y1="-7.163118960624632" x2="-0.9510565162951562" y2="-7.163118960624632" stroke-width="0.1" stroke="black"/><line x1="-0.9510565162951562" y1="-7.163118960624632" x2="-1.5388417685876292" y2="-6.354101966249685" stroke-width="0.1" stroke="black"/><line x1="-1.5388417685876292" y1="-6.354101966249685" x2="-1.5388417685876292" y2="-6.354101966249685" stroke-width="0.1" stroke="black"/><line x1="-1.5388417685876292" y1="-6.354101966249685" x2="-1.5388417685876292" y2="-6.354101966249685" stroke-width="0.1" stroke="black"/><line x1="-1.5388417685876292" y1="-6.354101966249685" x2="-0.9510565162951561" y2="-5.545084971874737" stroke-width="0.1" stroke="black"/><line x1="-0.9510565162951561" y1="-5.545084971874737" x2="-0.9510565162951561" y2="-5.545084971874737" stroke-width="0.1" stroke="black"/><line x1="-0.9510565162951561" y1="-5.545084971874737" x2="-1.5388417685876292" y2="-6.354101966249685" stroke-width="0.1" stroke="black"/><line x1="-1.5388417685876292" y1="-6.354101966249685" x2="-1.5388417685876292" y2="-6.354101966249685" stroke-width="0.1" stroke="black"/><line x1="-1.5388417685876292" y1="-6.354101966249685" x2="-1.5388417685876294" y2="-7.354101966249685" stroke-width="0.1" stroke="black"/><line x1="-1.5388417685876294" y1="-7.354101966249685" x2="-1.5388417685876294" y2="-7.354101966249685" stroke-width="0.1" stroke="black"/><line x1="-1.5388417685876294" y1="-7.354101966249685" x2="-1.5388417685876294" y2="-7.354101966249685" stroke-width="0.1" stroke="black"/><line x1="-1.5388417685876294" y1="-7.354101966249685" x2="-2.4898982848827833" y2="-7.663118960624632" stroke-width="0.1" stroke="black"/><line x1="-2.4898982848827833" y1="-7.663118960624632" x2="-2.4898982848827833" y2="-7.663118960624632" stroke-width="0.1" stroke="black"/><line x1="-2.4898982848827833" y1="-7.663118960624632" x2="-2.4898982848827833" y2="-7.663118960624632" stroke-width="0.1" stroke="black"/><line x1="-2.4898982848827833" y1="-7.663118960624632" x2="-3.0776835371752562" y2="-6.854101966249685" stroke-width="0.1" stroke="black"/><line x1="-3.0776835371752562" y1="-6.854101966249685" x2="-3.0776835371752562" y2="-6.854101966249685" stroke-width="0.1" stroke="black"/><line x1="-3.0776835371752562" y1="-6.854101966249685" x2="-3.0776835371752562" y2="-6.854101966249685" stroke-width="0.1" stroke="black"/><line x1="-3.0776835371752562" y1="-6.854101966249685" x2="-2.4898982848827833" y2="-6.045084971874737" stroke-width="0.1" stroke="black"/><line x1="-2.4898982848827833" y1="-6.045084971874737" x2="-2.4898982848827833" y2="-6.045084971874737" stroke-width="0.1" stroke="black"/><line x1="-2.4898982848827833" y1="-6.045084971874737" x2="-2.4898982848827833" y2="-6.045084971874737" stroke-width="0.1" stroke="black"/><line x1="-2.4898982848827833" y1="-6.045084971874737" x2="-1.5388417685876297" y2="-6.354101966249685" stroke-width="0.1" stroke="black"/><line x1="-1.5388417685876297" y1="-6.354101966249685" x2="-1.5388417685876297" y2="-6.354101966249685" stroke-width="0.1" stroke="black"/><line x1="-1.5388417685876297" y1="-6.354101966249685" x2="-2.4898982848827833" y2="-6.045084971874737" stroke-width="0.1" stroke="black"/><line x1="-2.4898982848827833" y1="-6.045084971874737" x2="-2.4898982848827833" y2="-6.045084971874737" stroke-width="0.1" stroke="black"/><line x1="-2.4898982848827833" y1="-6.045084971874737" x2="-3.440954801177937" y2="-6.354101966249685" stroke-width="0.1" stroke="black"/><line x1="-3.440954801177937" y1="-6.354101966249685" x2="-3.440954801177937" y2="-6.354101966249685" stroke-width="0.1" stroke="black"/><line x1="-3.440954801177937" y1="-6.354101966249685" x2="-3.440954801177937" y2="-6.354101966249685" stroke-width="0.1" stroke="black"/><line x1="-3.440954801177937" y1="-6.354101966249685" x2="-4.02874005347041" y2="-5.545084971874737" stroke-width="0.1" stroke="black"/><line x1="-4.02874005347041" y1="-5.545084971874737" x2="-4.02874005347041" y2="-5.545084971874737" stroke-width="0.1" stroke="black"/><line x1="-4.02874005347041" y1="-5.545084971874737" x2="-4.02874005347041" y2="-5.545084971874737" stroke-width="0.1" stroke="black"/><line x1="-4.02874005347041" y1="-5.545084971874737" x2="-3.440954801177937" y2="-4.73606797749979" stroke-width="0.1" stroke="black"/><line x1="-3.440954801177937" y1="-4.73606797749979" x2="-3.440954801177937" y2="-4.73606797749979" stroke-width="0.1" stroke="black"/><line x1="-3.440954801177937" y1="-4.73606797749979" x2="-3.440954801177937" y2="-4.73606797749979" stroke-width="0.1" stroke="black"/><line x1="-3.440954801177937" y1="-4.73606797749979" x2="-2.4898982848827833" y2="-5.045084971874737" stroke-width="0.1" stroke="black"/><line x1="-2.4898982848827833" y1="-5.045084971874737" x2="-2.4898982848827833" y2="-5.045084971874737" stroke-width="0.1" stroke="black"/><line x1="-2.4898982848827833" y1="-5.045084971874737" x2="-2.4898982848827833" y2="-5.045084971874737" stroke-width="0.1" stroke="black"/><line x1="-2.4898982848827833" y1="-5.045084971874737" x2="-2.4898982848827833" y2="-6.045084971874737" stroke-width="0.1" stroke="black"/><line x1="-2.4898982848827833" y1="-6.045084971874737" x2="-2.4898982848827833" y2="-6.045084971874737" stroke-width="0.1" stroke="black"/><line x1="-2.4898982848827833" y1="-6.045084971874737" x2="-2.4898982848827833" y2="-5.045084971874737" stroke-width="0.1" stroke="black"/><line x1="-2.4898982848827833" y1="-5.045084971874737" x2="-2.4898982848827833" y2="-5.045084971874737" stroke-width="0.1" stroke="black"/><line x1="-2.4898982848827833" y1="-5.045084971874737" x2="-3.0776835371752562" y2="-4.23606797749979" stroke-width="0.1" stroke="black"/><line x1="-3.0776835371752562" y1="-4.23606797749979" x2="-3.0776835371752562" y2="-4.23606797749979" stroke-width="0.1" stroke="black"/><line x1="-3.0776835371752562" y1="-4.23606797749979" x2="-3.0776835371752562" y2="-4.23606797749979" stroke-width="0.1" stroke="black"/><line x1="-3.0776835371752562" y1="-4.23606797749979" x2="-2.4898982848827833" y2="-3.4270509831248424" stroke-width="0.1" stroke="black"/><line x1="-2.4898982848827833" y1="-3.4270509831248424" x2="-2.4898982848827833" y2="-3.4270509831248424" stroke-width="0.1" stroke="black"/><line x1="-2.4898982848827833" y1="-3.4270509831248424" x2="-3.0776835371752567" y2="-4.23606797749979" stroke-width="0.1" stroke="black"/><line x1="-3.0776835371752567" y1="-4.23606797749979" x2="-3.0776835371752567" y2="-4.23606797749979" stroke-width="0.1" stroke="black"/><line x1="-3.0776835371752567" y1="-4.23606797749979" x2="-3.0776835371752567" y2="-4.23606797749979" stroke-width="0.1" stroke="black"/><line x1="-3.0776835371752567" y1="-4.23606797749979" x2="-4.02874005347041" y2="-3.9270509831248424" stroke-width="0.1" stroke="black"/><line x1="-4.02874005347041" y1="-3.9270509831248424" x2="-4.02874005347041" y2="-3.9270509831248424" stroke-width="0.1" stroke="black"/><line x1="-4.02874005347041" y1="-3.9270509831248424" x2="-4.02874005347041" y2="-3.9270509831248424" stroke-width="0.1" stroke="black"/><line x1="-4.02874005347041" y1="-3.9270509831248424" x2="-4.02874005347041" y2="-2.9270509831248424" stroke-width="0.1" stroke="black"/><line x1="-4.02874005347041" y1="-2.9270509831248424" x2="-4.02874005347041" y2="-2.9270509831248424" stroke-width="0.1" stroke="black"/><line x1="-4.02874005347041" y1="-2.9270509831248424" x2="-4.02874005347041" y2="-3.9270509831248424" stroke-width="0.1" stroke="black"/><line x1="-4.02874005347041" y1="-3.9270509831248424" x2="-4.02874005347041" y2="-3.9270509831248424" stroke-width="0.1" stroke="black"/><line x1="-4.02874005347041" y1="-3.9270509831248424" x2="-3.4409548011779374" y2="-4.73606797749979" stroke-width="0.1" stroke="black"/><line x1="-3.4409548011779374" y1="-4.73606797749979" x2="-3.4409548011779374" y2="-4.73606797749979" stroke-width="0.1" stroke="black"/><line x1="-3.4409548011779374" y1="-4.73606797749979" x2="-3.4409548011779374" y2="-4.73606797749979" stroke-width="0.1" stroke="black"/><line x1="-3.4409548011779374" y1="-4.73606797749979" x2="-4.02874005347041" y2="-5.545084971874737" stroke-width="0.1" stroke="black"/><line x1="-4.02874005347041" y1="-5.545084971874737" x2="-4.02874005347041" y2="-5.545084971874737" stroke-width="0.1" stroke="black"/><line x1="-4.02874005347041" y1="-5.545084971874737" x2="-4.02874005347041" y2="-6.545084971874737" stroke-width="0.1" stroke="black"/><line x1="-4.02874005347041" y1="-6.545084971874737" x2="-4.02874005347041" y2="-6.545084971874737" stroke-width="0.1" stroke="black"/><line x1="-4.02874005347041" y1="-6.545084971874737" x2="-4.02874005347041" y2="-6.545084971874737" stroke-width="0.1" stroke="black"/><line x1="-4.02874005347041" y1="-6.545084971874737" x2="-4.979796569765564" y2="-6.854101966249685" stroke-width="0.1" stroke="black"/><line x1="-4.979796569765564" y1="-6.854101966249685" x2="-4.979796569765564" y2="-6.854101966249685" stroke-width="0.1" stroke="black"/><line x1="-4.979796569765564" y1="-6.854101966249685" x2="-4.979796569765564" y2="-6.854101966249685" stroke-width="0.1" stroke="black"/><line x1="-4.979796569765564" y1="-6.854101966249685" x2="-5.567581822058037" y2="-6.045084971874737" stroke-width="0.1" stroke="black"/><line x1="-5.567581822058037" y1="-6.045084971874737" x2="-5.567581822058037" y2="-6.045084971874737" stroke-width="0.1" stroke="black"/><line x1="-5.567581822058037" y1="-6.045084971874737" x2="-4.979796569765565" y2="-6.854101966249685" stroke-width="0.1" stroke="black"/><line x1="-4.979796569765565" y1="-6.854101966249685" x2="-4.979796569765565" y2="-6.854101966249685" stroke-width="0.1" stroke="black"/><line x1="-4.979796569765565" y1="-6.854101966249685" x2="-4.028740053470411" y2="-7.163118960624632" stroke-width="0.1" stroke="black"/><line x1="-4.028740053470411" y1="-7.163118960624632" x2="-4.028740053470411" y2="-7.163118960624632" stroke-width="0.1" stroke="black"/><line x1="-4.028740053470411" y1="-7.163118960624632" x2="-4.028740053470411" y2="-7.163118960624632" stroke-width="0.1" stroke="black"/><line x1="-4.028740053470411" y1="-7.163118960624632" x2="-4.028740053470411" y2="-8.163118960624633" stroke-width="0.1" stroke="black"/><line x1="-4.028740053470411" y1="-8.163118960624633" x2="-4.028740053470411" y2="-8.163118960624633" stroke-width="0.1" stroke="black"/><line x1="-4.028740053470411" y1="-8.163118960624633" x2="-4.028740053470411" y2="-8.163118960624633" stroke-width="0.1" stroke="black"/><line x1="-4.028740053470411" y1="-8.163118960624633" x2="-4.979796569765565" y2="-8.47213595499958" stroke-width="0.1" stroke="black"/><line x1="-4.979796569765565" y1="-8.47213595499958" x2="-4.979796569765565" y2="-8.47213595499958" stroke-width="0.1" stroke="black"/><line x1="-4.979796569765565" y1="-8.47213595499958" x2="-4.979796569765565" y2="-8.47213595499958" stroke-width="0.1" stroke="black"/><line x1="-4.979796569765565" y1="-8.47213595499958" x2="-5.567581822058038" y2="-7.663118960624632" stroke-width="0.1" stroke="black"/><line x1="-5.567581822058038" y1="-7.663118960624632" x2="-5.567581822058038" y2="-7.663118960624632" stroke-width="0.1" stroke="black"/><line x1="-5.567581822058038" y1="-7.663118960624632" x2="-5.567581822058038" y2="-7.663118960624632" stroke-width="0.1" stroke="black"/><line x1="-5.567581822058038" y1="-7.663118960624632" x2="-4.979796569765565" y2="-6.854101966249685" stroke-width="0.1" stroke="black"/><line x1="-4.979796569765565" y1="-6.854101966249685" x2="-4.979796569765565" y2="-6.854101966249685" stroke-width="0.1" stroke="black"/><line x1="-4.979796569765565" y1="-6.854101966249685" x2="-5.567581822058038" y2="-7.663118960624632" stroke-width="0.1" stroke="black"/><line x1="-5.567581822058038" y1="-7.663118960624632" x2="-5.567581822058038" y2="-7.663118960624632" stroke-width="0.1" stroke="black"/><line x1="-5.567581822058038" y1="-7.663118960624632" x2="-5.567581822058038" y2="-8.663118960624633" stroke-width="0.1" stroke="black"/><line x1="-5.567581822058038" y1="-8.663118960624633" x2="-5.567581822058038" y2="-8.663118960624633" stroke-width="0.1" stroke="black"/><line x1="-5.567581822058038" y1="-8.663118960624633" x2="-5.567581822058038" y2="-8.663118960624633" stroke-width="0.1" stroke="black"/><line x1="-5.567581822058038" y1="-8.663118960624633" x2="-6.518638338353192" y2="-8.97213595499958" stroke-width="0.1" stroke="black"/><line x1="-6.518638338353192" y1="-8.97213595499958" x2="-6.518638338353192" y2="-8.97213595499958" stroke-width="0.1" stroke="black"/><line x1="-6.518638338353192" y1="-8.97213595499958" x2="-6.518638338353192" y2="-8.97213595499958" stroke-width="0.1" stroke="black"/><line x1="-6.518638338353192" y1="-8.97213595499958" x2="-7.106423590645665" y2="-8.163118960624633" stroke-width="0.1" stroke="black"/><line x1="-7.106423590645665" y1="-8.163118960624633" x2="-7.106423590645665" y2="-8.163118960624633" stroke-width="0.1" stroke="black"/><line x1="-7.106423590645665" y1="-8.163118960624633" x2="-7.106423590645665" y2="-8.163118960624633" stroke-width="0.1" stroke="black"/><line x1="-7.106423590645665" y1="-8.163118960624633" x2="-6.518638338353192" y2="-7.354101966249686" stroke-width="0.1" stroke="black"/><line x1="-6.518638338353192" y1="-7.354101966249686" x2="-6.518638338353192" y2="-7.354101966249686" stroke-width="0.1" stroke="black"/><line x1="-6.518638338353192" y1="-7.354101966249686" x2="-6.518638338353192" y2="-7.354101966249686" stroke-width="0.1" stroke="black"/><line x1="-6.518638338353192" y1="-7.354101966249686" x2="-5.567581822058038" y2="-7.663118960624633" stroke-width="0.1" stroke="black"/><line x1="-5.567581822058038" y1="-7.663118960624633" x2="-5.567581822058038" y2="-7.663118960624633" stroke-width="0.1" stroke="black"/><line x1="-5.567581822058038" y1="-7.663118960624633" x2="-6.518638338353192" y2="-7.354101966249686" stroke-width="0.1" stroke="black"/><line x1="-6.518638338353192" y1="-7.354101966249686" x2="-6.518638338353192" y2="-7.354101966249686" stroke-width="0.1" stroke="black"/><line x1="-6.518638338353192" y1="-7.354101966249686" x2="-7.4696948546483455" y2="-7.663118960624633" stroke-width="0.1" stroke="black"/><line x1="-7.4696948546483455" y1="-7.663118960624633" x2="-7.4696948546483455" y2="-7.663118960624633" stroke-width="0.1" stroke="black"/><line x1="-7.4696948546483455" y1="-7.663118960624633" x2="-7.4696948546483455" y2="-7.663118960624633" stroke-width="0.1" stroke="black"/><line x1="-7.4696948546483455" y1="-7.663118960624633" x2="-8.057480106940819" y2="-6.854101966249686" stroke-width="0.1" stroke="black"/><line x1="-8.057480106940819" y1="-6.854101966249686" x2="-8.057480106940819" y2="-6.854101966249686" stroke-width="0.1" stroke="black"/><line x1="-8.057480106940819" y1="-6.854101966249686" x2="-8.057480106940819" y2="-6.854101966249686" stroke-width="0.1" stroke="black"/><line x1="-8.057480106940819" y1="-6.854101966249686" x2="-7.4696948546483455" y2="-6.045084971874738" stroke-width="0.1" stroke="black"/><line x1="-7.4696948546483455" y1="-6.045084971874738" x2="-7.4696948546483455" y2="-6.045084971874738" stroke-width="0.1" stroke="black"/><line x1="-7.4696948546483455" y1="-6.045084971874738" x2="-7.4696948546483455" y2="-6.045084971874738" stroke-width="0.1" stroke="black"/><line x1="-7.4696948546483455" y1="-6.045084971874738" x2="-6.518638338353192" y2="-6.354101966249686" stroke-width="0.1" stroke="black"/><line x1="-6.518638338353192" y1="-6.354101966249686" x2="-6.518638338353192" y2="-6.354101966249686" stroke-width="0.1" stroke="black"/><line x1="-6.518638338353192" y1="-6.354101966249686" x2="-6.518638338353192" y2="-6.354101966249686" stroke-width="0.1" stroke="black"/><line x1="-6.518638338353192" y1="-6.354101966249686" x2="-6.518638338353192" y2="-7.354101966249686" stroke-width="0.1" stroke="black"/><line x1="-6.518638338353192" y1="-7.354101966249686" x2="-6.518638338353192" y2="-7.354101966249686" stroke-width="0.1" stroke="black"/><line x1="-6.518638338353192" y1="-7.354101966249686" x2="-6.518638338353192" y2="-6.354101966249686" stroke-width="0.1" stroke="black"/><line x1="-6.518638338353192" y1="-6.354101966249686" x2="-6.518638338353192" y2="-6.354101966249686" stroke-width="0.1" stroke="black"/><line x1="-6.518638338353192" y1="-6.354101966249686" x2="-7.106423590645665" y2="-5.545084971874738" stroke-width="0.1" stroke="black"/><line x1="-7.106423590645665" y1="-5.545084971874738" x2="-7.106423590645665" y2="-5.545084971874738" stroke-width="0.1" stroke="black"/><line x1="-7.106423590645665" y1="-5.545084971874738" x2="-7.106423590645665" y2="-5.545084971874738" stroke-width="0.1" stroke="black"/><line x1="-7.106423590645665" y1="-5.545084971874738" x2="-6.518638338353192" y2="-4.736067977499791" stroke-width="0.1" stroke="black"/><line x1="-6.518638338353192" y1="-4.736067977499791" x2="-6.518638338353192" y2="-4.736067977499791" stroke-width="0.1" stroke="black"/><line x1="-6.518638338353192" y1="-4.736067977499791" x2="-6.518638338353192" y2="-4.736067977499791" stroke-width="0.1" stroke="black"/><line x1="-6.518638338353192" y1="-4.736067977499791" x2="-5.567581822058038" y2="-5.045084971874738" stroke-width="0.1" stroke="black"/><line x1="-5.567581822058038" y1="-5.045084971874738" x2="-5.567581822058038" y2="-5.045084971874738" stroke-width="0.1" stroke="black"/><line x1="-5.567581822058038" y1="-5.045084971874738" x2="-5.567581822058038" y2="-5.045084971874738" stroke-width="0.1" stroke="black"/><line x1="-5.567581822058038" y1="-5.045084971874738" x2="-5.567581822058038" y2="-6.045084971874738" stroke-width="0.1" stroke="black"/><line x1="-5.567581822058038" y1="-6.045084971874738" x2="-5.567581822058038" y2="-6.045084971874738" stroke-width="0.1" stroke="black"/><line x1="-5.567581822058038" y1="-6.045084971874738" x2="-5.567581822058038" y2="-6.045084971874738" stroke-width="0.1" stroke="black"/><line x1="-5.567581822058038" y1="-6.045084971874738" x2="-6.518638338353192" y2="-6.354101966249686" stroke-width="0.1" stroke="black"/><line x1="-6.518638338353192" y1="-6.354101966249686" x2="-6.518638338353192" y2="-6.354101966249686" stroke-width="0.1" stroke="black"/><line x1="-6.518638338353192" y1="-6.354101966249686" x2="-5.567581822058038" y2="-6.045084971874738" stroke-width="0.1" stroke="black"/><line x1="-5.567581822058038" y1="-6.045084971874738" x2="-5.567581822058038" y2="-6.045084971874738" stroke-width="0.1" stroke="black"/><line x1="-5.567581822058038" y1="-6.045084971874738" x2="-4.979796569765565" y2="-5.236067977499791" stroke-width="0.1" stroke="black"/><line x1="-4.979796569765565" y1="-5.236067977499791" x2="-4.979796569765565" y2="-5.236067977499791" stroke-width="0.1" stroke="black"/><line x1="-4.979796569765565" y1="-5.236067977499791" x2="-4.979796569765565" y2="-5.236067977499791" stroke-width="0.1" stroke="black"/><line x1="-4.979796569765565" y1="-5.236067977499791" x2="-4.028740053470411" y2="-5.545084971874738" stroke-width="0.1" stroke="black"/><line x1="-4.028740053470411" y1="-5.545084971874738" x2="-4.028740053470411" y2="-5.545084971874738" stroke-width="0.1" stroke="black"/><line x1="-4.028740053470411" y1="-5.545084971874738" x2="-4.979796569765565" y2="-5.236067977499791" stroke-width="0.1" stroke="black"/><line x1="-4.979796569765565" y1="-5.236067977499791" x2="-4.979796569765565" y2="-5.236067977499791" stroke-width="0.1" stroke="black"/><line x1="-4.979796569765565" y1="-5.236067977499791" x2="-4.979796569765565" y2="-5.236067977499791" stroke-width="0.1" stroke="black"/><line x1="-4.979796569765565" y1="-5.236067977499791" x2="-4.979796569765565" y2="-4.236067977499791" stroke-width="0.1" stroke="black"/><line x1="-4.979796569765565" y1="-4.236067977499791" x2="-4.979796569765565" y2="-4.236067977499791" stroke-width="0.1" stroke="black"/><line x1="-4.979796569765565" y1="-4.236067977499791" x2="-4.979796569765565" y2="-4.236067977499791" stroke-width="0.1" stroke="black"/><line x1="-4.979796569765565" y1="-4.236067977499791" x2="-4.028740053470411" y2="-3.9270509831248432" stroke-width="0.1" stroke="black"/><line x1="-4.028740053470411" y1="-3.9270509831248432" x2="-4.028740053470411" y2="-3.9270509831248432" stroke-width="0.1" stroke="black"/><line x1="-4.028740053470411" y1="-3.9270509831248432" x2="-4.979796569765565" y2="-4.236067977499791" stroke-width="0.1" stroke="black"/><line x1="-4.979796569765565" y1="-4.236067977499791" x2="-4.979796569765565" y2="-4.236067977499791" stroke-width="0.1" stroke="black"/><line x1="-4.979796569765565" y1="-4.236067977499791" x2="-5.567581822058038" y2="-5.045084971874738" stroke-width="0.1" stroke="black"/><line x1="-5.567581822058038" y1="-5.045084971874738" x2="-5.567581822058038" y2="-5.045084971874738" stroke-width="0.1" stroke="black"/><line x1="-5.567581822058038" y1="-5.045084971874738" x2="-5.567581822058038" y2="-5.045084971874738" stroke-width="0.1" stroke="black"/><line x1="-5.567581822058038" y1="-5.045084971874738" x2="-6.518638338353192" y2="-4.736067977499791" stroke-width="0.1" stroke="black"/><line x1="-6.518638338353192" y1="-4.736067977499791" x2="-6.518638338353192" y2="-4.736067977499791" stroke-width="0.1" stroke="black"/><line x1="-6.518638338353192" y1="-4.736067977499791" x2="-7.4696948546483455" y2="-5.045084971874738" stroke-width="0.1" stroke="black"/><line x1="-7.4696948546483455" y1="-5.045084971874738" x2="-7.4696948546483455" y2="-5.045084971874738" stroke-width="0.1" stroke="black"/><line x1="-7.4696948546483455" y1="-5.045084971874738" x2="-7.4696948546483455" y2="-5.045084971874738" stroke-width="0.1" stroke="black"/><line x1="-7.4696948546483455" y1="-5.045084971874738" x2="-8.057480106940819" y2="-4.236067977499791" stroke-width="0.1" stroke="black"/><line x1="-8.057480106940819" y1="-4.236067977499791" x2="-8.057480106940819" y2="-4.236067977499791" stroke-width="0.1" stroke="black"/><line x1="-8.057480106940819" y1="-4.236067977499791" x2="-8.057480106940819" y2="-4.236067977499791" stroke-width="0.1" stroke="black"/><line x1="-8.057480106940819" y1="-4.236067977499791" x2="-7.4696948546483455" y2="-3.4270509831248432" stroke-width="0.1" stroke="black"/><line x1="-7.4696948546483455" y1="-3.4270509831248432" x2="-7.4696948546483455" y2="-3.4270509831248432" stroke-width="0.1" stroke="black"/><line x1="-7.4696948546483455" y1="-3.4270509831248432" x2="-8.057480106940819" y2="-4.236067977499791" stroke-width="0.1" stroke="black"/><line x1="-8.057480106940819" y1="-4.236067977499791" x2="-8.057480106940819" y2="-4.236067977499791" stroke-width="0.1" stroke="black"/><line x1="-8.057480106940819" y1="-4.236067977499791" x2="-8.057480106940819" y2="-5.236067977499791" stroke-width="0.1" stroke="black"/><line x1="-8.057480106940819" y1="-5.236067977499791" x2="-8.057480106940819" y2="-5.236067977499791" stroke-width="0.1" stroke="black"/><line x1="-8.057480106940819" y1="-5.236067977499791" x2="-8.057480106940819" y2="-5.236067977499791" stroke-width="0.1" stroke="black"/><line x1="-8.057480106940819" y1="-5.236067977499791" x2="-9.008536623235972" y2="-5.545084971874738" stroke-width="0.1" stroke="black"/><line x1="-9.008536623235972" y1="-5.545084971874738" x2="-9.008536623235972" y2="-5.545084971874738" stroke-width="0.1" stroke="black"/><line x1="-9.008536623235972" y1="-5.545084971874738" x2="-9.008536623235972" y2="-5.545084971874738" stroke-width="0.1" stroke="black"/><line x1="-9.008536623235972" y1="-5.545084971874738" x2="-9.596321875528446" y2="-4.736067977499791" stroke-width="0.1" stroke="black"/><line x1="-9.596321875528446" y1="-4.736067977499791" x2="-9.596321875528446" y2="-4.736067977499791" stroke-width="0.1" stroke="black"/><line x1="-9.596321875528446" y1="-4.736067977499791" x2="-9.596321875528446" y2="-4.736067977499791" stroke-width="0.1" stroke="black"/><line x1="-9.596321875528446" y1="-4.736067977499791" x2="-9.008536623235972" y2="-3.9270509831248432" stroke-width="0.1" stroke="black"/><line x1="-9.008536623235972" y1="-3.9270509831248432" x2="-9.008536623235972" y2="-3.9270509831248432" stroke-width="0.1" stroke="black"/><line x1="-9.008536623235972" y1="-3.9270509831248432" x2="-9.008536623235972" y2="-3.9270509831248432" stroke-width="0.1" stroke="black"/><line x1="-9.008536623235972" y1="-3.9270509831248432" x2="-8.057480106940819" y2="-4.236067977499791" stroke-width="0.1" stroke="black"/><line x1="-8.057480106940819" y1="-4.236067977499791" x2="-8.057480106940819" y2="-4.236067977499791" stroke-width="0.1" stroke="black"/><line x1="-8.057480106940819" y1="-4.236067977499791" x2="-9.008536623235972" y2="-3.9270509831248432" stroke-width="0.1" stroke="black"/><line x1="-9.008536623235972" y1="-3.9270509831248432" x2="-9.008536623235972" y2="-3.9270509831248432" stroke-width="0.1" stroke="black"/><line x1="-9.008536623235972" y1="-3.9270509831248432" x2="-9.959593139531126" y2="-4.236067977499791" stroke-width="0.1" stroke="black"/><line x1="-9.959593139531126" y1="-4.236067977499791" x2="-9.959593139531126" y2="-4.236067977499791" stroke-width="0.1" stroke="black"/><line x1="-9.959593139531126" y1="-4.236067977499791" x2="-9.959593139531126" y2="-4.236067977499791" stroke-width="0.1" stroke="black"/><line x1="-9.959593139531126" y1="-4.236067977499791" x2="-10.5473783918236" y2="-3.4270509831248432" stroke-width="0.1" stroke="black"/><line x1="-10.5473783918236" y1="-3.4270509831248432" x2="-10.5473783918236" y2="-3.4270509831248432" stroke-width="0.1" stroke="black"/><line x1="-10.5473783918236" y1="-3.4270509831248432" x2="-10.5473783918236" y2="-3.4270509831248432" stroke-width="0.1" stroke="black"/><line x1="-10.5473783918236" y1="-3.4270509831248432" x2="-9.959593139531126" y2="-2.618033988749896" stroke-width="0.1" stroke="black"/><line x1="-9.959593139531126" y1="-2.618033988749896" x2="-9.959593139531126" y2="-2.618033988749896" stroke-width="0.1" stroke="black"/><line x1="-9.959593139531126" y1="-2.618033988749896" x2="-9.959593139531126" y2="-2.618033988749896" stroke-width="0.1" stroke="black"/><line x1="-9.959593139531126" y1="-2.618033988749896" x2="-9.008536623235972" y2="-2.9270509831248432" stroke-width="0.1" stroke="black"/><line x1="-9.008536623235972" y1="-2.9270509831248432" x2="-9.008536623235972" y2="-2.9270509831248432" stroke-width="0.1" stroke="black"/><line x1="-9.008536623235972" y1="-2.9270509831248432" x2="-9.008536623235972" y2="-2.9270509831248432" stroke-width="0.1" stroke="black"/><line x1="-9.008536623235972" y1="-2.9270509831248432" x2="-9.008536623235972" y2="-3.9270509831248432" stroke-width="0.1" stroke="black"/><line x1="-9.008536623235972" y1="-3.9270509831248432" x2="-9.008536623235972" y2="-3.9270509831248432" stroke-width="0.1" stroke="black"/><line x1="-9.008536623235972" y1="-3.9270509831248432" x2="-9.008536623235972" y2="-2.9270509831248432" stroke-width="0.1" stroke="black"/><line x1="-9.008536623235972" y1="-2.9270509831248432" x2="-9.008536623235972" y2="-2.9270509831248432" stroke-width="0.1" stroke="black"/><line x1="-9.008536623235972" y1="-2.9270509831248432" x2="-9.596321875528446" y2="-2.118033988749896" stroke-width="0.1" stroke="black"/><line x1="-9.596321875528446" y1="-2.118033988749896" x2="-9.596321875528446" y2="-2.118033988749896" stroke-width="0.1" stroke="black"/><line x1="-9.596321875528446" y1="-2.118033988749896" x2="-9.596321875528446" y2="-2.118033988749896" stroke-width="0.1" stroke="black"/><line x1="-9.596321875528446" y1="-2.118033988749896" x2="-9.008536623235972" y2="-1.3090169943749483" stroke-width="0.1" stroke="black"/><line x1="-9.008536623235972" y1="-1.3090169943749483" x2="-9.008536623235972" y2="-1.3090169943749483" stroke-width="0.1" stroke="black"/><line x1="-9.008536623235972" y1="-1.3090169943749483" x2="-9.008536623235972" y2="-1.3090169943749483" stroke-width="0.1" stroke="black"/><line x1="-9.008536623235972" y1="-1.3090169943749483" x2="-8.057480106940819" y2="-1.6180339887498958" stroke-width="0.1" stroke="black"/><line x1="-8.057480106940819" y1="-1.6180339887498958" x2="-8.057480106940819" y2="-1.6180339887498958" stroke-width="0.1" stroke="black"/><line x1="-8.057480106940819" y1="-1.6180339887498958" x2="-8.057480106940819" y2="-1.6180339887498958" stroke-width="0.1" stroke="black"/><line x1="-8.057480106940819" y1="-1.6180339887498958" x2="-8.057480106940819" y2="-2.618033988749896" stroke-width="0.1" stroke="black"/><line x1="-8.057480106940819" y1="-2.618033988749896" x2="-8.057480106940819" y2="-2.618033988749896" stroke-width="0.1" stroke="black"/><line x1="-8.057480106940819" y1="-2.618033988749896" x2="-8.057480106940819" y2="-2.618033988749896" stroke-width="0.1" stroke="black"/><line x1="-8.057480106940819" y1="-2.618033988749896" x2="-9.008536623235972" y2="-2.9270509831248432" stroke-width="0.1" stroke="black"/><line x1="-9.008536623235972" y1="-2.9270509831248432" x2="-9.008536623235972" y2="-2.9270509831248432" stroke-width="0.1" stroke="black"/><line x1="-9.008536623235972" y1="-2.9270509831248432" x2="-8.057480106940819" y2="-2.618033988749896" stroke-width="0.1" stroke="black"/><line x1="-8.057480106940819" y1="-2.618033988749896" x2="-8.057480106940819" y2="-2.618033988749896" stroke-width="0.1" stroke="black"/><line x1="-8.057480106940819" y1="-2.618033988749896" x2="-7.4696948546483455" y2="-1.8090169943749483" stroke-width="0.1" stroke="black"/><line x1="-7.4696948546483455" y1="-1.8090169943749483" x2="-7.4696948546483455" y2="-1.8090169943749483" stroke-width="0.1" stroke="black"/><line x1="-7.4696948546483455" y1="-1.8090169943749483" x2="-7.4696948546483455" y2="-1.8090169943749483" stroke-width="0.1" stroke="black"/><line x1="-7.4696948546483455" y1="-1.8090169943749483" x2="-6.518638338353192" y2="-2.118033988749896" stroke-width="0.1" stroke="black"/><line x1="-6.518638338353192" y1="-2.118033988749896" x2="-6.518638338353192" y2="-2.118033988749896" stroke-width="0.1" stroke="black"/><line x1="-6.518638338353192" y1="-2.118033988749896" x2="-6.518638338353192" y2="-2.118033988749896" stroke-width="0.1" stroke="black"/><line x1="-6.518638338353192" y1="-2.118033988749896" x2="-6.518638338353192" y2="-3.118033988749896" stroke-width="0.1" stroke="black"/><line x1="-6.518638338353192" y1="-3.118033988749896" x2="-6.518638338353192" y2="-3.118033988749896" stroke-width="0.1" stroke="black"/><line x1="-6.518638338353192" y1="-3.118033988749896" x2="-6.518638338353192" y2="-3.118033988749896" stroke-width="0.1" stroke="black"/><line x1="-6.518638338353192" y1="-3.118033988749896" x2="-7.4696948546483455" y2="-3.4270509831248432" stroke-width="0.1" stroke="black"/><line x1="-7.4696948546483455" y1="-3.4270509831248432" x2="-7.4696948546483455" y2="-3.4270509831248432" stroke-width="0.1" stroke="black"/><line x1="-7.4696948546483455" y1="-3.4270509831248432" x2="-7.4696948546483455" y2="-3.4270509831248432" stroke-width="0.1" stroke="black"/><line x1="-7.4696948546483455" y1="-3.4270509831248432" x2="-8.057480106940819" y2="-2.618033988749896" stroke-width="0.1" stroke="black"/><line x1="-8.057480106940819" y1="-2.618033988749896" x2="-8.057480106940819" y2="-2.618033988749896" stroke-width="0.1" stroke="black"/><line x1="-8.057480106940819" y1="-2.618033988749896" x2="-7.4696948546483455" y2="-3.4270509831248432" stroke-width="0.1" stroke="black"/><line x1="-7.4696948546483455" y1="-3.4270509831248432" x2="-7.4696948546483455" y2="-3.4270509831248432" stroke-width="0.1" stroke="black"/><line x1="-7.4696948546483455" y1="-3.4270509831248432" x2="-6.518638338353192" y2="-3.7360679774997907" stroke-width="0.1" stroke="black"/><line x1="-6.518638338353192" y1="-3.7360679774997907" x2="-6.518638338353192" y2="-3.7360679774997907" stroke-width="0.1" stroke="black"/><line x1="-6.518638338353192" y1="-3.7360679774997907" x2="-6.518638338353192" y2="-3.7360679774997907" stroke-width="0.1" stroke="black"/><line x1="-6.518638338353192" y1="-3.7360679774997907" x2="-6.518638338353192" y2="-4.736067977499791" stroke-width="0.1" stroke="black"/><line x1="-6.518638338353192" y1="-4.736067977499791" x2="-6.518638338353192" y2="-4.736067977499791" stroke-width="0.1" stroke="black"/><line x1="-6.518638338353192" y1="-4.736067977499791" x2="-6.518638338353192" y2="-3.7360679774997907" stroke-width="0.1" stroke="black"/><line x1="-6.518638338353192" y1="-3.7360679774997907" x2="-6.518638338353192" y2="-3.7360679774997907" stroke-width="0.1" stroke="black"/><line x1="-6.518638338353192" y1="-3.7360679774997907" x2="-6.518638338353192" y2="-3.7360679774997907" stroke-width="0.1" stroke="black"/><line x1="-6.518638338353192" y1="-3.7360679774997907" x2="-5.567581822058038" y2="-3.4270509831248432" stroke-width="0.1" stroke="black"/><line x1="-5.567581822058038" y1="-3.4270509831248432" x2="-5.567581822058038" y2="-3.4270509831248432" stroke-width="0.1" stroke="black"/><line x1="-5.567581822058038" y1="-3.4270509831248432" x2="-5.567581822058038" y2="-3.4270509831248432" stroke-width="0.1" stroke="black"/><line x1="-5.567581822058038" y1="-3.4270509831248432" x2="-4.979796569765565" y2="-4.236067977499791" stroke-width="0.1" stroke="black"/><line x1="-4.979796569765565" y1="-4.236067977499791" x2="-4.979796569765565" y2="-4.236067977499791" stroke-width="0.1" stroke="black"/><line x1="-4.979796569765565" y1="-4.236067977499791" x2="-5.567581822058038" y2="-3.4270509831248432" stroke-width="0.1" stroke="black"/><line x1="-5.567581822058038" y1="-3.4270509831248432" x2="-5.567581822058038" y2="-3.4270509831248432" stroke-width="0.1" stroke="black"/><line x1="-5.567581822058038" y1="-3.4270509831248432" x2="-6.518638338353192" y2="-3.118033988749896" stroke-width="0.1" stroke="black"/><line x1="-6.518638338353192" y1="-3.118033988749896" x2="-6.518638338353192" y2="-3.118033988749896" stroke-width="0.1" stroke="black"/><line x1="-6.518638338353192" y1="-3.118033988749896" x2="-6.518638338353192" y2="-3.118033988749896" stroke-width="0.1" stroke="black"/><line x1="-6.518638338353192" y1="-3.118033988749896" x2="-6.518638338353192" y2="-2.118033988749896" stroke-width="0.1" stroke="black"/><line x1="-6.518638338353192" y1="-2.118033988749896" x2="-6.518638338353192" y2="-2.118033988749896" stroke-width="0.1" stroke="black"/><line x1="-6.518638338353192" y1="-2.118033988749896" x2="-7.106423590645665" y2="-1.3090169943749483" stroke-width="0.1" stroke="black"/><line x1="-7.106423590645665" y1="-1.3090169943749483" x2="-7.106423590645665" y2="-1.3090169943749483" stroke-width="0.1" stroke="black"/><line x1="-7.106423590645665" y1="-1.3090169943749483" x2="-7.106423590645665" y2="-1.3090169943749483" stroke-width="0.1" stroke="black"/><line x1="-7.106423590645665" y1="-1.3090169943749483" x2="-6.518638338353192" y2="-0.5000000000000009" stroke-width="0.1" stroke="black"/><line x1="-6.518638338353192" y1="-0.5000000000000009" x2="-6.518638338353192" y2="-0.5000000000000009" stroke-width="0.1" stroke="black"/><line x1="-6.518638338353192" y1="-0.5000000000000009" x2="-6.518638338353192" y2="-0.5000000000000009" stroke-width="0.1" stroke="black"/><line x1="-6.518638338353192" y1="-0.5000000000000009" x2="-5.567581822058038" y2="-0.8090169943749483" stroke-width="0.1" stroke="black"/><line x1="-5.567581822058038" y1="-0.8090169943749483" x2="-5.567581822058038" y2="-0.8090169943749483" stroke-width="0.1" stroke="black"/><line x1="-5.567581822058038" y1="-0.8090169943749483" x2="-6.518638338353192" y2="-0.5000000000000009" stroke-width="0.1" stroke="black"/><line x1="-6.518638338353192" y1="-0.5000000000000009" x2="-6.518638338353192" y2="-0.5000000000000009" stroke-width="0.1" stroke="black"/><line x1="-6.518638338353192" y1="-0.5000000000000009" x2="-7.4696948546483455" y2="-0.8090169943749481" stroke-width="0.1" stroke="black"/><line x1="-7.4696948546483455" y1="-0.8090169943749481" x2="-7.4696948546483455" y2="-0.8090169943749481" stroke-width="0.1" stroke="black"/><line x1="-7.4696948546483455" y1="-0.8090169943749481" x2="-7.4696948546483455" y2="-0.8090169943749481" stroke-width="0.1" stroke="black"/><line x1="-7.4696948546483455" y1="-0.8090169943749481" x2="-8.057480106940819" y2="-6.661338147750939E-16" stroke-width="0.1" stroke="black"/><line x1="-8.057480106940819" y1="-6.661338147750939E-16" x2="-8.057480106940819" y2="-6.661338147750939E-16" stroke-width="0.1" stroke="black"/><line x1="-8.057480106940819" y1="-6.661338147750939E-16" x2="-8.057480106940819" y2="-6.661338147750939E-16" stroke-width="0.1" stroke="black"/><line x1="-8.057480106940819" y1="-6.661338147750939E-16" x2="-7.4696948546483455" y2="0.8090169943749468" stroke-width="0.1" stroke="black"/><line x1="-7.4696948546483455" y1="0.8090169943749468" x2="-7.4696948546483455" y2="0.8090169943749468" stroke-width="0.1" stroke="black"/><line x1="-7.4696948546483455" y1="0.8090169943749468" x2="-7.4696948546483455" y2="0.8090169943749468" stroke-width="0.1" stroke="black"/><line x1="-7.4696948546483455" y1="0.8090169943749468" x2="-6.518638338353192" y2="0.4999999999999994" stroke-width="0.1" stroke="black"/><line x1="-6.518638338353192" y1="0.4999999999999994" x2="-6.518638338353192" y2="0.4999999999999994" stroke-width="0.1" stroke="black"/><line x1="-6.518638338353192" y1="0.4999999999999994" x2="-6.518638338353192" y2="0.4999999999999994" stroke-width="0.1" stroke="black"/><line x1="-6.518638338353192" y1="0.4999999999999994" x2="-6.518638338353192" y2="-0.5000000000000007" stroke-width="0.1" stroke="black"/><line x1="-6.518638338353192" y1="-0.5000000000000007" x2="-6.518638338353192" y2="-0.5000000000000007" stroke-width="0.1" stroke="black"/><line x1="-6.518638338353192" y1="-0.5000000000000007" x2="-6.518638338353192" y2="0.49999999999999933" stroke-width="0.1" stroke="black"/><line x1="-6.518638338353192" y1="0.49999999999999933" x2="-6.518638338353192" y2="0.49999999999999933" stroke-width="0.1" stroke="black"/><line x1="-6.518638338353192" y1="0.49999999999999933" x2="-7.106423590645665" y2="1.3090169943749468" stroke-width="0.1" stroke="black"/><line x1="-7.106423590645665" y1="1.3090169943749468" x2="-7.106423590645665" y2="1.3090169943749468" stroke-width="0.1" stroke="black"/><line x1="-7.106423590645665" y1="1.3090169943749468" x2="-7.106423590645665" y2="1.3090169943749468" stroke-width="0.1" stroke="black"/><line x1="-7.106423590645665" y1="1.3090169943749468" x2="-6.518638338353192" y2="2.118033988749894" stroke-width="0.1" stroke="black"/><line x1="-6.518638338353192" y1="2.118033988749894" x2="-6.518638338353192" y2="2.118033988749894" stroke-width="0.1" stroke="black"/><line x1="-6.518638338353192" y1="2.118033988749894" x2="-6.518638338353192" y2="2.118033988749894" stroke-width="0.1" stroke="black"/><line x1="-6.518638338353192" y1="2.118033988749894" x2="-5.567581822058038" y2="1.8090169943749466" stroke-width="0.1" stroke="black"/><line x1="-5.567581822058038" y1="1.8090169943749466" x2="-5.567581822058038" y2="1.8090169943749466" stroke-width="0.1" stroke="black"/><line x1="-5.567581822058038" y1="1.8090169943749466" x2="-5.567581822058038" y2="1.8090169943749466" stroke-width="0.1" stroke="black"/><line x1="-5.567581822058038" y1="1.8090169943749466" x2="-5.567581822058038" y2="0.8090169943749466" stroke-width="0.1" stroke="black"/><line x1="-5.567581822058038" y1="0.8090169943749466" x2="-5.567581822058038" y2="0.8090169943749466" stroke-width="0.1" stroke="black"/><line x1="-5.567581822058038" y1="0.8090169943749466" x2="-5.567581822058038" y2="0.8090169943749466" stroke-width="0.1" stroke="black"/><line x1="-5.567581822058038" y1="0.8090169943749466" x2="-6.518638338353192" y2="0.49999999999999906" stroke-width="0.1" stroke="black"/><line x1="-6.518638338353192" y1="0.49999999999999906" x2="-6.518638338353192" y2="0.49999999999999906" stroke-width="0.1" stroke="black"/><line x1="-6.518638338353192" y1="0.49999999999999906" x2="-5.567581822058038" y2="0.8090169943749465" stroke-width="0.1" stroke="black"/><line x1="-5.567581822058038" y1="0.8090169943749465" x2="-5.567581822058038" y2="0.8090169943749465" stroke-width="0.1" stroke="black"/><line x1="-5.567581822058038" y1="0.8090169943749465" x2="-4.979796569765565" y2="1.618033988749894" stroke-width="0.1" stroke="black"/><line x1="-4.979796569765565" y1="1.618033988749894" x2="-4.979796569765565" y2="1.618033988749894" stroke-width="0.1" stroke="black"/><line x1="-4.979796569765565" y1="1.618033988749894" x2="-4.979796569765565" y2="1.618033988749894" stroke-width="0.1" stroke="black"/><line x1="-4.979796569765565" y1="1.618033988749894" x2="-4.028740053470411" y2="1.3090169943749466" stroke-width="0.1" stroke="black"/><line x1="-4.028740053470411" y1="1.3090169943749466" x2="-4.028740053470411" y2="1.3090169943749466" stroke-width="0.1" stroke="black"/><line x1="-4.028740053470411" y1="1.3090169943749466" x2="-4.028740053470411" y2="1.3090169943749466" stroke-width="0.1" stroke="black"/><line x1="-4.028740053470411" y1="1.3090169943749466" x2="-4.028740053470411" y2="0.30901699437494656" stroke-width="0.1" stroke="black"/><line x1="-4.028740053470411" y1="0.30901699437494656" x2="-4.028740053470411" y2="0.30901699437494656" stroke-width="0.1" stroke="black"/><line x1="-4.028740053470411" y1="0.30901699437494656" x2="-4.028740053470411" y2="0.30901699437494656" stroke-width="0.1" stroke="black"/><line x1="-4.028740053470411" y1="0.30901699437494656" x2="-4.979796569765565" y2="-9.43689570931383E-16" stroke-width="0.1" stroke="black"/><line x1="-4.979796569765565" y1="-9.43689570931383E-16" x2="-4.979796569765565" y2="-9.43689570931383E-16" stroke-width="0.1" stroke="black"/><line x1="-4.979796569765565" y1="-9.43689570931383E-16" x2="-4.979796569765565" y2="-9.43689570931383E-16" stroke-width="0.1" stroke="black"/><line x1="-4.979796569765565" y1="-9.43689570931383E-16" x2="-5.567581822058038" y2="0.8090169943749463" stroke-width="0.1" stroke="black"/><line x1="-5.567581822058038" y1="0.8090169943749463" x2="-5.567581822058038" y2="0.8090169943749463" stroke-width="0.1" stroke="black"/><line x1="-5.567581822058038" y1="0.8090169943749463" x2="-4.979796569765565" y2="-1.1102230246251565E-15" stroke-width="0.1" stroke="black"/><line x1="-4.979796569765565" y1="-1.1102230246251565E-15" x2="-4.979796569765565" y2="-1.1102230246251565E-15" stroke-width="0.1" stroke="black"/><line x1="-4.979796569765565" y1="-1.1102230246251565E-15" x2="-4.028740053470411" y2="-0.3090169943749485" stroke-width="0.1" stroke="black"/><line x1="-4.028740053470411" y1="-0.3090169943749485" x2="-4.028740053470411" y2="-0.3090169943749485" stroke-width="0.1" stroke="black"/><line x1="-4.028740053470411" y1="-0.3090169943749485" x2="-4.028740053470411" y2="-0.3090169943749485" stroke-width="0.1" stroke="black"/><line x1="-4.028740053470411" y1="-0.3090169943749485" x2="-4.028740053470411" y2="-1.3090169943749486" stroke-width="0.1" stroke="black"/><line x1="-4.028740053470411" y1="-1.3090169943749486" x2="-4.028740053470411" y2="-1.3090169943749486" stroke-width="0.1" stroke="black"/><line x1="-4.028740053470411" y1="-1.3090169943749486" x2="-4.028740053470411" y2="-1.3090169943749486" stroke-width="0.1" stroke="black"/><line x1="-4.028740053470411" y1="-1.3090169943749486" x2="-4.979796569765565" y2="-1.618033988749896" stroke-width="0.1" stroke="black"/><line x1="-4.979796569765565" y1="-1.618033988749896" x2="-4.979796569765565" y2="-1.618033988749896" stroke-width="0.1" stroke="black"/><line x1="-4.979796569765565" y1="-1.618033988749896" x2="-4.979796569765565" y2="-1.618033988749896" stroke-width="0.1" stroke="black"/><line x1="-4.979796569765565" y1="-1.618033988749896" x2="-5.567581822058038" y2="-0.8090169943749487" stroke-width="0.1" stroke="black"/><line x1="-5.567581822058038" y1="-0.8090169943749487" x2="-5.567581822058038" y2="-0.8090169943749487" stroke-width="0.1" stroke="black"/><line x1="-5.567581822058038" y1="-0.8090169943749487" x2="-5.567581822058038" y2="-0.8090169943749487" stroke-width="0.1" stroke="black"/><line x1="-5.567581822058038" y1="-0.8090169943749487" x2="-4.979796569765565" y2="-1.1102230246251565E-15" stroke-width="0.1" stroke="black"/><line x1="-4.979796569765565" y1="-1.1102230246251565E-15" x2="-4.979796569765565" y2="-1.1102230246251565E-15" stroke-width="0.1" stroke="black"/><line x1="-4.979796569765565" y1="-1.1102230246251565E-15" x2="-5.567581822058038" y2="-0.8090169943749486" stroke-width="0.1" stroke="black"/><line x1="-5.567581822058038" y1="-0.8090169943749486" x2="-5.567581822058038" y2="-0.8090169943749486" stroke-width="0.1" stroke="black"/><line x1="-5.567581822058038" y1="-0.8090169943749486" x2="-5.567581822058038" y2="-1.8090169943749486" stroke-width="0.1" stroke="black"/><line x1="-5.567581822058038" y1="-1.8090169943749486" x2="-5.567581822058038" y2="-1.8090169943749486" stroke-width="0.1" stroke="black"/><line x1="-5.567581822058038" y1="-1.8090169943749486" x2="-5.567581822058038" y2="-1.8090169943749486" stroke-width="0.1" stroke="black"/><line x1="-5.567581822058038" y1="-1.8090169943749486" x2="-6.518638338353192" y2="-2.1180339887498962" stroke-width="0.1" stroke="black"/><line x1="-6.518638338353192" y1="-2.1180339887498962" x2="-6.518638338353192" y2="-2.1180339887498962" stroke-width="0.1" stroke="black"/><line x1="-6.518638338353192" y1="-2.1180339887498962" x2="-5.567581822058038" y2="-1.8090169943749488" stroke-width="0.1" stroke="black"/><line x1="-5.567581822058038" y1="-1.8090169943749488" x2="-5.567581822058038" y2="-1.8090169943749488" stroke-width="0.1" stroke="black"/><line x1="-5.567581822058038" y1="-1.8090169943749488" x2="-5.567581822058038" y2="-1.8090169943749488" stroke-width="0.1" stroke="black"/><line x1="-5.567581822058038" y1="-1.8090169943749488" x2="-4.979796569765565" y2="-2.6180339887498962" stroke-width="0.1" stroke="black"/><line x1="-4.979796569765565" y1="-2.6180339887498962" x2="-4.979796569765565" y2="-2.6180339887498962" stroke-width="0.1" stroke="black"/><line x1="-4.979796569765565" y1="-2.6180339887498962" x2="-4.979796569765565" y2="-2.6180339887498962" stroke-width="0.1" stroke="black"/><line x1="-4.979796569765565" y1="-2.6180339887498962" x2="-5.567581822058038" y2="-3.4270509831248437" stroke-width="0.1" stroke="black"/><line x1="-5.567581822058038" y1="-3.4270509831248437" x2="-5.567581822058038" y2="-3.4270509831248437" stroke-width="0.1" stroke="black"/><line x1="-5.567581822058038" y1="-3.4270509831248437" x2="-4.979796569765565" y2="-2.6180339887498962" stroke-width="0.1" stroke="black"/><line x1="-4.979796569765565" y1="-2.6180339887498962" x2="-4.979796569765565" y2="-2.6180339887498962" stroke-width="0.1" stroke="black"/><line x1="-4.979796569765565" y1="-2.6180339887498962" x2="-4.979796569765565" y2="-1.6180339887498962" stroke-width="0.1" stroke="black"/><line x1="-4.979796569765565" y1="-1.6180339887498962" x2="-4.979796569765565" y2="-1.6180339887498962" stroke-width="0.1" stroke="black"/><line x1="-4.979796569765565" y1="-1.6180339887498962" x2="-4.979796569765565" y2="-1.6180339887498962" stroke-width="0.1" stroke="black"/><line x1="-4.979796569765565" y1="-1.6180339887498962" x2="-4.028740053470411" y2="-1.3090169943749488" stroke-width="0.1" stroke="black"/><line x1="-4.028740053470411" y1="-1.3090169943749488" x2="-4.028740053470411" y2="-1.3090169943749488" stroke-width="0.1" stroke="black"/><line x1="-4.028740053470411" y1="-1.3090169943749488" x2="-3.440954801177938" y2="-0.5000000000000013" stroke-width="0.1" stroke="black"/><line x1="-3.440954801177938" y1="-0.5000000000000013" x2="-3.440954801177938" y2="-0.5000000000000013" stroke-width="0.1" stroke="black"/><line x1="-3.440954801177938" y1="-0.5000000000000013" x2="-3.440954801177938" y2="-0.5000000000000013" stroke-width="0.1" stroke="black"/><line x1="-3.440954801177938" y1="-0.5000000000000013" x2="-2.489898284882784" y2="-0.8090169943749488" stroke-width="0.1" stroke="black"/><line x1="-2.489898284882784" y1="-0.8090169943749488" x2="-2.489898284882784" y2="-0.8090169943749488" stroke-width="0.1" stroke="black"/><line x1="-2.489898284882784" y1="-0.8090169943749488" x2="-2.489898284882784" y2="-0.8090169943749488" stroke-width="0.1" stroke="black"/><line x1="-2.489898284882784" y1="-0.8090169943749488" x2="-2.489898284882784" y2="-1.8090169943749488" stroke-width="0.1" stroke="black"/><line x1="-2.489898284882784" y1="-1.8090169943749488" x2="-2.489898284882784" y2="-1.8090169943749488" stroke-width="0.1" stroke="black"/><line x1="-2.489898284882784" y1="-1.8090169943749488" x2="-2.489898284882784" y2="-0.8090169943749488" stroke-width="0.1" stroke="black"/><line x1="-2.489898284882784" y1="-0.8090169943749488" x2="-2.489898284882784" y2="-0.8090169943749488" stroke-width="0.1" stroke="black"/><line x1="-2.489898284882784" y1="-0.8090169943749488" x2="-3.077683537175257" y2="-1.3322676295501878E-15" stroke-width="0.1" stroke="black"/><line x1="-3.077683537175257" y1="-1.3322676295501878E-15" x2="-3.077683537175257" y2="-1.3322676295501878E-15" stroke-width="0.1" stroke="black"/><line x1="-3.077683537175257" y1="-1.3322676295501878E-15" x2="-3.077683537175257" y2="-1.3322676295501878E-15" stroke-width="0.1" stroke="black"/><line x1="-3.077683537175257" y1="-1.3322676295501878E-15" x2="-2.489898284882784" y2="0.8090169943749461" stroke-width="0.1" stroke="black"/><line x1="-2.489898284882784" y1="0.8090169943749461" x2="-2.489898284882784" y2="0.8090169943749461" stroke-width="0.1" stroke="black"/><line x1="-2.489898284882784" y1="0.8090169943749461" x2="-2.489898284882784" y2="0.8090169943749461" stroke-width="0.1" stroke="black"/><line x1="-2.489898284882784" y1="0.8090169943749461" x2="-1.5388417685876306" y2="0.4999999999999987" stroke-width="0.1" stroke="black"/><line x1="-1.5388417685876306" y1="0.4999999999999987" x2="-1.5388417685876306" y2="0.4999999999999987" stroke-width="0.1" stroke="black"/><line x1="-1.5388417685876306" y1="0.4999999999999987" x2="-1.5388417685876306" y2="0.4999999999999987" stroke-width="0.1" stroke="black"/><line x1="-1.5388417685876306" y1="0.4999999999999987" x2="-1.5388417685876306" y2="-0.5000000000000013" stroke-width="0.1" stroke="black"/><line x1="-1.5388417685876306" y1="-0.5000000000000013" x2="-1.5388417685876306" y2="-0.5000000000000013" stroke-width="0.1" stroke="black"/><line x1="-1.5388417685876306" y1="-0.5000000000000013" x2="-1.5388417685876306" y2="-0.5000000000000013" stroke-width="0.1" stroke="black"/><line x1="-1.5388417685876306" y1="-0.5000000000000013" x2="-2.489898284882784" y2="-0.8090169943749488" stroke-width="0.1" stroke="black"/><line x1="-2.489898284882784" y1="-0.8090169943749488" x2="-2.489898284882784" y2="-0.8090169943749488" stroke-width="0.1" stroke="black"/><line x1="-2.489898284882784" y1="-0.8090169943749488" x2="-1.5388417685876306" y2="-0.5000000000000013" stroke-width="0.1" stroke="black"/><line x1="-1.5388417685876306" y1="-0.5000000000000013" x2="-1.5388417685876306" y2="-0.5000000000000013" stroke-width="0.1" stroke="black"/><line x1="-1.5388417685876306" y1="-0.5000000000000013" x2="-0.9510565162951574" y2="0.3090169943749461" stroke-width="0.1" stroke="black"/><line x1="-0.9510565162951574" y1="0.3090169943749461" x2="-0.9510565162951574" y2="0.3090169943749461" stroke-width="0.1" stroke="black"/><line x1="-0.9510565162951574" y1="0.3090169943749461" x2="-0.9510565162951574" y2="0.3090169943749461" stroke-width="0.1" stroke="black"/><line x1="-0.9510565162951574" y1="0.3090169943749461" x2="-3.885780586188048E-15" y2="-1.27675647831893E-15" stroke-width="0.1" stroke="black"/></svg>