<svg viewBox="-12.990381056766587 -16.0 12.990381056766587 16.0" xmlns="http://www.w3.org/2000/svg"><line x1="0.0" y1="0.0" x2="-1.8369701987210297E-16" y2="-1.0" stroke-width="0.1" stroke="black"/><line x1="-1.8369701987210297E-16" y1="-1.0" x2="-1.8369701987210297E-16" y2="-1.0" stroke-width="0.1" stroke="black"/><line x1="-1.8369701987210297E-16" y1="-1.0" x2="-0.8660254037844388" y2="-1.5" stroke-width="0.1" stroke="black"/><line x1="-0.8660254037844388" y1="-1.5" x2="-0.8660254037844388" y2="-1.5" stroke-width="0.1" stroke="black"/><line x1="-0.8660254037844388" y1="-1.5" x2="-1.7320508075688776" y2="-1.0000000000000004" stroke-width="0.1" stroke="black"/><line x1="-1.7320508075688776" y1="-1.0000000000000004" x2="-1.7320508075688776" y2="-1.0000000000000004" stroke-width="0.1" stroke="black"/><line x1="-1.7320508075688776" y1="-1.0000000000000004" x2="-2.598076211353316" y2="-1.5000000000000004" stroke-width="0.1" stroke="black"/><line x1="-2.598076211353316" y1="-1.5000000000000004" x2="-2.598076211353316" y2="-1.5000000000000004" stroke-width="0.1" stroke="black"/><line x1="-2.598076211353316" y1="-1.5000000000000004" x2="-2.598076211353316" y2="-2.5000000000000004" stroke-width="0.1" stroke="black"/><line x1="-2.598076211353316" y1="-2.5000000000000004" x2="-2.598076211353316" y2="-2.5000000000000004" stroke-width="0.1" stroke="black"/><line x1="-2.598076211353316" y1="-2.5000000000000004" x2="-1.7320508075688776" y2="-3.000000000000001" stroke-width="0.1" stroke="black"/><line x1="-1.7320508075688776" y1="-3.000000000000001" x2="-1.7320508075688776" y2="-3.000000000000001" stroke-width="0.1" stroke="black"/><line x1="-1.7320508075688776" y1="-3.000000000000001" x2="-0.8660254037844386" y2="-2.5000000000000018" stroke-width="0.1" stroke="black"/><line x1="-0.8660254037844386" y1="-2.5000000000000018" x2="-0.8660254037844386" y2="-2.5000000000000018" stroke-width="0.1" stroke="black"/><line x1="-0.8660254037844386" y1="-2.5000000000000018" x2="-2.220446049250313E-16" y2="-3.000000000000002" stroke-width="0.1" stroke="black"/><line x1="-2.220446049250313E-16" y1="-3.000000000000002" x2="-2.220446049250313E-16" y2="-3.000000000000002" stroke-width="0.1" stroke="black"/><line x1="-2.220446049250313E-16" y1="-3.000000000000002" x2="-4.057416247971343E-16" y2="-4.000000000000002" stroke-width="0.1" stroke="black"/><line x1="-4.057416247971343E-16" y1="-4.000000000000002" x2="-4.057416247971343E-16" y2="-4.000000000000002" stroke-width="0.1" stroke="black"/><line x1="-4.057416247971343E-16" y1="-4.000000000000002" x2="-0.866025403784439" y2="-4.500000000000002" stroke-width="0.1" stroke="black"/><line x1="-0.866025403784439" y1="-4.500000000000002" x2="-0.866025403784439" y2="-4.500000000000002" stroke-width="0.1" stroke="black"/><line x1="-0.866025403784439" y1="-4.500000000000002" x2="-0.8660254037844393" y2="-5.500000000000002" stroke-width="0.1" stroke="black"/><line x1="-0.8660254037844393" y1="-5.500000000000002" x2="-0.8660254037844393" y2="-5.500000000000002" stroke-width="0.1" stroke="black"/><line x1="-0.8660254037844393" y1="-5.500000000000002" x2="-8.881784197001252E-16" y2="-6.000000000000002" stroke-width="0.1" stroke="black"/><line x1="-8.881784197001252E-16" y1="-6.000000000000002" x2="-8.881784197001252E-16" y2="-6.000000000000002" stroke-width="0.1" stroke="black"/><line x1="-8.881784197001252E-16" y1="-6.000000000000002" x2="-1.0718754395722282E-15" y2="-7.000000000000002" stroke-width="0.1" stroke="black"/><line x1="-1.0718754395722282E-15" y1="-7.000000000000002" x2="-1.0718754395722282E-15" y2="-7.000000000000002" stroke-width="0.1" stroke="black"/><line x1="-1.0718754395722282E-15" y1="-7.000000000000002" x2="-0.8660254037844397" y2="-7.500000000000002" stroke-width="0.1" stroke="black"/><line x1="-0.8660254037844397" y1="-7.500000000000002" x2="-0.8660254037844397" y2="-7.500000000000002" stroke-width="0.1" stroke="black"/><line x1="-0.8660254037844397" y1="-7.500000000000002" x2="-1.7320508075688785" y2="-7.000000000000002" stroke-width="0.1" stroke="black"/><line x1="-1.7320508075688785" y1="-7.000000000000002" x2="-1.7320508075688785" y2="-7.000000000000002" stroke-width="0.1" stroke="black"/><line x1="-1.7320508075688785" y1="-7.000000000000002" x2="-1.7320508075688792" y2="-6.000000000000002" stroke-width="0.1" stroke="black"/><line x1="-1.7320508075688792" y1="-6.000000000000002" x2="-1.7320508075688792" y2="-6.000000000000002" stroke-width="0.1" stroke="black"/><line x1="-1.7320508075688792" y1="-6.000000000000002" x2="-2.5980762113533182" y2="-5.500000000000002" stroke-width="0.1" stroke="black"/><line x1="-2.5980762113533182" y1="-5.500000000000002" x2="-2.5980762113533182" y2="-5.500000000000002" stroke-width="0.1" stroke="black"/><line x1="-2.5980762113533182" y1="-5.500000000000002" x2="-3.464101615137757" y2="-6.000000000000002" stroke-width="0.1" stroke="black"/><line x1="-3.464101615137757" y1="-6.000000000000002" x2="-3.464101615137757" y2="-6.000000000000002" stroke-width="0.1" stroke="black"/><line x1="-3.464101615137757" y1="-6.000000000000002" x2="-4.330127018922196" y2="-5.500000000000002" stroke-width="0.1" stroke="black"/><line x1="-4.330127018922196" y1="-5.500000000000002" x2="-4.330127018922196" y2="-5.500000000000002" stroke-width="0.1" stroke="black"/><line x1="-4.330127018922196" y1="-5.500000000000002" x2="-4.330127018922197" y2="-4.500000000000002" stroke-width="0.1" stroke="black"/><line x1="-4.330127018922197" y1="-4.500000000000002" x2="-4.330127018922197" y2="-4.500000000000002" stroke-width="0.1" stroke="black"/><line x1="-4.330127018922197" y1="-4.500000000000002" x2="-3.464101615137759" y2="-4.000000000000001" stroke-width="0.1" stroke="black"/><line x1="-3.464101615137759" y1="-4.000000000000001" x2="-3.464101615137759" y2="-4.000000000000001" stroke-width="0.1" stroke="black"/><line x1="-3.464101615137759" y1="-4.000000000000001" x2="-3.4641016151377593" y2="-3.000000000000001" stroke-width="0.1" stroke="black"/><line x1="-3.4641016151377593" y1="-3.000000000000001" x2="-3.4641016151377593" y2="-3.000000000000001" stroke-width="0.1" stroke="black"/><line x1="-3.4641016151377593" y1="-3.000000000000001" x2="-4.330127018922198" y2="-2.5000000000000013" stroke-width="0.1" stroke="black"/><line x1="-4.330127018922198" y1="-2.5000000000000013" x2="-4.330127018922198" y2="-2.5000000000000013" stroke-width="0.1" stroke="black"/><line x1="-4.330127018922198" y1="-2.5000000000000013" x2="-5.1961524227066365" y2="-3.0000000000000013" stroke-width="0.1" stroke="black"/><line x1="-5.1961524227066365" y1="-3.0000000000000013" x2="-5.1961524227066365" y2="-3.0000000000000013" stroke-width="0.1" stroke="black"/><line x1="-5.1961524227066365" y1="-3.0000000000000013" x2="-5.1961524227066365" y2="-4.000000000000002" stroke-width="0.1" stroke="black"/><line x1="-5.1961524227066365" y1="-4.000000000000002" x2="-5.1961524227066365" y2="-4.000000000000002" stroke-width="0.1" stroke="black"/><line x1="-5.1961524227066365" y1="-4.000000000000002" x2="-6.062177826491075" y2="-4.500000000000002" stroke-width="0.1" stroke="black"/><line x1="-6.062177826491075" y1="-4.500000000000002" x2="-6.062177826491075" y2="-4.500000000000002" stroke-width="0.1" stroke="black"/><line x1="-6.062177826491075" y1="-4.500000000000002" x2="-6.928203230275514" y2="-4.000000000000002" stroke-width="0.1" stroke="black"/><line x1="-6.928203230275514" y1="-4.000000000000002" x2="-6.928203230275514" y2="-4.000000000000002" stroke-width="0.1" stroke="black"/><line x1="-6.928203230275514" y1="-4.000000000000002" x2="-7.7942286340599525" y2="-4.500000000000002" stroke-width="0.1" stroke="black"/><line x1="-7.7942286340599525" y1="-4.500000000000002" x2="-7.7942286340599525" y2="-4.500000000000002" stroke-width="0.1" stroke="black"/><line x1="-7.7942286340599525" y1="-4.500000000000002" x2="-7.7942286340599525" y2="-5.500000000000002" stroke-width="0.1" stroke="black"/><line x1="-7.7942286340599525" y1="-5.500000000000002" x2="-7.7942286340599525" y2="-5.500000000000002" stroke-width="0.1" stroke="black"/><line x1="-7.7942286340599525" y1="-5.500000000000002" x2="-6.928203230275514" y2="-6.000000000000002" stroke-width="0.1" stroke="black"/><line x1="-6.928203230275514" y1="-6.000000000000002" x2="-6.928203230275514" y2="-6.000000000000002" stroke-width="0.1" stroke="black"/><line x1="-6.928203230275514" y1="-6.000000000000002" x2="-6.928203230275514" y2="-7.000000000000002" stroke-width="0.1" stroke="black"/><line x1="-6.928203230275514" y1="-7.000000000000002" x2="-6.928203230275514" y2="-7.000000000000002" stroke-width="0.1" stroke="black"/><line x1="-6.928203230275514" y1="-7.000000000000002" x2="-7.7942286340599525" y2="-7.500000000000002" stroke-width="0.1" stroke="black"/><line x1="-7.7942286340599525" y1="-7.500000000000002" x2="-7.7942286340599525" y2="-7.500000000000002" stroke-width="0.1" stroke="black"/><line x1="-7.7942286340599525" y1="-7.500000000000002" x2="-8.66025403784439" y2="-7.000000000000002" stroke-width="0.1" stroke="black"/><line x1="-8.66025403784439" y1="-7.000000000000002" x2="-8.66025403784439" y2="-7.000000000000002" stroke-width="0.1" stroke="black"/><line x1="-8.66025403784439" y1="-7.000000000000002" x2="-8.66025403784439" y2="-6.000000000000002" stroke-width="0.1" stroke="black"/><line x1="-8.66025403784439" y1="-6.000000000000002" x2="-8.66025403784439" y2="-6.000000000000002" stroke-width="0.1" stroke="black"/><line x1="-8.66025403784439" y1="-6.000000000000002" x2="-9.52627944162883" y2="-5.500000000000002" stroke-width="0.1" stroke="black"/><line x1="-9.52627944162883" y1="-5.500000000000002" x2="-9.52627944162883" y2="-5.500000000000002" stroke-width="0.1" stroke="black"/><line x1="-9.52627944162883" y1="-5.500000000000002" x2="-10.39230484541327" y2="-6.000000000000002" stroke-width="0.1" stroke="black"/><line x1="-10.39230484541327" y1="-6.000000000000002" x2="-10.39230484541327" y2="-6.000000000000002" stroke-width="0.1" stroke="black"/><line x1="-10.39230484541327" y1="-6.000000000000002" x2="-10.39230484541327" y2="-7.000000000000002" stroke-width="0.1" stroke="black"/><line x1="-10.39230484541327" y1="-7.000000000000002" x2="-10.39230484541327" y2="-7.000000000000002" stroke-width="0.1" stroke="black"/><line x1="-10.39230484541327" y1="-7.000000000000002" x2="-11.258330249197709" y2="-7.500000000000002" stroke-width="0.1" stroke="black"/><line x1="-11.258330249197709" y1="-7.500000000000002" x2="-11.258330249197709" y2="-7.500000000000002" stroke-width="0.1" stroke="black"/><line x1="-11.258330249197709" y1="-7.500000000000002" x2="-12.124355652982148" y2="-7.000000000000002" stroke-width="0.1" stroke="black"/><line x1="-12.124355652982148" y1="-7.000000000000002" x2="-12.124355652982148" y2="-7.000000000000002" stroke-width="0.1" stroke="black"/><line x1="-12.124355652982148" y1="-7.000000000000002" x2="-12.990381056766587" y2="-7.500000000000002" stroke-width="0.1" stroke="black"/><line x1="-12.990381056766587" y1="-7.500000000000002" x2="-12.990381056766587" y2="-7.500000000000002" stroke-width="0.1" stroke="black"/><line x1="-12.990381056766587" y1="-7.500000000000002" x2="-12.990381056766587" y2="-8.500000000000002" stroke-width="0.1" stroke="black"/><line x1="-12.990381056766587" y1="-8.500000000000002" x2="-12.990381056766587" y2="-8.500000000000002" stroke-width="0.1" stroke="black"/><line x1="-12.990381056766587" y1="-8.500000000000002" x2="-12.12435565298215" y2="-9.000000000000002" stroke-width="0.1" stroke="black"/><line x1="-12.12435565298215" y1="-9.000000000000002" x2="-12.12435565298215" y2="-9.000000000000002" stroke-width="0.1" stroke="black"/><line x1="-12.12435565298215" y1="-9.000000000000002" x2="-11.25833024919771" y2="-8.500000000000002" stroke-width="0.1" stroke="black"/><line x1="-11.25833024919771" y1="-8.500000000000002" x2="-11.25833024919771" y2="-8.500000000000002" stroke-width="0.1" stroke="black"/><line x1="-11.25833024919771" y1="-8.500000000000002" x2="-10.392304845413271" y2="-9.000000000000002" stroke-width="0.1" stroke="black"/><line x1="-10.392304845413271" y1="-9.000000000000002" x2="-10.392304845413271" y2="-9.000000000000002" stroke-width="0.1" stroke="black"/><line x1="-10.392304845413271" y1="-9.000000000000002" x2="-10.392304845413271" y2="-10.000000000000002" stroke-width="0.1" stroke="black"/><line x1="-10.392304845413271" y1="-10.000000000000002" x2="-10.392304845413271" y2="-10.000000000000002" stroke-width="0.1" stroke="black"/><line x1="-10.392304845413271" y1="-10.000000000000002" x2="-9.526279441628834" y2="-10.500000000000002" stroke-width="0.1" stroke="black"/><line x1="-9.526279441628834" y1="-10.500000000000002" x2="-9.526279441628834" y2="-10.500000000000002" stroke-width="0.1" stroke="black"/><line x1="-9.526279441628834" y1="-10.500000000000002" x2="-8.660254037844394" y2="-10.000000000000002" stroke-width="0.1" stroke="black"/><line x1="-8.660254037844394" y1="-10.000000000000002" x2="-8.660254037844394" y2="-10.000000000000002" stroke-width="0.1" stroke="black"/><line x1="-8.660254037844394" y1="-10.000000000000002" x2="-8.660254037844393" y2="-9.000000000000002" stroke-width="0.1" stroke="black"/><line x1="-8.660254037844393" y1="-9.000000000000002" x2="-8.660254037844393" y2="-9.000000000000002" stroke-width="0.1" stroke="black"/><line x1="-8.660254037844393" y1="-9.000000000000002" x2="-7.794228634059953" y2="-8.500000000000002" stroke-width="0.1" stroke="black"/><line x1="-7.794228634059953" y1="-8.500000000000002" x2="-7.794228634059953" y2="-8.500000000000002" stroke-width="0.1" stroke="black"/><line x1="-7.794228634059953" y1="-8.500000000000002" x2="-6.928203230275515" y2="-9.000000000000002" stroke-width="0.1" stroke="black"/><line x1="-6.928203230275515" y1="-9.000000000000002" x2="-6.928203230275515" y2="-9.000000000000002" stroke-width="0.1" stroke="black"/><line x1="-6.928203230275515" y1="-9.000000000000002" x2="-6.928203230275515" y2="-10.000000000000002" stroke-width="0.1" stroke="black"/><line x1="-6.928203230275515" y1="-10.000000000000002" x2="-6.928203230275515" y2="-10.000000000000002" stroke-width="0.1" stroke="black"/><line x1="-6.928203230275515" y1="-10.000000000000002" x2="-7.794228634059953" y2="-10.500000000000002" stroke-width="0.1" stroke="black"/><line x1="-7.794228634059953" y1="-10.500000000000002" x2="-7.794228634059953" y2="-10.500000000000002" stroke-width="0.1" stroke="black"/><line x1="-7.794228634059953" y1="-10.500000000000002" x2="-7.794228634059953" y2="-11.500000000000002" stroke-width="0.1" stroke="black"/><line x1="-7.794228634059953" y1="-11.500000000000002" x2="-7.794228634059953" y2="-11.500000000000002" stroke-width="0.1" stroke="black"/><line x1="-7.794228634059953" y1="-11.500000000000002" x2="-6.928203230275515" y2="-12.000000000000002" stroke-width="0.1" stroke="black"/><line x1="-6.928203230275515" y1="-12.000000000000002" x2="-6.928203230275515" y2="-12.000000000000002" stroke-width="0.1" stroke="black"/><line x1="-6.928203230275515" y1="-12.000000000000002" x2="-6.062177826491076" y2="-11.500000000000002" stroke-width="0.1" stroke="black"/><line x1="-6.062177826491076" y1="-11.500000000000002" x2="-6.062177826491076" y2="-11.500000000000002" stroke-width="0.1" stroke="black"/><line x1="-6.062177826491076" y1="-11.500000000000002" x2="-5.196152422706637" y2="-12.000000000000002" stroke-width="0.1" stroke="black"/><line x1="-5.196152422706637" y1="-12.000000000000002" x2="-5.196152422706637" y2="-12.000000000000002" stroke-width="0.1" stroke="black"/><line x1="-5.196152422706637" y1="-12.000000000000002" x2="-5.196152422706637" y2="-13.000000000000002" stroke-width="0.1" stroke="black"/><line x1="-5.196152422706637" y1="-13.000000000000002" x2="-5.196152422706637" y2="-13.000000000000002" stroke-width="0.1" stroke="black"/><line x1="-5.196152422706637" y1="-13.000000000000002" x2="-4.330127018922199" y2="-13.500000000000002" stroke-width="0.1" stroke="black"/><line x1="-4.330127018922199" y1="-13.500000000000002" x2="-4.330127018922199" y2="-13.500000000000002" stroke-width="0.1" stroke="black"/><line x1="-4.330127018922199" y1="-13.500000000000002" x2="-3.4641016151377597" y2="-13.000000000000002" stroke-width="0.1" stroke="black"/><line x1="-3.4641016151377597" y1="-13.000000000000002" x2="-3.4641016151377597" y2="-13.000000000000002" stroke-width="0.1" stroke="black"/><line x1="-3.4641016151377597" y1="-13.000000000000002" x2="-3.4641016151377584" y2="-12.000000000000002" stroke-width="0.1" stroke="black"/><line x1="-3.4641016151377584" y1="-12.000000000000002" x2="-3.4641016151377584" y2="-12.000000000000002" stroke-width="0.1" stroke="black"/><line x1="-3.4641016151377584" y1="-12.000000000000002" x2="-4.330127018922196" y2="-11.5" stroke-width="0.1" stroke="black"/><line x1="-4.330127018922196" y1="-11.5" x2="-4.330127018922196" y2="-11.5" stroke-width="0.1" stroke="black"/><line x1="-4.330127018922196" y1="-11.5" x2="-4.330127018922195" y2="-10.5" stroke-width="0.1" stroke="black"/><line x1="-4.330127018922195" y1="-10.5" x2="-4.330127018922195" y2="-10.5" stroke-width="0.1" stroke="black"/><line x1="-4.330127018922195" y1="-10.5" x2="-3.464101615137756" y2="-10.0" stroke-width="0.1" stroke="black"/><line x1="-3.464101615137756" y1="-10.0" x2="-3.464101615137756" y2="-10.0" stroke-width="0.1" stroke="black"/><line x1="-3.464101615137756" y1="-10.0" x2="-2.598076211353318" y2="-10.5" stroke-width="0.1" stroke="black"/><line x1="-2.598076211353318" y1="-10.5" x2="-2.598076211353318" y2="-10.5" stroke-width="0.1" stroke="black"/><line x1="-2.598076211353318" y1="-10.5" x2="-1.7320508075688787" y2="-10.0" stroke-width="0.1" stroke="black"/><line x1="-1.7320508075688787" y1="-10.0" x2="-1.7320508075688787" y2="-10.0" stroke-width="0.1" stroke="black"/><line x1="-1.7320508075688787" y1="-10.0" x2="-1.7320508075688776" y2="-9.0" stroke-width="0.1" stroke="black"/><line x1="-1.7320508075688776" y1="-9.0" x2="-1.7320508075688776" y2="-9.0" stroke-width="0.1" stroke="black"/><line x1="-1.7320508075688776" y1="-9.0" x2="-0.8660254037844386" y2="-8.5" stroke-width="0.1" stroke="black"/><line x1="-0.8660254037844386" y1="-8.5" x2="-0.8660254037844386" y2="-8.5" stroke-width="0.1" stroke="black"/><line x1="-0.8660254037844386" y1="-8.5" x2="-2.220446049250313E-16" y2="-9.0" stroke-width="0.1" stroke="black"/><line x1="-2.220446049250313E-16" y1="-9.0" x2="-2.220446049250313E-16" y2="-9.0" stroke-width="0.1" stroke="black"/><line x1="-2.220446049250313E-16" y1="-9.0" x2="-4.057416247971343E-16" y2="-10.0" stroke-width="0.1" stroke="black"/><line x1="-4.057416247971343E-16" y1="-10.0" x2="-4.057416247971343E-16" y2="-10.0" stroke-width="0.1" stroke="black"/><line x1="-4.057416247971343E-16" y1="-10.0" x2="-0.866025403784439" y2="-10.5" stroke-width="0.1" stroke="black"/><line x1="-0.866025403784439" y1="-10.5" x2="-0.866025403784439" y2="-10.5" stroke-width="0.1" stroke="black"/><line x1="-0.866025403784439" y1="-10.5" x2="-0.8660254037844393" y2="-11.5" stroke-width="0.1" stroke="black"/><line x1="-0.8660254037844393" y1="-11.5" x2="-0.8660254037844393" y2="-11.5" stroke-width="0.1" stroke="black"/><line x1="-0.8660254037844393" y1="-11.5" x2="-8.881784197001252E-16" y2="-12.0" stroke-width="0.1" stroke="black"/><line x1="-8.881784197001252E-16" y1="-12.0" x2="-8.881784197001252E-16" y2="-12.0" stroke-width="0.1" stroke="black"/><line x1="-8.881784197001252E-16" y1="-12.0" x2="-1.0718754395722282E-15" y2="-13.0" stroke-width="0.1" stroke="black"/><line x1="-1.0718754395722282E-15" y1="-13.0" x2="-1.0718754395722282E-15" y2="-13.0" stroke-width="0.1" stroke="black"/><line x1="-1.0718754395722282E-15" y1="-13.0" x2="-0.8660254037844397" y2="-13.5" stroke-width="0.1" stroke="black"/><line x1="-0.8660254037844397" y1="-13.5" x2="-0.8660254037844397" y2="-13.5" stroke-width="0.1" stroke="black"/><line x1="-0.8660254037844397" y1="-13.5" x2="-1.7320508075688785" y2="-13.0" stroke-width="0.1" stroke="black"/><line x1="-1.7320508075688785" y1="-13.0" x2="-1.7320508075688785" y2="-13.0" stroke-width="0.1" stroke="black"/><line x1="-1.7320508075688785" y1="-13.0" x2="-2.598076211353317" y2="-13.5" stroke-width="0.1" stroke="black"/><line x1="-2.598076211353317" y1="-13.5" x2="-2.598076211353317" y2="-13.5" stroke-width="0.1" stroke="black"/><line x1="-2.598076211353317" y1="-13.5" x2="-2.598076211353317" y2="-14.5" stroke-width="0.1" stroke="black"/><line x1="-2.598076211353317" y1="-14.5" x2="-2.598076211353317" y2="-14.5" stroke-width="0.1" stroke="black"/><line x1="-2.598076211353317" y1="-14.5" x2="-1.7320508075688785" y2="-15.0" stroke-width="0.1" stroke="black"/><line x1="-1.7320508075688785" y1="-15.0" x2="-1.7320508075688785" y2="-15.0" stroke-width="0.1" stroke="black"/><line x1="-1.7320508075688785" y1="-15.0" x2="-0.8660254037844395" y2="-14.5" stroke-width="0.1" stroke="black"/><line x1="-0.8660254037844395" y1="-14.5" x2="-0.8660254037844395" y2="-14.5" stroke-width="0.1" stroke="black"/><line x1="-0.8660254037844395" y1="-14.5" x2="-1.1102230246251565E-15" y2="-15.0" stroke-width="0.1" stroke="black"/><line x1="-1.1102230246251565E-15" y1="-15.0" x2="-1.1102230246251565E-15" y2="-15.0" stroke-width="0.1" stroke="black"/><line x1="-1.1102230246251565E-15" y1="-15.0" x2="-1.2939200444972595E-15" y2="-16.0" stroke-width="0.1" stroke="black"/></svg>