<svg viewBox="-2.947193223346186E-16 -16.000000000000036 13.856406460551046 16.000000000000036" xmlns="http://www.w3.org/2000/svg"><line x1="0.0" y1="0.0" x2="-1.8369701987210297E-16" y2="-1.0" stroke-width="0.1" stroke="black"/><line x1="-1.8369701987210297E-16" y1="-1.0" x2="-1.8369701987210297E-16" y2="-1.0" stroke-width="0.1" stroke="black"/><line x1="-1.8369701987210297E-16" y1="-1.0" x2="0.8660254037844388" y2="-0.5000000000000007" stroke-width="0.1" stroke="black"/><line x1="0.8660254037844388" y1="-0.5000000000000007" x2="0.8660254037844388" y2="-0.5000000000000007" stroke-width="0.1" stroke="black"/><line x1="0.8660254037844388" y1="-0.5000000000000007" x2="0.8660254037844386" y2="-1.5000000000000007" stroke-width="0.1" stroke="black"/><line x1="0.8660254037844386" y1="-1.5000000000000007" x2="0.8660254037844386" y2="-1.5000000000000007" stroke-width="0.1" stroke="black"/><line x1="0.8660254037844386" y1="-1.5000000000000007" x2="-1.1102230246251565E-16" y2="-1.0000000000000007" stroke-width="0.1" stroke="black"/><line x1="-1.1102230246251565E-16" y1="-1.0000000000000007" x2="-1.1102230246251565E-16" y2="-1.0000000000000007" stroke-width="0.1" stroke="black"/><line x1="-1.1102230246251565E-16" y1="-1.0000000000000007" x2="-2.947193223346186E-16" y2="-2.000000000000001" stroke-width="0.1" stroke="black"/><line x1="-2.947193223346186E-16" y1="-2.000000000000001" x2="-2.947193223346186E-16" y2="-2.000000000000001" stroke-width="0.1" stroke="black"/><line x1="-2.947193223346186E-16" y1="-2.000000000000001" x2="0.8660254037844387" y2="-1.5000000000000016" stroke-width="0.1" stroke="black"/><line x1="0.8660254037844387" y1="-1.5000000000000016" x2="1.7320508075688776" y2="-1.0000000000000022" stroke-width="0.1" stroke="black"/><line x1="1.7320508075688776" y1="-1.0000000000000022" x2="1.7320508075688776" y2="-1.0000000000000022" stroke-width="0.1" stroke="black"/><line x1="1.7320508075688776" y1="-1.0000000000000022" x2="1.7320508075688774" y2="-2.000000000000002" stroke-width="0.1" stroke="black"/><line x1="1.7320508075688774" y1="-2.000000000000002" x2="1.7320508075688774" y2="-2.000000000000002" stroke-width="0.1" stroke="black"/><line x1="1.7320508075688774" y1="-2.000000000000002" x2="2.5980762113533165" y2="-1.5000000000000029" stroke-width="0.1" stroke="black"/><line x1="2.5980762113533165" y1="-1.5000000000000029" x2="2.5980762113533165" y2="-1.5000000000000029" stroke-width="0.1" stroke="black"/><line x1="2.5980762113533165" y1="-1.5000000000000029" x2="2.5980762113533165" y2="-2.5000000000000027" stroke-width="0.1" stroke="black"/><line x1="2.5980762113533165" y1="-2.5000000000000027" x2="2.5980762113533165" y2="-2.5000000000000027" stroke-width="0.1" stroke="black"/><line x1="2.5980762113533165" y1="-2.5000000000000027" x2="1.7320508075688776" y2="-2.0000000000000027" stroke-width="0.1" stroke="black"/><line x1="1.7320508075688776" y1="-2.0000000000000027" x2="1.7320508075688776" y2="-2.0000000000000027" stroke-width="0.1" stroke="black"/><line x1="1.7320508075688776" y1="-2.0000000000000027" x2="1.7320508075688774" y2="-3.0000000000000027" stroke-width="0.1" stroke="black"/><line x1="1.7320508075688774" y1="-3.0000000000000027" x2="1.7320508075688774" y2="-3.0000000000000027" stroke-width="0.1" stroke="black"/><line x1="1.7320508075688774" y1="-3.0000000000000027" x2="0.8660254037844387" y2="-2.5000000000000027" stroke-width="0.1" stroke="black"/><line x1="0.8660254037844387" y1="-2.5000000000000027" x2="0.0" y2="-2.0000000000000027" stroke-width="0.1" stroke="black"/><line x1="0.0" y1="-2.0000000000000027" x2="0.0" y2="-2.0000000000000027" stroke-width="0.1" stroke="black"/><line x1="0.0" y1="-2.0000000000000027" x2="-1.8369701987210297E-16" y2="-3.0000000000000027" stroke-width="0.1" stroke="black"/><line x1="-1.8369701987210297E-16" y1="-3.0000000000000027" x2="-1.8369701987210297E-16" y2="-3.0000000000000027" stroke-width="0.1" stroke="black"/><line x1="-1.8369701987210297E-16" y1="-3.0000000000000027" x2="0.8660254037844388" y2="-2.5000000000000036" stroke-width="0.1" stroke="black"/><line x1="0.8660254037844388" y1="-2.5000000000000036" x2="0.8660254037844388" y2="-2.5000000000000036" stroke-width="0.1" stroke="black"/><line x1="0.8660254037844388" y1="-2.5000000000000036" x2="0.8660254037844386" y2="-3.5000000000000036" stroke-width="0.1" stroke="black"/><line x1="0.8660254037844386" y1="-3.5000000000000036" x2="0.8660254037844386" y2="-3.5000000000000036" stroke-width="0.1" stroke="black"/><line x1="0.8660254037844386" y1="-3.5000000000000036" x2="-1.1102230246251565E-16" y2="-3.0000000000000036" stroke-width="0.1" stroke="black"/><line x1="-1.1102230246251565E-16" y1="-3.0000000000000036" x2="-1.1102230246251565E-16" y2="-3.0000000000000036" stroke-width="0.1" stroke="black"/><line x1="-1.1102230246251565E-16" y1="-3.0000000000000036" x2="-2.947193223346186E-16" y2="-4.0000000000000036" stroke-width="0.1" stroke="black"/><line x1="-2.947193223346186E-16" y1="-4.0000000000000036" x2="-2.947193223346186E-16" y2="-4.0000000000000036" stroke-width="0.1" stroke="black"/><line x1="-2.947193223346186E-16" y1="-4.0000000000000036" x2="0.8660254037844387" y2="-3.5000000000000044" stroke-width="0.1" stroke="black"/><line x1="0.8660254037844387" y1="-3.5000000000000044" x2="1.7320508075688776" y2="-3.0000000000000053" stroke-width="0.1" stroke="black"/><line x1="1.7320508075688776" y1="-3.0000000000000053" x2="2.598076211353317" y2="-2.500000000000006" stroke-width="0.1" stroke="black"/><line x1="2.598076211353317" y1="-2.500000000000006" x2="3.464101615137756" y2="-2.000000000000007" stroke-width="0.1" stroke="black"/><line x1="3.464101615137756" y1="-2.000000000000007" x2="3.464101615137756" y2="-2.000000000000007" stroke-width="0.1" stroke="black"/><line x1="3.464101615137756" y1="-2.000000000000007" x2="3.464101615137756" y2="-3.000000000000007" stroke-width="0.1" stroke="black"/><line x1="3.464101615137756" y1="-3.000000000000007" x2="3.464101615137756" y2="-3.000000000000007" stroke-width="0.1" stroke="black"/><line x1="3.464101615137756" y1="-3.000000000000007" x2="4.330127018922195" y2="-2.500000000000008" stroke-width="0.1" stroke="black"/><line x1="4.330127018922195" y1="-2.500000000000008" x2="4.330127018922195" y2="-2.500000000000008" stroke-width="0.1" stroke="black"/><line x1="4.330127018922195" y1="-2.500000000000008" x2="4.330127018922195" y2="-3.500000000000008" stroke-width="0.1" stroke="black"/><line x1="4.330127018922195" y1="-3.500000000000008" x2="4.330127018922195" y2="-3.500000000000008" stroke-width="0.1" stroke="black"/><line x1="4.330127018922195" y1="-3.500000000000008" x2="3.4641016151377566" y2="-3.000000000000008" stroke-width="0.1" stroke="black"/><line x1="3.4641016151377566" y1="-3.000000000000008" x2="3.4641016151377566" y2="-3.000000000000008" stroke-width="0.1" stroke="black"/><line x1="3.4641016151377566" y1="-3.000000000000008" x2="3.4641016151377566" y2="-4.000000000000008" stroke-width="0.1" stroke="black"/><line x1="3.4641016151377566" y1="-4.000000000000008" x2="3.4641016151377566" y2="-4.000000000000008" stroke-width="0.1" stroke="black"/><line x1="3.4641016151377566" y1="-4.000000000000008" x2="4.330127018922195" y2="-3.500000000000009" stroke-width="0.1" stroke="black"/><line x1="4.330127018922195" y1="-3.500000000000009" x2="5.196152422706635" y2="-3.0000000000000098" stroke-width="0.1" stroke="black"/><line x1="5.196152422706635" y1="-3.0000000000000098" x2="5.196152422706635" y2="-3.0000000000000098" stroke-width="0.1" stroke="black"/><line x1="5.196152422706635" y1="-3.0000000000000098" x2="5.196152422706635" y2="-4.00000000000001" stroke-width="0.1" stroke="black"/><line x1="5.196152422706635" y1="-4.00000000000001" x2="5.196152422706635" y2="-4.00000000000001" stroke-width="0.1" stroke="black"/><line x1="5.196152422706635" y1="-4.00000000000001" x2="6.062177826491074" y2="-3.5000000000000107" stroke-width="0.1" stroke="black"/><line x1="6.062177826491074" y1="-3.5000000000000107" x2="6.062177826491074" y2="-3.5000000000000107" stroke-width="0.1" stroke="black"/><line x1="6.062177826491074" y1="-3.5000000000000107" x2="6.062177826491074" y2="-4.500000000000011" stroke-width="0.1" stroke="black"/><line x1="6.062177826491074" y1="-4.500000000000011" x2="6.062177826491074" y2="-4.500000000000011" stroke-width="0.1" stroke="black"/><line x1="6.062177826491074" y1="-4.500000000000011" x2="5.196152422706636" y2="-4.000000000000011" stroke-width="0.1" stroke="black"/><line x1="5.196152422706636" y1="-4.000000000000011" x2="5.196152422706636" y2="-4.000000000000011" stroke-width="0.1" stroke="black"/><line x1="5.196152422706636" y1="-4.000000000000011" x2="5.196152422706636" y2="-5.000000000000011" stroke-width="0.1" stroke="black"/><line x1="5.196152422706636" y1="-5.000000000000011" x2="5.196152422706636" y2="-5.000000000000011" stroke-width="0.1" stroke="black"/><line x1="5.196152422706636" y1="-5.000000000000011" x2="4.330127018922197" y2="-4.500000000000011" stroke-width="0.1" stroke="black"/><line x1="4.330127018922197" y1="-4.500000000000011" x2="3.4641016151377584" y2="-4.000000000000011" stroke-width="0.1" stroke="black"/><line x1="3.4641016151377584" y1="-4.000000000000011" x2="3.4641016151377584" y2="-4.000000000000011" stroke-width="0.1" stroke="black"/><line x1="3.4641016151377584" y1="-4.000000000000011" x2="3.4641016151377584" y2="-5.000000000000011" stroke-width="0.1" stroke="black"/><line x1="3.4641016151377584" y1="-5.000000000000011" x2="3.4641016151377584" y2="-5.000000000000011" stroke-width="0.1" stroke="black"/><line x1="3.4641016151377584" y1="-5.000000000000011" x2="4.330127018922197" y2="-4.5000000000000115" stroke-width="0.1" stroke="black"/><line x1="4.330127018922197" y1="-4.5000000000000115" x2="4.330127018922197" y2="-4.5000000000000115" stroke-width="0.1" stroke="black"/><line x1="4.330127018922197" y1="-4.5000000000000115" x2="4.330127018922197" y2="-5.5000000000000115" stroke-width="0.1" stroke="black"/><line x1="4.330127018922197" y1="-5.5000000000000115" x2="4.330127018922197" y2="-5.5000000000000115" stroke-width="0.1" stroke="black"/><line x1="4.330127018922197" y1="-5.5000000000000115" x2="3.4641016151377584" y2="-5.0000000000000115" stroke-width="0.1" stroke="black"/><line x1="3.4641016151377584" y1="-5.0000000000000115" x2="3.4641016151377584" y2="-5.0000000000000115" stroke-width="0.1" stroke="black"/><line x1="3.4641016151377584" y1="-5.0000000000000115" x2="3.4641016151377584" y2="-6.0000000000000115" stroke-width="0.1" stroke="black"/><line x1="3.4641016151377584" y1="-6.0000000000000115" x2="3.4641016151377584" y2="-6.0000000000000115" stroke-width="0.1" stroke="black"/><line x1="3.4641016151377584" y1="-6.0000000000000115" x2="2.5980762113533196" y2="-5.5000000000000115" stroke-width="0.1" stroke="black"/><line x1="2.5980762113533196" y1="-5.5000000000000115" x2="1.7320508075688807" y2="-5.0000000000000115" stroke-width="0.1" stroke="black"/><line x1="1.7320508075688807" y1="-5.0000000000000115" x2="0.866025403784442" y2="-4.5000000000000115" stroke-width="0.1" stroke="black"/><line x1="0.866025403784442" y1="-4.5000000000000115" x2="3.3306690738754696E-15" y2="-4.0000000000000115" stroke-width="0.1" stroke="black"/><line x1="3.3306690738754696E-15" y1="-4.0000000000000115" x2="3.3306690738754696E-15" y2="-4.0000000000000115" stroke-width="0.1" stroke="black"/><line x1="3.3306690738754696E-15" y1="-4.0000000000000115" x2="3.1469720540033665E-15" y2="-5.0000000000000115" stroke-width="0.1" stroke="black"/><line x1="3.1469720540033665E-15" y1="-5.0000000000000115" x2="3.1469720540033665E-15" y2="-5.0000000000000115" stroke-width="0.1" stroke="black"/><line x1="3.1469720540033665E-15" y1="-5.0000000000000115" x2="0.8660254037844421" y2="-4.500000000000012" stroke-width="0.1" stroke="black"/><line x1="0.8660254037844421" y1="-4.500000000000012" x2="0.8660254037844421" y2="-4.500000000000012" stroke-width="0.1" stroke="black"/><line x1="0.8660254037844421" y1="-4.500000000000012" x2="0.8660254037844419" y2="-5.500000000000012" stroke-width="0.1" stroke="black"/><line x1="0.8660254037844419" y1="-5.500000000000012" x2="0.8660254037844419" y2="-5.500000000000012" stroke-width="0.1" stroke="black"/><line x1="0.8660254037844419" y1="-5.500000000000012" x2="3.219646771412954E-15" y2="-5.000000000000012" stroke-width="0.1" stroke="black"/><line x1="3.219646771412954E-15" y1="-5.000000000000012" x2="3.219646771412954E-15" y2="-5.000000000000012" stroke-width="0.1" stroke="black"/><line x1="3.219646771412954E-15" y1="-5.000000000000012" x2="3.035949751540851E-15" y2="-6.000000000000012" stroke-width="0.1" stroke="black"/><line x1="3.035949751540851E-15" y1="-6.000000000000012" x2="3.035949751540851E-15" y2="-6.000000000000012" stroke-width="0.1" stroke="black"/><line x1="3.035949751540851E-15" y1="-6.000000000000012" x2="0.866025403784442" y2="-5.500000000000013" stroke-width="0.1" stroke="black"/><line x1="0.866025403784442" y1="-5.500000000000013" x2="1.7320508075688812" y2="-5.000000000000014" stroke-width="0.1" stroke="black"/><line x1="1.7320508075688812" y1="-5.000000000000014" x2="1.7320508075688812" y2="-5.000000000000014" stroke-width="0.1" stroke="black"/><line x1="1.7320508075688812" y1="-5.000000000000014" x2="1.732050807568881" y2="-6.000000000000014" stroke-width="0.1" stroke="black"/><line x1="1.732050807568881" y1="-6.000000000000014" x2="1.732050807568881" y2="-6.000000000000014" stroke-width="0.1" stroke="black"/><line x1="1.732050807568881" y1="-6.000000000000014" x2="2.59807621135332" y2="-5.500000000000015" stroke-width="0.1" stroke="black"/><line x1="2.59807621135332" y1="-5.500000000000015" x2="2.59807621135332" y2="-5.500000000000015" stroke-width="0.1" stroke="black"/><line x1="2.59807621135332" y1="-5.500000000000015" x2="2.59807621135332" y2="-6.500000000000015" stroke-width="0.1" stroke="black"/><line x1="2.59807621135332" y1="-6.500000000000015" x2="2.59807621135332" y2="-6.500000000000015" stroke-width="0.1" stroke="black"/><line x1="2.59807621135332" y1="-6.500000000000015" x2="1.7320508075688812" y2="-6.000000000000015" stroke-width="0.1" stroke="black"/><line x1="1.7320508075688812" y1="-6.000000000000015" x2="1.7320508075688812" y2="-6.000000000000015" stroke-width="0.1" stroke="black"/><line x1="1.7320508075688812" y1="-6.000000000000015" x2="1.732050807568881" y2="-7.000000000000015" stroke-width="0.1" stroke="black"/><line x1="1.732050807568881" y1="-7.000000000000015" x2="1.732050807568881" y2="-7.000000000000015" stroke-width="0.1" stroke="black"/><line x1="1.732050807568881" y1="-7.000000000000015" x2="0.8660254037844423" y2="-6.500000000000015" stroke-width="0.1" stroke="black"/><line x1="0.8660254037844423" y1="-6.500000000000015" x2="3.552713678800501E-15" y2="-6.000000000000015" stroke-width="0.1" stroke="black"/><line x1="3.552713678800501E-15" y1="-6.000000000000015" x2="3.552713678800501E-15" y2="-6.000000000000015" stroke-width="0.1" stroke="black"/><line x1="3.552713678800501E-15" y1="-6.000000000000015" x2="3.369016658928398E-15" y2="-7.000000000000015" stroke-width="0.1" stroke="black"/><line x1="3.369016658928398E-15" y1="-7.000000000000015" x2="3.369016658928398E-15" y2="-7.000000000000015" stroke-width="0.1" stroke="black"/><line x1="3.369016658928398E-15" y1="-7.000000000000015" x2="0.8660254037844424" y2="-6.500000000000016" stroke-width="0.1" stroke="black"/><line x1="0.8660254037844424" y1="-6.500000000000016" x2="0.8660254037844424" y2="-6.500000000000016" stroke-width="0.1" stroke="black"/><line x1="0.8660254037844424" y1="-6.500000000000016" x2="0.8660254037844421" y2="-7.500000000000016" stroke-width="0.1" stroke="black"/><line x1="0.8660254037844421" y1="-7.500000000000016" x2="0.8660254037844421" y2="-7.500000000000016" stroke-width="0.1" stroke="black"/><line x1="0.8660254037844421" y1="-7.500000000000016" x2="3.4416913763379853E-15" y2="-7.000000000000016" stroke-width="0.1" stroke="black"/><line x1="3.4416913763379853E-15" y1="-7.000000000000016" x2="3.4416913763379853E-15" y2="-7.000000000000016" stroke-width="0.1" stroke="black"/><line x1="3.4416913763379853E-15" y1="-7.000000000000016" x2="3.257994356465882E-15" y2="-8.000000000000016" stroke-width="0.1" stroke="black"/><line x1="3.257994356465882E-15" y1="-8.000000000000016" x2="3.257994356465882E-15" y2="-8.000000000000016" stroke-width="0.1" stroke="black"/><line x1="3.257994356465882E-15" y1="-8.000000000000016" x2="0.8660254037844423" y2="-7.500000000000017" stroke-width="0.1" stroke="black"/><line x1="0.8660254037844423" y1="-7.500000000000017" x2="1.7320508075688812" y2="-7.000000000000018" stroke-width="0.1" stroke="black"/><line x1="1.7320508075688812" y1="-7.000000000000018" x2="2.5980762113533205" y2="-6.500000000000019" stroke-width="0.1" stroke="black"/><line x1="2.5980762113533205" y1="-6.500000000000019" x2="3.4641016151377597" y2="-6.0000000000000195" stroke-width="0.1" stroke="black"/><line x1="3.4641016151377597" y1="-6.0000000000000195" x2="4.330127018922199" y2="-5.50000000000002" stroke-width="0.1" stroke="black"/><line x1="4.330127018922199" y1="-5.50000000000002" x2="5.196152422706638" y2="-5.000000000000021" stroke-width="0.1" stroke="black"/><line x1="5.196152422706638" y1="-5.000000000000021" x2="6.0621778264910775" y2="-4.500000000000022" stroke-width="0.1" stroke="black"/><line x1="6.0621778264910775" y1="-4.500000000000022" x2="6.928203230275517" y2="-4.000000000000023" stroke-width="0.1" stroke="black"/><line x1="6.928203230275517" y1="-4.000000000000023" x2="6.928203230275517" y2="-4.000000000000023" stroke-width="0.1" stroke="black"/><line x1="6.928203230275517" y1="-4.000000000000023" x2="6.928203230275517" y2="-5.000000000000023" stroke-width="0.1" stroke="black"/><line x1="6.928203230275517" y1="-5.000000000000023" x2="6.928203230275517" y2="-5.000000000000023" stroke-width="0.1" stroke="black"/><line x1="6.928203230275517" y1="-5.000000000000023" x2="7.794228634059956" y2="-4.500000000000024" stroke-width="0.1" stroke="black"/><line x1="7.794228634059956" y1="-4.500000000000024" x2="7.794228634059956" y2="-4.500000000000024" stroke-width="0.1" stroke="black"/><line x1="7.794228634059956" y1="-4.500000000000024" x2="7.794228634059956" y2="-5.500000000000024" stroke-width="0.1" stroke="black"/><line x1="7.794228634059956" y1="-5.500000000000024" x2="7.794228634059956" y2="-5.500000000000024" stroke-width="0.1" stroke="black"/><line x1="7.794228634059956" y1="-5.500000000000024" x2="6.928203230275518" y2="-5.000000000000024" stroke-width="0.1" stroke="black"/><line x1="6.928203230275518" y1="-5.000000000000024" x2="6.928203230275518" y2="-5.000000000000024" stroke-width="0.1" stroke="black"/><line x1="6.928203230275518" y1="-5.000000000000024" x2="6.928203230275518" y2="-6.000000000000024" stroke-width="0.1" stroke="black"/><line x1="6.928203230275518" y1="-6.000000000000024" x2="6.928203230275518" y2="-6.000000000000024" stroke-width="0.1" stroke="black"/><line x1="6.928203230275518" y1="-6.000000000000024" x2="7.794228634059957" y2="-5.500000000000025" stroke-width="0.1" stroke="black"/><line x1="7.794228634059957" y1="-5.500000000000025" x2="8.660254037844396" y2="-5.000000000000026" stroke-width="0.1" stroke="black"/><line x1="8.660254037844396" y1="-5.000000000000026" x2="8.660254037844396" y2="-5.000000000000026" stroke-width="0.1" stroke="black"/><line x1="8.660254037844396" y1="-5.000000000000026" x2="8.660254037844396" y2="-6.000000000000026" stroke-width="0.1" stroke="black"/><line x1="8.660254037844396" y1="-6.000000000000026" x2="8.660254037844396" y2="-6.000000000000026" stroke-width="0.1" stroke="black"/><line x1="8.660254037844396" y1="-6.000000000000026" x2="9.526279441628835" y2="-5.500000000000027" stroke-width="0.1" stroke="black"/><line x1="9.526279441628835" y1="-5.500000000000027" x2="9.526279441628835" y2="-5.500000000000027" stroke-width="0.1" stroke="black"/><line x1="9.526279441628835" y1="-5.500000000000027" x2="9.526279441628835" y2="-6.500000000000027" stroke-width="0.1" stroke="black"/><line x1="9.526279441628835" y1="-6.500000000000027" x2="9.526279441628835" y2="-6.500000000000027" stroke-width="0.1" stroke="black"/><line x1="9.526279441628835" y1="-6.500000000000027" x2="8.660254037844396" y2="-6.000000000000027" stroke-width="0.1" stroke="black"/><line x1="8.660254037844396" y1="-6.000000000000027" x2="8.660254037844396" y2="-6.000000000000027" stroke-width="0.1" stroke="black"/><line x1="8.660254037844396" y1="-6.000000000000027" x2="8.660254037844396" y2="-7.000000000000027" stroke-width="0.1" stroke="black"/><line x1="8.660254037844396" y1="-7.000000000000027" x2="8.660254037844396" y2="-7.000000000000027" stroke-width="0.1" stroke="black"/><line x1="8.660254037844396" y1="-7.000000000000027" x2="7.794228634059958" y2="-6.500000000000027" stroke-width="0.1" stroke="black"/><line x1="7.794228634059958" y1="-6.500000000000027" x2="6.928203230275519" y2="-6.000000000000027" stroke-width="0.1" stroke="black"/><line x1="6.928203230275519" y1="-6.000000000000027" x2="6.928203230275519" y2="-6.000000000000027" stroke-width="0.1" stroke="black"/><line x1="6.928203230275519" y1="-6.000000000000027" x2="6.928203230275519" y2="-7.000000000000027" stroke-width="0.1" stroke="black"/><line x1="6.928203230275519" y1="-7.000000000000027" x2="6.928203230275519" y2="-7.000000000000027" stroke-width="0.1" stroke="black"/><line x1="6.928203230275519" y1="-7.000000000000027" x2="7.794228634059959" y2="-6.5000000000000275" stroke-width="0.1" stroke="black"/><line x1="7.794228634059959" y1="-6.5000000000000275" x2="7.794228634059959" y2="-6.5000000000000275" stroke-width="0.1" stroke="black"/><line x1="7.794228634059959" y1="-6.5000000000000275" x2="7.794228634059959" y2="-7.5000000000000275" stroke-width="0.1" stroke="black"/><line x1="7.794228634059959" y1="-7.5000000000000275" x2="7.794228634059959" y2="-7.5000000000000275" stroke-width="0.1" stroke="black"/><line x1="7.794228634059959" y1="-7.5000000000000275" x2="6.92820323027552" y2="-7.0000000000000275" stroke-width="0.1" stroke="black"/><line x1="6.92820323027552" y1="-7.0000000000000275" x2="6.92820323027552" y2="-7.0000000000000275" stroke-width="0.1" stroke="black"/><line x1="6.92820323027552" y1="-7.0000000000000275" x2="6.92820323027552" y2="-8.000000000000028" stroke-width="0.1" stroke="black"/><line x1="6.92820323027552" y1="-8.000000000000028" x2="6.92820323027552" y2="-8.000000000000028" stroke-width="0.1" stroke="black"/><line x1="6.92820323027552" y1="-8.000000000000028" x2="7.79422863405996" y2="-7.500000000000029" stroke-width="0.1" stroke="black"/><line x1="7.79422863405996" y1="-7.500000000000029" x2="8.660254037844398" y2="-7.00000000000003" stroke-width="0.1" stroke="black"/><line x1="8.660254037844398" y1="-7.00000000000003" x2="9.526279441628837" y2="-6.500000000000031" stroke-width="0.1" stroke="black"/><line x1="9.526279441628837" y1="-6.500000000000031" x2="10.392304845413276" y2="-6.000000000000032" stroke-width="0.1" stroke="black"/><line x1="10.392304845413276" y1="-6.000000000000032" x2="10.392304845413276" y2="-6.000000000000032" stroke-width="0.1" stroke="black"/><line x1="10.392304845413276" y1="-6.000000000000032" x2="10.392304845413276" y2="-7.000000000000032" stroke-width="0.1" stroke="black"/><line x1="10.392304845413276" y1="-7.000000000000032" x2="10.392304845413276" y2="-7.000000000000032" stroke-width="0.1" stroke="black"/><line x1="10.392304845413276" y1="-7.000000000000032" x2="11.258330249197716" y2="-6.500000000000033" stroke-width="0.1" stroke="black"/><line x1="11.258330249197716" y1="-6.500000000000033" x2="11.258330249197716" y2="-6.500000000000033" stroke-width="0.1" stroke="black"/><line x1="11.258330249197716" y1="-6.500000000000033" x2="11.258330249197716" y2="-7.500000000000033" stroke-width="0.1" stroke="black"/><line x1="11.258330249197716" y1="-7.500000000000033" x2="11.258330249197716" y2="-7.500000000000033" stroke-width="0.1" stroke="black"/><line x1="11.258330249197716" y1="-7.500000000000033" x2="10.392304845413276" y2="-7.000000000000033" stroke-width="0.1" stroke="black"/><line x1="10.392304845413276" y1="-7.000000000000033" x2="10.392304845413276" y2="-7.000000000000033" stroke-width="0.1" stroke="black"/><line x1="10.392304845413276" y1="-7.000000000000033" x2="10.392304845413276" y2="-8.000000000000032" stroke-width="0.1" stroke="black"/><line x1="10.392304845413276" y1="-8.000000000000032" x2="10.392304845413276" y2="-8.000000000000032" stroke-width="0.1" stroke="black"/><line x1="10.392304845413276" y1="-8.000000000000032" x2="11.258330249197716" y2="-7.500000000000033" stroke-width="0.1" stroke="black"/><line x1="11.258330249197716" y1="-7.500000000000033" x2="12.124355652982155" y2="-7.000000000000034" stroke-width="0.1" stroke="black"/><line x1="12.124355652982155" y1="-7.000000000000034" x2="12.124355652982155" y2="-7.000000000000034" stroke-width="0.1" stroke="black"/><line x1="12.124355652982155" y1="-7.000000000000034" x2="12.124355652982155" y2="-8.000000000000034" stroke-width="0.1" stroke="black"/><line x1="12.124355652982155" y1="-8.000000000000034" x2="12.124355652982155" y2="-8.000000000000034" stroke-width="0.1" stroke="black"/><line x1="12.124355652982155" y1="-8.000000000000034" x2="12.990381056766594" y2="-7.500000000000035" stroke-width="0.1" stroke="black"/><line x1="12.990381056766594" y1="-7.500000000000035" x2="12.990381056766594" y2="-7.500000000000035" stroke-width="0.1" stroke="black"/><line x1="12.990381056766594" y1="-7.500000000000035" x2="12.990381056766594" y2="-8.500000000000036" stroke-width="0.1" stroke="black"/><line x1="12.990381056766594" y1="-8.500000000000036" x2="12.990381056766594" y2="-8.500000000000036" stroke-width="0.1" stroke="black"/><line x1="12.990381056766594" y1="-8.500000000000036" x2="12.124355652982155" y2="-8.000000000000036" stroke-width="0.1" stroke="black"/><line x1="12.124355652982155" y1="-8.000000000000036" x2="12.124355652982155" y2="-8.000000000000036" stroke-width="0.1" stroke="black"/><line x1="12.124355652982155" y1="-8.000000000000036" x2="12.124355652982155" y2="-9.000000000000036" stroke-width="0.1" stroke="black"/><line x1="12.124355652982155" y1="-9.000000000000036" x2="12.124355652982155" y2="-9.000000000000036" stroke-width="0.1" stroke="black"/><line x1="12.124355652982155" y1="-9.000000000000036" x2="11.258330249197716" y2="-8.500000000000036" stroke-width="0.1" stroke="black"/><line x1="11.258330249197716" y1="-8.500000000000036" x2="10.392304845413276" y2="-8.000000000000036" stroke-width="0.1" stroke="black"/><line x1="10.392304845413276" y1="-8.000000000000036" x2="10.392304845413276" y2="-8.000000000000036" stroke-width="0.1" stroke="black"/><line x1="10.392304845413276" y1="-8.000000000000036" x2="10.392304845413276" y2="-9.000000000000036" stroke-width="0.1" stroke="black"/><line x1="10.392304845413276" y1="-9.000000000000036" x2="10.392304845413276" y2="-9.000000000000036" stroke-width="0.1" stroke="black"/><line x1="10.392304845413276" y1="-9.000000000000036" x2="11.258330249197716" y2="-8.500000000000036" stroke-width="0.1" stroke="black"/><line x1="11.258330249197716" y1="-8.500000000000036" x2="11.258330249197716" y2="-8.500000000000036" stroke-width="0.1" stroke="black"/><line x1="11.258330249197716" y1="-8.500000000000036" x2="11.258330249197716" y2="-9.500000000000036" stroke-width="0.1" stroke="black"/><line x1="11.258330249197716" y1="-9.500000000000036" x2="11.258330249197716" y2="-9.500000000000036" stroke-width="0.1" stroke="black"/><line x1="11.258330249197716" y1="-9.500000000000036" x2="10.392304845413276" y2="-9.000000000000036" stroke-width="0.1" stroke="black"/><line x1="10.392304845413276" y1="-9.000000000000036" x2="10.392304845413276" y2="-9.000000000000036" stroke-width="0.1" stroke="black"/><line x1="10.392304845413276" y1="-9.000000000000036" x2="10.392304845413276" y2="-10.000000000000036" stroke-width="0.1" stroke="black"/><line x1="10.392304845413276" y1="-10.000000000000036" x2="10.392304845413276" y2="-10.000000000000036" stroke-width="0.1" stroke="black"/><line x1="10.392304845413276" y1="-10.000000000000036" x2="9.526279441628837" y2="-9.500000000000036" stroke-width="0.1" stroke="black"/><line x1="9.526279441628837" y1="-9.500000000000036" x2="8.660254037844398" y2="-9.000000000000036" stroke-width="0.1" stroke="black"/><line x1="8.660254037844398" y1="-9.000000000000036" x2="7.79422863405996" y2="-8.500000000000036" stroke-width="0.1" stroke="black"/><line x1="7.79422863405996" y1="-8.500000000000036" x2="6.928203230275521" y2="-8.000000000000036" stroke-width="0.1" stroke="black"/><line x1="6.928203230275521" y1="-8.000000000000036" x2="6.928203230275521" y2="-8.000000000000036" stroke-width="0.1" stroke="black"/><line x1="6.928203230275521" y1="-8.000000000000036" x2="6.928203230275521" y2="-9.000000000000036" stroke-width="0.1" stroke="black"/><line x1="6.928203230275521" y1="-9.000000000000036" x2="6.928203230275521" y2="-9.000000000000036" stroke-width="0.1" stroke="black"/><line x1="6.928203230275521" y1="-9.000000000000036" x2="7.7942286340599605" y2="-8.500000000000036" stroke-width="0.1" stroke="black"/><line x1="7.7942286340599605" y1="-8.500000000000036" x2="7.7942286340599605" y2="-8.500000000000036" stroke-width="0.1" stroke="black"/><line x1="7.7942286340599605" y1="-8.500000000000036" x2="7.7942286340599605" y2="-9.500000000000036" stroke-width="0.1" stroke="black"/><line x1="7.7942286340599605" y1="-9.500000000000036" x2="7.7942286340599605" y2="-9.500000000000036" stroke-width="0.1" stroke="black"/><line x1="7.7942286340599605" y1="-9.500000000000036" x2="6.928203230275522" y2="-9.000000000000036" stroke-width="0.1" stroke="black"/><line x1="6.928203230275522" y1="-9.000000000000036" x2="6.928203230275522" y2="-9.000000000000036" stroke-width="0.1" stroke="black"/><line x1="6.928203230275522" y1="-9.000000000000036" x2="6.928203230275522" y2="-10.000000000000036" stroke-width="0.1" stroke="black"/><line x1="6.928203230275522" y1="-10.000000000000036" x2="6.928203230275522" y2="-10.000000000000036" stroke-width="0.1" stroke="black"/><line x1="6.928203230275522" y1="-10.000000000000036" x2="7.794228634059961" y2="-9.500000000000036" stroke-width="0.1" stroke="black"/><line x1="7.794228634059961" y1="-9.500000000000036" x2="8.6602540378444" y2="-9.000000000000036" stroke-width="0.1" stroke="black"/><line x1="8.6602540378444" y1="-9.000000000000036" x2="8.6602540378444" y2="-9.000000000000036" stroke-width="0.1" stroke="black"/><line x1="8.6602540378444" y1="-9.000000000000036" x2="8.6602540378444" y2="-10.000000000000036" stroke-width="0.1" stroke="black"/><line x1="8.6602540378444" y1="-10.000000000000036" x2="8.6602540378444" y2="-10.000000000000036" stroke-width="0.1" stroke="black"/><line x1="8.6602540378444" y1="-10.000000000000036" x2="9.526279441628839" y2="-9.500000000000036" stroke-width="0.1" stroke="black"/><line x1="9.526279441628839" y1="-9.500000000000036" x2="9.526279441628839" y2="-9.500000000000036" stroke-width="0.1" stroke="black"/><line x1="9.526279441628839" y1="-9.500000000000036" x2="9.526279441628839" y2="-10.500000000000036" stroke-width="0.1" stroke="black"/><line x1="9.526279441628839" y1="-10.500000000000036" x2="9.526279441628839" y2="-10.500000000000036" stroke-width="0.1" stroke="black"/><line x1="9.526279441628839" y1="-10.500000000000036" x2="8.6602540378444" y2="-10.000000000000036" stroke-width="0.1" stroke="black"/><line x1="8.6602540378444" y1="-10.000000000000036" x2="8.6602540378444" y2="-10.000000000000036" stroke-width="0.1" stroke="black"/><line x1="8.6602540378444" y1="-10.000000000000036" x2="8.6602540378444" y2="-11.000000000000036" stroke-width="0.1" stroke="black"/><line x1="8.6602540378444" y1="-11.000000000000036" x2="8.6602540378444" y2="-11.000000000000036" stroke-width="0.1" stroke="black"/><line x1="8.6602540378444" y1="-11.000000000000036" x2="7.794228634059961" y2="-10.500000000000036" stroke-width="0.1" stroke="black"/><line x1="7.794228634059961" y1="-10.500000000000036" x2="6.928203230275523" y2="-10.000000000000036" stroke-width="0.1" stroke="black"/><line x1="6.928203230275523" y1="-10.000000000000036" x2="6.928203230275523" y2="-10.000000000000036" stroke-width="0.1" stroke="black"/><line x1="6.928203230275523" y1="-10.000000000000036" x2="6.928203230275523" y2="-11.000000000000036" stroke-width="0.1" stroke="black"/><line x1="6.928203230275523" y1="-11.000000000000036" x2="6.928203230275523" y2="-11.000000000000036" stroke-width="0.1" stroke="black"/><line x1="6.928203230275523" y1="-11.000000000000036" x2="7.794228634059962" y2="-10.500000000000036" stroke-width="0.1" stroke="black"/><line x1="7.794228634059962" y1="-10.500000000000036" x2="7.794228634059962" y2="-10.500000000000036" stroke-width="0.1" stroke="black"/><line x1="7.794228634059962" y1="-10.500000000000036" x2="7.794228634059962" y2="-11.500000000000036" stroke-width="0.1" stroke="black"/><line x1="7.794228634059962" y1="-11.500000000000036" x2="7.794228634059962" y2="-11.500000000000036" stroke-width="0.1" stroke="black"/><line x1="7.794228634059962" y1="-11.500000000000036" x2="6.928203230275524" y2="-11.000000000000036" stroke-width="0.1" stroke="black"/><line x1="6.928203230275524" y1="-11.000000000000036" x2="6.928203230275524" y2="-11.000000000000036" stroke-width="0.1" stroke="black"/><line x1="6.928203230275524" y1="-11.000000000000036" x2="6.928203230275524" y2="-12.000000000000036" stroke-width="0.1" stroke="black"/><line x1="6.928203230275524" y1="-12.000000000000036" x2="6.928203230275524" y2="-12.000000000000036" stroke-width="0.1" stroke="black"/><line x1="6.928203230275524" y1="-12.000000000000036" x2="6.0621778264910855" y2="-11.500000000000036" stroke-width="0.1" stroke="black"/><line x1="6.0621778264910855" y1="-11.500000000000036" x2="5.196152422706647" y2="-11.000000000000036" stroke-width="0.1" stroke="black"/><line x1="5.196152422706647" y1="-11.000000000000036" x2="4.330127018922209" y2="-10.500000000000036" stroke-width="0.1" stroke="black"/><line x1="4.330127018922209" y1="-10.500000000000036" x2="3.46410161513777" y2="-10.000000000000036" stroke-width="0.1" stroke="black"/><line x1="3.46410161513777" y1="-10.000000000000036" x2="2.598076211353331" y2="-9.500000000000036" stroke-width="0.1" stroke="black"/><line x1="2.598076211353331" y1="-9.500000000000036" x2="1.7320508075688923" y2="-9.000000000000036" stroke-width="0.1" stroke="black"/><line x1="1.7320508075688923" y1="-9.000000000000036" x2="0.8660254037844536" y2="-8.500000000000036" stroke-width="0.1" stroke="black"/><line x1="0.8660254037844536" y1="-8.500000000000036" x2="1.4876988529977098E-14" y2="-8.000000000000036" stroke-width="0.1" stroke="black"/><line x1="1.4876988529977098E-14" y1="-8.000000000000036" x2="1.4876988529977098E-14" y2="-8.000000000000036" stroke-width="0.1" stroke="black"/><line x1="1.4876988529977098E-14" y1="-8.000000000000036" x2="1.4693291510104995E-14" y2="-9.000000000000036" stroke-width="0.1" stroke="black"/><line x1="1.4693291510104995E-14" y1="-9.000000000000036" x2="1.4693291510104995E-14" y2="-9.000000000000036" stroke-width="0.1" stroke="black"/><line x1="1.4693291510104995E-14" y1="-9.000000000000036" x2="0.8660254037844537" y2="-8.500000000000036" stroke-width="0.1" stroke="black"/><line x1="0.8660254037844537" y1="-8.500000000000036" x2="0.8660254037844537" y2="-8.500000000000036" stroke-width="0.1" stroke="black"/><line x1="0.8660254037844537" y1="-8.500000000000036" x2="0.8660254037844535" y2="-9.500000000000036" stroke-width="0.1" stroke="black"/><line x1="0.8660254037844535" y1="-9.500000000000036" x2="0.8660254037844535" y2="-9.500000000000036" stroke-width="0.1" stroke="black"/><line x1="0.8660254037844535" y1="-9.500000000000036" x2="1.4765966227514582E-14" y2="-9.000000000000036" stroke-width="0.1" stroke="black"/><line x1="1.4765966227514582E-14" y1="-9.000000000000036" x2="1.4765966227514582E-14" y2="-9.000000000000036" stroke-width="0.1" stroke="black"/><line x1="1.4765966227514582E-14" y1="-9.000000000000036" x2="1.458226920764248E-14" y2="-10.000000000000036" stroke-width="0.1" stroke="black"/><line x1="1.458226920764248E-14" y1="-10.000000000000036" x2="1.458226920764248E-14" y2="-10.000000000000036" stroke-width="0.1" stroke="black"/><line x1="1.458226920764248E-14" y1="-10.000000000000036" x2="0.8660254037844536" y2="-9.500000000000036" stroke-width="0.1" stroke="black"/><line x1="0.8660254037844536" y1="-9.500000000000036" x2="1.7320508075688927" y2="-9.000000000000036" stroke-width="0.1" stroke="black"/><line x1="1.7320508075688927" y1="-9.000000000000036" x2="1.7320508075688927" y2="-9.000000000000036" stroke-width="0.1" stroke="black"/><line x1="1.7320508075688927" y1="-9.000000000000036" x2="1.7320508075688925" y2="-10.000000000000036" stroke-width="0.1" stroke="black"/><line x1="1.7320508075688925" y1="-10.000000000000036" x2="1.7320508075688925" y2="-10.000000000000036" stroke-width="0.1" stroke="black"/><line x1="1.7320508075688925" y1="-10.000000000000036" x2="2.5980762113533316" y2="-9.500000000000036" stroke-width="0.1" stroke="black"/><line x1="2.5980762113533316" y1="-9.500000000000036" x2="2.5980762113533316" y2="-9.500000000000036" stroke-width="0.1" stroke="black"/><line x1="2.5980762113533316" y1="-9.500000000000036" x2="2.5980762113533316" y2="-10.500000000000036" stroke-width="0.1" stroke="black"/><line x1="2.5980762113533316" y1="-10.500000000000036" x2="2.5980762113533316" y2="-10.500000000000036" stroke-width="0.1" stroke="black"/><line x1="2.5980762113533316" y1="-10.500000000000036" x2="1.7320508075688927" y2="-10.000000000000036" stroke-width="0.1" stroke="black"/><line x1="1.7320508075688927" y1="-10.000000000000036" x2="1.7320508075688927" y2="-10.000000000000036" stroke-width="0.1" stroke="black"/><line x1="1.7320508075688927" y1="-10.000000000000036" x2="1.7320508075688925" y2="-11.000000000000036" stroke-width="0.1" stroke="black"/><line x1="1.7320508075688925" y1="-11.000000000000036" x2="1.7320508075688925" y2="-11.000000000000036" stroke-width="0.1" stroke="black"/><line x1="1.7320508075688925" y1="-11.000000000000036" x2="0.8660254037844538" y2="-10.500000000000036" stroke-width="0.1" stroke="black"/><line x1="0.8660254037844538" y1="-10.500000000000036" x2="1.509903313490213E-14" y2="-10.000000000000036" stroke-width="0.1" stroke="black"/><line x1="1.509903313490213E-14" y1="-10.000000000000036" x2="1.509903313490213E-14" y2="-10.000000000000036" stroke-width="0.1" stroke="black"/><line x1="1.509903313490213E-14" y1="-10.000000000000036" x2="1.4915336115030026E-14" y2="-11.000000000000036" stroke-width="0.1" stroke="black"/><line x1="1.4915336115030026E-14" y1="-11.000000000000036" x2="1.4915336115030026E-14" y2="-11.000000000000036" stroke-width="0.1" stroke="black"/><line x1="1.4915336115030026E-14" y1="-11.000000000000036" x2="0.8660254037844539" y2="-10.500000000000036" stroke-width="0.1" stroke="black"/><line x1="0.8660254037844539" y1="-10.500000000000036" x2="0.8660254037844539" y2="-10.500000000000036" stroke-width="0.1" stroke="black"/><line x1="0.8660254037844539" y1="-10.500000000000036" x2="0.8660254037844537" y2="-11.500000000000036" stroke-width="0.1" stroke="black"/><line x1="0.8660254037844537" y1="-11.500000000000036" x2="0.8660254037844537" y2="-11.500000000000036" stroke-width="0.1" stroke="black"/><line x1="0.8660254037844537" y1="-11.500000000000036" x2="1.4988010832439613E-14" y2="-11.000000000000036" stroke-width="0.1" stroke="black"/><line x1="1.4988010832439613E-14" y1="-11.000000000000036" x2="1.4988010832439613E-14" y2="-11.000000000000036" stroke-width="0.1" stroke="black"/><line x1="1.4988010832439613E-14" y1="-11.000000000000036" x2="1.480431381256751E-14" y2="-12.000000000000036" stroke-width="0.1" stroke="black"/><line x1="1.480431381256751E-14" y1="-12.000000000000036" x2="1.480431381256751E-14" y2="-12.000000000000036" stroke-width="0.1" stroke="black"/><line x1="1.480431381256751E-14" y1="-12.000000000000036" x2="0.8660254037844538" y2="-11.500000000000036" stroke-width="0.1" stroke="black"/><line x1="0.8660254037844538" y1="-11.500000000000036" x2="1.7320508075688927" y2="-11.000000000000036" stroke-width="0.1" stroke="black"/><line x1="1.7320508075688927" y1="-11.000000000000036" x2="2.598076211353332" y2="-10.500000000000036" stroke-width="0.1" stroke="black"/><line x1="2.598076211353332" y1="-10.500000000000036" x2="3.4641016151377713" y2="-10.000000000000036" stroke-width="0.1" stroke="black"/><line x1="3.4641016151377713" y1="-10.000000000000036" x2="3.4641016151377713" y2="-10.000000000000036" stroke-width="0.1" stroke="black"/><line x1="3.4641016151377713" y1="-10.000000000000036" x2="3.4641016151377713" y2="-11.000000000000036" stroke-width="0.1" stroke="black"/><line x1="3.4641016151377713" y1="-11.000000000000036" x2="3.4641016151377713" y2="-11.000000000000036" stroke-width="0.1" stroke="black"/><line x1="3.4641016151377713" y1="-11.000000000000036" x2="4.3301270189222105" y2="-10.500000000000036" stroke-width="0.1" stroke="black"/><line x1="4.3301270189222105" y1="-10.500000000000036" x2="4.3301270189222105" y2="-10.500000000000036" stroke-width="0.1" stroke="black"/><line x1="4.3301270189222105" y1="-10.500000000000036" x2="4.3301270189222105" y2="-11.500000000000036" stroke-width="0.1" stroke="black"/><line x1="4.3301270189222105" y1="-11.500000000000036" x2="4.3301270189222105" y2="-11.500000000000036" stroke-width="0.1" stroke="black"/><line x1="4.3301270189222105" y1="-11.500000000000036" x2="3.4641016151377717" y2="-11.000000000000036" stroke-width="0.1" stroke="black"/><line x1="3.4641016151377717" y1="-11.000000000000036" x2="3.4641016151377717" y2="-11.000000000000036" stroke-width="0.1" stroke="black"/><line x1="3.4641016151377717" y1="-11.000000000000036" x2="3.4641016151377717" y2="-12.000000000000036" stroke-width="0.1" stroke="black"/><line x1="3.4641016151377717" y1="-12.000000000000036" x2="3.4641016151377717" y2="-12.000000000000036" stroke-width="0.1" stroke="black"/><line x1="3.4641016151377717" y1="-12.000000000000036" x2="4.3301270189222105" y2="-11.500000000000036" stroke-width="0.1" stroke="black"/><line x1="4.3301270189222105" y1="-11.500000000000036" x2="5.19615242270665" y2="-11.000000000000036" stroke-width="0.1" stroke="black"/><line x1="5.19615242270665" y1="-11.000000000000036" x2="5.19615242270665" y2="-11.000000000000036" stroke-width="0.1" stroke="black"/><line x1="5.19615242270665" y1="-11.000000000000036" x2="5.19615242270665" y2="-12.000000000000036" stroke-width="0.1" stroke="black"/><line x1="5.19615242270665" y1="-12.000000000000036" x2="5.19615242270665" y2="-12.000000000000036" stroke-width="0.1" stroke="black"/><line x1="5.19615242270665" y1="-12.000000000000036" x2="6.062177826491089" y2="-11.500000000000036" stroke-width="0.1" stroke="black"/><line x1="6.062177826491089" y1="-11.500000000000036" x2="6.062177826491089" y2="-11.500000000000036" stroke-width="0.1" stroke="black"/><line x1="6.062177826491089" y1="-11.500000000000036" x2="6.062177826491089" y2="-12.500000000000036" stroke-width="0.1" stroke="black"/><line x1="6.062177826491089" y1="-12.500000000000036" x2="6.062177826491089" y2="-12.500000000000036" stroke-width="0.1" stroke="black"/><line x1="6.062177826491089" y1="-12.500000000000036" x2="5.196152422706651" y2="-12.000000000000036" stroke-width="0.1" stroke="black"/><line x1="5.196152422706651" y1="-12.000000000000036" x2="5.196152422706651" y2="-12.000000000000036" stroke-width="0.1" stroke="black"/><line x1="5.196152422706651" y1="-12.000000000000036" x2="5.196152422706651" y2="-13.000000000000036" stroke-width="0.1" stroke="black"/><line x1="5.196152422706651" y1="-13.000000000000036" x2="5.196152422706651" y2="-13.000000000000036" stroke-width="0.1" stroke="black"/><line x1="5.196152422706651" y1="-13.000000000000036" x2="4.330127018922212" y2="-12.500000000000036" stroke-width="0.1" stroke="black"/><line x1="4.330127018922212" y1="-12.500000000000036" x2="3.4641016151377735" y2="-12.000000000000036" stroke-width="0.1" stroke="black"/><line x1="3.4641016151377735" y1="-12.000000000000036" x2="3.4641016151377735" y2="-12.000000000000036" stroke-width="0.1" stroke="black"/><line x1="3.4641016151377735" y1="-12.000000000000036" x2="3.4641016151377735" y2="-13.000000000000036" stroke-width="0.1" stroke="black"/><line x1="3.4641016151377735" y1="-13.000000000000036" x2="3.4641016151377735" y2="-13.000000000000036" stroke-width="0.1" stroke="black"/><line x1="3.4641016151377735" y1="-13.000000000000036" x2="4.330127018922212" y2="-12.500000000000036" stroke-width="0.1" stroke="black"/><line x1="4.330127018922212" y1="-12.500000000000036" x2="4.330127018922212" y2="-12.500000000000036" stroke-width="0.1" stroke="black"/><line x1="4.330127018922212" y1="-12.500000000000036" x2="4.330127018922212" y2="-13.500000000000036" stroke-width="0.1" stroke="black"/><line x1="4.330127018922212" y1="-13.500000000000036" x2="4.330127018922212" y2="-13.500000000000036" stroke-width="0.1" stroke="black"/><line x1="4.330127018922212" y1="-13.500000000000036" x2="3.4641016151377735" y2="-13.000000000000036" stroke-width="0.1" stroke="black"/><line x1="3.4641016151377735" y1="-13.000000000000036" x2="3.4641016151377735" y2="-13.000000000000036" stroke-width="0.1" stroke="black"/><line x1="3.4641016151377735" y1="-13.000000000000036" x2="3.4641016151377735" y2="-14.000000000000036" stroke-width="0.1" stroke="black"/><line x1="3.4641016151377735" y1="-14.000000000000036" x2="3.4641016151377735" y2="-14.000000000000036" stroke-width="0.1" stroke="black"/><line x1="3.4641016151377735" y1="-14.000000000000036" x2="2.5980762113533347" y2="-13.500000000000036" stroke-width="0.1" stroke="black"/><line x1="2.5980762113533347" y1="-13.500000000000036" x2="1.7320508075688958" y2="-13.000000000000036" stroke-width="0.1" stroke="black"/><line x1="1.7320508075688958" y1="-13.000000000000036" x2="0.8660254037844571" y2="-12.500000000000036" stroke-width="0.1" stroke="black"/><line x1="0.8660254037844571" y1="-12.500000000000036" x2="1.84297022087776E-14" y2="-12.000000000000036" stroke-width="0.1" stroke="black"/><line x1="1.84297022087776E-14" y1="-12.000000000000036" x2="1.84297022087776E-14" y2="-12.000000000000036" stroke-width="0.1" stroke="black"/><line x1="1.84297022087776E-14" y1="-12.000000000000036" x2="1.8246005188905496E-14" y2="-13.000000000000036" stroke-width="0.1" stroke="black"/><line x1="1.8246005188905496E-14" y1="-13.000000000000036" x2="1.8246005188905496E-14" y2="-13.000000000000036" stroke-width="0.1" stroke="black"/><line x1="1.8246005188905496E-14" y1="-13.000000000000036" x2="0.8660254037844572" y2="-12.500000000000036" stroke-width="0.1" stroke="black"/><line x1="0.8660254037844572" y1="-12.500000000000036" x2="0.8660254037844572" y2="-12.500000000000036" stroke-width="0.1" stroke="black"/><line x1="0.8660254037844572" y1="-12.500000000000036" x2="0.866025403784457" y2="-13.500000000000036" stroke-width="0.1" stroke="black"/><line x1="0.866025403784457" y1="-13.500000000000036" x2="0.866025403784457" y2="-13.500000000000036" stroke-width="0.1" stroke="black"/><line x1="0.866025403784457" y1="-13.500000000000036" x2="1.8318679906315083E-14" y2="-13.000000000000036" stroke-width="0.1" stroke="black"/><line x1="1.8318679906315083E-14" y1="-13.000000000000036" x2="1.8318679906315083E-14" y2="-13.000000000000036" stroke-width="0.1" stroke="black"/><line x1="1.8318679906315083E-14" y1="-13.000000000000036" x2="1.813498288644298E-14" y2="-14.000000000000036" stroke-width="0.1" stroke="black"/><line x1="1.813498288644298E-14" y1="-14.000000000000036" x2="1.813498288644298E-14" y2="-14.000000000000036" stroke-width="0.1" stroke="black"/><line x1="1.813498288644298E-14" y1="-14.000000000000036" x2="0.8660254037844571" y2="-13.500000000000036" stroke-width="0.1" stroke="black"/><line x1="0.8660254037844571" y1="-13.500000000000036" x2="1.7320508075688963" y2="-13.000000000000036" stroke-width="0.1" stroke="black"/><line x1="1.7320508075688963" y1="-13.000000000000036" x2="1.7320508075688963" y2="-13.000000000000036" stroke-width="0.1" stroke="black"/><line x1="1.7320508075688963" y1="-13.000000000000036" x2="1.732050807568896" y2="-14.000000000000036" stroke-width="0.1" stroke="black"/><line x1="1.732050807568896" y1="-14.000000000000036" x2="1.732050807568896" y2="-14.000000000000036" stroke-width="0.1" stroke="black"/><line x1="1.732050807568896" y1="-14.000000000000036" x2="2.598076211353335" y2="-13.500000000000036" stroke-width="0.1" stroke="black"/><line x1="2.598076211353335" y1="-13.500000000000036" x2="2.598076211353335" y2="-13.500000000000036" stroke-width="0.1" stroke="black"/><line x1="2.598076211353335" y1="-13.500000000000036" x2="2.598076211353335" y2="-14.500000000000036" stroke-width="0.1" stroke="black"/><line x1="2.598076211353335" y1="-14.500000000000036" x2="2.598076211353335" y2="-14.500000000000036" stroke-width="0.1" stroke="black"/><line x1="2.598076211353335" y1="-14.500000000000036" x2="1.7320508075688963" y2="-14.000000000000036" stroke-width="0.1" stroke="black"/><line x1="1.7320508075688963" y1="-14.000000000000036" x2="1.7320508075688963" y2="-14.000000000000036" stroke-width="0.1" stroke="black"/><line x1="1.7320508075688963" y1="-14.000000000000036" x2="1.732050807568896" y2="-15.000000000000036" stroke-width="0.1" stroke="black"/><line x1="1.732050807568896" y1="-15.000000000000036" x2="1.732050807568896" y2="-15.000000000000036" stroke-width="0.1" stroke="black"/><line x1="1.732050807568896" y1="-15.000000000000036" x2="0.8660254037844574" y2="-14.500000000000036" stroke-width="0.1" stroke="black"/><line x1="0.8660254037844574" y1="-14.500000000000036" x2="1.865174681370263E-14" y2="-14.000000000000036" stroke-width="0.1" stroke="black"/><line x1="1.865174681370263E-14" y1="-14.000000000000036" x2="1.865174681370263E-14" y2="-14.000000000000036" stroke-width="0.1" stroke="black"/><line x1="1.865174681370263E-14" y1="-14.000000000000036" x2="1.8468049793830527E-14" y2="-15.000000000000036" stroke-width="0.1" stroke="black"/><line x1="1.8468049793830527E-14" y1="-15.000000000000036" x2="1.8468049793830527E-14" y2="-15.000000000000036" stroke-width="0.1" stroke="black"/><line x1="1.8468049793830527E-14" y1="-15.000000000000036" x2="0.8660254037844575" y2="-14.500000000000036" stroke-width="0.1" stroke="black"/><line x1="0.8660254037844575" y1="-14.500000000000036" x2="0.8660254037844575" y2="-14.500000000000036" stroke-width="0.1" stroke="black"/><line x1="0.8660254037844575" y1="-14.500000000000036" x2="0.8660254037844572" y2="-15.500000000000036" stroke-width="0.1" stroke="black"/><line x1="0.8660254037844572" y1="-15.500000000000036" x2="0.8660254037844572" y2="-15.500000000000036" stroke-width="0.1" stroke="black"/><line x1="0.8660254037844572" y1="-15.500000000000036" x2="1.8540724511240114E-14" y2="-15.000000000000036" stroke-width="0.1" stroke="black"/><line x1="1.8540724511240114E-14" y1="-15.000000000000036" x2="1.8540724511240114E-14" y2="-15.000000000000036" stroke-width="0.1" stroke="black"/><line x1="1.8540724511240114E-14" y1="-15.000000000000036" x2="1.835702749136801E-14" y2="-16.000000000000036" stroke-width="0.1" stroke="black"/><line x1="1.835702749136801E-14" y1="-16.000000000000036" x2="1.835702749136801E-14" y2="-16.000000000000036" stroke-width="0.1" stroke="black"/><line x1="1.835702749136801E-14" y1="-16.000000000000036" x2="0.8660254037844574" y2="-15.500000000000036" stroke-width="0.1" stroke="black"/><line x1="0.8660254037844574" y1="-15.500000000000036" x2="1.7320508075688963" y2="-15.000000000000036" stroke-width="0.1" stroke="black"/><line x1="1.7320508075688963" y1="-15.000000000000036" x2="2.5980762113533356" y2="-14.500000000000036" stroke-width="0.1" stroke="black"/><line x1="2.5980762113533356" y1="-14.500000000000036" x2="3.464101615137775" y2="-14.000000000000036" stroke-width="0.1" stroke="black"/><line x1="3.464101615137775" y1="-14.000000000000036" x2="4.330127018922214" y2="-13.500000000000036" stroke-width="0.1" stroke="black"/><line x1="4.330127018922214" y1="-13.500000000000036" x2="5.196152422706653" y2="-13.000000000000036" stroke-width="0.1" stroke="black"/><line x1="5.196152422706653" y1="-13.000000000000036" x2="6.062177826491093" y2="-12.500000000000036" stroke-width="0.1" stroke="black"/><line x1="6.062177826491093" y1="-12.500000000000036" x2="6.928203230275532" y2="-12.000000000000036" stroke-width="0.1" stroke="black"/><line x1="6.928203230275532" y1="-12.000000000000036" x2="7.794228634059971" y2="-11.500000000000036" stroke-width="0.1" stroke="black"/><line x1="7.794228634059971" y1="-11.500000000000036" x2="8.66025403784441" y2="-11.000000000000036" stroke-width="0.1" stroke="black"/><line x1="8.66025403784441" y1="-11.000000000000036" x2="9.52627944162885" y2="-10.500000000000036" stroke-width="0.1" stroke="black"/><line x1="9.52627944162885" y1="-10.500000000000036" x2="10.392304845413289" y2="-10.000000000000036" stroke-width="0.1" stroke="black"/><line x1="10.392304845413289" y1="-10.000000000000036" x2="11.258330249197728" y2="-9.500000000000036" stroke-width="0.1" stroke="black"/><line x1="11.258330249197728" y1="-9.500000000000036" x2="12.124355652982167" y2="-9.000000000000036" stroke-width="0.1" stroke="black"/><line x1="12.124355652982167" y1="-9.000000000000036" x2="12.990381056766607" y2="-8.500000000000036" stroke-width="0.1" stroke="black"/><line x1="12.990381056766607" y1="-8.500000000000036" x2="13.856406460551046" y2="-8.000000000000036" stroke-width="0.1" stroke="black"/><line x1="13.856406460551046" y1="-8.000000000000036" x2="13.856406460551046" y2="-8.000000000000036" stroke-width="0.1" stroke="black"/><line x1="13.856406460551046" y1="-8.000000000000036" x2="12.990381056766608" y2="-7.500000000000034" stroke-width="0.1" stroke="black"/><line x1="12.990381056766608" y1="-7.500000000000034" x2="12.124355652982171" y2="-7.000000000000032" stroke-width="0.1" stroke="black"/><line x1="12.124355652982171" y1="-7.000000000000032" x2="11.258330249197734" y2="-6.50000000000003" stroke-width="0.1" stroke="black"/><line x1="11.258330249197734" y1="-6.50000000000003" x2="10.392304845413296" y2="-6.000000000000028" stroke-width="0.1" stroke="black"/><line x1="10.392304845413296" y1="-6.000000000000028" x2="9.526279441628859" y2="-5.500000000000027" stroke-width="0.1" stroke="black"/><line x1="9.526279441628859" y1="-5.500000000000027" x2="8.660254037844421" y2="-5.000000000000025" stroke-width="0.1" stroke="black"/><line x1="8.660254037844421" y1="-5.000000000000025" x2="7.794228634059984" y2="-4.500000000000023" stroke-width="0.1" stroke="black"/><line x1="7.794228634059984" y1="-4.500000000000023" x2="6.928203230275546" y2="-4.000000000000021" stroke-width="0.1" stroke="black"/><line x1="6.928203230275546" y1="-4.000000000000021" x2="6.062177826491109" y2="-3.50000000000002" stroke-width="0.1" stroke="black"/><line x1="6.062177826491109" y1="-3.50000000000002" x2="5.196152422706671" y2="-3.0000000000000187" stroke-width="0.1" stroke="black"/><line x1="5.196152422706671" y1="-3.0000000000000187" x2="4.330127018922234" y2="-2.5000000000000173" stroke-width="0.1" stroke="black"/><line x1="4.330127018922234" y1="-2.5000000000000173" x2="3.4641016151377957" y2="-2.000000000000016" stroke-width="0.1" stroke="black"/><line x1="3.4641016151377957" y1="-2.000000000000016" x2="2.5980762113533578" y2="-1.5000000000000147" stroke-width="0.1" stroke="black"/><line x1="2.5980762113533578" y1="-1.5000000000000147" x2="1.7320508075689198" y2="-1.0000000000000133" stroke-width="0.1" stroke="black"/><line x1="1.7320508075689198" y1="-1.0000000000000133" x2="0.8660254037844819" y2="-0.500000000000012" stroke-width="0.1" stroke="black"/><line x1="0.8660254037844819" y1="-0.500000000000012" x2="4.39648317751562E-14" y2="-1.0658141036401503E-14" stroke-width="0.1" stroke="black"/><line x1="4.39648317751562E-14" y1="-1.0658141036401503E-14" x2="4.39648317751562E-14" y2="-1.0658141036401503E-14" stroke-width="0.1" stroke="black"/></svg>