<svg viewBox="-4.731170528736744E-13 -1600.0000000000011 1299.0381056766587 1600.0000000000011" xmlns="http://www.w3.org/2000/svg"><line x1="0.0" y1="0.0" x2="-1.8369701987210297E-14" y2="-100.0" stroke-width="5" stroke="black"/><line x1="-1.8369701987210297E-14" y1="-100.0" x2="-1.8369701987210297E-14" y2="-100.0" stroke-width="5" stroke="black"/><line x1="-1.8369701987210297E-14" y1="-100.0" x2="86.60254037844382" y2="-150.00000000000006" stroke-width="5" stroke="black"/><line x1="86.60254037844382" y1="-150.00000000000006" x2="86.60254037844382" y2="-150.00000000000006" stroke-width="5" stroke="black"/><line x1="86.60254037844382" y1="-150.00000000000006" x2="173.20508075688772" y2="-100.00000000000013" stroke-width="5" stroke="black"/><line x1="173.20508075688772" y1="-100.00000000000013" x2="173.20508075688772" y2="-100.00000000000013" stroke-width="5" stroke="black"/><line x1="173.20508075688772" y1="-100.00000000000013" x2="259.80762113533154" y2="-150.00000000000017" stroke-width="5" stroke="black"/><line x1="259.80762113533154" y1="-150.00000000000017" x2="259.80762113533154" y2="-150.00000000000017" stroke-width="5" stroke="black"/><line x1="259.80762113533154" y1="-150.00000000000017" x2="259.80762113533154" y2="-250.00000000000017" stroke-width="5" stroke="black"/><line x1="259.80762113533154" y1="-250.00000000000017" x2="259.80762113533154" y2="-250.00000000000017" stroke-width="5" stroke="black"/><line x1="259.80762113533154" y1="-250.00000000000017" x2="173.2050807568877" y2="-300.00000000000017" stroke-width="5" stroke="black"/><line x1="173.2050807568877" y1="-300.00000000000017" x2="173.2050807568877" y2="-300.00000000000017" stroke-width="5" stroke="black"/><line x1="173.2050807568877" y1="-300.00000000000017" x2="86.6025403784438" y2="-250.00000000000023" stroke-width="5" stroke="black"/><line x1="86.6025403784438" y1="-250.00000000000023" x2="86.6025403784438" y2="-250.00000000000023" stroke-width="5" stroke="black"/><line x1="86.6025403784438" y1="-250.00000000000023" x2="-5.6843418860808015E-14" y2="-300.0000000000002" stroke-width="5" stroke="black"/><line x1="-5.6843418860808015E-14" y1="-300.0000000000002" x2="-5.6843418860808015E-14" y2="-300.0000000000002" stroke-width="5" stroke="black"/><line x1="-5.6843418860808015E-14" y1="-300.0000000000002" x2="-7.521312084801831E-14" y2="-400.0000000000002" stroke-width="5" stroke="black"/><line x1="-7.521312084801831E-14" y1="-400.0000000000002" x2="-7.521312084801831E-14" y2="-400.0000000000002" stroke-width="5" stroke="black"/><line x1="-7.521312084801831E-14" y1="-400.0000000000002" x2="86.60254037844376" y2="-450.0000000000003" stroke-width="5" stroke="black"/><line x1="86.60254037844376" y1="-450.0000000000003" x2="86.60254037844376" y2="-450.0000000000003" stroke-width="5" stroke="black"/><line x1="86.60254037844376" y1="-450.0000000000003" x2="86.60254037844375" y2="-550.0000000000002" stroke-width="5" stroke="black"/><line x1="86.60254037844375" y1="-550.0000000000002" x2="86.60254037844375" y2="-550.0000000000002" stroke-width="5" stroke="black"/><line x1="86.60254037844375" y1="-550.0000000000002" x2="-1.1368683772161603E-13" y2="-600.0000000000002" stroke-width="5" stroke="black"/><line x1="-1.1368683772161603E-13" y1="-600.0000000000002" x2="-1.1368683772161603E-13" y2="-600.0000000000002" stroke-width="5" stroke="black"/><line x1="-1.1368683772161603E-13" y1="-600.0000000000002" x2="-1.3205653970882633E-13" y2="-700.0000000000002" stroke-width="5" stroke="black"/><line x1="-1.3205653970882633E-13" y1="-700.0000000000002" x2="-1.3205653970882633E-13" y2="-700.0000000000002" stroke-width="5" stroke="black"/><line x1="-1.3205653970882633E-13" y1="-700.0000000000002" x2="86.6025403784437" y2="-750.0000000000002" stroke-width="5" stroke="black"/><line x1="86.6025403784437" y1="-750.0000000000002" x2="86.6025403784437" y2="-750.0000000000002" stroke-width="5" stroke="black"/><line x1="86.6025403784437" y1="-750.0000000000002" x2="173.2050807568876" y2="-700.0000000000003" stroke-width="5" stroke="black"/><line x1="173.2050807568876" y1="-700.0000000000003" x2="173.2050807568876" y2="-700.0000000000003" stroke-width="5" stroke="black"/><line x1="173.2050807568876" y1="-700.0000000000003" x2="173.20508075688772" y2="-600.0000000000003" stroke-width="5" stroke="black"/><line x1="173.20508075688772" y1="-600.0000000000003" x2="173.20508075688772" y2="-600.0000000000003" stroke-width="5" stroke="black"/><line x1="173.20508075688772" y1="-600.0000000000003" x2="259.8076211353316" y2="-550.0000000000005" stroke-width="5" stroke="black"/><line x1="259.8076211353316" y1="-550.0000000000005" x2="259.8076211353316" y2="-550.0000000000005" stroke-width="5" stroke="black"/><line x1="259.8076211353316" y1="-550.0000000000005" x2="346.41016151377545" y2="-600.0000000000005" stroke-width="5" stroke="black"/><line x1="346.41016151377545" y1="-600.0000000000005" x2="346.41016151377545" y2="-600.0000000000005" stroke-width="5" stroke="black"/><line x1="346.41016151377545" y1="-600.0000000000005" x2="433.01270189221935" y2="-550.0000000000006" stroke-width="5" stroke="black"/><line x1="433.01270189221935" y1="-550.0000000000006" x2="433.01270189221935" y2="-550.0000000000006" stroke-width="5" stroke="black"/><line x1="433.01270189221935" y1="-550.0000000000006" x2="433.01270189221947" y2="-450.00000000000057" stroke-width="5" stroke="black"/><line x1="433.01270189221947" y1="-450.00000000000057" x2="433.01270189221947" y2="-450.00000000000057" stroke-width="5" stroke="black"/><line x1="433.01270189221947" y1="-450.00000000000057" x2="346.4101615137757" y2="-400.00000000000045" stroke-width="5" stroke="black"/><line x1="346.4101615137757" y1="-400.00000000000045" x2="346.4101615137757" y2="-400.00000000000045" stroke-width="5" stroke="black"/><line x1="346.4101615137757" y1="-400.00000000000045" x2="346.4101615137758" y2="-300.00000000000045" stroke-width="5" stroke="black"/><line x1="346.4101615137758" y1="-300.00000000000045" x2="346.4101615137758" y2="-300.00000000000045" stroke-width="5" stroke="black"/><line x1="346.4101615137758" y1="-300.00000000000045" x2="433.0127018922197" y2="-250.0000000000005" stroke-width="5" stroke="black"/><line x1="433.0127018922197" y1="-250.0000000000005" x2="433.0127018922197" y2="-250.0000000000005" stroke-width="5" stroke="black"/><line x1="433.0127018922197" y1="-250.0000000000005" x2="519.6152422706635" y2="-300.00000000000057" stroke-width="5" stroke="black"/><line x1="519.6152422706635" y1="-300.00000000000057" x2="519.6152422706635" y2="-300.00000000000057" stroke-width="5" stroke="black"/><line x1="519.6152422706635" y1="-300.00000000000057" x2="519.6152422706635" y2="-400.00000000000057" stroke-width="5" stroke="black"/><line x1="519.6152422706635" y1="-400.00000000000057" x2="519.6152422706635" y2="-400.00000000000057" stroke-width="5" stroke="black"/><line x1="519.6152422706635" y1="-400.00000000000057" x2="606.2177826491073" y2="-450.0000000000006" stroke-width="5" stroke="black"/><line x1="606.2177826491073" y1="-450.0000000000006" x2="606.2177826491073" y2="-450.0000000000006" stroke-width="5" stroke="black"/><line x1="606.2177826491073" y1="-450.0000000000006" x2="692.8203230275512" y2="-400.0000000000007" stroke-width="5" stroke="black"/><line x1="692.8203230275512" y1="-400.0000000000007" x2="692.8203230275512" y2="-400.0000000000007" stroke-width="5" stroke="black"/><line x1="692.8203230275512" y1="-400.0000000000007" x2="779.422863405995" y2="-450.00000000000074" stroke-width="5" stroke="black"/><line x1="779.422863405995" y1="-450.00000000000074" x2="779.422863405995" y2="-450.00000000000074" stroke-width="5" stroke="black"/><line x1="779.422863405995" y1="-450.00000000000074" x2="779.422863405995" y2="-550.0000000000007" stroke-width="5" stroke="black"/><line x1="779.422863405995" y1="-550.0000000000007" x2="779.422863405995" y2="-550.0000000000007" stroke-width="5" stroke="black"/><line x1="779.422863405995" y1="-550.0000000000007" x2="692.8203230275511" y2="-600.0000000000007" stroke-width="5" stroke="black"/><line x1="692.8203230275511" y1="-600.0000000000007" x2="692.8203230275511" y2="-600.0000000000007" stroke-width="5" stroke="black"/><line x1="692.8203230275511" y1="-600.0000000000007" x2="692.8203230275511" y2="-700.0000000000007" stroke-width="5" stroke="black"/><line x1="692.8203230275511" y1="-700.0000000000007" x2="692.8203230275511" y2="-700.0000000000007" stroke-width="5" stroke="black"/><line x1="692.8203230275511" y1="-700.0000000000007" x2="779.4228634059949" y2="-750.0000000000007" stroke-width="5" stroke="black"/><line x1="779.4228634059949" y1="-750.0000000000007" x2="779.4228634059949" y2="-750.0000000000007" stroke-width="5" stroke="black"/><line x1="779.4228634059949" y1="-750.0000000000007" x2="866.0254037844388" y2="-700.0000000000008" stroke-width="5" stroke="black"/><line x1="866.0254037844388" y1="-700.0000000000008" x2="866.0254037844388" y2="-700.0000000000008" stroke-width="5" stroke="black"/><line x1="866.0254037844388" y1="-700.0000000000008" x2="866.0254037844389" y2="-600.0000000000008" stroke-width="5" stroke="black"/><line x1="866.0254037844389" y1="-600.0000000000008" x2="866.0254037844389" y2="-600.0000000000008" stroke-width="5" stroke="black"/><line x1="866.0254037844389" y1="-600.0000000000008" x2="952.6279441628828" y2="-550.0000000000009" stroke-width="5" stroke="black"/><line x1="952.6279441628828" y1="-550.0000000000009" x2="952.6279441628828" y2="-550.0000000000009" stroke-width="5" stroke="black"/><line x1="952.6279441628828" y1="-550.0000000000009" x2="1039.2304845413266" y2="-600.0000000000009" stroke-width="5" stroke="black"/><line x1="1039.2304845413266" y1="-600.0000000000009" x2="1039.2304845413266" y2="-600.0000000000009" stroke-width="5" stroke="black"/><line x1="1039.2304845413266" y1="-600.0000000000009" x2="1039.2304845413266" y2="-700.0000000000009" stroke-width="5" stroke="black"/><line x1="1039.2304845413266" y1="-700.0000000000009" x2="1039.2304845413266" y2="-700.0000000000009" stroke-width="5" stroke="black"/><line x1="1039.2304845413266" y1="-700.0000000000009" x2="1125.8330249197704" y2="-750.0000000000009" stroke-width="5" stroke="black"/><line x1="1125.8330249197704" y1="-750.0000000000009" x2="1125.8330249197704" y2="-750.0000000000009" stroke-width="5" stroke="black"/><line x1="1125.8330249197704" y1="-750.0000000000009" x2="1212.4355652982144" y2="-700.000000000001" stroke-width="5" stroke="black"/><line x1="1212.4355652982144" y1="-700.000000000001" x2="1212.4355652982144" y2="-700.000000000001" stroke-width="5" stroke="black"/><line x1="1212.4355652982144" y1="-700.000000000001" x2="1299.0381056766582" y2="-750.000000000001" stroke-width="5" stroke="black"/><line x1="1299.0381056766582" y1="-750.000000000001" x2="1299.0381056766582" y2="-750.000000000001" stroke-width="5" stroke="black"/><line x1="1299.0381056766582" y1="-750.000000000001" x2="1299.0381056766582" y2="-850.000000000001" stroke-width="5" stroke="black"/><line x1="1299.0381056766582" y1="-850.000000000001" x2="1299.0381056766582" y2="-850.000000000001" stroke-width="5" stroke="black"/><line x1="1299.0381056766582" y1="-850.000000000001" x2="1212.4355652982144" y2="-900.000000000001" stroke-width="5" stroke="black"/><line x1="1212.4355652982144" y1="-900.000000000001" x2="1212.4355652982144" y2="-900.000000000001" stroke-width="5" stroke="black"/><line x1="1212.4355652982144" y1="-900.000000000001" x2="1125.8330249197707" y2="-850.000000000001" stroke-width="5" stroke="black"/><line x1="1125.8330249197707" y1="-850.000000000001" x2="1125.8330249197707" y2="-850.000000000001" stroke-width="5" stroke="black"/><line x1="1125.8330249197707" y1="-850.000000000001" x2="1039.2304845413269" y2="-900.000000000001" stroke-width="5" stroke="black"/><line x1="1039.2304845413269" y1="-900.000000000001" x2="1039.2304845413269" y2="-900.000000000001" stroke-width="5" stroke="black"/><line x1="1039.2304845413269" y1="-900.000000000001" x2="1039.2304845413269" y2="-1000.000000000001" stroke-width="5" stroke="black"/><line x1="1039.2304845413269" y1="-1000.000000000001" x2="1039.2304845413269" y2="-1000.000000000001" stroke-width="5" stroke="black"/><line x1="1039.2304845413269" y1="-1000.000000000001" x2="952.627944162883" y2="-1050.0000000000011" stroke-width="5" stroke="black"/><line x1="952.627944162883" y1="-1050.0000000000011" x2="952.627944162883" y2="-1050.0000000000011" stroke-width="5" stroke="black"/><line x1="952.627944162883" y1="-1050.0000000000011" x2="866.025403784439" y2="-1000.0000000000011" stroke-width="5" stroke="black"/><line x1="866.025403784439" y1="-1000.0000000000011" x2="866.025403784439" y2="-1000.0000000000011" stroke-width="5" stroke="black"/><line x1="866.025403784439" y1="-1000.0000000000011" x2="866.0254037844389" y2="-900.0000000000011" stroke-width="5" stroke="black"/><line x1="866.0254037844389" y1="-900.0000000000011" x2="866.0254037844389" y2="-900.0000000000011" stroke-width="5" stroke="black"/><line x1="866.0254037844389" y1="-900.0000000000011" x2="779.422863405995" y2="-850.0000000000011" stroke-width="5" stroke="black"/><line x1="779.422863405995" y1="-850.0000000000011" x2="779.422863405995" y2="-850.0000000000011" stroke-width="5" stroke="black"/><line x1="779.422863405995" y1="-850.0000000000011" x2="692.8203230275511" y2="-900.0000000000011" stroke-width="5" stroke="black"/><line x1="692.8203230275511" y1="-900.0000000000011" x2="692.8203230275511" y2="-900.0000000000011" stroke-width="5" stroke="black"/><line x1="692.8203230275511" y1="-900.0000000000011" x2="692.8203230275511" y2="-1000.0000000000011" stroke-width="5" stroke="black"/><line x1="692.8203230275511" y1="-1000.0000000000011" x2="692.8203230275511" y2="-1000.0000000000011" stroke-width="5" stroke="black"/><line x1="692.8203230275511" y1="-1000.0000000000011" x2="779.4228634059949" y2="-1050.0000000000011" stroke-width="5" stroke="black"/><line x1="779.4228634059949" y1="-1050.0000000000011" x2="779.4228634059949" y2="-1050.0000000000011" stroke-width="5" stroke="black"/><line x1="779.4228634059949" y1="-1050.0000000000011" x2="779.4228634059949" y2="-1150.0000000000011" stroke-width="5" stroke="black"/><line x1="779.4228634059949" y1="-1150.0000000000011" x2="779.4228634059949" y2="-1150.0000000000011" stroke-width="5" stroke="black"/><line x1="779.4228634059949" y1="-1150.0000000000011" x2="692.820323027551" y2="-1200.0000000000011" stroke-width="5" stroke="black"/><line x1="692.820323027551" y1="-1200.0000000000011" x2="692.820323027551" y2="-1200.0000000000011" stroke-width="5" stroke="black"/><line x1="692.820323027551" y1="-1200.0000000000011" x2="606.2177826491071" y2="-1150.0000000000011" stroke-width="5" stroke="black"/><line x1="606.2177826491071" y1="-1150.0000000000011" x2="606.2177826491071" y2="-1150.0000000000011" stroke-width="5" stroke="black"/><line x1="606.2177826491071" y1="-1150.0000000000011" x2="519.6152422706632" y2="-1200.0000000000011" stroke-width="5" stroke="black"/><line x1="519.6152422706632" y1="-1200.0000000000011" x2="519.6152422706632" y2="-1200.0000000000011" stroke-width="5" stroke="black"/><line x1="519.6152422706632" y1="-1200.0000000000011" x2="519.6152422706632" y2="-1300.0000000000011" stroke-width="5" stroke="black"/><line x1="519.6152422706632" y1="-1300.0000000000011" x2="519.6152422706632" y2="-1300.0000000000011" stroke-width="5" stroke="black"/><line x1="519.6152422706632" y1="-1300.0000000000011" x2="433.01270189221935" y2="-1350.0000000000011" stroke-width="5" stroke="black"/><line x1="433.01270189221935" y1="-1350.0000000000011" x2="433.01270189221935" y2="-1350.0000000000011" stroke-width="5" stroke="black"/><line x1="433.01270189221935" y1="-1350.0000000000011" x2="346.41016151377545" y2="-1300.0000000000011" stroke-width="5" stroke="black"/><line x1="346.41016151377545" y1="-1300.0000000000011" x2="346.41016151377545" y2="-1300.0000000000011" stroke-width="5" stroke="black"/><line x1="346.41016151377545" y1="-1300.0000000000011" x2="346.4101615137754" y2="-1200.0000000000011" stroke-width="5" stroke="black"/><line x1="346.4101615137754" y1="-1200.0000000000011" x2="346.4101615137754" y2="-1200.0000000000011" stroke-width="5" stroke="black"/><line x1="346.4101615137754" y1="-1200.0000000000011" x2="433.0127018922192" y2="-1150.0000000000011" stroke-width="5" stroke="black"/><line x1="433.0127018922192" y1="-1150.0000000000011" x2="433.0127018922192" y2="-1150.0000000000011" stroke-width="5" stroke="black"/><line x1="433.0127018922192" y1="-1150.0000000000011" x2="433.0127018922191" y2="-1050.0000000000011" stroke-width="5" stroke="black"/><line x1="433.0127018922191" y1="-1050.0000000000011" x2="433.0127018922191" y2="-1050.0000000000011" stroke-width="5" stroke="black"/><line x1="433.0127018922191" y1="-1050.0000000000011" x2="346.4101615137752" y2="-1000.0000000000011" stroke-width="5" stroke="black"/><line x1="346.4101615137752" y1="-1000.0000000000011" x2="346.4101615137752" y2="-1000.0000000000011" stroke-width="5" stroke="black"/><line x1="346.4101615137752" y1="-1000.0000000000011" x2="259.8076211353314" y2="-1050.0000000000011" stroke-width="5" stroke="black"/><line x1="259.8076211353314" y1="-1050.0000000000011" x2="259.8076211353314" y2="-1050.0000000000011" stroke-width="5" stroke="black"/><line x1="259.8076211353314" y1="-1050.0000000000011" x2="173.20508075688747" y2="-1000.0000000000011" stroke-width="5" stroke="black"/><line x1="173.20508075688747" y1="-1000.0000000000011" x2="173.20508075688747" y2="-1000.0000000000011" stroke-width="5" stroke="black"/><line x1="173.20508075688747" y1="-1000.0000000000011" x2="173.2050807568874" y2="-900.0000000000011" stroke-width="5" stroke="black"/><line x1="173.2050807568874" y1="-900.0000000000011" x2="173.2050807568874" y2="-900.0000000000011" stroke-width="5" stroke="black"/><line x1="173.2050807568874" y1="-900.0000000000011" x2="86.60254037844352" y2="-850.0000000000011" stroke-width="5" stroke="black"/><line x1="86.60254037844352" y1="-850.0000000000011" x2="86.60254037844352" y2="-850.0000000000011" stroke-width="5" stroke="black"/><line x1="86.60254037844352" y1="-850.0000000000011" x2="-3.410605131648481E-13" y2="-900.0000000000011" stroke-width="5" stroke="black"/><line x1="-3.410605131648481E-13" y1="-900.0000000000011" x2="-3.410605131648481E-13" y2="-900.0000000000011" stroke-width="5" stroke="black"/><line x1="-3.410605131648481E-13" y1="-900.0000000000011" x2="-3.594302151520584E-13" y2="-1000.0000000000011" stroke-width="5" stroke="black"/><line x1="-3.594302151520584E-13" y1="-1000.0000000000011" x2="-3.594302151520584E-13" y2="-1000.0000000000011" stroke-width="5" stroke="black"/><line x1="-3.594302151520584E-13" y1="-1000.0000000000011" x2="86.60254037844348" y2="-1050.0000000000011" stroke-width="5" stroke="black"/><line x1="86.60254037844348" y1="-1050.0000000000011" x2="86.60254037844348" y2="-1050.0000000000011" stroke-width="5" stroke="black"/><line x1="86.60254037844348" y1="-1050.0000000000011" x2="86.60254037844346" y2="-1150.0000000000011" stroke-width="5" stroke="black"/><line x1="86.60254037844346" y1="-1150.0000000000011" x2="86.60254037844346" y2="-1150.0000000000011" stroke-width="5" stroke="black"/><line x1="86.60254037844346" y1="-1150.0000000000011" x2="-3.979039320256561E-13" y2="-1200.0000000000011" stroke-width="5" stroke="black"/><line x1="-3.979039320256561E-13" y1="-1200.0000000000011" x2="-3.979039320256561E-13" y2="-1200.0000000000011" stroke-width="5" stroke="black"/><line x1="-3.979039320256561E-13" y1="-1200.0000000000011" x2="-4.1627363401286643E-13" y2="-1300.0000000000011" stroke-width="5" stroke="black"/><line x1="-4.1627363401286643E-13" y1="-1300.0000000000011" x2="-4.1627363401286643E-13" y2="-1300.0000000000011" stroke-width="5" stroke="black"/><line x1="-4.1627363401286643E-13" y1="-1300.0000000000011" x2="86.60254037844342" y2="-1350.0000000000011" stroke-width="5" stroke="black"/><line x1="86.60254037844342" y1="-1350.0000000000011" x2="86.60254037844342" y2="-1350.0000000000011" stroke-width="5" stroke="black"/><line x1="86.60254037844342" y1="-1350.0000000000011" x2="173.20508075688733" y2="-1300.0000000000011" stroke-width="5" stroke="black"/><line x1="173.20508075688733" y1="-1300.0000000000011" x2="173.20508075688733" y2="-1300.0000000000011" stroke-width="5" stroke="black"/><line x1="173.20508075688733" y1="-1300.0000000000011" x2="259.80762113533115" y2="-1350.0000000000011" stroke-width="5" stroke="black"/><line x1="259.80762113533115" y1="-1350.0000000000011" x2="259.80762113533115" y2="-1350.0000000000011" stroke-width="5" stroke="black"/><line x1="259.80762113533115" y1="-1350.0000000000011" x2="259.80762113533115" y2="-1450.0000000000011" stroke-width="5" stroke="black"/><line x1="259.80762113533115" y1="-1450.0000000000011" x2="259.80762113533115" y2="-1450.0000000000011" stroke-width="5" stroke="black"/><line x1="259.80762113533115" y1="-1450.0000000000011" x2="173.2050807568873" y2="-1500.0000000000011" stroke-width="5" stroke="black"/><line x1="173.2050807568873" y1="-1500.0000000000011" x2="173.2050807568873" y2="-1500.0000000000011" stroke-width="5" stroke="black"/><line x1="173.2050807568873" y1="-1500.0000000000011" x2="86.60254037844341" y2="-1450.0000000000011" stroke-width="5" stroke="black"/><line x1="86.60254037844341" y1="-1450.0000000000011" x2="86.60254037844341" y2="-1450.0000000000011" stroke-width="5" stroke="black"/><line x1="86.60254037844341" y1="-1450.0000000000011" x2="-4.547473508864641E-13" y2="-1500.0000000000011" stroke-width="5" stroke="black"/><line x1="-4.547473508864641E-13" y1="-1500.0000000000011" x2="-4.547473508864641E-13" y2="-1500.0000000000011" stroke-width="5" stroke="black"/><line x1="-4.547473508864641E-13" y1="-1500.0000000000011" x2="-4.731170528736744E-13" y2="-1600.0000000000011" stroke-width="5" stroke="black"/></svg>