<svg viewBox="-1385.6406460551013 -1600.0000000000036 1385.640646055102 1600.0000000000036" xmlns="http://www.w3.org/2000/svg"><line x1="0.0" y1="0.0" x2="-1.8369701987210297E-14" y2="-100.0" stroke-width="5" stroke="black"/><line x1="-1.8369701987210297E-14" y1="-100.0" x2="-1.8369701987210297E-14" y2="-100.0" stroke-width="5" stroke="black"/><line x1="-1.8369701987210297E-14" y1="-100.0" x2="-86.60254037844389" y2="-50.00000000000001" stroke-width="5" stroke="black"/><line x1="-86.60254037844389" y1="-50.00000000000001" x2="-86.60254037844389" y2="-50.00000000000001" stroke-width="5" stroke="black"/><line x1="-86.60254037844389" y1="-50.00000000000001" x2="-86.6025403784439" y2="-150.0" stroke-width="5" stroke="black"/><line x1="-86.6025403784439" y1="-150.0" x2="-86.6025403784439" y2="-150.0" stroke-width="5" stroke="black"/><line x1="-86.6025403784439" y1="-150.0" x2="0.0" y2="-100.00000000000007" stroke-width="5" stroke="black"/><line x1="0.0" y1="-100.00000000000007" x2="0.0" y2="-100.00000000000007" stroke-width="5" stroke="black"/><line x1="0.0" y1="-100.00000000000007" x2="-1.8369701987210297E-14" y2="-200.00000000000006" stroke-width="5" stroke="black"/><line x1="-1.8369701987210297E-14" y1="-200.00000000000006" x2="-1.8369701987210297E-14" y2="-200.00000000000006" stroke-width="5" stroke="black"/><line x1="-1.8369701987210297E-14" y1="-200.00000000000006" x2="-86.60254037844389" y2="-150.00000000000006" stroke-width="5" stroke="black"/><line x1="-86.60254037844389" y1="-150.00000000000006" x2="-173.20508075688775" y2="-100.00000000000006" stroke-width="5" stroke="black"/><line x1="-173.20508075688775" y1="-100.00000000000006" x2="-173.20508075688775" y2="-100.00000000000006" stroke-width="5" stroke="black"/><line x1="-173.20508075688775" y1="-100.00000000000006" x2="-173.20508075688778" y2="-200.00000000000006" stroke-width="5" stroke="black"/><line x1="-173.20508075688778" y1="-200.00000000000006" x2="-173.20508075688778" y2="-200.00000000000006" stroke-width="5" stroke="black"/><line x1="-173.20508075688778" y1="-200.00000000000006" x2="-259.80762113533166" y2="-150.00000000000006" stroke-width="5" stroke="black"/><line x1="-259.80762113533166" y1="-150.00000000000006" x2="-259.80762113533166" y2="-150.00000000000006" stroke-width="5" stroke="black"/><line x1="-259.80762113533166" y1="-150.00000000000006" x2="-259.80762113533166" y2="-250.00000000000006" stroke-width="5" stroke="black"/><line x1="-259.80762113533166" y1="-250.00000000000006" x2="-259.80762113533166" y2="-250.00000000000006" stroke-width="5" stroke="black"/><line x1="-259.80762113533166" y1="-250.00000000000006" x2="-173.20508075688775" y2="-200.0000000000001" stroke-width="5" stroke="black"/><line x1="-173.20508075688775" y1="-200.0000000000001" x2="-173.20508075688775" y2="-200.0000000000001" stroke-width="5" stroke="black"/><line x1="-173.20508075688775" y1="-200.0000000000001" x2="-173.20508075688778" y2="-300.0000000000001" stroke-width="5" stroke="black"/><line x1="-173.20508075688778" y1="-300.0000000000001" x2="-173.20508075688778" y2="-300.0000000000001" stroke-width="5" stroke="black"/><line x1="-173.20508075688778" y1="-300.0000000000001" x2="-86.60254037844388" y2="-250.00000000000017" stroke-width="5" stroke="black"/><line x1="-86.60254037844388" y1="-250.00000000000017" x2="2.8421709430404007E-14" y2="-200.00000000000023" stroke-width="5" stroke="black"/><line x1="2.8421709430404007E-14" y1="-200.00000000000023" x2="2.8421709430404007E-14" y2="-200.00000000000023" stroke-width="5" stroke="black"/><line x1="2.8421709430404007E-14" y1="-200.00000000000023" x2="1.005200744319371E-14" y2="-300.0000000000002" stroke-width="5" stroke="black"/><line x1="1.005200744319371E-14" y1="-300.0000000000002" x2="1.005200744319371E-14" y2="-300.0000000000002" stroke-width="5" stroke="black"/><line x1="1.005200744319371E-14" y1="-300.0000000000002" x2="-86.60254037844386" y2="-250.00000000000023" stroke-width="5" stroke="black"/><line x1="-86.60254037844386" y1="-250.00000000000023" x2="-86.60254037844386" y2="-250.00000000000023" stroke-width="5" stroke="black"/><line x1="-86.60254037844386" y1="-250.00000000000023" x2="-86.60254037844388" y2="-350.0000000000002" stroke-width="5" stroke="black"/><line x1="-86.60254037844388" y1="-350.0000000000002" x2="-86.60254037844388" y2="-350.0000000000002" stroke-width="5" stroke="black"/><line x1="-86.60254037844388" y1="-350.0000000000002" x2="2.8421709430404007E-14" y2="-300.0000000000003" stroke-width="5" stroke="black"/><line x1="2.8421709430404007E-14" y1="-300.0000000000003" x2="2.8421709430404007E-14" y2="-300.0000000000003" stroke-width="5" stroke="black"/><line x1="2.8421709430404007E-14" y1="-300.0000000000003" x2="1.005200744319371E-14" y2="-400.0000000000003" stroke-width="5" stroke="black"/><line x1="1.005200744319371E-14" y1="-400.0000000000003" x2="1.005200744319371E-14" y2="-400.0000000000003" stroke-width="5" stroke="black"/><line x1="1.005200744319371E-14" y1="-400.0000000000003" x2="-86.60254037844386" y2="-350.0000000000003" stroke-width="5" stroke="black"/><line x1="-86.60254037844386" y1="-350.0000000000003" x2="-173.20508075688775" y2="-300.0000000000003" stroke-width="5" stroke="black"/><line x1="-173.20508075688775" y1="-300.0000000000003" x2="-259.8076211353316" y2="-250.00000000000028" stroke-width="5" stroke="black"/><line x1="-259.8076211353316" y1="-250.00000000000028" x2="-346.4101615137755" y2="-200.00000000000028" stroke-width="5" stroke="black"/><line x1="-346.4101615137755" y1="-200.00000000000028" x2="-346.4101615137755" y2="-200.00000000000028" stroke-width="5" stroke="black"/><line x1="-346.4101615137755" y1="-200.00000000000028" x2="-346.4101615137755" y2="-300.0000000000003" stroke-width="5" stroke="black"/><line x1="-346.4101615137755" y1="-300.0000000000003" x2="-346.4101615137755" y2="-300.0000000000003" stroke-width="5" stroke="black"/><line x1="-346.4101615137755" y1="-300.0000000000003" x2="-433.0127018922194" y2="-250.00000000000028" stroke-width="5" stroke="black"/><line x1="-433.0127018922194" y1="-250.00000000000028" x2="-433.0127018922194" y2="-250.00000000000028" stroke-width="5" stroke="black"/><line x1="-433.0127018922194" y1="-250.00000000000028" x2="-433.0127018922194" y2="-350.0000000000003" stroke-width="5" stroke="black"/><line x1="-433.0127018922194" y1="-350.0000000000003" x2="-433.0127018922194" y2="-350.0000000000003" stroke-width="5" stroke="black"/><line x1="-433.0127018922194" y1="-350.0000000000003" x2="-346.4101615137755" y2="-300.00000000000034" stroke-width="5" stroke="black"/><line x1="-346.4101615137755" y1="-300.00000000000034" x2="-346.4101615137755" y2="-300.00000000000034" stroke-width="5" stroke="black"/><line x1="-346.4101615137755" y1="-300.00000000000034" x2="-346.4101615137755" y2="-400.00000000000034" stroke-width="5" stroke="black"/><line x1="-346.4101615137755" y1="-400.00000000000034" x2="-346.4101615137755" y2="-400.00000000000034" stroke-width="5" stroke="black"/><line x1="-346.4101615137755" y1="-400.00000000000034" x2="-433.0127018922194" y2="-350.00000000000034" stroke-width="5" stroke="black"/><line x1="-433.0127018922194" y1="-350.00000000000034" x2="-519.6152422706633" y2="-300.00000000000034" stroke-width="5" stroke="black"/><line x1="-519.6152422706633" y1="-300.00000000000034" x2="-519.6152422706633" y2="-300.00000000000034" stroke-width="5" stroke="black"/><line x1="-519.6152422706633" y1="-300.00000000000034" x2="-519.6152422706633" y2="-400.00000000000034" stroke-width="5" stroke="black"/><line x1="-519.6152422706633" y1="-400.00000000000034" x2="-519.6152422706633" y2="-400.00000000000034" stroke-width="5" stroke="black"/><line x1="-519.6152422706633" y1="-400.00000000000034" x2="-606.2177826491072" y2="-350.00000000000034" stroke-width="5" stroke="black"/><line x1="-606.2177826491072" y1="-350.00000000000034" x2="-606.2177826491072" y2="-350.00000000000034" stroke-width="5" stroke="black"/><line x1="-606.2177826491072" y1="-350.00000000000034" x2="-606.2177826491072" y2="-450.00000000000034" stroke-width="5" stroke="black"/><line x1="-606.2177826491072" y1="-450.00000000000034" x2="-606.2177826491072" y2="-450.00000000000034" stroke-width="5" stroke="black"/><line x1="-606.2177826491072" y1="-450.00000000000034" x2="-519.6152422706633" y2="-400.0000000000004" stroke-width="5" stroke="black"/><line x1="-519.6152422706633" y1="-400.0000000000004" x2="-519.6152422706633" y2="-400.0000000000004" stroke-width="5" stroke="black"/><line x1="-519.6152422706633" y1="-400.0000000000004" x2="-519.6152422706633" y2="-500.0000000000004" stroke-width="5" stroke="black"/><line x1="-519.6152422706633" y1="-500.0000000000004" x2="-519.6152422706633" y2="-500.0000000000004" stroke-width="5" stroke="black"/><line x1="-519.6152422706633" y1="-500.0000000000004" x2="-433.0127018922194" y2="-450.00000000000045" stroke-width="5" stroke="black"/><line x1="-433.0127018922194" y1="-450.00000000000045" x2="-346.4101615137755" y2="-400.0000000000005" stroke-width="5" stroke="black"/><line x1="-346.4101615137755" y1="-400.0000000000005" x2="-346.4101615137755" y2="-400.0000000000005" stroke-width="5" stroke="black"/><line x1="-346.4101615137755" y1="-400.0000000000005" x2="-346.4101615137755" y2="-500.0000000000005" stroke-width="5" stroke="black"/><line x1="-346.4101615137755" y1="-500.0000000000005" x2="-346.4101615137755" y2="-500.0000000000005" stroke-width="5" stroke="black"/><line x1="-346.4101615137755" y1="-500.0000000000005" x2="-433.0127018922194" y2="-450.0000000000005" stroke-width="5" stroke="black"/><line x1="-433.0127018922194" y1="-450.0000000000005" x2="-433.0127018922194" y2="-450.0000000000005" stroke-width="5" stroke="black"/><line x1="-433.0127018922194" y1="-450.0000000000005" x2="-433.0127018922194" y2="-550.0000000000005" stroke-width="5" stroke="black"/><line x1="-433.0127018922194" y1="-550.0000000000005" x2="-433.0127018922194" y2="-550.0000000000005" stroke-width="5" stroke="black"/><line x1="-433.0127018922194" y1="-550.0000000000005" x2="-346.4101615137755" y2="-500.0000000000005" stroke-width="5" stroke="black"/><line x1="-346.4101615137755" y1="-500.0000000000005" x2="-346.4101615137755" y2="-500.0000000000005" stroke-width="5" stroke="black"/><line x1="-346.4101615137755" y1="-500.0000000000005" x2="-346.4101615137755" y2="-600.0000000000005" stroke-width="5" stroke="black"/><line x1="-346.4101615137755" y1="-600.0000000000005" x2="-346.4101615137755" y2="-600.0000000000005" stroke-width="5" stroke="black"/><line x1="-346.4101615137755" y1="-600.0000000000005" x2="-259.8076211353316" y2="-550.0000000000006" stroke-width="5" stroke="black"/><line x1="-259.8076211353316" y1="-550.0000000000006" x2="-173.2050807568877" y2="-500.0000000000006" stroke-width="5" stroke="black"/><line x1="-173.2050807568877" y1="-500.0000000000006" x2="-86.60254037844379" y2="-450.0000000000007" stroke-width="5" stroke="black"/><line x1="-86.60254037844379" y1="-450.0000000000007" x2="1.1368683772161603E-13" y2="-400.00000000000074" stroke-width="5" stroke="black"/><line x1="1.1368683772161603E-13" y1="-400.00000000000074" x2="1.1368683772161603E-13" y2="-400.00000000000074" stroke-width="5" stroke="black"/><line x1="1.1368683772161603E-13" y1="-400.00000000000074" x2="9.531713573440573E-14" y2="-500.00000000000074" stroke-width="5" stroke="black"/><line x1="9.531713573440573E-14" y1="-500.00000000000074" x2="9.531713573440573E-14" y2="-500.00000000000074" stroke-width="5" stroke="black"/><line x1="9.531713573440573E-14" y1="-500.00000000000074" x2="-86.60254037844378" y2="-450.00000000000074" stroke-width="5" stroke="black"/><line x1="-86.60254037844378" y1="-450.00000000000074" x2="-86.60254037844378" y2="-450.00000000000074" stroke-width="5" stroke="black"/><line x1="-86.60254037844378" y1="-450.00000000000074" x2="-86.60254037844379" y2="-550.0000000000007" stroke-width="5" stroke="black"/><line x1="-86.60254037844379" y1="-550.0000000000007" x2="-86.60254037844379" y2="-550.0000000000007" stroke-width="5" stroke="black"/><line x1="-86.60254037844379" y1="-550.0000000000007" x2="1.1368683772161603E-13" y2="-500.00000000000074" stroke-width="5" stroke="black"/><line x1="1.1368683772161603E-13" y1="-500.00000000000074" x2="1.1368683772161603E-13" y2="-500.00000000000074" stroke-width="5" stroke="black"/><line x1="1.1368683772161603E-13" y1="-500.00000000000074" x2="9.531713573440573E-14" y2="-600.0000000000007" stroke-width="5" stroke="black"/><line x1="9.531713573440573E-14" y1="-600.0000000000007" x2="9.531713573440573E-14" y2="-600.0000000000007" stroke-width="5" stroke="black"/><line x1="9.531713573440573E-14" y1="-600.0000000000007" x2="-86.60254037844378" y2="-550.0000000000007" stroke-width="5" stroke="black"/><line x1="-86.60254037844378" y1="-550.0000000000007" x2="-173.20508075688764" y2="-500.0000000000007" stroke-width="5" stroke="black"/><line x1="-173.20508075688764" y1="-500.0000000000007" x2="-173.20508075688764" y2="-500.0000000000007" stroke-width="5" stroke="black"/><line x1="-173.20508075688764" y1="-500.0000000000007" x2="-173.20508075688767" y2="-600.0000000000007" stroke-width="5" stroke="black"/><line x1="-173.20508075688767" y1="-600.0000000000007" x2="-173.20508075688767" y2="-600.0000000000007" stroke-width="5" stroke="black"/><line x1="-173.20508075688767" y1="-600.0000000000007" x2="-259.80762113533154" y2="-550.0000000000007" stroke-width="5" stroke="black"/><line x1="-259.80762113533154" y1="-550.0000000000007" x2="-259.80762113533154" y2="-550.0000000000007" stroke-width="5" stroke="black"/><line x1="-259.80762113533154" y1="-550.0000000000007" x2="-259.80762113533154" y2="-650.0000000000007" stroke-width="5" stroke="black"/><line x1="-259.80762113533154" y1="-650.0000000000007" x2="-259.80762113533154" y2="-650.0000000000007" stroke-width="5" stroke="black"/><line x1="-259.80762113533154" y1="-650.0000000000007" x2="-173.20508075688764" y2="-600.0000000000008" stroke-width="5" stroke="black"/><line x1="-173.20508075688764" y1="-600.0000000000008" x2="-173.20508075688764" y2="-600.0000000000008" stroke-width="5" stroke="black"/><line x1="-173.20508075688764" y1="-600.0000000000008" x2="-173.20508075688767" y2="-700.0000000000008" stroke-width="5" stroke="black"/><line x1="-173.20508075688767" y1="-700.0000000000008" x2="-173.20508075688767" y2="-700.0000000000008" stroke-width="5" stroke="black"/><line x1="-173.20508075688767" y1="-700.0000000000008" x2="-86.60254037844376" y2="-650.0000000000009" stroke-width="5" stroke="black"/><line x1="-86.60254037844376" y1="-650.0000000000009" x2="1.4210854715202004E-13" y2="-600.000000000001" stroke-width="5" stroke="black"/><line x1="1.4210854715202004E-13" y1="-600.000000000001" x2="1.4210854715202004E-13" y2="-600.000000000001" stroke-width="5" stroke="black"/><line x1="1.4210854715202004E-13" y1="-600.000000000001" x2="1.2373884516480974E-13" y2="-700.000000000001" stroke-width="5" stroke="black"/><line x1="1.2373884516480974E-13" y1="-700.000000000001" x2="1.2373884516480974E-13" y2="-700.000000000001" stroke-width="5" stroke="black"/><line x1="1.2373884516480974E-13" y1="-700.000000000001" x2="-86.60254037844375" y2="-650.000000000001" stroke-width="5" stroke="black"/><line x1="-86.60254037844375" y1="-650.000000000001" x2="-86.60254037844375" y2="-650.000000000001" stroke-width="5" stroke="black"/><line x1="-86.60254037844375" y1="-650.000000000001" x2="-86.60254037844376" y2="-750.000000000001" stroke-width="5" stroke="black"/><line x1="-86.60254037844376" y1="-750.000000000001" x2="-86.60254037844376" y2="-750.000000000001" stroke-width="5" stroke="black"/><line x1="-86.60254037844376" y1="-750.000000000001" x2="1.4210854715202004E-13" y2="-700.0000000000011" stroke-width="5" stroke="black"/><line x1="1.4210854715202004E-13" y1="-700.0000000000011" x2="1.4210854715202004E-13" y2="-700.0000000000011" stroke-width="5" stroke="black"/><line x1="1.4210854715202004E-13" y1="-700.0000000000011" x2="1.2373884516480974E-13" y2="-800.0000000000011" stroke-width="5" stroke="black"/><line x1="1.2373884516480974E-13" y1="-800.0000000000011" x2="1.2373884516480974E-13" y2="-800.0000000000011" stroke-width="5" stroke="black"/><line x1="1.2373884516480974E-13" y1="-800.0000000000011" x2="-86.60254037844375" y2="-750.0000000000011" stroke-width="5" stroke="black"/><line x1="-86.60254037844375" y1="-750.0000000000011" x2="-173.20508075688764" y2="-700.0000000000011" stroke-width="5" stroke="black"/><line x1="-173.20508075688764" y1="-700.0000000000011" x2="-259.8076211353315" y2="-650.0000000000011" stroke-width="5" stroke="black"/><line x1="-259.8076211353315" y1="-650.0000000000011" x2="-346.4101615137754" y2="-600.0000000000011" stroke-width="5" stroke="black"/><line x1="-346.4101615137754" y1="-600.0000000000011" x2="-433.0127018922193" y2="-550.0000000000011" stroke-width="5" stroke="black"/><line x1="-433.0127018922193" y1="-550.0000000000011" x2="-519.6152422706632" y2="-500.00000000000114" stroke-width="5" stroke="black"/><line x1="-519.6152422706632" y1="-500.00000000000114" x2="-606.2177826491071" y2="-450.00000000000114" stroke-width="5" stroke="black"/><line x1="-606.2177826491071" y1="-450.00000000000114" x2="-692.820323027551" y2="-400.00000000000114" stroke-width="5" stroke="black"/><line x1="-692.820323027551" y1="-400.00000000000114" x2="-692.820323027551" y2="-400.00000000000114" stroke-width="5" stroke="black"/><line x1="-692.820323027551" y1="-400.00000000000114" x2="-692.820323027551" y2="-500.00000000000114" stroke-width="5" stroke="black"/><line x1="-692.820323027551" y1="-500.00000000000114" x2="-692.820323027551" y2="-500.00000000000114" stroke-width="5" stroke="black"/><line x1="-692.820323027551" y1="-500.00000000000114" x2="-779.4228634059949" y2="-450.00000000000114" stroke-width="5" stroke="black"/><line x1="-779.4228634059949" y1="-450.00000000000114" x2="-779.4228634059949" y2="-450.00000000000114" stroke-width="5" stroke="black"/><line x1="-779.4228634059949" y1="-450.00000000000114" x2="-779.4228634059949" y2="-550.0000000000011" stroke-width="5" stroke="black"/><line x1="-779.4228634059949" y1="-550.0000000000011" x2="-779.4228634059949" y2="-550.0000000000011" stroke-width="5" stroke="black"/><line x1="-779.4228634059949" y1="-550.0000000000011" x2="-692.820323027551" y2="-500.0000000000012" stroke-width="5" stroke="black"/><line x1="-692.820323027551" y1="-500.0000000000012" x2="-692.820323027551" y2="-500.0000000000012" stroke-width="5" stroke="black"/><line x1="-692.820323027551" y1="-500.0000000000012" x2="-692.820323027551" y2="-600.0000000000011" stroke-width="5" stroke="black"/><line x1="-692.820323027551" y1="-600.0000000000011" x2="-692.820323027551" y2="-600.0000000000011" stroke-width="5" stroke="black"/><line x1="-692.820323027551" y1="-600.0000000000011" x2="-779.4228634059949" y2="-550.0000000000011" stroke-width="5" stroke="black"/><line x1="-779.4228634059949" y1="-550.0000000000011" x2="-866.0254037844388" y2="-500.00000000000114" stroke-width="5" stroke="black"/><line x1="-866.0254037844388" y1="-500.00000000000114" x2="-866.0254037844388" y2="-500.00000000000114" stroke-width="5" stroke="black"/><line x1="-866.0254037844388" y1="-500.00000000000114" x2="-866.0254037844388" y2="-600.0000000000011" stroke-width="5" stroke="black"/><line x1="-866.0254037844388" y1="-600.0000000000011" x2="-866.0254037844388" y2="-600.0000000000011" stroke-width="5" stroke="black"/><line x1="-866.0254037844388" y1="-600.0000000000011" x2="-952.6279441628827" y2="-550.0000000000011" stroke-width="5" stroke="black"/><line x1="-952.6279441628827" y1="-550.0000000000011" x2="-952.6279441628827" y2="-550.0000000000011" stroke-width="5" stroke="black"/><line x1="-952.6279441628827" y1="-550.0000000000011" x2="-952.6279441628827" y2="-650.0000000000011" stroke-width="5" stroke="black"/><line x1="-952.6279441628827" y1="-650.0000000000011" x2="-952.6279441628827" y2="-650.0000000000011" stroke-width="5" stroke="black"/><line x1="-952.6279441628827" y1="-650.0000000000011" x2="-866.0254037844388" y2="-600.0000000000013" stroke-width="5" stroke="black"/><line x1="-866.0254037844388" y1="-600.0000000000013" x2="-866.0254037844388" y2="-600.0000000000013" stroke-width="5" stroke="black"/><line x1="-866.0254037844388" y1="-600.0000000000013" x2="-866.0254037844388" y2="-700.0000000000013" stroke-width="5" stroke="black"/><line x1="-866.0254037844388" y1="-700.0000000000013" x2="-866.0254037844388" y2="-700.0000000000013" stroke-width="5" stroke="black"/><line x1="-866.0254037844388" y1="-700.0000000000013" x2="-779.4228634059949" y2="-650.0000000000014" stroke-width="5" stroke="black"/><line x1="-779.4228634059949" y1="-650.0000000000014" x2="-692.820323027551" y2="-600.0000000000015" stroke-width="5" stroke="black"/><line x1="-692.820323027551" y1="-600.0000000000015" x2="-692.820323027551" y2="-600.0000000000015" stroke-width="5" stroke="black"/><line x1="-692.820323027551" y1="-600.0000000000015" x2="-692.820323027551" y2="-700.0000000000015" stroke-width="5" stroke="black"/><line x1="-692.820323027551" y1="-700.0000000000015" x2="-692.820323027551" y2="-700.0000000000015" stroke-width="5" stroke="black"/><line x1="-692.820323027551" y1="-700.0000000000015" x2="-779.4228634059949" y2="-650.0000000000015" stroke-width="5" stroke="black"/><line x1="-779.4228634059949" y1="-650.0000000000015" x2="-779.4228634059949" y2="-650.0000000000015" stroke-width="5" stroke="black"/><line x1="-779.4228634059949" y1="-650.0000000000015" x2="-779.4228634059949" y2="-750.0000000000015" stroke-width="5" stroke="black"/><line x1="-779.4228634059949" y1="-750.0000000000015" x2="-779.4228634059949" y2="-750.0000000000015" stroke-width="5" stroke="black"/><line x1="-779.4228634059949" y1="-750.0000000000015" x2="-692.820323027551" y2="-700.0000000000016" stroke-width="5" stroke="black"/><line x1="-692.820323027551" y1="-700.0000000000016" x2="-692.820323027551" y2="-700.0000000000016" stroke-width="5" stroke="black"/><line x1="-692.820323027551" y1="-700.0000000000016" x2="-692.820323027551" y2="-800.0000000000016" stroke-width="5" stroke="black"/><line x1="-692.820323027551" y1="-800.0000000000016" x2="-692.820323027551" y2="-800.0000000000016" stroke-width="5" stroke="black"/><line x1="-692.820323027551" y1="-800.0000000000016" x2="-779.4228634059949" y2="-750.0000000000016" stroke-width="5" stroke="black"/><line x1="-779.4228634059949" y1="-750.0000000000016" x2="-866.0254037844388" y2="-700.0000000000016" stroke-width="5" stroke="black"/><line x1="-866.0254037844388" y1="-700.0000000000016" x2="-952.6279441628827" y2="-650.0000000000016" stroke-width="5" stroke="black"/><line x1="-952.6279441628827" y1="-650.0000000000016" x2="-1039.2304845413266" y2="-600.0000000000016" stroke-width="5" stroke="black"/><line x1="-1039.2304845413266" y1="-600.0000000000016" x2="-1039.2304845413266" y2="-600.0000000000016" stroke-width="5" stroke="black"/><line x1="-1039.2304845413266" y1="-600.0000000000016" x2="-1039.2304845413266" y2="-700.0000000000016" stroke-width="5" stroke="black"/><line x1="-1039.2304845413266" y1="-700.0000000000016" x2="-1039.2304845413266" y2="-700.0000000000016" stroke-width="5" stroke="black"/><line x1="-1039.2304845413266" y1="-700.0000000000016" x2="-1125.8330249197704" y2="-650.0000000000016" stroke-width="5" stroke="black"/><line x1="-1125.8330249197704" y1="-650.0000000000016" x2="-1125.8330249197704" y2="-650.0000000000016" stroke-width="5" stroke="black"/><line x1="-1125.8330249197704" y1="-650.0000000000016" x2="-1125.8330249197704" y2="-750.0000000000016" stroke-width="5" stroke="black"/><line x1="-1125.8330249197704" y1="-750.0000000000016" x2="-1125.8330249197704" y2="-750.0000000000016" stroke-width="5" stroke="black"/><line x1="-1125.8330249197704" y1="-750.0000000000016" x2="-1039.2304845413264" y2="-700.0000000000017" stroke-width="5" stroke="black"/><line x1="-1039.2304845413264" y1="-700.0000000000017" x2="-1039.2304845413264" y2="-700.0000000000017" stroke-width="5" stroke="black"/><line x1="-1039.2304845413264" y1="-700.0000000000017" x2="-1039.2304845413264" y2="-800.0000000000017" stroke-width="5" stroke="black"/><line x1="-1039.2304845413264" y1="-800.0000000000017" x2="-1039.2304845413264" y2="-800.0000000000017" stroke-width="5" stroke="black"/><line x1="-1039.2304845413264" y1="-800.0000000000017" x2="-1125.8330249197702" y2="-750.0000000000017" stroke-width="5" stroke="black"/><line x1="-1125.8330249197702" y1="-750.0000000000017" x2="-1212.435565298214" y2="-700.0000000000017" stroke-width="5" stroke="black"/><line x1="-1212.435565298214" y1="-700.0000000000017" x2="-1212.435565298214" y2="-700.0000000000017" stroke-width="5" stroke="black"/><line x1="-1212.435565298214" y1="-700.0000000000017" x2="-1212.435565298214" y2="-800.0000000000017" stroke-width="5" stroke="black"/><line x1="-1212.435565298214" y1="-800.0000000000017" x2="-1212.435565298214" y2="-800.0000000000017" stroke-width="5" stroke="black"/><line x1="-1212.435565298214" y1="-800.0000000000017" x2="-1299.0381056766578" y2="-750.0000000000017" stroke-width="5" stroke="black"/><line x1="-1299.0381056766578" y1="-750.0000000000017" x2="-1299.0381056766578" y2="-750.0000000000017" stroke-width="5" stroke="black"/><line x1="-1299.0381056766578" y1="-750.0000000000017" x2="-1299.0381056766578" y2="-850.0000000000017" stroke-width="5" stroke="black"/><line x1="-1299.0381056766578" y1="-850.0000000000017" x2="-1299.0381056766578" y2="-850.0000000000017" stroke-width="5" stroke="black"/><line x1="-1299.0381056766578" y1="-850.0000000000017" x2="-1212.435565298214" y2="-800.0000000000018" stroke-width="5" stroke="black"/><line x1="-1212.435565298214" y1="-800.0000000000018" x2="-1212.435565298214" y2="-800.0000000000018" stroke-width="5" stroke="black"/><line x1="-1212.435565298214" y1="-800.0000000000018" x2="-1212.435565298214" y2="-900.0000000000018" stroke-width="5" stroke="black"/><line x1="-1212.435565298214" y1="-900.0000000000018" x2="-1212.435565298214" y2="-900.0000000000018" stroke-width="5" stroke="black"/><line x1="-1212.435565298214" y1="-900.0000000000018" x2="-1125.8330249197702" y2="-850.0000000000019" stroke-width="5" stroke="black"/><line x1="-1125.8330249197702" y1="-850.0000000000019" x2="-1039.2304845413264" y2="-800.000000000002" stroke-width="5" stroke="black"/><line x1="-1039.2304845413264" y1="-800.000000000002" x2="-1039.2304845413264" y2="-800.000000000002" stroke-width="5" stroke="black"/><line x1="-1039.2304845413264" y1="-800.000000000002" x2="-1039.2304845413264" y2="-900.000000000002" stroke-width="5" stroke="black"/><line x1="-1039.2304845413264" y1="-900.000000000002" x2="-1039.2304845413264" y2="-900.000000000002" stroke-width="5" stroke="black"/><line x1="-1039.2304845413264" y1="-900.000000000002" x2="-1125.8330249197702" y2="-850.000000000002" stroke-width="5" stroke="black"/><line x1="-1125.8330249197702" y1="-850.000000000002" x2="-1125.8330249197702" y2="-850.000000000002" stroke-width="5" stroke="black"/><line x1="-1125.8330249197702" y1="-850.000000000002" x2="-1125.8330249197702" y2="-950.000000000002" stroke-width="5" stroke="black"/><line x1="-1125.8330249197702" y1="-950.000000000002" x2="-1125.8330249197702" y2="-950.000000000002" stroke-width="5" stroke="black"/><line x1="-1125.8330249197702" y1="-950.000000000002" x2="-1039.2304845413264" y2="-900.0000000000022" stroke-width="5" stroke="black"/><line x1="-1039.2304845413264" y1="-900.0000000000022" x2="-1039.2304845413264" y2="-900.0000000000022" stroke-width="5" stroke="black"/><line x1="-1039.2304845413264" y1="-900.0000000000022" x2="-1039.2304845413264" y2="-1000.0000000000022" stroke-width="5" stroke="black"/><line x1="-1039.2304845413264" y1="-1000.0000000000022" x2="-1039.2304845413264" y2="-1000.0000000000022" stroke-width="5" stroke="black"/><line x1="-1039.2304845413264" y1="-1000.0000000000022" x2="-952.6279441628825" y2="-950.0000000000023" stroke-width="5" stroke="black"/><line x1="-952.6279441628825" y1="-950.0000000000023" x2="-866.0254037844386" y2="-900.0000000000024" stroke-width="5" stroke="black"/><line x1="-866.0254037844386" y1="-900.0000000000024" x2="-779.4228634059947" y2="-850.0000000000025" stroke-width="5" stroke="black"/><line x1="-779.4228634059947" y1="-850.0000000000025" x2="-692.8203230275508" y2="-800.0000000000026" stroke-width="5" stroke="black"/><line x1="-692.8203230275508" y1="-800.0000000000026" x2="-692.8203230275508" y2="-800.0000000000026" stroke-width="5" stroke="black"/><line x1="-692.8203230275508" y1="-800.0000000000026" x2="-692.8203230275508" y2="-900.0000000000026" stroke-width="5" stroke="black"/><line x1="-692.8203230275508" y1="-900.0000000000026" x2="-692.8203230275508" y2="-900.0000000000026" stroke-width="5" stroke="black"/><line x1="-692.8203230275508" y1="-900.0000000000026" x2="-779.4228634059947" y2="-850.0000000000026" stroke-width="5" stroke="black"/><line x1="-779.4228634059947" y1="-850.0000000000026" x2="-779.4228634059947" y2="-850.0000000000026" stroke-width="5" stroke="black"/><line x1="-779.4228634059947" y1="-850.0000000000026" x2="-779.4228634059947" y2="-950.0000000000026" stroke-width="5" stroke="black"/><line x1="-779.4228634059947" y1="-950.0000000000026" x2="-779.4228634059947" y2="-950.0000000000026" stroke-width="5" stroke="black"/><line x1="-779.4228634059947" y1="-950.0000000000026" x2="-692.8203230275508" y2="-900.0000000000027" stroke-width="5" stroke="black"/><line x1="-692.8203230275508" y1="-900.0000000000027" x2="-692.8203230275508" y2="-900.0000000000027" stroke-width="5" stroke="black"/><line x1="-692.8203230275508" y1="-900.0000000000027" x2="-692.8203230275508" y2="-1000.0000000000027" stroke-width="5" stroke="black"/><line x1="-692.8203230275508" y1="-1000.0000000000027" x2="-692.8203230275508" y2="-1000.0000000000027" stroke-width="5" stroke="black"/><line x1="-692.8203230275508" y1="-1000.0000000000027" x2="-779.4228634059947" y2="-950.0000000000027" stroke-width="5" stroke="black"/><line x1="-779.4228634059947" y1="-950.0000000000027" x2="-866.0254037844386" y2="-900.0000000000027" stroke-width="5" stroke="black"/><line x1="-866.0254037844386" y1="-900.0000000000027" x2="-866.0254037844386" y2="-900.0000000000027" stroke-width="5" stroke="black"/><line x1="-866.0254037844386" y1="-900.0000000000027" x2="-866.0254037844386" y2="-1000.0000000000027" stroke-width="5" stroke="black"/><line x1="-866.0254037844386" y1="-1000.0000000000027" x2="-866.0254037844386" y2="-1000.0000000000027" stroke-width="5" stroke="black"/><line x1="-866.0254037844386" y1="-1000.0000000000027" x2="-952.6279441628825" y2="-950.0000000000027" stroke-width="5" stroke="black"/><line x1="-952.6279441628825" y1="-950.0000000000027" x2="-952.6279441628825" y2="-950.0000000000027" stroke-width="5" stroke="black"/><line x1="-952.6279441628825" y1="-950.0000000000027" x2="-952.6279441628825" y2="-1050.0000000000027" stroke-width="5" stroke="black"/><line x1="-952.6279441628825" y1="-1050.0000000000027" x2="-952.6279441628825" y2="-1050.0000000000027" stroke-width="5" stroke="black"/><line x1="-952.6279441628825" y1="-1050.0000000000027" x2="-866.0254037844386" y2="-1000.0000000000028" stroke-width="5" stroke="black"/><line x1="-866.0254037844386" y1="-1000.0000000000028" x2="-866.0254037844386" y2="-1000.0000000000028" stroke-width="5" stroke="black"/><line x1="-866.0254037844386" y1="-1000.0000000000028" x2="-866.0254037844386" y2="-1100.0000000000027" stroke-width="5" stroke="black"/><line x1="-866.0254037844386" y1="-1100.0000000000027" x2="-866.0254037844386" y2="-1100.0000000000027" stroke-width="5" stroke="black"/><line x1="-866.0254037844386" y1="-1100.0000000000027" x2="-779.4228634059947" y2="-1050.0000000000027" stroke-width="5" stroke="black"/><line x1="-779.4228634059947" y1="-1050.0000000000027" x2="-692.8203230275508" y2="-1000.0000000000028" stroke-width="5" stroke="black"/><line x1="-692.8203230275508" y1="-1000.0000000000028" x2="-692.8203230275508" y2="-1000.0000000000028" stroke-width="5" stroke="black"/><line x1="-692.8203230275508" y1="-1000.0000000000028" x2="-692.8203230275508" y2="-1100.0000000000027" stroke-width="5" stroke="black"/><line x1="-692.8203230275508" y1="-1100.0000000000027" x2="-692.8203230275508" y2="-1100.0000000000027" stroke-width="5" stroke="black"/><line x1="-692.8203230275508" y1="-1100.0000000000027" x2="-779.4228634059947" y2="-1050.0000000000027" stroke-width="5" stroke="black"/><line x1="-779.4228634059947" y1="-1050.0000000000027" x2="-779.4228634059947" y2="-1050.0000000000027" stroke-width="5" stroke="black"/><line x1="-779.4228634059947" y1="-1050.0000000000027" x2="-779.4228634059947" y2="-1150.0000000000027" stroke-width="5" stroke="black"/><line x1="-779.4228634059947" y1="-1150.0000000000027" x2="-779.4228634059947" y2="-1150.0000000000027" stroke-width="5" stroke="black"/><line x1="-779.4228634059947" y1="-1150.0000000000027" x2="-692.8203230275508" y2="-1100.0000000000027" stroke-width="5" stroke="black"/><line x1="-692.8203230275508" y1="-1100.0000000000027" x2="-692.8203230275508" y2="-1100.0000000000027" stroke-width="5" stroke="black"/><line x1="-692.8203230275508" y1="-1100.0000000000027" x2="-692.8203230275508" y2="-1200.0000000000027" stroke-width="5" stroke="black"/><line x1="-692.8203230275508" y1="-1200.0000000000027" x2="-692.8203230275508" y2="-1200.0000000000027" stroke-width="5" stroke="black"/><line x1="-692.8203230275508" y1="-1200.0000000000027" x2="-606.2177826491069" y2="-1150.0000000000027" stroke-width="5" stroke="black"/><line x1="-606.2177826491069" y1="-1150.0000000000027" x2="-519.615242270663" y2="-1100.0000000000027" stroke-width="5" stroke="black"/><line x1="-519.615242270663" y1="-1100.0000000000027" x2="-433.01270189221907" y2="-1050.0000000000027" stroke-width="5" stroke="black"/><line x1="-433.01270189221907" y1="-1050.0000000000027" x2="-346.41016151377517" y2="-1000.0000000000028" stroke-width="5" stroke="black"/><line x1="-346.41016151377517" y1="-1000.0000000000028" x2="-259.80762113533126" y2="-950.000000000003" stroke-width="5" stroke="black"/><line x1="-259.80762113533126" y1="-950.000000000003" x2="-173.20508075688736" y2="-900.0000000000031" stroke-width="5" stroke="black"/><line x1="-173.20508075688736" y1="-900.0000000000031" x2="-86.60254037844345" y2="-850.0000000000032" stroke-width="5" stroke="black"/><line x1="-86.60254037844345" y1="-850.0000000000032" x2="4.547473508864641E-13" y2="-800.0000000000033" stroke-width="5" stroke="black"/><line x1="4.547473508864641E-13" y1="-800.0000000000033" x2="4.547473508864641E-13" y2="-800.0000000000033" stroke-width="5" stroke="black"/><line x1="4.547473508864641E-13" y1="-800.0000000000033" x2="4.363776488992538E-13" y2="-900.0000000000033" stroke-width="5" stroke="black"/><line x1="4.363776488992538E-13" y1="-900.0000000000033" x2="4.363776488992538E-13" y2="-900.0000000000033" stroke-width="5" stroke="black"/><line x1="4.363776488992538E-13" y1="-900.0000000000033" x2="-86.60254037844344" y2="-850.0000000000033" stroke-width="5" stroke="black"/><line x1="-86.60254037844344" y1="-850.0000000000033" x2="-86.60254037844344" y2="-850.0000000000033" stroke-width="5" stroke="black"/><line x1="-86.60254037844344" y1="-850.0000000000033" x2="-86.60254037844345" y2="-950.0000000000033" stroke-width="5" stroke="black"/><line x1="-86.60254037844345" y1="-950.0000000000033" x2="-86.60254037844345" y2="-950.0000000000033" stroke-width="5" stroke="black"/><line x1="-86.60254037844345" y1="-950.0000000000033" x2="4.547473508864641E-13" y2="-900.0000000000034" stroke-width="5" stroke="black"/><line x1="4.547473508864641E-13" y1="-900.0000000000034" x2="4.547473508864641E-13" y2="-900.0000000000034" stroke-width="5" stroke="black"/><line x1="4.547473508864641E-13" y1="-900.0000000000034" x2="4.363776488992538E-13" y2="-1000.0000000000034" stroke-width="5" stroke="black"/><line x1="4.363776488992538E-13" y1="-1000.0000000000034" x2="4.363776488992538E-13" y2="-1000.0000000000034" stroke-width="5" stroke="black"/><line x1="4.363776488992538E-13" y1="-1000.0000000000034" x2="-86.60254037844344" y2="-950.0000000000034" stroke-width="5" stroke="black"/><line x1="-86.60254037844344" y1="-950.0000000000034" x2="-173.2050807568873" y2="-900.0000000000034" stroke-width="5" stroke="black"/><line x1="-173.2050807568873" y1="-900.0000000000034" x2="-173.2050807568873" y2="-900.0000000000034" stroke-width="5" stroke="black"/><line x1="-173.2050807568873" y1="-900.0000000000034" x2="-173.20508075688733" y2="-1000.0000000000034" stroke-width="5" stroke="black"/><line x1="-173.20508075688733" y1="-1000.0000000000034" x2="-173.20508075688733" y2="-1000.0000000000034" stroke-width="5" stroke="black"/><line x1="-173.20508075688733" y1="-1000.0000000000034" x2="-259.8076211353312" y2="-950.0000000000034" stroke-width="5" stroke="black"/><line x1="-259.8076211353312" y1="-950.0000000000034" x2="-259.8076211353312" y2="-950.0000000000034" stroke-width="5" stroke="black"/><line x1="-259.8076211353312" y1="-950.0000000000034" x2="-259.8076211353312" y2="-1050.0000000000034" stroke-width="5" stroke="black"/><line x1="-259.8076211353312" y1="-1050.0000000000034" x2="-259.8076211353312" y2="-1050.0000000000034" stroke-width="5" stroke="black"/><line x1="-259.8076211353312" y1="-1050.0000000000034" x2="-173.2050807568873" y2="-1000.0000000000035" stroke-width="5" stroke="black"/><line x1="-173.2050807568873" y1="-1000.0000000000035" x2="-173.2050807568873" y2="-1000.0000000000035" stroke-width="5" stroke="black"/><line x1="-173.2050807568873" y1="-1000.0000000000035" x2="-173.20508075688733" y2="-1100.0000000000036" stroke-width="5" stroke="black"/><line x1="-173.20508075688733" y1="-1100.0000000000036" x2="-173.20508075688733" y2="-1100.0000000000036" stroke-width="5" stroke="black"/><line x1="-173.20508075688733" y1="-1100.0000000000036" x2="-86.60254037844342" y2="-1050.0000000000036" stroke-width="5" stroke="black"/><line x1="-86.60254037844342" y1="-1050.0000000000036" x2="4.831690603168681E-13" y2="-1000.0000000000038" stroke-width="5" stroke="black"/><line x1="4.831690603168681E-13" y1="-1000.0000000000038" x2="4.831690603168681E-13" y2="-1000.0000000000038" stroke-width="5" stroke="black"/><line x1="4.831690603168681E-13" y1="-1000.0000000000038" x2="4.647993583296578E-13" y2="-1100.0000000000036" stroke-width="5" stroke="black"/><line x1="4.647993583296578E-13" y1="-1100.0000000000036" x2="4.647993583296578E-13" y2="-1100.0000000000036" stroke-width="5" stroke="black"/><line x1="4.647993583296578E-13" y1="-1100.0000000000036" x2="-86.60254037844341" y2="-1050.0000000000036" stroke-width="5" stroke="black"/><line x1="-86.60254037844341" y1="-1050.0000000000036" x2="-86.60254037844341" y2="-1050.0000000000036" stroke-width="5" stroke="black"/><line x1="-86.60254037844341" y1="-1050.0000000000036" x2="-86.60254037844342" y2="-1150.0000000000036" stroke-width="5" stroke="black"/><line x1="-86.60254037844342" y1="-1150.0000000000036" x2="-86.60254037844342" y2="-1150.0000000000036" stroke-width="5" stroke="black"/><line x1="-86.60254037844342" y1="-1150.0000000000036" x2="4.831690603168681E-13" y2="-1100.0000000000036" stroke-width="5" stroke="black"/><line x1="4.831690603168681E-13" y1="-1100.0000000000036" x2="4.831690603168681E-13" y2="-1100.0000000000036" stroke-width="5" stroke="black"/><line x1="4.831690603168681E-13" y1="-1100.0000000000036" x2="4.647993583296578E-13" y2="-1200.0000000000036" stroke-width="5" stroke="black"/><line x1="4.647993583296578E-13" y1="-1200.0000000000036" x2="4.647993583296578E-13" y2="-1200.0000000000036" stroke-width="5" stroke="black"/><line x1="4.647993583296578E-13" y1="-1200.0000000000036" x2="-86.60254037844341" y2="-1150.0000000000036" stroke-width="5" stroke="black"/><line x1="-86.60254037844341" y1="-1150.0000000000036" x2="-173.2050807568873" y2="-1100.0000000000036" stroke-width="5" stroke="black"/><line x1="-173.2050807568873" y1="-1100.0000000000036" x2="-259.80762113533115" y2="-1050.0000000000036" stroke-width="5" stroke="black"/><line x1="-259.80762113533115" y1="-1050.0000000000036" x2="-346.41016151377505" y2="-1000.0000000000036" stroke-width="5" stroke="black"/><line x1="-346.41016151377505" y1="-1000.0000000000036" x2="-346.41016151377505" y2="-1000.0000000000036" stroke-width="5" stroke="black"/><line x1="-346.41016151377505" y1="-1000.0000000000036" x2="-346.41016151377505" y2="-1100.0000000000036" stroke-width="5" stroke="black"/><line x1="-346.41016151377505" y1="-1100.0000000000036" x2="-346.41016151377505" y2="-1100.0000000000036" stroke-width="5" stroke="black"/><line x1="-346.41016151377505" y1="-1100.0000000000036" x2="-433.01270189221896" y2="-1050.0000000000036" stroke-width="5" stroke="black"/><line x1="-433.01270189221896" y1="-1050.0000000000036" x2="-433.01270189221896" y2="-1050.0000000000036" stroke-width="5" stroke="black"/><line x1="-433.01270189221896" y1="-1050.0000000000036" x2="-433.01270189221896" y2="-1150.0000000000036" stroke-width="5" stroke="black"/><line x1="-433.01270189221896" y1="-1150.0000000000036" x2="-433.01270189221896" y2="-1150.0000000000036" stroke-width="5" stroke="black"/><line x1="-433.01270189221896" y1="-1150.0000000000036" x2="-346.41016151377505" y2="-1100.0000000000036" stroke-width="5" stroke="black"/><line x1="-346.41016151377505" y1="-1100.0000000000036" x2="-346.41016151377505" y2="-1100.0000000000036" stroke-width="5" stroke="black"/><line x1="-346.41016151377505" y1="-1100.0000000000036" x2="-346.41016151377505" y2="-1200.0000000000036" stroke-width="5" stroke="black"/><line x1="-346.41016151377505" y1="-1200.0000000000036" x2="-346.41016151377505" y2="-1200.0000000000036" stroke-width="5" stroke="black"/><line x1="-346.41016151377505" y1="-1200.0000000000036" x2="-433.01270189221896" y2="-1150.0000000000036" stroke-width="5" stroke="black"/><line x1="-433.01270189221896" y1="-1150.0000000000036" x2="-519.6152422706629" y2="-1100.0000000000036" stroke-width="5" stroke="black"/><line x1="-519.6152422706629" y1="-1100.0000000000036" x2="-519.6152422706629" y2="-1100.0000000000036" stroke-width="5" stroke="black"/><line x1="-519.6152422706629" y1="-1100.0000000000036" x2="-519.6152422706629" y2="-1200.0000000000036" stroke-width="5" stroke="black"/><line x1="-519.6152422706629" y1="-1200.0000000000036" x2="-519.6152422706629" y2="-1200.0000000000036" stroke-width="5" stroke="black"/><line x1="-519.6152422706629" y1="-1200.0000000000036" x2="-606.2177826491068" y2="-1150.0000000000036" stroke-width="5" stroke="black"/><line x1="-606.2177826491068" y1="-1150.0000000000036" x2="-606.2177826491068" y2="-1150.0000000000036" stroke-width="5" stroke="black"/><line x1="-606.2177826491068" y1="-1150.0000000000036" x2="-606.2177826491068" y2="-1250.0000000000036" stroke-width="5" stroke="black"/><line x1="-606.2177826491068" y1="-1250.0000000000036" x2="-606.2177826491068" y2="-1250.0000000000036" stroke-width="5" stroke="black"/><line x1="-606.2177826491068" y1="-1250.0000000000036" x2="-519.6152422706629" y2="-1200.0000000000036" stroke-width="5" stroke="black"/><line x1="-519.6152422706629" y1="-1200.0000000000036" x2="-519.6152422706629" y2="-1200.0000000000036" stroke-width="5" stroke="black"/><line x1="-519.6152422706629" y1="-1200.0000000000036" x2="-519.6152422706629" y2="-1300.0000000000036" stroke-width="5" stroke="black"/><line x1="-519.6152422706629" y1="-1300.0000000000036" x2="-519.6152422706629" y2="-1300.0000000000036" stroke-width="5" stroke="black"/><line x1="-519.6152422706629" y1="-1300.0000000000036" x2="-433.01270189221896" y2="-1250.0000000000036" stroke-width="5" stroke="black"/><line x1="-433.01270189221896" y1="-1250.0000000000036" x2="-346.41016151377505" y2="-1200.0000000000036" stroke-width="5" stroke="black"/><line x1="-346.41016151377505" y1="-1200.0000000000036" x2="-346.41016151377505" y2="-1200.0000000000036" stroke-width="5" stroke="black"/><line x1="-346.41016151377505" y1="-1200.0000000000036" x2="-346.41016151377505" y2="-1300.0000000000036" stroke-width="5" stroke="black"/><line x1="-346.41016151377505" y1="-1300.0000000000036" x2="-346.41016151377505" y2="-1300.0000000000036" stroke-width="5" stroke="black"/><line x1="-346.41016151377505" y1="-1300.0000000000036" x2="-433.01270189221896" y2="-1250.0000000000036" stroke-width="5" stroke="black"/><line x1="-433.01270189221896" y1="-1250.0000000000036" x2="-433.01270189221896" y2="-1250.0000000000036" stroke-width="5" stroke="black"/><line x1="-433.01270189221896" y1="-1250.0000000000036" x2="-433.01270189221896" y2="-1350.0000000000036" stroke-width="5" stroke="black"/><line x1="-433.01270189221896" y1="-1350.0000000000036" x2="-433.01270189221896" y2="-1350.0000000000036" stroke-width="5" stroke="black"/><line x1="-433.01270189221896" y1="-1350.0000000000036" x2="-346.41016151377505" y2="-1300.0000000000036" stroke-width="5" stroke="black"/><line x1="-346.41016151377505" y1="-1300.0000000000036" x2="-346.41016151377505" y2="-1300.0000000000036" stroke-width="5" stroke="black"/><line x1="-346.41016151377505" y1="-1300.0000000000036" x2="-346.41016151377505" y2="-1400.0000000000036" stroke-width="5" stroke="black"/><line x1="-346.41016151377505" y1="-1400.0000000000036" x2="-346.41016151377505" y2="-1400.0000000000036" stroke-width="5" stroke="black"/><line x1="-346.41016151377505" y1="-1400.0000000000036" x2="-259.80762113533115" y2="-1350.0000000000036" stroke-width="5" stroke="black"/><line x1="-259.80762113533115" y1="-1350.0000000000036" x2="-173.20508075688724" y2="-1300.0000000000036" stroke-width="5" stroke="black"/><line x1="-173.20508075688724" y1="-1300.0000000000036" x2="-86.60254037844334" y2="-1250.0000000000036" stroke-width="5" stroke="black"/><line x1="-86.60254037844334" y1="-1250.0000000000036" x2="5.684341886080801E-13" y2="-1200.0000000000036" stroke-width="5" stroke="black"/><line x1="5.684341886080801E-13" y1="-1200.0000000000036" x2="5.684341886080801E-13" y2="-1200.0000000000036" stroke-width="5" stroke="black"/><line x1="5.684341886080801E-13" y1="-1200.0000000000036" x2="5.500644866208698E-13" y2="-1300.0000000000036" stroke-width="5" stroke="black"/><line x1="5.500644866208698E-13" y1="-1300.0000000000036" x2="5.500644866208698E-13" y2="-1300.0000000000036" stroke-width="5" stroke="black"/><line x1="5.500644866208698E-13" y1="-1300.0000000000036" x2="-86.60254037844332" y2="-1250.0000000000036" stroke-width="5" stroke="black"/><line x1="-86.60254037844332" y1="-1250.0000000000036" x2="-86.60254037844332" y2="-1250.0000000000036" stroke-width="5" stroke="black"/><line x1="-86.60254037844332" y1="-1250.0000000000036" x2="-86.60254037844334" y2="-1350.0000000000036" stroke-width="5" stroke="black"/><line x1="-86.60254037844334" y1="-1350.0000000000036" x2="-86.60254037844334" y2="-1350.0000000000036" stroke-width="5" stroke="black"/><line x1="-86.60254037844334" y1="-1350.0000000000036" x2="5.684341886080801E-13" y2="-1300.0000000000036" stroke-width="5" stroke="black"/><line x1="5.684341886080801E-13" y1="-1300.0000000000036" x2="5.684341886080801E-13" y2="-1300.0000000000036" stroke-width="5" stroke="black"/><line x1="5.684341886080801E-13" y1="-1300.0000000000036" x2="5.500644866208698E-13" y2="-1400.0000000000036" stroke-width="5" stroke="black"/><line x1="5.500644866208698E-13" y1="-1400.0000000000036" x2="5.500644866208698E-13" y2="-1400.0000000000036" stroke-width="5" stroke="black"/><line x1="5.500644866208698E-13" y1="-1400.0000000000036" x2="-86.60254037844332" y2="-1350.0000000000036" stroke-width="5" stroke="black"/><line x1="-86.60254037844332" y1="-1350.0000000000036" x2="-173.20508075688718" y2="-1300.0000000000036" stroke-width="5" stroke="black"/><line x1="-173.20508075688718" y1="-1300.0000000000036" x2="-173.20508075688718" y2="-1300.0000000000036" stroke-width="5" stroke="black"/><line x1="-173.20508075688718" y1="-1300.0000000000036" x2="-173.2050807568872" y2="-1400.0000000000036" stroke-width="5" stroke="black"/><line x1="-173.2050807568872" y1="-1400.0000000000036" x2="-173.2050807568872" y2="-1400.0000000000036" stroke-width="5" stroke="black"/><line x1="-173.2050807568872" y1="-1400.0000000000036" x2="-259.8076211353311" y2="-1350.0000000000036" stroke-width="5" stroke="black"/><line x1="-259.8076211353311" y1="-1350.0000000000036" x2="-259.8076211353311" y2="-1350.0000000000036" stroke-width="5" stroke="black"/><line x1="-259.8076211353311" y1="-1350.0000000000036" x2="-259.8076211353311" y2="-1450.0000000000036" stroke-width="5" stroke="black"/><line x1="-259.8076211353311" y1="-1450.0000000000036" x2="-259.8076211353311" y2="-1450.0000000000036" stroke-width="5" stroke="black"/><line x1="-259.8076211353311" y1="-1450.0000000000036" x2="-173.20508075688718" y2="-1400.0000000000036" stroke-width="5" stroke="black"/><line x1="-173.20508075688718" y1="-1400.0000000000036" x2="-173.20508075688718" y2="-1400.0000000000036" stroke-width="5" stroke="black"/><line x1="-173.20508075688718" y1="-1400.0000000000036" x2="-173.2050807568872" y2="-1500.0000000000036" stroke-width="5" stroke="black"/><line x1="-173.2050807568872" y1="-1500.0000000000036" x2="-173.2050807568872" y2="-1500.0000000000036" stroke-width="5" stroke="black"/><line x1="-173.2050807568872" y1="-1500.0000000000036" x2="-86.60254037844331" y2="-1450.0000000000036" stroke-width="5" stroke="black"/><line x1="-86.60254037844331" y1="-1450.0000000000036" x2="5.968558980384842E-13" y2="-1400.0000000000036" stroke-width="5" stroke="black"/><line x1="5.968558980384842E-13" y1="-1400.0000000000036" x2="5.968558980384842E-13" y2="-1400.0000000000036" stroke-width="5" stroke="black"/><line x1="5.968558980384842E-13" y1="-1400.0000000000036" x2="5.784861960512738E-13" y2="-1500.0000000000036" stroke-width="5" stroke="black"/><line x1="5.784861960512738E-13" y1="-1500.0000000000036" x2="5.784861960512738E-13" y2="-1500.0000000000036" stroke-width="5" stroke="black"/><line x1="5.784861960512738E-13" y1="-1500.0000000000036" x2="-86.6025403784433" y2="-1450.0000000000036" stroke-width="5" stroke="black"/><line x1="-86.6025403784433" y1="-1450.0000000000036" x2="-86.6025403784433" y2="-1450.0000000000036" stroke-width="5" stroke="black"/><line x1="-86.6025403784433" y1="-1450.0000000000036" x2="-86.60254037844331" y2="-1550.0000000000036" stroke-width="5" stroke="black"/><line x1="-86.60254037844331" y1="-1550.0000000000036" x2="-86.60254037844331" y2="-1550.0000000000036" stroke-width="5" stroke="black"/><line x1="-86.60254037844331" y1="-1550.0000000000036" x2="5.968558980384842E-13" y2="-1500.0000000000036" stroke-width="5" stroke="black"/><line x1="5.968558980384842E-13" y1="-1500.0000000000036" x2="5.968558980384842E-13" y2="-1500.0000000000036" stroke-width="5" stroke="black"/><line x1="5.968558980384842E-13" y1="-1500.0000000000036" x2="5.784861960512738E-13" y2="-1600.0000000000036" stroke-width="5" stroke="black"/><line x1="5.784861960512738E-13" y1="-1600.0000000000036" x2="5.784861960512738E-13" y2="-1600.0000000000036" stroke-width="5" stroke="black"/><line x1="5.784861960512738E-13" y1="-1600.0000000000036" x2="-86.6025403784433" y2="-1550.0000000000036" stroke-width="5" stroke="black"/><line x1="-86.6025403784433" y1="-1550.0000000000036" x2="-173.20508075688718" y2="-1500.0000000000036" stroke-width="5" stroke="black"/><line x1="-173.20508075688718" y1="-1500.0000000000036" x2="-259.80762113533103" y2="-1450.0000000000036" stroke-width="5" stroke="black"/><line x1="-259.80762113533103" y1="-1450.0000000000036" x2="-346.41016151377494" y2="-1400.0000000000036" stroke-width="5" stroke="black"/><line x1="-346.41016151377494" y1="-1400.0000000000036" x2="-433.01270189221884" y2="-1350.0000000000036" stroke-width="5" stroke="black"/><line x1="-433.01270189221884" y1="-1350.0000000000036" x2="-519.6152422706627" y2="-1300.0000000000036" stroke-width="5" stroke="black"/><line x1="-519.6152422706627" y1="-1300.0000000000036" x2="-606.2177826491067" y2="-1250.0000000000036" stroke-width="5" stroke="black"/><line x1="-606.2177826491067" y1="-1250.0000000000036" x2="-692.8203230275506" y2="-1200.0000000000036" stroke-width="5" stroke="black"/><line x1="-692.8203230275506" y1="-1200.0000000000036" x2="-779.4228634059945" y2="-1150.0000000000036" stroke-width="5" stroke="black"/><line x1="-779.4228634059945" y1="-1150.0000000000036" x2="-866.0254037844384" y2="-1100.0000000000036" stroke-width="5" stroke="black"/><line x1="-866.0254037844384" y1="-1100.0000000000036" x2="-952.6279441628823" y2="-1050.0000000000036" stroke-width="5" stroke="black"/><line x1="-952.6279441628823" y1="-1050.0000000000036" x2="-1039.2304845413262" y2="-1000.0000000000036" stroke-width="5" stroke="black"/><line x1="-1039.2304845413262" y1="-1000.0000000000036" x2="-1125.83302491977" y2="-950.0000000000036" stroke-width="5" stroke="black"/><line x1="-1125.83302491977" y1="-950.0000000000036" x2="-1212.4355652982138" y2="-900.0000000000036" stroke-width="5" stroke="black"/><line x1="-1212.4355652982138" y1="-900.0000000000036" x2="-1299.0381056766576" y2="-850.0000000000036" stroke-width="5" stroke="black"/><line x1="-1299.0381056766576" y1="-850.0000000000036" x2="-1385.6406460551013" y2="-800.0000000000036" stroke-width="5" stroke="black"/><line x1="-1385.6406460551013" y1="-800.0000000000036" x2="-1385.6406460551013" y2="-800.0000000000036" stroke-width="5" stroke="black"/><line x1="-1385.6406460551013" y1="-800.0000000000036" x2="-1299.0381056766576" y2="-750.0000000000036" stroke-width="5" stroke="black"/><line x1="-1299.0381056766576" y1="-750.0000000000036" x2="-1212.4355652982138" y2="-700.0000000000036" stroke-width="5" stroke="black"/><line x1="-1212.4355652982138" y1="-700.0000000000036" x2="-1125.83302491977" y2="-650.0000000000036" stroke-width="5" stroke="black"/><line x1="-1125.83302491977" y1="-650.0000000000036" x2="-1039.2304845413262" y2="-600.0000000000036" stroke-width="5" stroke="black"/><line x1="-1039.2304845413262" y1="-600.0000000000036" x2="-952.6279441628824" y2="-550.0000000000036" stroke-width="5" stroke="black"/><line x1="-952.6279441628824" y1="-550.0000000000036" x2="-866.0254037844386" y2="-500.00000000000364" stroke-width="5" stroke="black"/><line x1="-866.0254037844386" y1="-500.00000000000364" x2="-779.4228634059948" y2="-450.00000000000364" stroke-width="5" stroke="black"/><line x1="-779.4228634059948" y1="-450.00000000000364" x2="-692.820323027551" y2="-400.00000000000364" stroke-width="5" stroke="black"/><line x1="-692.820323027551" y1="-400.00000000000364" x2="-606.2177826491072" y2="-350.00000000000364" stroke-width="5" stroke="black"/><line x1="-606.2177826491072" y1="-350.00000000000364" x2="-519.6152422706634" y2="-300.00000000000364" stroke-width="5" stroke="black"/><line x1="-519.6152422706634" y1="-300.00000000000364" x2="-433.0127018922196" y2="-250.0000000000036" stroke-width="5" stroke="black"/><line x1="-433.0127018922196" y1="-250.0000000000036" x2="-346.41016151377573" y2="-200.00000000000358" stroke-width="5" stroke="black"/><line x1="-346.41016151377573" y1="-200.00000000000358" x2="-259.8076211353319" y2="-150.00000000000355" stroke-width="5" stroke="black"/><line x1="-259.8076211353319" y1="-150.00000000000355" x2="-173.20508075688804" y2="-100.00000000000352" stroke-width="5" stroke="black"/><line x1="-173.20508075688804" y1="-100.00000000000352" x2="-86.60254037844419" y2="-50.0000000000035" stroke-width="5" stroke="black"/><line x1="-86.60254037844419" y1="-50.0000000000035" x2="-3.410605131648481E-13" y2="-3.481659405224491E-12" stroke-width="5" stroke="black"/><line x1="-3.410605131648481E-13" y1="-3.481659405224491E-12" x2="-3.410605131648481E-13" y2="-3.481659405224491E-12" stroke-width="5" stroke="black"/></svg>